<svg width="415" height="351" viewBox="0 0 415 351" fill="none" xmlns="http://www.w3.org/2000/svg">
<path d="M-59.0843 208.085C-4.95908 237.628 63.0956 224.305 102.109 176.527C106.426 171.24 114.062 170.12 119.724 173.931L142.829 189.474C149.236 193.786 150.583 202.632 145.791 208.694C133.573 224.146 119.072 237.397 102.542 248.191C82.7368 261.124 60.8842 269.995 37.5844 274.557C14.2845 279.119 -9.29867 279.143 -32.5092 274.632C-51.8863 270.864 -70.305 264.065 -87.44 254.357C-94.1587 250.549 -96.2428 241.846 -91.932 235.435L-76.3825 212.323C-72.5698 206.658 -65.0715 204.814 -59.0843 208.085Z" fill="#FAF8F5"/>
<path d="M107.716 70.7703C92.7459 10.9496 36.8156 -30.0481 -24.7568 -26.343C-31.5714 -25.9335 -37.5709 -30.7908 -38.6069 -37.5348L-42.8434 -65.0566C-44.02 -72.6918 -38.4262 -79.6766 -30.7201 -80.2627C-11.0794 -81.756 8.49298 -80.074 27.6357 -75.2408C50.5693 -69.4482 71.9046 -59.3925 91.0513 -45.3586C110.198 -31.3247 126.205 -14.0031 138.625 6.12046C148.994 22.9202 156.475 41.0727 160.956 60.2489C162.715 67.7717 157.728 75.2021 150.09 76.3783L122.554 80.6133C115.808 81.653 109.371 77.3899 107.716 70.7703Z" fill="#FAF8F5"/>
<path d="M275.992 26.6627C337.002 17.5624 383.243 -34.1133 385.516 -95.7324C385.769 -102.553 391.186 -108.048 398 -108.43L425.813 -109.979C433.527 -110.409 439.944 -104.166 439.78 -96.447C439.362 -76.761 435.796 -57.4523 429.126 -38.8743C421.139 -16.6192 409.06 3.63686 393.23 21.3278C377.4 39.0187 358.603 53.2653 337.364 63.6743C319.634 72.3612 300.833 78.0494 281.309 80.6507C273.651 81.6703 266.732 75.9901 266.302 68.2787L264.752 40.4758C264.379 33.6636 269.242 27.6703 275.992 26.6627Z" fill="#FAF8F5"/>
<path d="M315.871 146.975C347.312 200.02 412.623 223.329 470.568 202.181C476.98 199.841 484.117 202.779 487.038 208.948L498.962 234.112C502.267 241.092 498.907 249.384 491.691 252.148C473.295 259.191 454.06 263.177 434.334 264.012C410.702 265.014 387.384 261.478 365.023 253.499C342.662 245.52 322.375 233.494 304.725 217.76C289.991 204.623 277.63 189.369 267.858 172.271C264.026 165.566 266.68 157.019 273.661 153.709L298.835 141.782C305.006 138.86 312.394 141.105 315.871 146.975Z" fill="#FAF8F5"/>
</svg>
