<svg width="422" height="299" viewBox="0 0 422 299" fill="none" xmlns="http://www.w3.org/2000/svg">
<g filter="url(#filter0_d_289_2)">
<mask id="mask0_289_2" style="mask-type:alpha" maskUnits="userSpaceOnUse" x="4" y="0" width="414" height="291">
<rect x="4" width="414" height="290.064" rx="20" fill="#AFDBC5"/>
</mask>
<g mask="url(#mask0_289_2)">
<path d="M397.995 -8.7662H8.34521C-2.70048 -8.7662 -11.6548 0.188089 -11.6548 11.2338V400.883C-11.6548 411.929 -2.70049 420.883 8.3452 420.883H397.995C409.04 420.883 417.995 411.929 417.995 400.883V11.2338C417.995 0.188101 409.04 -8.7662 397.995 -8.7662Z" fill="#4C53B4"/>
<path d="M355.368 242.381C391.217 168.263 352.133 75.2197 268.072 34.562C184.011 -6.0958 86.8051 21.0287 50.9567 95.1461C15.1083 169.264 54.1922 262.307 138.253 302.965C222.314 343.623 319.52 316.498 355.368 242.381Z" fill="#5F65BF"/>
<path d="M392.551 37.799C392.324 37.571 392.091 37.3527 391.852 37.1443C389.277 34.8957 384.464 27.179 382.634 24.2909V24.2909C380.654 21.163 376.512 19.5046 372.787 20.351C372.3 20.4613 371.825 20.6063 371.365 20.7831C370.06 21.2853 365.571 19.5727 365.049 18.2758V18.2758C363.76 15.0792 361.087 12.6903 358.067 12.0416C354.385 11.251 350.101 13.1458 347.644 16.656C347.226 17.2528 346.844 17.8941 346.503 18.5699C345.848 19.8654 342.038 20.4472 340.795 19.6979V19.6979C337.998 18.0137 334.213 17.9621 331.149 19.5604C328.297 21.0513 326.062 23.9343 325.173 27.2812V27.2812C324.528 29.7163 320.092 32.3609 317.575 32.4601C317.233 32.4736 316.883 32.5109 316.524 32.5745C314.024 33.017 311.957 34.5552 310.857 36.7937C309.761 39.0193 309.804 41.5757 310.969 43.8098C312.937 47.5822 316.962 49.9366 323.27 51.0065C327.635 51.7455 332.129 51.7927 336.473 51.8357C337.281 51.8443 338.084 51.8529 338.892 51.8658C339.528 51.8744 340.09 51.8873 340.61 51.9044C344.172 52.0162 347.738 52.0892 351.205 52.1193C352.696 52.1322 354.179 52.1407 355.665 52.1407C361.057 52.1407 366.394 52.0462 371.588 51.8615C372.873 51.8142 374.179 51.7455 375.442 51.681C377.307 51.5822 379.231 51.4834 381.126 51.4533C384.314 51.3975 387.163 51.2557 389.758 50.0956C392.001 49.0902 395 47.3673 395.202 44.0118C395.33 41.885 394.364 39.6208 392.551 37.799Z" fill="#93A1ED"/>
<path d="M413.118 105.671C412.961 105.514 412.8 105.363 412.635 105.219C410.848 103.66 407.517 98.3175 406.248 96.3135V96.3135C404.877 94.1481 402.007 92.9966 399.429 93.5809C399.092 93.6576 398.763 93.7581 398.445 93.8805C397.534 94.2312 394.432 93.0477 394.067 92.1416V92.1416C393.178 89.9289 391.322 88.2748 389.23 87.8236C386.682 87.2737 383.713 88.5884 382.011 91.0202C381.722 91.4346 381.457 91.8798 381.22 92.3492C380.767 93.2462 378.13 93.6473 377.268 93.1298V93.1298C375.33 91.9654 372.71 91.9268 370.587 93.0353C368.611 94.0664 367.064 96.0643 366.45 98.3844V98.3844C366.002 100.068 362.926 101.904 361.186 101.974C360.949 101.984 360.708 102.01 360.46 102.054C358.729 102.359 357.298 103.424 356.533 104.975C355.777 106.518 355.803 108.288 356.611 109.835C357.973 112.447 360.761 114.079 365.131 114.818C368.155 115.33 371.266 115.364 374.278 115.394C374.836 115.399 375.395 115.407 375.953 115.416C376.396 115.424 376.783 115.433 377.144 115.441C379.61 115.519 382.08 115.57 384.482 115.592C385.513 115.6 386.544 115.605 387.571 115.605C391.305 115.605 395.004 115.54 398.6 115.411C399.49 115.381 400.396 115.334 401.268 115.287C402.557 115.218 403.894 115.149 405.204 115.128C407.412 115.089 409.384 114.99 411.18 114.187C412.731 113.491 414.811 112.296 414.953 109.972C415.043 108.498 414.373 106.93 413.118 105.671Z" fill="#93A1ED"/>
<path d="M36.4363 192.693C36.3195 192.575 36.1995 192.463 36.0766 192.356C34.7472 191.198 32.265 187.215 31.3234 185.724V185.724C30.3009 184.108 28.1655 183.253 26.245 183.691C25.9931 183.748 25.7476 183.823 25.5101 183.915C24.8401 184.173 22.5212 183.288 22.2535 182.622V182.622C21.5876 180.972 20.2084 179.739 18.6531 179.404C16.754 178.995 14.5413 179.975 13.2739 181.784C13.0581 182.092 12.8612 182.424 12.6845 182.773C12.3471 183.441 10.3792 183.742 9.73784 183.356V183.356C8.29422 182.488 6.34361 182.463 4.7625 183.288C3.2888 184.057 2.13734 185.543 1.67762 187.27V187.27C1.3424 188.524 -0.945731 189.891 -2.24213 189.944C-2.41792 189.951 -2.5978 189.97 -2.78214 190.003C-4.07109 190.231 -5.13662 191.026 -5.70805 192.181C-6.27089 193.328 -6.25371 194.648 -5.6522 195.799C-4.63823 197.745 -2.56302 198.961 0.693722 199.511C2.94508 199.894 5.26519 199.915 7.50796 199.941C7.92472 199.945 8.34148 199.949 8.75395 199.954C9.08478 199.958 9.37264 199.967 9.63902 199.975C11.4779 200.031 13.3168 200.07 15.1042 200.087C15.8732 200.095 16.638 200.1 17.4028 200.1C20.1826 200.1 22.9367 200.053 25.6177 199.954C26.2793 199.928 26.9539 199.894 27.607 199.859C28.5694 199.808 29.5619 199.756 30.5372 199.739C32.1827 199.709 33.6521 199.64 34.9883 199.039C36.1441 198.519 37.6951 197.629 37.7982 195.902C37.867 194.802 37.3686 193.634 36.4363 192.693Z" fill="#93A1ED"/>
<path d="M413.703 213.354C413.591 213.242 413.476 213.134 413.358 213.032C412.084 211.92 409.693 208.088 408.788 206.66V206.66C407.808 205.109 405.754 204.288 403.911 204.705C403.669 204.76 403.433 204.832 403.205 204.92C402.556 205.169 400.336 204.322 400.074 203.678V203.678C399.438 202.093 398.111 200.911 396.616 200.589C394.794 200.198 392.667 201.134 391.451 202.875C391.244 203.171 391.055 203.489 390.885 203.825C390.56 204.468 388.676 204.753 388.057 204.383V204.383C386.674 203.549 384.796 203.523 383.279 204.314C381.866 205.053 380.757 206.484 380.319 208.138V208.138C379.997 209.347 377.802 210.657 376.551 210.707C376.383 210.714 376.212 210.732 376.035 210.763C374.798 210.982 373.771 211.743 373.226 212.855C372.684 213.96 372.701 215.223 373.281 216.331C374.257 218.2 376.25 219.369 379.378 219.897C381.539 220.263 383.769 220.288 385.922 220.31C386.321 220.314 386.721 220.318 387.12 220.323C387.438 220.327 387.713 220.336 387.971 220.34C389.737 220.396 391.503 220.43 393.221 220.447C393.96 220.456 394.695 220.456 395.43 220.456C398.102 220.456 400.745 220.409 403.318 220.318C403.954 220.297 404.603 220.263 405.23 220.228C406.154 220.181 407.108 220.129 408.044 220.116C409.625 220.091 411.035 220.018 412.319 219.442C413.428 218.944 414.919 218.089 415.018 216.426C415.082 215.377 414.601 214.26 413.703 213.354Z" fill="#93A1ED"/>
<path d="M42.9373 102.986C42.8178 102.866 42.695 102.751 42.5693 102.641C41.2124 101.46 38.6837 97.3995 37.7214 95.8792V95.8792C36.6816 94.2336 34.499 93.3615 32.5398 93.804C32.2831 93.8623 32.0329 93.939 31.7908 94.0324C31.0974 94.2999 28.745 93.4019 28.4668 92.7127V92.7127C27.7879 91.0328 26.383 89.7739 24.7933 89.4302C22.8555 89.0134 20.5999 90.0102 19.3066 91.8577C19.0874 92.1712 18.8874 92.5078 18.708 92.8625C18.3641 93.5426 16.3549 93.8489 15.7019 93.456V93.456C14.2325 92.5709 12.2389 92.5408 10.6277 93.3829C9.12824 94.1649 7.951 95.6859 7.48268 97.4474V97.4474C7.14314 98.7289 4.80778 100.123 3.48314 100.176C3.30397 100.183 3.12062 100.203 2.93269 100.236C1.61797 100.468 0.530954 101.28 -0.0490725 102.457C-0.624803 103.626 -0.60332 104.975 0.0110782 106.148C1.04653 108.133 3.16471 109.37 6.48589 109.937C8.78452 110.328 11.1476 110.35 13.4333 110.376C13.8587 110.38 14.2797 110.384 14.7051 110.388C15.0402 110.393 15.3367 110.401 15.6116 110.41C17.4849 110.47 19.3625 110.504 21.1885 110.526C21.9705 110.535 22.7524 110.539 23.5344 110.539C26.3701 110.539 29.18 110.487 31.9125 110.393C32.5871 110.367 33.2745 110.333 33.9405 110.298C34.9201 110.247 35.9341 110.195 36.9308 110.178C38.6065 110.148 40.1103 110.075 41.4722 109.465C42.6495 108.936 44.2306 108.03 44.338 106.264C44.4025 105.134 43.8912 103.944 42.9373 102.986Z" fill="#93A1ED"/>
<path d="M90.4691 296.186C90.2211 295.937 89.9663 295.698 89.7053 295.47C86.8792 293.003 81.5987 284.535 79.5946 281.363V281.363C77.4249 277.93 72.8792 276.113 68.7933 277.037C68.257 277.158 67.7344 277.318 67.2288 277.513C65.7956 278.065 60.876 276.189 60.3034 274.764V274.764C58.8898 271.258 55.9553 268.637 52.6427 267.924C48.604 267.056 43.9037 269.136 41.2055 272.985C40.7465 273.64 40.3282 274.344 39.9535 275.085C39.2333 276.51 35.0551 277.146 33.6866 276.324V276.324C30.6189 274.476 26.4642 274.42 23.1043 276.173C19.9765 277.806 17.5232 280.972 16.5479 284.646V284.646C15.8368 287.319 10.9741 290.219 8.21046 290.329C7.8364 290.344 7.45359 290.385 7.06122 290.455C4.31577 290.94 2.05151 292.629 0.844197 295.082C-0.358821 297.522 -0.311559 300.328 0.9645 302.781C3.12134 306.919 7.53814 309.501 14.4641 310.678C19.2547 311.49 24.1828 311.542 28.9519 311.589C29.8369 311.598 30.722 311.606 31.6028 311.619C32.3031 311.628 32.9175 311.645 33.489 311.662C37.3945 311.782 41.3086 311.864 45.1153 311.898C46.7479 311.916 48.3806 311.92 50.0047 311.92C55.921 311.92 61.7771 311.817 67.4742 311.611C68.8835 311.559 70.3185 311.486 71.702 311.413C73.7471 311.306 75.861 311.198 77.9362 311.159C81.4335 311.099 84.5614 310.945 87.4057 309.669C89.8633 308.564 93.1587 306.674 93.3778 302.996C93.5196 300.667 92.4583 298.188 90.4691 296.186Z" fill="#93A1ED"/>
<path d="M77.5322 23.3889C77.3109 23.1666 77.0835 22.9537 76.8507 22.7506C74.331 20.5518 69.6309 13.008 67.8436 10.1814V10.1814C65.9102 7.12234 61.8586 5.50256 58.2195 6.32749C57.7424 6.43578 57.2775 6.57787 56.8277 6.75095C55.5514 7.24201 51.1638 5.56818 50.6534 4.29954V4.29954C49.3945 1.17599 46.7779 -1.1613 43.8262 -1.79289C40.2301 -2.56626 36.0367 -0.714467 33.635 2.71843C33.2261 3.30158 32.8534 3.9282 32.5195 4.5887C31.877 5.85934 28.1574 6.42457 26.9367 5.69161V5.69161C24.2041 4.04605 20.5006 3.99449 17.5059 5.55841C14.7175 7.01493 12.5349 9.83772 11.6627 13.1074V13.1074C11.0327 15.4853 6.69386 18.0737 4.23588 18.1724C3.90244 18.1858 3.5612 18.2224 3.21148 18.2846C0.766773 18.7186 -1.25258 20.2223 -2.3267 22.4093C-3.39653 24.5833 -3.35786 27.0838 -2.21929 29.2665C-0.294461 32.9529 3.63683 35.2558 9.8066 36.3041C14.073 37.0302 18.4683 37.0732 22.7133 37.1162C23.4995 37.1248 24.2901 37.1333 25.0763 37.1419C25.6993 37.1505 26.2493 37.1634 26.7563 37.1806C30.2364 37.288 33.7209 37.3611 37.1151 37.3911C38.5716 37.404 40.0238 37.4126 41.4718 37.4126C46.7393 37.4126 51.9595 37.3224 57.0379 37.1376C58.2925 37.0904 59.5729 37.0259 60.806 36.9615C62.6277 36.867 64.5096 36.7681 66.3613 36.7381C69.4763 36.6822 72.2647 36.5447 74.7997 35.4104C76.9909 34.4266 79.9254 32.7423 80.123 29.4641C80.2519 27.3803 79.3067 25.1676 77.5322 23.3889Z" fill="#93A1ED"/>
<path d="M315.541 173.638C314.846 172.94 314.133 172.272 313.402 171.635C305.503 164.742 290.742 141.071 285.139 132.211V132.211C279.068 122.617 266.372 117.53 254.947 120.125C253.451 120.464 251.992 120.91 250.581 121.454C246.572 122.998 232.82 117.751 231.213 113.766V113.766C227.265 103.966 219.063 96.6403 209.8 94.651C198.513 92.2235 185.37 98.041 177.838 108.795C176.556 110.625 175.387 112.591 174.339 114.664C172.331 118.635 160.645 120.417 156.832 118.123V118.123C148.257 112.963 136.648 112.799 127.255 117.706C118.508 122.273 111.659 131.124 108.931 141.38V141.38C106.949 148.84 93.3456 156.956 85.6323 157.262C84.5859 157.303 83.5149 157.417 82.4172 157.612C74.7479 158.97 68.4149 163.687 65.0379 170.549C61.6823 177.371 61.8069 185.212 65.3816 192.061C71.4139 203.627 83.7534 210.845 103.105 214.132C116.488 216.405 130.267 216.542 143.595 216.676C146.065 216.701 148.54 216.727 151.006 216.762C152.961 216.792 154.684 216.83 156.278 216.878C167.2 217.217 178.13 217.44 188.768 217.544C193.335 217.587 197.894 217.608 202.44 217.608C218.968 217.608 235.342 217.32 251.269 216.744C255.209 216.603 259.214 216.396 263.089 216.194C268.803 215.898 274.711 215.593 280.516 215.49C290.29 215.322 299.033 214.888 306.982 211.322C313.852 208.237 323.059 202.948 323.674 192.667C324.069 186.162 321.105 179.223 315.541 173.638Z" fill="#74C7E5"/>
<path d="M172.442 157.608C171.612 157.702 171.02 158.454 171.114 159.279C171.411 161.861 170.096 164.65 167.909 166.059C165.726 167.468 162.641 167.52 160.412 166.184C158.182 164.847 156.772 162.106 156.987 159.515C157.056 158.686 156.437 157.956 155.608 157.887C154.77 157.814 154.048 158.437 153.98 159.266C153.945 159.679 153.939 160.092 153.959 160.504C154.076 162.906 154.157 165.644 152.115 166.914V166.914C151.879 167.06 151.806 167.369 151.952 167.606C152.046 167.76 152.21 167.842 152.381 167.842C152.472 167.842 152.566 167.816 152.648 167.765C152.909 167.602 153.163 167.427 153.409 167.24C154.482 166.423 156.171 166.519 157.146 167.451V167.451C157.811 168.087 158.126 169.098 157.51 169.782C157.165 170.164 156.763 170.493 156.317 170.747C156.076 170.884 155.99 171.189 156.128 171.434C156.218 171.597 156.39 171.687 156.566 171.687C156.652 171.687 156.734 171.666 156.815 171.623V171.623C158.543 170.647 160.729 169.832 162.697 170.09C163.148 170.15 163.604 170.179 164.059 170.179C165.988 170.179 167.922 169.651 169.55 168.598C172.712 166.557 174.547 162.678 174.117 158.935C174.023 158.106 173.271 157.513 172.442 157.608Z" fill="#231F20"/>
<path d="M236.334 166.914V166.914C234.293 165.644 234.374 162.906 234.491 160.504C234.51 160.094 234.504 159.682 234.47 159.271C234.401 158.441 233.684 157.827 232.841 157.887C232.012 157.956 231.393 158.682 231.462 159.515C231.673 162.106 230.264 164.847 228.038 166.184C225.808 167.52 222.727 167.468 220.541 166.059C218.358 164.65 217.039 161.861 217.335 159.279C217.43 158.45 216.837 157.702 216.008 157.608C215.183 157.513 214.431 158.106 214.336 158.935C213.907 162.673 215.741 166.557 218.904 168.598C220.536 169.651 222.465 170.179 224.394 170.179C224.85 170.179 225.305 170.15 225.756 170.09C227.725 169.831 229.91 170.646 231.638 171.623V171.623C231.716 171.666 231.802 171.687 231.888 171.687C232.064 171.687 232.236 171.597 232.326 171.434C232.463 171.193 232.377 170.884 232.137 170.747C231.689 170.494 231.286 170.164 230.94 169.781C230.326 169.098 230.641 168.091 231.306 167.456V167.456C232.28 166.525 233.974 166.427 235.048 167.241C235.294 167.428 235.548 167.603 235.81 167.765C235.892 167.816 235.986 167.842 236.077 167.842C236.244 167.842 236.407 167.756 236.506 167.606C236.64 167.374 236.571 167.064 236.334 166.914Z" fill="#231F20"/>
<path d="M182.178 193.345C180.588 191.562 177.787 190.961 175.523 191.923C173.185 192.911 171.72 195.429 172.115 197.779C172.549 200.362 175.063 201.762 177.366 202.003C177.632 202.029 177.89 202.046 178.148 202.046C179.978 202.046 181.572 201.35 182.513 200.108C183.978 198.175 183.832 195.206 182.178 193.345Z" fill="#91D9F2"/>
<path d="M161.7 177.036C159.183 175.537 155.604 175.425 152.768 175.464C149.58 175.507 146.009 175.941 143.079 177.264C140.871 178.261 139.612 180.443 140.699 182.798C141.915 185.436 145.296 186.252 147.909 186.574C152.171 187.099 161.275 187.382 163.548 182.738C164.596 180.585 163.72 178.239 161.7 177.036Z" fill="#57B6DC"/>
<path d="M250.569 177.036C248.052 175.537 244.473 175.425 241.637 175.464C238.449 175.507 234.879 175.941 231.948 177.264C229.74 178.261 228.481 180.443 229.568 182.798C230.784 185.436 234.165 186.252 236.778 186.574C241.04 187.099 250.144 187.382 252.417 182.738C253.461 180.585 252.589 178.239 250.569 177.036Z" fill="#57B6DC"/>
<path d="M74.9196 163.924C69.3814 166.239 65.7638 172.474 66.5028 178.429C67.2418 184.384 72.273 189.548 78.2064 190.437C78.3439 190.459 78.4814 190.467 78.6232 190.467C79.9809 190.467 81.1538 189.453 81.3558 188.113C81.4675 187.382 81.2827 186.652 80.8445 186.055C80.4062 185.462 79.7618 185.071 79.0314 184.964C75.4653 184.426 72.4405 181.324 71.9937 177.745C71.5512 174.166 73.7252 170.416 77.0507 169.028C80.3805 167.636 84.5738 168.723 86.808 171.554C87.2677 172.134 87.9251 172.499 88.6555 172.585C89.3902 172.671 90.112 172.465 90.692 172.01C91.2721 171.55 91.6373 170.893 91.7275 170.162C91.8177 169.432 91.6072 168.706 91.1518 168.126C87.4353 163.412 80.4535 161.608 74.9196 163.924Z" fill="#57B6DC"/>
<path d="M132.819 118.755C125.391 120.039 118.594 125.457 115.075 132.894C112.05 139.292 111.328 147.193 113.042 155.137C113.317 156.4 114.452 157.32 115.745 157.32C115.943 157.32 116.14 157.298 116.329 157.255C117.051 157.101 117.67 156.671 118.069 156.048C118.469 155.425 118.606 154.686 118.447 153.964C116.987 147.202 117.562 140.559 120.072 135.253C122.83 129.419 128.076 125.182 133.752 124.198C139.664 123.18 146.04 126.089 148.587 130.97C148.931 131.627 149.507 132.108 150.211 132.332C150.916 132.555 151.668 132.486 152.321 132.147C153.674 131.442 154.203 129.767 153.494 128.413C149.833 121.384 141.133 117.32 132.819 118.755Z" fill="#57B6DC"/>
<path d="M218.032 108.92C215.793 101.856 208.089 96.7393 200.115 97.0315C193.163 97.2807 186.263 101.221 181.649 107.571C177.967 112.641 175.642 119.201 174.744 127.073C174.573 128.589 175.664 129.964 177.185 130.136C177.292 130.149 177.395 130.153 177.498 130.153C178.903 130.153 180.085 129.101 180.244 127.7C181.034 120.791 183.015 115.111 186.13 110.819C189.748 105.835 195.05 102.746 200.313 102.561C205.894 102.359 211.243 105.814 212.755 110.587C212.979 111.292 213.464 111.872 214.122 112.211C214.779 112.55 215.527 112.615 216.227 112.391C217.684 111.932 218.491 110.376 218.032 108.92Z" fill="#57B6DC"/>
<path d="M285.142 132.211C289.432 138.993 290.095 147.689 287.478 155.065C286.507 157.803 289.088 162.081 291.984 162.31V162.31C292.78 162.373 293.587 162.158 294.205 161.653C309.109 149.484 318.979 131.007 320.833 111.485C322.93 89.4395 316.442 66.4661 303.896 51.5315C291.11 36.309 273.649 27.1403 251.999 24.2788C239.393 22.6118 224.446 24.6011 213.915 29.3358C203.359 34.0834 193.85 42.7752 187.148 53.8086C181.275 63.4757 177.3 75.0892 175.341 88.3181C175.307 88.5458 175.431 88.7649 175.642 88.8551C175.852 88.9454 176.097 88.8766 176.239 88.6962C180.793 82.7069 188.708 78.2729 198.529 76.202C208.123 74.1826 217.838 74.9259 225.889 78.2986C234.74 82.0022 241.864 89.1473 244.953 97.4095C248.287 106.333 246.856 116.615 241.305 123.601C241.202 123.734 241.168 123.91 241.219 124.069C241.271 124.228 241.4 124.353 241.563 124.4V124.4C243.051 124.819 244.628 124.455 245.962 123.675C248.724 122.06 251.748 120.843 254.951 120.116C266.371 117.534 279.071 122.617 285.142 132.211Z" fill="#F5C371"/>
<path d="M255.561 69.9719C255.209 68.2232 254.478 66.6078 253.825 65.2329C253.464 64.481 252.566 64.1588 251.815 64.5197C251.063 64.8806 250.745 65.7785 251.101 66.5304C251.681 67.742 252.322 69.1556 252.605 70.5648C252.798 71.5358 252.91 72.958 252.322 74.2254C251.583 75.8194 249.752 76.9279 247.767 76.9838C245.907 77.0397 243.883 76.2104 242.238 74.7152C241.619 74.1524 240.665 74.1997 240.107 74.8141C239.544 75.4328 239.591 76.3866 240.205 76.9451C242.349 78.8957 245.03 79.9999 247.6 79.9999C247.681 79.9999 247.767 79.9999 247.849 79.9956C250.951 79.9097 253.847 78.0966 255.058 75.4886C255.793 73.9075 255.965 71.9999 255.561 69.9719Z" fill="#231F20"/>
<path d="M205.545 52.9577C201.077 51.4367 195.882 56.0898 196.574 60.6914C196.849 62.5045 197.859 64.3434 199.242 65.5464C201.846 67.8064 206.142 66.4272 208.286 64.193C211.487 60.8546 209.906 54.4443 205.545 52.9577Z" fill="#FFEAA3"/>
<path d="M235.861 62.4448C234.259 58.6982 230.383 57.4093 226.856 59.1279C224.858 60.1032 222.95 61.9034 222.718 64.2192C222.319 68.2236 225.468 72.9927 229.932 71.5534C233.459 70.4105 237.558 66.4062 235.861 62.4448Z" fill="#FFEAA3"/>
<path d="M252.699 33.1469C252.037 32.6915 251.316 32.322 250.568 32.0599C247.384 30.9428 243.913 31.583 241.722 34.2168C237.421 39.3897 241.021 48.1202 248.257 46.5219C251.247 45.8603 254.83 44.03 255.818 40.8935C256.794 37.8043 255.178 34.8612 252.699 33.1469Z" fill="#FFEAA3"/>
<path d="M302.109 57.3103C301.52 55.6089 300.06 54.3114 298.393 53.7099C294.448 52.2834 290.448 54.8828 289.396 58.7969C288.738 61.2416 289.494 64.1804 291.913 65.4006C294.801 66.8571 298.216 65.2674 300.3 63.1278C301.86 61.5338 302.887 59.5617 302.109 57.3103Z" fill="#FFEAA3"/>
<path d="M306.023 81.2119C300.459 81.0186 295.29 85.1819 295.737 91.0036V91.0036C295.745 91.1137 295.766 91.2227 295.77 91.333C295.791 91.9848 295.941 92.6506 296.265 93.3237C297.348 95.5751 299.552 97.3324 301.842 98.2303C306.942 100.241 312.648 98.3378 313.503 92.5547C314.298 87.1797 312.171 81.4224 306.023 81.2119Z" fill="#FFEAA3"/>
<path d="M273.339 102.264C270.319 101.882 267.388 104.567 266.095 107.08C264.823 109.551 265.597 112.576 267.711 114.32C271.002 117.04 276.042 115.467 277.958 112.202C280.467 108.941 278.125 102.865 273.339 102.264Z" fill="#FFEAA3"/>
<path d="M305.998 123.481C303.695 119.82 299.446 119.837 296.197 122.368C293.744 124.28 292.15 127.64 293.336 130.686C294.449 133.552 297.504 135.103 300.46 135.172C306.952 135.322 309.014 128.276 305.998 123.481Z" fill="#FFEAA3"/>
<path d="M274.715 66.7965C269.348 67.0113 265.713 71.8105 262.994 75.9867C262.293 76.8846 261.782 77.9072 261.675 79.0973C261.49 81.1253 262.573 83.0114 264.472 83.7762C268.734 85.4948 274.001 80.5023 276.193 77.3658C278.079 74.6633 280.425 66.5687 274.715 66.7965Z" fill="#FFEAA3"/>
<path d="M232.296 31.4195C231.832 29.7224 229.692 29.3271 228.459 29.2455C209.752 27.9952 192.824 45.7354 185.017 62.7496C183.741 65.5337 182.83 68.3307 182.319 71.0719L182.289 71.2265C181.975 72.885 181.623 74.7669 181.494 76.4382C181.442 77.0999 181.58 77.7357 181.881 78.2298C182.001 78.4275 182.147 78.6036 182.315 78.7454C182.654 79.0376 183.028 79.1837 183.436 79.1837C183.548 79.1837 183.659 79.1708 183.775 79.1493C185.232 78.87 186.633 76.8593 187.17 75.8367C188.235 73.8044 188.991 71.6003 189.722 69.4736C190.005 68.6487 190.289 67.8237 190.59 67.0074C193.838 58.191 198.8 51.0029 205.34 45.6452C211.26 40.7945 218.581 38.0146 225.61 35.7332C225.842 35.6559 226.178 35.5699 226.573 35.4668C228.334 35.0028 231.282 34.2208 232.128 32.76C232.365 32.339 232.425 31.8878 232.296 31.4195Z" fill="#FFF4D1"/>
<path d="M237.692 27.3249C236.94 26.8867 236.051 26.9168 235.256 27.2175C234.818 27.3851 234.448 27.6085 234.203 28.0296C233.245 29.6708 235.604 31.905 237.232 31.5054C238.027 31.3121 238.676 30.6934 238.869 29.8942C239.123 28.8631 238.577 27.8405 237.692 27.3249Z" fill="#FFF4D1"/>
<path d="M321.014 109.285C321.022 109.159 321.03 109.033 321.038 108.907C321.077 108.297 320.427 108.065 320.219 108.64V108.64C316.666 118.282 311.201 127.24 304.197 134.763C301.181 138.003 297.916 140.959 294.504 143.747C295.05 143.3 292.88 138.106 292.575 137.367C291.669 135.171 290.53 133.07 289.19 131.102C286.556 127.24 283.145 123.902 279.205 121.384C270.96 116.112 261.413 115.175 252.206 118.243C250.173 118.92 248.295 119.79 246.556 121.009C245.85 121.504 245.047 121.851 244.193 121.966C244.115 121.977 244.037 121.988 243.959 121.998C242.896 122.147 241.969 122.768 241.301 123.609V123.609C241.198 123.743 241.164 123.919 241.215 124.078C241.267 124.237 241.396 124.361 241.559 124.408V124.408C243.047 124.827 244.624 124.464 245.958 123.683C248.72 122.068 251.744 120.852 254.947 120.125C266.371 117.534 279.067 122.617 285.138 132.211C290.13 140.103 290.208 150.59 285.921 158.572C285.92 158.574 285.92 158.574 285.92 158.575V158.575C285.919 158.578 285.915 158.58 285.914 158.583C285.755 158.873 285.593 159.16 285.426 159.446C285.413 159.464 285.405 159.485 285.392 159.502C285.233 159.769 285.069 160.026 284.902 160.284C284.876 160.323 284.855 160.362 284.829 160.396C284.674 160.632 284.511 160.869 284.343 161.101C284.305 161.152 284.27 161.208 284.232 161.26C284.073 161.483 283.905 161.698 283.737 161.913C283.69 161.973 283.647 162.033 283.604 162.089V162.089C283.4 162.346 283.634 162.742 283.957 162.684C286.6 162.212 289.297 162.093 291.993 162.307C292.783 162.37 293.576 162.156 294.189 161.655C309.097 149.486 318.97 131.006 320.825 111.48C320.892 110.77 320.952 110.06 320.999 109.349C321 109.328 321.014 109.306 321.014 109.285V109.285Z" fill="#EBCE72"/>
<path d="M93.2524 96.0301C92.9602 95.5145 92.3029 95.334 91.7873 95.6262V95.6262C87.944 97.8078 83.6419 93.5999 85.7379 89.7093L87.5939 86.2641C87.8044 85.8689 87.7529 85.3877 87.4564 85.0482C87.1643 84.7131 86.6916 84.5928 86.2706 84.7475C80.2297 87.0074 74.4209 89.929 69.0116 93.435C68.5132 93.7572 68.3714 94.4232 68.6936 94.9216C69.0159 95.42 69.6818 95.5618 70.1802 95.2395V95.2395C74.676 92.3302 79.2715 97.1804 76.7311 101.895L74.8161 105.448C74.5884 105.869 74.6701 106.389 75.0095 106.724C75.2157 106.926 75.4864 107.029 75.7614 107.029C75.9418 107.029 76.1266 106.982 76.2898 106.887L92.8442 97.4866C93.3641 97.1987 93.5446 96.5457 93.2524 96.0301Z" fill="#F7E9BC"/>
<path d="M105.399 125.083C105.167 124.537 104.535 124.284 103.99 124.516V124.516C101.022 125.779 98.4056 122.408 99.7545 119.478C100.477 117.909 101.136 116.31 101.73 114.685C101.867 114.307 101.781 113.882 101.511 113.585C101.236 113.289 100.819 113.173 100.432 113.28C95.444 114.681 90.6749 116.76 86.2538 119.463C85.7468 119.772 85.5878 120.434 85.8971 120.941C86.2065 121.448 86.8682 121.607 87.3751 121.297V121.297C91.6779 118.665 95.7689 123.031 92.9522 127.216C92.6502 127.664 92.3422 128.109 92.0283 128.55C91.7705 128.911 91.7619 129.396 92.0068 129.766C92.2087 130.071 92.5481 130.247 92.9047 130.247C92.9821 130.247 93.0594 130.238 93.1324 130.221C97.1325 129.349 101.068 128.09 104.836 126.488C105.377 126.26 105.631 125.628 105.399 125.083Z" fill="#F7E9BC"/>
<path d="M81.7553 70.9166C81.489 70.3881 80.8402 70.1733 80.3117 70.4397V70.4397C73.1803 74.0389 66.1856 66.8686 70.7858 60.3379C71.556 59.2444 72.3412 58.1618 73.1409 57.0904C73.4158 56.7209 73.4244 56.214 73.1624 55.8359C72.9003 55.4578 72.4234 55.2859 71.9808 55.4148C64.5908 57.5588 57.6649 60.9057 51.3963 65.3698C50.9151 65.7135 50.7991 66.3838 51.1428 66.8693C51.4865 67.3505 52.1568 67.4665 52.6423 67.1228V67.1228C57.4716 63.6819 62.271 69.3699 59.4725 74.5977C57.9246 77.4893 56.4727 80.4309 55.1214 83.4151C54.9323 83.8318 55.0268 84.3173 55.3577 84.6353C55.5639 84.8329 55.8303 84.936 56.101 84.936C56.2642 84.936 56.4318 84.8974 56.5865 84.82L81.2827 72.3559C81.8069 72.0938 82.0217 71.445 81.7553 70.9166Z" fill="#F7E9BC"/>
<path d="M117.498 94.445C115.629 94.445 115.625 97.3494 117.498 97.3494C119.367 97.3494 119.371 94.445 117.498 94.445Z" fill="#ADB9D1"/>
<path d="M123.944 58.2039C122.706 58.2039 122.706 60.1245 123.944 60.1245C125.181 60.1245 125.181 58.2039 123.944 58.2039Z" fill="#ADB9D1"/>
<path d="M167.763 27.8108C164.734 27.8108 164.73 32.5198 167.763 32.5198C170.792 32.5198 170.801 27.8108 167.763 27.8108Z" fill="#ADB9D1"/>
<path d="M123.299 31.1146C122.861 31.1146 122.861 31.7935 123.299 31.7935C123.738 31.7935 123.738 31.1146 123.299 31.1146Z" fill="#ADB9D1"/>
<path d="M20.1871 72.9189C19.6414 72.9189 19.6414 73.7654 20.1871 73.7654C20.7327 73.7654 20.7327 72.9189 20.1871 72.9189Z" fill="#ADB9D1"/>
<path d="M49.1887 88.7648H48.5442C47.8439 88.7648 47.1779 89.3792 47.208 90.101C47.2424 90.8228 47.7966 91.4372 48.5442 91.4372H49.1887C49.889 91.4372 50.555 90.8228 50.5249 90.101C50.4905 89.3749 49.9363 88.7648 49.1887 88.7648Z" fill="#ADB9D1"/>
<path d="M18.898 147.936C16.2041 147.936 16.1998 152.125 18.898 152.125C21.5919 152.125 21.5962 147.936 18.898 147.936Z" fill="#ADB9D1"/>
<path d="M49.8328 166.205C47.4225 166.205 47.4182 169.951 49.8328 169.951C52.2431 169.947 52.2474 166.205 49.8328 166.205Z" fill="#ADB9D1"/>
<path d="M52.4104 183.15C51.9077 183.15 51.9034 183.932 52.4104 183.932C52.9131 183.932 52.9131 183.15 52.4104 183.15Z" fill="#ADB9D1"/>
<path d="M17.5618 234.588C16.6767 234.588 16.6767 235.963 17.5618 235.963C18.4468 235.963 18.4468 234.588 17.5618 234.588Z" fill="#ADB9D1"/>
<path d="M52.3642 245.2C49.6574 245.2 49.6531 249.406 52.3642 249.406C55.071 249.411 55.0753 245.2 52.3642 245.2Z" fill="#ADB9D1"/>
<path d="M96.6169 249.621C95.1733 249.621 95.1733 251.864 96.6169 251.864C98.0605 251.864 98.0605 249.621 96.6169 249.621Z" fill="#ADB9D1"/>
<path d="M136.545 260.629C136.524 260.191 136.382 259.74 136.051 259.435C135.935 259.349 135.823 259.258 135.707 259.172C135.445 259.018 135.162 258.945 134.857 258.94C134.384 258.88 133.856 259.155 133.533 259.486C133.194 259.834 133.005 260.311 133.005 260.801C133.001 261.78 133.813 262.73 134.844 262.67C135.291 262.644 135.712 262.498 136.038 262.176C136.33 261.884 136.55 261.402 136.532 260.981C136.532 260.951 136.524 260.921 136.524 260.895C136.537 260.801 136.55 260.715 136.545 260.629Z" fill="#ADB9D1"/>
<path d="M21.8588 264.53C19.6977 264.53 19.6934 267.89 21.8588 267.89C24.0199 267.89 24.0242 264.53 21.8588 264.53Z" fill="#ADB9D1"/>
<path d="M270.195 267.963C269.28 268.006 268.511 268.702 268.511 269.647V270.077C268.511 270.957 269.285 271.804 270.195 271.761C271.111 271.718 271.88 271.022 271.88 270.077V269.647C271.88 268.766 271.106 267.92 270.195 267.963Z" fill="#ADB9D1"/>
<path d="M295.975 272.47H295.545C295.309 272.47 295.309 272.84 295.545 272.84H295.975C296.211 272.84 296.211 272.47 295.975 272.47Z" fill="#ADB9D1"/>
<path d="M402.098 285.763C399.061 285.763 399.056 290.481 402.098 290.481C405.136 290.481 405.14 285.763 402.098 285.763Z" fill="#ADB9D1"/>
<path d="M400.81 252.47C398.61 252.47 398.606 255.89 400.81 255.89C403.009 255.89 403.014 252.47 400.81 252.47Z" fill="#ADB9D1"/>
<path d="M314.45 261.329C313.144 261.329 313.14 263.361 314.45 263.361C315.756 263.357 315.76 261.329 314.45 261.329Z" fill="#ADB9D1"/>
<path d="M306.042 242.395C305.9 242.253 305.754 242.107 305.612 241.965C305.234 241.587 304.671 241.355 304.138 241.355C303.627 241.355 303.017 241.583 302.665 241.965C302.299 242.361 302.029 242.885 302.054 243.439C302.08 243.993 302.265 244.513 302.665 244.913L303.094 245.342C303.472 245.72 304.035 245.952 304.568 245.952C305.079 245.952 305.689 245.725 306.042 245.342C306.407 244.947 306.677 244.423 306.652 243.869C306.626 243.314 306.441 242.794 306.042 242.395Z" fill="#ADB9D1"/>
<path d="M381.475 238.21C380.276 238.21 380.276 240.071 381.475 240.071C382.673 240.075 382.673 238.21 381.475 238.21Z" fill="#ADB9D1"/>
<path d="M352.689 210.892C351.722 210.892 351.722 212.396 352.689 212.396C353.656 212.396 353.656 210.892 352.689 210.892Z" fill="#ADB9D1"/>
<path d="M329.917 185.75H329.487C329.341 185.75 329.341 185.977 329.487 185.977H329.917C330.063 185.982 330.063 185.75 329.917 185.75Z" fill="#ADB9D1"/>
<path d="M336.035 158.694C335.649 158.342 335.176 158.119 334.643 158.119H334.214C333.711 158.119 333.178 158.338 332.822 158.694C332.482 159.034 332.224 159.597 332.246 160.087C332.267 160.593 332.435 161.122 332.822 161.479C333.208 161.831 333.681 162.054 334.214 162.054H334.643C335.146 162.054 335.679 161.835 336.035 161.479C336.375 161.139 336.633 160.576 336.611 160.087C336.585 159.58 336.418 159.051 336.035 158.694Z" fill="#ADB9D1"/>
<path d="M341.771 127.003V127.433C341.771 127.661 342.128 127.661 342.128 127.433V127.003C342.123 126.776 341.771 126.776 341.771 127.003Z" fill="#ADB9D1"/>
<path d="M373.742 189.552H373.476C371.585 189.552 371.581 192.491 373.476 192.491H373.742C375.632 192.491 375.637 189.552 373.742 189.552Z" fill="#ADB9D1"/>
<path d="M357.845 148.31C354.854 148.31 354.846 152.959 357.845 152.959C360.835 152.959 360.844 148.31 357.845 148.31Z" fill="#ADB9D1"/>
<path d="M394.794 128.602C393.531 128.602 393.531 130.566 394.794 130.566C396.057 130.562 396.057 128.602 394.794 128.602Z" fill="#ADB9D1"/>
<path d="M332.494 99.5411H332.065C331.523 99.5411 330.956 99.7774 330.57 100.16C330.204 100.525 329.929 101.126 329.951 101.655C330.002 102.798 330.879 103.769 332.065 103.769H332.494C333.036 103.769 333.603 103.532 333.989 103.15C334.355 102.785 334.63 102.183 334.608 101.655C334.557 100.512 333.68 99.5411 332.494 99.5411Z" fill="#ADB9D1"/>
<path d="M379.757 73.302H378.897C378.004 73.302 377.144 74.0883 377.183 75.0163C377.226 75.9444 377.935 76.7306 378.897 76.7306H379.757C380.65 76.7306 381.509 75.9444 381.471 75.0163C381.428 74.0883 380.715 73.302 379.757 73.302Z" fill="#ADB9D1"/>
<path d="M405.536 81.04C402.786 81.04 402.782 85.315 405.536 85.315C408.285 85.3193 408.29 81.04 405.536 81.04Z" fill="#ADB9D1"/>
<path d="M406.394 60.7047C405.668 60.7047 405.668 61.8304 406.394 61.8304C407.12 61.8304 407.12 60.7047 406.394 60.7047Z" fill="#ADB9D1"/>
<path d="M391.679 6.80917C391.284 6.41389 390.635 6.11743 390.068 6.13891C389.479 6.16469 388.865 6.35804 388.457 6.80917C388.049 7.256 387.787 7.80596 387.787 8.42036V8.85001C387.787 9.43433 388.04 10.0487 388.457 10.4612C388.852 10.8565 389.501 11.1529 390.068 11.1314C390.657 11.1057 391.271 10.9123 391.679 10.4612C392.087 10.0144 392.349 9.4644 392.349 8.85001V8.42036C392.349 7.83603 392.096 7.22163 391.679 6.80917Z" fill="#ADB9D1"/>
<path d="M363.267 0.325684H363C359.774 0.325684 359.765 5.34399 363 5.34399H363.267C366.493 5.34399 366.502 0.325684 363.267 0.325684Z" fill="#ADB9D1"/>
<path d="M301.131 20.1753C298.016 20.1753 298.007 25.0175 301.131 25.0175C304.246 25.0218 304.255 20.1753 301.131 20.1753Z" fill="#ADB9D1"/>
<path d="M250.003 3.63416C248.267 3.63416 248.263 6.33235 250.003 6.33235C251.738 6.33235 251.743 3.63416 250.003 3.63416Z" fill="#ADB9D1"/>
<path d="M179.54 1.28833C176.997 1.28833 176.992 5.24111 179.54 5.24111C182.084 5.24111 182.088 1.28833 179.54 1.28833Z" fill="#ADB9D1"/>
<path d="M154.62 93.1517C153.628 93.1517 153.628 94.6898 154.62 94.6898C155.613 94.6898 155.613 93.1517 154.62 93.1517Z" fill="#ADB9D1"/>
<path d="M89.1415 53.3574C89.1286 53.3574 89.1286 53.3745 89.1415 53.3745C89.1543 53.3745 89.1543 53.3574 89.1415 53.3574Z" fill="#515763"/>
<path d="M138.774 5.02145L138.13 4.37698C137.786 4.03326 137.159 4.00748 136.819 4.37698C136.48 4.74648 136.454 5.32221 136.819 5.68741C137.034 5.90223 137.249 6.11706 137.464 6.33188C137.808 6.6756 138.435 6.70138 138.774 6.33188C139.114 5.96239 139.144 5.38666 138.774 5.02145Z" fill="#515763"/>
<path d="M8.58674 49.5587H7.94226C7.29779 49.5587 6.68339 50.1258 6.71346 50.7875C6.74354 51.4534 7.25482 52.0163 7.94226 52.0163H8.58674C9.23121 52.0163 9.84561 51.4491 9.81553 50.7875C9.78546 50.1215 9.27847 49.5587 8.58674 49.5587Z" fill="#515763"/>
<path d="M35.6542 123.811C33.4286 123.811 33.4243 127.274 35.6542 127.274C37.8798 127.274 37.8841 123.811 35.6542 123.811Z" fill="#515763"/>
<path d="M3.55955 210.707H3.38339C1.07617 210.707 1.07188 214.295 3.38339 214.295H3.55955C5.87106 214.299 5.87536 210.707 3.55955 210.707Z" fill="#515763"/>
<path d="M111.225 285.553H110.795C110.349 285.553 109.923 285.944 109.945 286.403C109.966 286.867 110.318 287.254 110.795 287.254H111.225C111.672 287.254 112.097 286.863 112.076 286.403C112.059 285.939 111.702 285.553 111.225 285.553Z" fill="#515763"/>
<path d="M341.946 279.469C341.87 279.469 341.87 279.583 341.946 279.583C342.022 279.587 342.022 279.469 341.946 279.469Z" fill="#515763"/>
<path d="M372.882 259.984C370.953 259.984 370.949 262.979 372.882 262.979C374.811 262.983 374.815 259.984 372.882 259.984Z" fill="#515763"/>
<path d="M408.543 185.315C406.725 185.315 406.725 188.138 408.543 188.138C410.36 188.134 410.36 185.315 408.543 185.315Z" fill="#515763"/>
<path d="M372.452 126.372C371.644 126.406 370.961 127.025 370.961 127.863V128.292C370.961 129.07 371.644 129.818 372.452 129.783C373.26 129.749 373.943 129.13 373.943 128.292V127.863C373.943 127.085 373.255 126.337 372.452 126.372Z" fill="#515763"/>
<path d="M331.206 57.3571C330.6 57.3571 330.6 58.298 331.206 58.298C331.812 58.3023 331.812 57.3571 331.206 57.3571Z" fill="#515763"/>
<path d="M410.261 16.9314C410.158 16.9314 410.158 17.0895 410.261 17.0895C410.363 17.0938 410.363 16.9314 410.261 16.9314Z" fill="#515763"/>
<path d="M264.18 16.5621C264.151 16.5621 264.151 16.6073 264.18 16.6073C264.209 16.6032 264.209 16.5621 264.18 16.5621Z" fill="#515763"/>
<path d="M233.247 13.7732C232.422 13.8119 231.726 14.4392 231.726 15.2942V15.7239C231.726 16.5187 232.426 17.2792 233.247 17.2448C234.071 17.2061 234.767 16.5789 234.767 15.7239V15.2942C234.767 14.4994 234.067 13.7389 233.247 13.7732Z" fill="#515763"/>
<path d="M158.1 58.8439C155.196 58.8439 155.192 63.3552 158.1 63.3552C161 63.3552 161.009 58.8439 158.1 58.8439Z" fill="#F2E3B5"/>
<path d="M94.0909 51.6384C93.6656 51.2131 92.9738 50.8951 92.3637 50.9252C91.7322 50.9553 91.0791 51.1615 90.6366 51.6384C90.1983 52.1153 89.9233 52.704 89.9233 53.3656V54.0101C89.9233 54.6374 90.194 55.2948 90.6366 55.7373C91.0619 56.1626 91.7536 56.4806 92.3637 56.4505C92.9953 56.4204 93.6484 56.2142 94.0909 55.7373C94.5292 55.2604 94.8041 54.6718 94.8041 54.0101V53.3656C94.8041 52.7383 94.5335 52.081 94.0909 51.6384Z" fill="#F2E3B5"/>
<path d="M93.6527 18.1646C93.1414 18.1646 93.1371 18.9638 93.6527 18.9638C94.1682 18.9638 94.1682 18.1646 93.6527 18.1646Z" fill="#F2E3B5"/>
<path d="M47.255 45.8767H46.6105C46.0648 45.8767 45.545 46.358 45.5707 46.9165C45.5965 47.4793 46.0305 47.9606 46.6105 47.9606H47.255C47.8006 47.9606 48.3205 47.4793 48.2947 46.9165C48.2689 46.358 47.8393 45.8767 47.255 45.8767Z" fill="#F2E3B5"/>
<path d="M4.07532 126.729C2.28368 126.729 2.27939 129.513 4.07532 129.513C5.86696 129.513 5.87125 126.729 4.07532 126.729Z" fill="#F2E3B5"/>
<path d="M65.3004 129.761H64.6559C64.1661 129.761 63.6935 130.191 63.7193 130.698C63.7408 131.205 64.1317 131.635 64.6559 131.635H65.3004C65.7902 131.635 66.2628 131.205 66.237 130.698C66.2155 130.191 65.8246 129.761 65.3004 129.761Z" fill="#F2E3B5"/>
<path d="M58.8551 204.722C57.085 204.722 57.0807 207.472 58.8551 207.472C60.6253 207.472 60.6296 204.722 58.8551 204.722Z" fill="#F2E3B5"/>
<path d="M35.0096 216.392C33.3297 216.392 33.3254 219.004 35.0096 219.004C36.6895 219.004 36.6938 216.392 35.0096 216.392Z" fill="#F2E3B5"/>
<path d="M6.26225 252.388C6.09468 251.876 5.77674 251.365 5.28264 251.112C4.92174 250.927 4.54365 250.781 4.13119 250.798C3.56835 250.824 2.97973 251.021 2.58445 251.442C2.14191 251.915 1.93138 252.474 1.9099 253.109C1.88842 253.698 2.1548 254.377 2.58875 254.777C3.35352 255.477 4.37609 255.597 5.28694 255.107C5.75096 254.858 6.12905 254.33 6.26654 253.831V253.831C6.38415 253.406 6.39671 252.945 6.29737 252.515C6.28748 252.472 6.27581 252.43 6.26225 252.388Z" fill="#F2E3B5"/>
<path d="M86.3059 220.886C84.9267 220.886 84.9267 223.026 86.3059 223.026C87.685 223.026 87.685 220.886 86.3059 220.886Z" fill="#F2E3B5"/>
<path d="M310.153 282.837C307.777 282.837 307.772 286.528 310.153 286.528C312.529 286.532 312.533 282.837 310.153 282.837Z" fill="#F2E3B5"/>
<path d="M342.132 283.211C341.99 283.069 341.844 282.923 341.702 282.781C341.324 282.403 340.766 282.171 340.229 282.171C339.717 282.171 339.107 282.399 338.755 282.781C338.39 283.177 338.119 283.701 338.145 284.255C338.171 284.805 338.355 285.329 338.755 285.729C338.897 285.871 339.043 286.017 339.184 286.159C339.563 286.537 340.121 286.769 340.658 286.769C341.169 286.769 341.78 286.541 342.132 286.159C342.497 285.763 342.768 285.239 342.742 284.685C342.716 284.135 342.527 283.611 342.132 283.211Z" fill="#F2E3B5"/>
<path d="M370.304 280.715C369.062 280.715 369.062 282.644 370.304 282.644C371.545 282.64 371.545 280.715 370.304 280.715Z" fill="#F2E3B5"/>
<path d="M349.251 239.636C348.821 239.653 348.456 239.984 348.456 240.431V240.86C348.456 241.277 348.821 241.672 349.251 241.655C349.681 241.638 350.046 241.307 350.046 240.86V240.431C350.046 240.014 349.681 239.619 349.251 239.636Z" fill="#F2E3B5"/>
<path d="M324.761 220.203C323.06 220.203 323.055 222.845 324.761 222.845C326.462 222.85 326.467 220.203 324.761 220.203Z" fill="#F2E3B5"/>
<path d="M413.698 226.274C412.065 226.274 412.065 228.809 413.698 228.809C415.331 228.809 415.331 226.274 413.698 226.274Z" fill="#F2E3B5"/>
<path d="M349.001 184.396C348.86 184.254 348.714 184.108 348.572 183.966C348.254 183.648 347.669 183.623 347.356 183.966C347.042 184.31 347.016 184.843 347.356 185.182L347.786 185.612C348.103 185.93 348.688 185.956 349.001 185.612C349.315 185.273 349.341 184.74 349.001 184.396Z" fill="#F2E3B5"/>
<path d="M383.193 164.181C382.381 164.181 382.377 165.444 383.193 165.444C384.005 165.444 384.009 164.181 383.193 164.181Z" fill="#F2E3B5"/>
<path d="M400.809 152.812C400.126 152.842 399.55 153.366 399.55 154.071V154.501C399.55 155.158 400.13 155.79 400.809 155.759C401.492 155.729 402.068 155.205 402.068 154.501V154.071C402.068 153.414 401.488 152.782 400.809 152.812Z" fill="#F2E3B5"/>
<path d="M348.821 84.1674C348.37 84.1889 347.983 84.5326 347.983 85.0053V85.2201C347.983 85.6583 348.366 86.0751 348.821 86.0579C349.272 86.0364 349.659 85.6927 349.659 85.2201V85.0053C349.659 84.567 349.272 84.1503 348.821 84.1674Z" fill="#F2E3B5"/>
<path d="M324.332 75.0117C323.769 75.0117 323.769 75.8839 324.332 75.8839C324.895 75.8796 324.895 75.0117 324.332 75.0117Z" fill="#F2E3B5"/>
<path d="M405.105 36.9958H404.676C404.117 36.9958 403.576 37.4899 403.606 38.0656C403.631 38.6456 404.078 39.1354 404.676 39.1354H405.105C405.664 39.1354 406.205 38.6413 406.175 38.0656C406.149 37.4856 405.707 36.9958 405.105 36.9958Z" fill="#F2E3B5"/>
<path d="M411.98 21.8337C409.338 21.8337 409.333 25.9412 411.98 25.9412C414.622 25.9412 414.627 21.8337 411.98 21.8337Z" fill="#F2E3B5"/>
<path d="M319.421 1.57155C319.309 1.46844 319.172 1.40399 319.017 1.40399H318.909C318.763 1.40399 318.609 1.46844 318.506 1.57155C318.407 1.67037 318.329 1.83364 318.338 1.97543C318.347 2.1258 318.394 2.27618 318.506 2.3793C318.617 2.48241 318.755 2.54686 318.909 2.54686H319.017C319.163 2.54686 319.318 2.48241 319.421 2.3793C319.52 2.28048 319.597 2.11721 319.588 1.97543C319.58 1.82505 319.532 1.67467 319.421 1.57155Z" fill="#F2E3B5"/>
<path d="M285.662 -2.93164C283.222 -2.93164 283.218 0.862164 285.662 0.862164C288.103 0.86646 288.107 -2.93164 285.662 -2.93164Z" fill="#F2E3B5"/>
<path d="M262.032 17.3092C259.648 17.3092 259.643 21.0127 262.032 21.0127C264.417 21.0127 264.421 17.3092 262.032 17.3092Z" fill="#F2E3B5"/>
<path d="M208.326 17.8248C207.711 17.8248 207.707 18.7829 208.326 18.7829C208.94 18.7786 208.944 17.8248 208.326 17.8248Z" fill="#F2E3B5"/>
<path d="M158.486 99.3508C158.289 99.3508 158.289 99.6543 158.486 99.6543C158.682 99.6586 158.682 99.3508 158.486 99.3508Z" fill="#F2E3B5"/>
<path d="M111.928 264.272C110.545 264.272 109.231 264.238 107.984 264.17C106.76 264.102 105.785 264.023 105.06 263.932V240.268C105.853 240.177 106.839 240.098 108.018 240.03C109.197 239.962 110.545 239.928 112.064 239.928C114.965 239.928 117.198 240.483 118.762 241.594C120.326 242.682 121.108 244.167 121.108 246.048C121.108 247.295 120.768 248.36 120.088 249.244C119.431 250.105 118.467 250.819 117.198 251.386C118.739 251.93 119.907 252.689 120.7 253.664C121.493 254.616 121.89 255.795 121.89 257.2C121.89 259.353 121.04 261.076 119.34 262.368C117.64 263.637 115.169 264.272 111.928 264.272ZM108.29 250.468H112.03C113.821 250.468 115.237 250.094 116.28 249.346C117.345 248.598 117.878 247.635 117.878 246.456C117.878 245.187 117.357 244.223 116.314 243.566C115.271 242.886 113.843 242.546 112.03 242.546C111.282 242.546 110.602 242.569 109.99 242.614C109.378 242.637 108.811 242.671 108.29 242.716V250.468ZM112.166 261.586C114.183 261.586 115.759 261.223 116.892 260.498C118.025 259.773 118.592 258.719 118.592 257.336C118.592 255.976 118.037 254.911 116.926 254.14C115.815 253.369 114.229 252.984 112.166 252.984H108.29V261.382C109.491 261.518 110.783 261.586 112.166 261.586ZM133.208 264.408C130.669 264.408 128.652 263.603 127.156 261.994C125.683 260.362 124.946 258.084 124.946 255.16C124.946 253.392 125.275 251.817 125.932 250.434C126.612 249.029 127.553 247.929 128.754 247.136C129.955 246.32 131.349 245.912 132.936 245.912C134.636 245.912 136.041 246.286 137.152 247.034C138.285 247.759 139.135 248.745 139.702 249.992C140.269 251.239 140.552 252.61 140.552 254.106C140.552 254.899 140.518 255.67 140.45 256.418H128.074C128.278 258.073 128.856 259.365 129.808 260.294C130.76 261.223 132.018 261.688 133.582 261.688C134.602 261.688 135.52 261.586 136.336 261.382C137.152 261.155 137.934 260.872 138.682 260.532L139.396 263.15C138.58 263.513 137.662 263.807 136.642 264.034C135.622 264.283 134.477 264.408 133.208 264.408ZM128.04 253.936H137.73C137.73 252.213 137.299 250.887 136.438 249.958C135.577 249.029 134.387 248.564 132.868 248.564C131.553 248.564 130.465 249.029 129.604 249.958C128.743 250.865 128.221 252.191 128.04 253.936ZM150.818 264.408C149.118 264.408 147.769 263.853 146.772 262.742C145.797 261.609 145.31 259.999 145.31 257.914V249.618H142.25V246.966H145.378L146.024 241.39H148.37V246.966H153.266V249.618H148.37V258.152C148.37 259.467 148.642 260.385 149.186 260.906C149.753 261.427 150.421 261.688 151.192 261.688C151.759 261.688 152.291 261.597 152.79 261.416C153.311 261.235 153.787 261.019 154.218 260.77L155.068 263.218C154.615 263.49 154.003 263.751 153.232 264C152.461 264.272 151.657 264.408 150.818 264.408ZM164.332 264.408C162.632 264.408 161.283 263.853 160.286 262.742C159.311 261.609 158.824 259.999 158.824 257.914V249.618H155.764V246.966H158.892L159.538 241.39H161.884V246.966H166.78V249.618H161.884V258.152C161.884 259.467 162.156 260.385 162.7 260.906C163.266 261.427 163.935 261.688 164.706 261.688C165.272 261.688 165.805 261.597 166.304 261.416C166.825 261.235 167.301 261.019 167.732 260.77L168.582 263.218C168.128 263.49 167.516 263.751 166.746 264C165.975 264.272 165.17 264.408 164.332 264.408ZM178.065 264.408C175.527 264.408 173.509 263.603 172.013 261.994C170.54 260.362 169.803 258.084 169.803 255.16C169.803 253.392 170.132 251.817 170.789 250.434C171.469 249.029 172.41 247.929 173.611 247.136C174.813 246.32 176.207 245.912 177.793 245.912C179.493 245.912 180.899 246.286 182.009 247.034C183.143 247.759 183.993 248.745 184.559 249.992C185.126 251.239 185.409 252.61 185.409 254.106C185.409 254.899 185.375 255.67 185.307 256.418H172.931C173.135 258.073 173.713 259.365 174.665 260.294C175.617 261.223 176.875 261.688 178.439 261.688C179.459 261.688 180.377 261.586 181.193 261.382C182.009 261.155 182.791 260.872 183.539 260.532L184.253 263.15C183.437 263.513 182.519 263.807 181.499 264.034C180.479 264.283 179.335 264.408 178.065 264.408ZM172.897 253.936H182.587C182.587 252.213 182.157 250.887 181.295 249.958C180.434 249.029 179.244 248.564 177.725 248.564C176.411 248.564 175.323 249.029 174.461 249.958C173.6 250.865 173.079 252.191 172.897 253.936ZM189.488 264V246.32H192.446V250.162C192.74 249.414 193.137 248.723 193.636 248.088C194.134 247.431 194.758 246.909 195.506 246.524C196.254 246.116 197.126 245.912 198.124 245.912C198.464 245.912 198.804 245.935 199.144 245.98C199.484 246.003 199.767 246.048 199.994 246.116L199.076 249.278C198.645 249.097 198.135 249.006 197.546 249.006C196.707 249.006 195.902 249.244 195.132 249.72C194.384 250.196 193.76 250.933 193.262 251.93C192.786 252.927 192.548 254.197 192.548 255.738V264H189.488ZM219.517 264.408C217.862 264.408 216.355 264.193 214.995 263.762C213.635 263.309 212.49 262.719 211.561 261.994L213.193 259.274C214.009 259.954 214.927 260.509 215.947 260.94C216.967 261.371 218.157 261.586 219.517 261.586C221.149 261.586 222.441 261.246 223.393 260.566C224.345 259.886 224.821 258.968 224.821 257.812C224.821 257.155 224.685 256.577 224.413 256.078C224.141 255.557 223.608 255.058 222.815 254.582C222.044 254.083 220.9 253.551 219.381 252.984C217.749 252.349 216.446 251.715 215.471 251.08C214.496 250.423 213.794 249.686 213.363 248.87C212.955 248.031 212.751 247.045 212.751 245.912C212.751 244.779 213.057 243.759 213.669 242.852C214.304 241.923 215.222 241.186 216.423 240.642C217.647 240.075 219.12 239.792 220.843 239.792C222.248 239.792 223.506 239.939 224.617 240.234C225.75 240.506 226.85 240.903 227.915 241.424L226.725 244.178C225.954 243.725 225.048 243.351 224.005 243.056C222.985 242.739 221.908 242.58 220.775 242.58C219.279 242.58 218.1 242.875 217.239 243.464C216.378 244.053 215.947 244.813 215.947 245.742C215.947 246.331 216.072 246.853 216.321 247.306C216.57 247.759 217.058 248.201 217.783 248.632C218.531 249.063 219.642 249.55 221.115 250.094C222.883 250.751 224.277 251.443 225.297 252.168C226.34 252.893 227.076 253.687 227.507 254.548C227.938 255.387 228.153 256.35 228.153 257.438C228.153 258.911 227.779 260.169 227.031 261.212C226.306 262.255 225.286 263.048 223.971 263.592C222.679 264.136 221.194 264.408 219.517 264.408ZM237.957 264.408C236.915 264.408 235.974 264.215 235.135 263.83C234.297 263.422 233.628 262.776 233.129 261.892C232.653 261.008 232.415 259.863 232.415 258.458V238.84H235.475V258.152C235.475 259.376 235.725 260.283 236.223 260.872C236.745 261.461 237.459 261.756 238.365 261.756C238.796 261.756 239.215 261.711 239.623 261.62C240.054 261.507 240.417 261.382 240.711 261.246L241.459 263.728C241.051 263.909 240.541 264.068 239.929 264.204C239.34 264.34 238.683 264.408 237.957 264.408ZM250.913 264.408C248.374 264.408 246.357 263.603 244.861 261.994C243.388 260.362 242.651 258.084 242.651 255.16C242.651 253.392 242.98 251.817 243.637 250.434C244.317 249.029 245.258 247.929 246.459 247.136C247.66 246.32 249.054 245.912 250.641 245.912C252.341 245.912 253.746 246.286 254.857 247.034C255.99 247.759 256.84 248.745 257.407 249.992C257.974 251.239 258.257 252.61 258.257 254.106C258.257 254.899 258.223 255.67 258.155 256.418H245.779C245.983 258.073 246.561 259.365 247.513 260.294C248.465 261.223 249.723 261.688 251.287 261.688C252.307 261.688 253.225 261.586 254.041 261.382C254.857 261.155 255.639 260.872 256.387 260.532L257.101 263.15C256.285 263.513 255.367 263.807 254.347 264.034C253.327 264.283 252.182 264.408 250.913 264.408ZM245.745 253.936H255.435C255.435 252.213 255.004 250.887 254.143 249.958C253.282 249.029 252.092 248.564 250.573 248.564C249.258 248.564 248.17 249.029 247.309 249.958C246.448 250.865 245.926 252.191 245.745 253.936ZM269.407 264.408C266.869 264.408 264.851 263.603 263.355 261.994C261.882 260.362 261.145 258.084 261.145 255.16C261.145 253.392 261.474 251.817 262.131 250.434C262.811 249.029 263.752 247.929 264.953 247.136C266.155 246.32 267.549 245.912 269.135 245.912C270.835 245.912 272.241 246.286 273.351 247.034C274.485 247.759 275.335 248.745 275.901 249.992C276.468 251.239 276.751 252.61 276.751 254.106C276.751 254.899 276.717 255.67 276.649 256.418H264.273C264.477 258.073 265.055 259.365 266.007 260.294C266.959 261.223 268.217 261.688 269.781 261.688C270.801 261.688 271.719 261.586 272.535 261.382C273.351 261.155 274.133 260.872 274.881 260.532L275.595 263.15C274.779 263.513 273.861 263.807 272.841 264.034C271.821 264.283 270.677 264.408 269.407 264.408ZM264.239 253.936H273.929C273.929 252.213 273.499 250.887 272.637 249.958C271.776 249.029 270.586 248.564 269.067 248.564C267.753 248.564 266.665 249.029 265.803 249.958C264.942 250.865 264.421 252.191 264.239 253.936ZM281.475 271.48V250.842C281.475 250.071 281.283 249.527 280.897 249.21C280.535 248.87 280.059 248.7 279.469 248.7L280.115 246.32C282.201 246.32 283.504 247.147 284.025 248.802C284.252 248.462 284.615 248.065 285.113 247.612C285.635 247.159 286.269 246.762 287.017 246.422C287.788 246.082 288.661 245.912 289.635 245.912C290.995 245.912 292.265 246.275 293.443 247C294.645 247.703 295.608 248.734 296.333 250.094C297.059 251.431 297.421 253.063 297.421 254.99C297.421 256.871 297.059 258.526 296.333 259.954C295.608 261.359 294.656 262.459 293.477 263.252C292.321 264.023 291.063 264.408 289.703 264.408C288.661 264.408 287.686 264.204 286.779 263.796C285.873 263.365 285.125 262.878 284.535 262.334V271.48H281.475ZM289.091 261.688C290.633 261.688 291.879 261.087 292.831 259.886C293.806 258.662 294.293 257.064 294.293 255.092C294.293 253.732 294.044 252.565 293.545 251.59C293.069 250.615 292.423 249.867 291.607 249.346C290.814 248.825 289.93 248.564 288.955 248.564C287.981 248.564 287.097 248.813 286.303 249.312C285.533 249.788 284.943 250.309 284.535 250.876V259.58C285.125 260.192 285.805 260.702 286.575 261.11C287.346 261.495 288.185 261.688 289.091 261.688Z" fill="#E6E7F2"/>
</g>
</g>
<defs>
<filter id="filter0_d_289_2" x="0" y="0" width="421.995" height="298.064" filterUnits="userSpaceOnUse" color-interpolation-filters="sRGB">
<feFlood flood-opacity="0" result="BackgroundImageFix"/>
<feColorMatrix in="SourceAlpha" type="matrix" values="0 0 0 0 0 0 0 0 0 0 0 0 0 0 0 0 0 0 127 0" result="hardAlpha"/>
<feOffset dy="4"/>
<feGaussianBlur stdDeviation="2"/>
<feComposite in2="hardAlpha" operator="out"/>
<feColorMatrix type="matrix" values="0 0 0 0 0 0 0 0 0 0 0 0 0 0 0 0 0 0 0.25 0"/>
<feBlend mode="normal" in2="BackgroundImageFix" result="effect1_dropShadow_289_2"/>
<feBlend mode="normal" in="SourceGraphic" in2="effect1_dropShadow_289_2" result="shape"/>
</filter>
</defs>
</svg>
