<svg width="144" height="144" viewBox="0 0 144 144" fill="none" xmlns="http://www.w3.org/2000/svg">
<g clip-path="url(#clip0_18_1017)">
<path d="M144 0H0V144H144V0Z" fill="#AEEBD9"/>
<path d="M72.9806 137.487C100.758 137.487 123.275 135.096 123.275 132.147C123.275 129.198 100.758 126.807 72.9806 126.807C45.2037 126.807 22.686 129.198 22.686 132.147C22.686 135.096 45.2037 137.487 72.9806 137.487Z" fill="#8DDBCC"/>
<path d="M54.7979 116.912C47.0325 115.177 39.5566 111.534 34.3242 105.685C29.4251 100.208 26.7429 93.0951 25.595 85.8934C23.6654 73.7876 25.9737 60.9328 32.6461 50.5046C39.3182 40.0764 50.4321 32.2799 62.8051 30.1283C69.9691 28.8827 77.7155 29.594 83.8234 33.406C89.9316 37.2183 93.9881 44.4989 92.646 51.4852C91.9931 54.885 90.4269 59.0996 93.1736 61.2605C95.0983 62.7745 97.8982 62.0943 100.371 61.9122C107.622 61.378 114.619 66.2438 117.449 72.7658C120.28 79.2879 119.309 87.029 115.916 93.3281C112.524 99.6273 106.93 104.597 100.747 108.368C86.2809 117.193 71.5886 120.663 54.7979 116.912Z" fill="#C6F4E0"/>
<path d="M69.9375 53.8474C70.6716 51.3501 72.7913 49.3099 75.6362 48.5346C75.2995 46.8438 75.5244 45.0461 76.2669 43.49C77.0093 41.934 78.2653 40.6285 79.919 39.9367C79.7583 39.6896 79.6085 39.4353 79.4709 39.1743C78.7578 37.8222 78.6867 36.2344 79.1408 34.7746C80.1275 31.6025 80.2499 28.1448 79.3781 24.7441C78.2912 24.3821 77.2043 24.0198 76.084 23.6244C75.8913 21.9272 75.4881 20.2542 74.9643 18.4879C77.7273 17.6325 80.603 17.1423 84.0299 17.1881C85.2453 18.9616 85.8026 21.1755 85.6923 23.5498C87.6521 28.3139 88.9193 33.3622 89.5293 38.7092C89.5365 38.7251 89.5434 38.7406 89.5503 38.7565C90.2251 40.2759 90.1329 42.0258 89.3259 43.4791C89.2136 43.6815 89.097 43.8886 88.9763 44.102C88.4769 50.7635 86.1196 57.276 82.2397 62.714" fill="#EBBBA0"/>
<mask id="mask0_18_1017" style="mask-type:luminance" maskUnits="userSpaceOnUse" x="69" y="17" width="21" height="46">
<path d="M69.9375 53.8474C70.6716 51.3501 72.7913 49.3099 75.6362 48.5346C75.2995 46.8438 75.5244 45.0461 76.2669 43.49C77.0093 41.934 78.2653 40.6285 79.919 39.9367C79.7583 39.6896 79.6085 39.4353 79.4709 39.1743C78.7578 37.8222 78.6867 36.2344 79.1408 34.7746C80.1275 31.6025 80.2499 28.1448 79.3781 24.7441C78.2912 24.3821 77.2043 24.0198 76.084 23.6244C75.8913 21.9272 75.4881 20.2542 74.9643 18.4879C77.7273 17.6325 80.603 17.1423 84.0299 17.1881C85.2453 18.9616 85.8026 21.1755 85.6923 23.5498C87.6521 28.3139 88.9193 33.3622 89.5293 38.7092C89.5365 38.7251 89.5434 38.7406 89.5503 38.7565C90.2251 40.2759 90.1329 42.0258 89.3259 43.4791C89.2136 43.6815 89.097 43.8886 88.9763 44.102C88.4769 50.7635 86.1196 57.276 82.2397 62.714" fill="white"/>
</mask>
<g mask="url(#mask0_18_1017)">
<path d="M87.2599 24.2738C86.0454 23.4441 84.464 23.1739 83.043 23.5541C84.4124 28.6407 85.3697 33.8386 86.0739 39.0957C86.7035 39.5214 87.2527 40.0657 87.6841 40.6915C87.8163 40.2538 87.9482 39.816 88.0804 39.3782C89.3073 40.7465 89.2091 43.0934 87.7953 44.3583C88.1443 48.7331 87.8647 53.1573 86.9673 57.4531C90.3072 52.4578 92.608 46.6718 92.945 40.6719C93.282 34.6723 92.2063 27.6535 87.2599 24.2738Z" fill="#F2D8C2"/>
<path d="M79.2612 39.7745C77.2493 43.2642 76.7231 47.579 77.8371 51.4501C75.5403 48.5436 74.4168 44.7356 74.7681 41.0478C75.9414 40.8407 77.115 40.6336 79.2612 39.7745Z" fill="#F2D8C2"/>
</g>
<path d="M69.9375 53.8474C70.6716 51.3501 72.7913 49.3099 75.6362 48.5346C75.2995 46.8438 75.5244 45.0461 76.2669 43.49C77.0093 41.934 78.2653 40.6285 79.919 39.9367C79.7583 39.6896 79.6085 39.4353 79.4709 39.1743C78.7578 37.8222 78.6867 36.2344 79.1408 34.7746C80.1275 31.6025 80.2499 28.1448 79.3781 24.7441C78.2912 24.3821 77.2043 24.0198 76.084 23.6244C75.8913 21.9272 75.4881 20.2542 74.9643 18.4879C77.7273 17.6325 80.603 17.1423 84.0299 17.1881C85.2453 18.9616 85.8026 21.1755 85.6923 23.5498C87.6521 28.3139 88.9193 33.3622 89.5293 38.7092C89.5365 38.7251 89.5434 38.7406 89.5503 38.7565C90.2251 40.2759 90.1329 42.0258 89.3259 43.4791C89.2136 43.6815 89.097 43.8886 88.9763 44.102C88.4769 50.7635 86.1196 57.276 82.2397 62.714" stroke="#232938" stroke-width="1.2" stroke-miterlimit="10" stroke-linecap="round" stroke-linejoin="round"/>
<path d="M82.2947 41.4527C83.8672 44.8393 83.0697 49.1789 80.3962 51.7853" stroke="#E08E7E" stroke-miterlimit="10" stroke-linecap="round" stroke-linejoin="round"/>
<path d="M75.8936 49.223C76.4474 51.4057 77.35 53.4995 78.5561 55.4009" stroke="#E08E7E" stroke-miterlimit="10" stroke-linecap="round" stroke-linejoin="round"/>
<path d="M101.971 130.779C99.784 131.076 97.0426 131.024 94.7449 130.627C93.87 130.476 92.9746 130.447 92.0933 130.557C90.6392 130.738 89.3285 130.585 88.1578 130.149C87.75 129.997 87.4933 129.59 87.5066 129.154C87.5639 127.262 87.9763 125.59 88.5411 124.118C90.2475 123.954 91.9214 123.484 93.9515 122.543C95.1544 123.278 96.3577 124.014 97.7902 124.98C99.2201 124.955 100.647 125.592 101.551 126.66C102.362 127.62 102.657 128.927 102.48 130.262C102.444 130.528 102.237 130.743 101.971 130.779Z" fill="#FFF6E8" stroke="#232938" stroke-miterlimit="10" stroke-linecap="round" stroke-linejoin="round"/>
<path d="M87.7629 128.512C89.2326 128.809 90.7414 128.908 92.2845 128.795C93.095 128.736 93.9109 128.769 94.7147 128.888C97.2148 129.26 99.7766 129.215 102.261 128.753" stroke="#232938" stroke-miterlimit="10" stroke-linecap="round" stroke-linejoin="round"/>
<path d="M95.1913 122.9C94.2859 122.95 93.4112 123.427 92.8364 124.305C92.7186 124.485 92.6708 124.707 92.735 124.912C92.739 124.925 92.7436 124.939 92.7482 124.952C92.9084 125.403 93.4953 125.547 93.8634 125.241C94.3492 124.836 94.9045 124.515 95.4969 124.293C96.1371 124.054 96.1198 123.106 95.4589 122.933C95.4341 122.926 95.4091 122.92 95.3834 122.914C95.3209 122.901 95.2553 122.897 95.1913 122.9Z" fill="#FFF6E8" stroke="#232938" stroke-miterlimit="10" stroke-linecap="round" stroke-linejoin="round"/>
<path d="M97.0398 123.655C96.1338 123.614 95.2162 124.001 94.5564 124.817C94.4213 124.985 94.3516 125.201 94.3948 125.412C94.3977 125.425 94.4009 125.439 94.404 125.453C94.5184 125.918 95.088 126.12 95.4849 125.851C96.0088 125.497 96.5931 125.233 97.2046 125.072C97.8655 124.898 97.943 123.953 97.3028 123.714C97.2789 123.705 97.2544 123.696 97.2296 123.689C97.1688 123.669 97.104 123.658 97.0398 123.655Z" fill="#FFF6E8" stroke="#232938" stroke-miterlimit="10" stroke-linecap="round" stroke-linejoin="round"/>
<path d="M94.224 122.974C92.3612 119.034 91.2444 114.744 90.9503 110.396C91.3328 108.852 91.2717 107.046 90.55 105.544C89.98 103.182 89.3027 100.837 88.6613 98.7708C85.5189 100.655 82.3765 102.539 79.0447 104.673C80.5331 106.446 81.9399 108.593 82.9621 110.69C82.8085 111.573 82.655 112.455 82.4834 113.456C82.1859 115.189 82.7149 116.961 83.9081 118.254C84.237 118.61 84.5861 118.955 84.9567 119.288C85.5961 119.863 86.1727 120.505 86.6338 121.231C87.361 122.376 88.0565 123.534 88.7733 124.65C90.5681 125.076 92.5314 124.735 94.224 122.974Z" fill="#EBBBA0"/>
<mask id="mask1_18_1017" style="mask-type:luminance" maskUnits="userSpaceOnUse" x="79" y="98" width="16" height="27">
<path d="M94.224 122.974C92.3612 119.034 91.2444 114.744 90.9503 110.396C91.3328 108.852 91.2717 107.046 90.55 105.544C89.98 103.182 89.3027 100.837 88.6613 98.7708C85.5189 100.655 82.3765 102.539 79.0447 104.673C80.5331 106.446 81.9399 108.593 82.9621 110.69C82.8085 111.573 82.655 112.455 82.4834 113.456C82.1859 115.189 82.7149 116.961 83.9081 118.254C84.237 118.61 84.5861 118.955 84.9567 119.288C85.5961 119.863 86.1727 120.505 86.6338 121.231C87.361 122.376 88.0565 123.534 88.7733 124.65C90.5681 125.076 92.5314 124.735 94.224 122.974Z" fill="white"/>
</mask>
<g mask="url(#mask1_18_1017)">
<path d="M89.8435 98.4629C88.8401 103.524 84.8424 109.554 79.9798 111.279C79.3626 109.463 78.6132 106.136 77.4146 104.639C81.5249 102.456 85.7259 100.444 89.8435 98.4629Z" fill="#E08E7E"/>
</g>
<path d="M94.224 122.974C92.3612 119.034 91.2444 114.744 90.9503 110.396C91.3328 108.852 91.2717 107.046 90.55 105.544C89.98 103.182 89.3027 100.837 88.6613 98.7708C85.5189 100.655 82.3766 102.539 79.0447 104.673C80.5331 106.446 81.9399 108.593 82.9621 110.69C82.8085 111.573 82.655 112.455 82.4834 113.456C82.1859 115.189 82.7149 116.961 83.9081 118.254C84.237 118.61 84.5861 118.955 84.9567 119.288C85.5961 119.863 86.1727 120.505 86.6338 121.231C87.361 122.376 88.0565 123.534 88.7733 124.65C90.5681 125.076 92.5314 124.735 94.224 122.974Z" stroke="#232938" stroke-width="1.2" stroke-miterlimit="10" stroke-linecap="round" stroke-linejoin="round"/>
<path d="M86.9663 108.823C87.3234 109.454 87.8963 109.961 88.5664 110.238" stroke="#E08E7E" stroke-miterlimit="10" stroke-linecap="round" stroke-linejoin="round"/>
<path d="M58.0368 131.041C57.205 128.479 55.7299 126.01 54.361 123.697C52.7114 123.5 51.3704 123.325 50.0292 123.15C48.4397 125.185 47.3793 127.852 46.8149 130.6C46.6916 131.2 46.7011 131.819 46.8408 132.416L46.8451 132.434C46.9298 132.796 47.1789 133.097 47.5173 133.252C50.4529 134.59 54.2277 134.485 57.2488 133.293C57.7326 133.102 58.0745 132.662 58.1358 132.145C58.1554 131.979 58.1618 131.807 58.1531 131.637C58.143 131.434 58.0993 131.234 58.0368 131.041Z" fill="#FFF6E8" stroke="#232938" stroke-miterlimit="10" stroke-linecap="round" stroke-linejoin="round"/>
<path d="M46.9272 130.85C50.3187 132.453 54.379 132.577 57.8617 131.183" stroke="#232938" stroke-miterlimit="10" stroke-linecap="round" stroke-linejoin="round"/>
<path d="M54.8241 125.448C55.9 120.906 57.8458 116.571 60.5242 112.748C61.8694 112.234 63.1496 111.011 63.6596 109.505C65.0921 107.859 66.5681 106.247 67.8857 104.514C64.5896 103.325 61.7237 101.448 59.2696 99.1331C57.5419 101.385 56.5362 104.277 55.5959 107.393C54.6219 107.941 53.6859 108.557 52.7461 109.276C50.8744 110.709 49.6401 112.856 49.4598 115.206C49.3904 116.112 49.4088 117.01 49.5148 117.869C49.6043 118.594 49.6092 119.329 49.511 120.054C49.3054 121.574 49.2495 123.09 49.4491 124.503C51.0827 125.427 53.1159 125.612 54.8241 125.448Z" fill="#EBBBA0"/>
<mask id="mask2_18_1017" style="mask-type:luminance" maskUnits="userSpaceOnUse" x="49" y="99" width="19" height="27">
<path d="M54.8241 125.448C55.9 120.906 57.8458 116.571 60.5242 112.748C61.8694 112.234 63.1496 111.011 63.6596 109.505C65.0921 107.859 66.5681 106.247 67.8857 104.514C64.5896 103.325 61.7237 101.448 59.2696 99.1331C57.5419 101.385 56.5362 104.277 55.5959 107.393C54.6219 107.941 53.6859 108.557 52.7461 109.276C50.8744 110.709 49.6401 112.856 49.4598 115.206C49.3904 116.112 49.4088 117.01 49.5148 117.869C49.6043 118.594 49.6092 119.329 49.511 120.054C49.3054 121.574 49.2495 123.09 49.4491 124.503C51.0827 125.427 53.1159 125.612 54.8241 125.448Z" fill="white"/>
</mask>
<g mask="url(#mask2_18_1017)">
<path d="M69.0614 105.924C64.1735 107.029 58.7971 105.701 54.9851 102.448C56.0455 100.848 56.7842 99.0348 57.1445 97.149C61.0518 99.8672 65.4726 101.844 70.1034 102.944C69.6858 103.925 69.2682 104.907 69.0614 105.924Z" fill="#E08E7E"/>
</g>
<path d="M54.8241 125.448C55.9 120.906 57.8458 116.571 60.5242 112.748C61.8694 112.234 63.1496 111.011 63.6596 109.505C65.0921 107.859 66.5681 106.247 67.8857 104.514C64.5896 103.325 61.7237 101.448 59.2696 99.1331C57.5419 101.385 56.5362 104.277 55.5959 107.393C54.6219 107.941 53.6859 108.557 52.7461 109.276C50.8744 110.709 49.6401 112.856 49.4598 115.206C49.3904 116.112 49.4088 117.01 49.5148 117.869C49.6043 118.594 49.6092 119.329 49.511 120.054C49.3054 121.574 49.2495 123.09 49.4491 124.503C51.0827 125.427 53.1159 125.612 54.8241 125.448Z" stroke="#232938" stroke-width="1.2" stroke-miterlimit="10" stroke-linecap="round" stroke-linejoin="round"/>
<path d="M58.0838 108.366C57.7333 109.224 57.8759 110.264 58.4438 110.996" stroke="#E08E7E" stroke-miterlimit="10" stroke-linecap="round" stroke-linejoin="round"/>
<path d="M54.4023 126.227C54.4438 126.021 54.3799 125.806 54.2491 125.641C53.7788 125.048 53.0245 124.647 52.2343 124.587C51.4328 124.525 50.6169 124.817 50.0717 125.432C49.8934 125.634 49.8277 125.923 49.9254 126.173C49.9268 126.177 49.928 126.18 49.9294 126.183C50.0587 126.505 50.4178 126.67 50.7574 126.603C51.6257 126.431 52.5516 126.496 53.39 126.786C53.8171 126.933 54.2923 126.706 54.3934 126.266C54.3969 126.253 54.3997 126.24 54.4023 126.227Z" fill="#FFF6E8" stroke="#232938" stroke-miterlimit="10" stroke-linecap="round" stroke-linejoin="round"/>
<path d="M54.2548 127.895C54.2963 127.689 54.2324 127.474 54.1016 127.31C53.6313 126.717 52.877 126.315 52.0868 126.255C51.2852 126.194 50.4693 126.485 49.9245 127.101C49.7462 127.302 49.6805 127.591 49.7781 127.842C49.7796 127.845 49.7807 127.849 49.7822 127.852C49.9115 128.173 50.2706 128.338 50.6102 128.271C51.4785 128.099 52.4044 128.164 53.2428 128.454C53.6699 128.602 54.1451 128.375 54.2462 127.935C54.2493 127.922 54.2522 127.908 54.2548 127.895Z" fill="#FFF6E8" stroke="#232938" stroke-miterlimit="10" stroke-linecap="round" stroke-linejoin="round"/>
<path d="M63.5531 86.8625C60.8946 90.8315 58.8518 95.2119 57.8418 99.7491C60.8364 102.997 64.6193 105.512 68.7371 107.093C70.3606 105.714 71.984 104.335 74.269 102.871C75.5385 104.27 76.8083 105.67 78.3422 107.381C82.7506 106.213 86.7875 103.682 89.8423 100.483C88.8493 96.8921 87.5818 93.3765 86.2714 89.9142C86.2075 88.484 85.8639 87.067 85.2925 85.5769C78.0145 86.4795 70.6708 86.849 63.5531 86.8625Z" fill="#3F9E83"/>
<mask id="mask3_18_1017" style="mask-type:luminance" maskUnits="userSpaceOnUse" x="57" y="85" width="33" height="23">
<path d="M63.5531 86.8625C60.8946 90.8315 58.8518 95.2119 57.8418 99.7491C60.8364 102.997 64.6193 105.512 68.7371 107.093C70.3606 105.714 71.984 104.335 74.269 102.871C75.5385 104.27 76.8083 105.67 78.3422 107.381C82.7506 106.213 86.7875 103.682 89.8423 100.483C88.8493 96.8921 87.5818 93.3765 86.2714 89.9142C86.2075 88.484 85.8639 87.067 85.2925 85.5769C78.0145 86.4795 70.6708 86.849 63.5531 86.8625Z" fill="white"/>
</mask>
<g mask="url(#mask3_18_1017)">
<path d="M68.2073 87.2283C71.0763 88.7798 74.1689 89.9171 77.8222 90.8185C79.9525 91.2796 82.1465 91.444 84.3217 91.3052C81.4633 92.4872 78.5096 93.4384 75.4986 94.1472C78.6818 94.4505 81.9074 94.3039 85.0498 93.7138C82.5874 95.7416 79.2731 96.6989 76.1088 96.2966C78.7639 97.484 81.6088 98.246 84.6141 98.5936C85.1181 99.6336 85.7566 100.608 86.8717 101.625C84.3471 104.149 81.5109 106.362 78.4477 108.196C80.7644 108.458 83.1144 107.894 85.2477 106.954C87.3812 106.014 89.3298 104.708 91.2657 103.409C91.9958 102.919 92.7886 102.338 92.9453 101.473C93.0386 100.957 92.8834 100.433 92.7299 99.932C91.0359 94.4096 89.3416 88.8872 87.6473 83.3648C81.5731 85.3713 75.0919 86.1368 68.2073 87.2283Z" fill="#5BBD91"/>
<path d="M73.7274 94.4865C71.4513 93.7132 69.0462 93.3209 66.6426 93.331C68.7289 94.699 71.3949 95.1486 73.7274 94.4865Z" fill="#5BBD91"/>
<path d="M73.5968 96.6111C70.5063 96.8 67.4451 97.4667 64.5559 98.5804C66.0259 98.9358 67.579 98.8143 69.0481 98.4548C70.5172 98.0954 71.9183 97.5056 73.5968 96.6111Z" fill="#5BBD91"/>
</g>
<path d="M63.5531 86.8625C60.8946 90.8315 58.8518 95.2119 57.8418 99.7491C60.8364 102.997 64.6193 105.512 68.7371 107.093C70.3606 105.714 71.984 104.335 74.269 102.871C75.5385 104.27 76.8083 105.67 78.3422 107.381C82.7506 106.213 86.7875 103.682 89.8423 100.483C88.8493 96.8921 87.5818 93.3765 86.2714 89.9142C86.2075 88.484 85.8639 87.067 85.2925 85.5769C78.0145 86.4795 70.6708 86.849 63.5531 86.8625Z" stroke="#232938" stroke-width="1.2" stroke-miterlimit="10" stroke-linecap="round" stroke-linejoin="round"/>
<path d="M80.1632 56.9122C82.2097 59.3493 83.8387 62.1351 84.9644 65.1116C85.3846 66.2224 85.4754 67.432 85.2432 68.597C85.058 69.5266 84.8674 70.3261 84.618 71.1069C85.0722 73.5949 85.2709 75.8696 85.0183 78.0938C85.6332 81.3338 85.6824 84.4966 85.1669 87.5652C78.1993 88.9698 70.8738 88.727 63.9707 86.8835C63.0036 85.9654 62.817 85.0449 62.6306 84.1245C55.5781 80.5334 50.7161 73.8711 49.6885 66.5599C51.7454 62.6158 54.655 59.8231 58.1387 58.3211C58.3783 56.0557 58.5419 54.0006 59.2247 51.7988C62.1289 50.9912 65.1094 50.459 68.5611 50.4861C68.9931 51.1059 69.4251 51.7256 69.8568 52.3454" fill="#EBBBA0"/>
<mask id="mask4_18_1017" style="mask-type:luminance" maskUnits="userSpaceOnUse" x="49" y="50" width="37" height="39">
<path d="M80.1632 56.9122C82.2097 59.3493 83.8387 62.1351 84.9644 65.1116C85.3846 66.2224 85.4754 67.432 85.2432 68.597C85.058 69.5266 84.8674 70.3261 84.618 71.1069C85.0722 73.5949 85.2709 75.8696 85.0183 78.0938C85.6332 81.3338 85.6824 84.4966 85.1669 87.5652C78.1993 88.9698 70.8738 88.727 63.9707 86.8835C63.0036 85.9654 62.817 85.0449 62.6306 84.1245C55.5781 80.5334 50.7161 73.8711 49.6885 66.5599C51.7454 62.6158 54.655 59.8231 58.1387 58.3211C58.3783 56.0557 58.5419 54.0006 59.2247 51.7988C62.1289 50.9912 65.1094 50.459 68.5611 50.4861C68.9931 51.1059 69.4251 51.7256 69.8568 52.3454" fill="white"/>
</mask>
<g mask="url(#mask4_18_1017)">
<path d="M85.505 59.7208C83.6255 58.0568 81.0445 57.2121 78.5449 57.4436C76.7389 57.6106 74.9945 58.3378 73.5081 59.656C72.4264 60.6153 72.0269 62.125 72.4595 63.5043C72.8356 64.7038 73.3226 65.888 73.9392 67.0677C75.0354 69.1652 77.2619 70.4336 79.6264 70.3287C82.4367 70.2043 85.2231 69.5186 87.7621 68.3058C87.644 65.0445 87.333 61.3394 85.505 59.7208Z" fill="#F2D8C2"/>
</g>
<path d="M80.1632 56.9122C82.2097 59.3493 83.8387 62.1351 84.9644 65.1116C85.3846 66.2224 85.4754 67.432 85.2432 68.597C85.058 69.5266 84.8674 70.3261 84.618 71.1069C85.0722 73.5949 85.2709 75.8696 85.0183 78.0938C85.6332 81.3338 85.6824 84.4966 85.1669 87.5652C78.1993 88.9698 70.8738 88.727 63.9707 86.8835C63.0036 85.9654 62.817 85.0449 62.6306 84.1245C55.5781 80.5334 50.7161 73.8711 49.6885 66.5599C51.7454 62.6158 54.655 59.8231 58.1387 58.3211C58.3783 56.0557 58.5419 54.0006 59.2247 51.7988C62.1289 50.9912 65.1094 50.459 68.5611 50.4861C68.9931 51.1059 69.4251 51.7256 69.8568 52.3454" stroke="#232938" stroke-width="1.2" stroke-miterlimit="10" stroke-linecap="round" stroke-linejoin="round"/>
<path d="M68.7968 63.6192C65.3604 63.2203 61.8355 63.6183 58.2787 65.1387C57.0775 65.6522 56.3958 66.9343 56.6193 68.2214C57.0018 70.4238 57.7114 72.5743 59.5278 73.7257C63.1589 76.0277 70.3938 75.6789 73.2602 72.7338C73.9082 69.0981 72.381 64.0351 68.7968 63.6192Z" fill="#F2D8C2"/>
<path d="M81.0641 76.9553C80.9411 76.1048 80.3504 75.3373 79.5601 75.0004C78.7696 74.6634 77.8068 74.7691 77.1084 75.2696C77.0629 76.1993 77.5983 77.1324 78.4234 77.5627C79.2485 77.993 80.3202 77.8976 81.0641 76.9553Z" fill="#F2D8C2"/>
<path d="M76.5455 78.1001C76.7215 77.2266 76.3589 76.267 75.6493 75.7282C74.9396 75.189 73.9184 75.0971 73.1238 75.5006C73.148 76.3494 73.5132 77.1834 74.1206 77.777C74.7277 78.3706 75.5701 78.7167 76.5455 78.1001Z" fill="#F2D8C2"/>
<path d="M82.783 81.6661C82.8395 80.7307 82.2586 79.7898 81.3969 79.4215C80.5352 79.0531 79.4535 79.2832 78.8164 79.9704C79.0004 80.6244 79.577 81.1097 80.2095 81.3583C80.8419 81.6068 81.5322 81.6549 82.783 81.6661Z" fill="#F2D8C2"/>
<path d="M56.7881 63.1132C59.2822 62.8796 61.767 62.5504 64.2358 62.1265" stroke="#E08E7E" stroke-miterlimit="10" stroke-linecap="round" stroke-linejoin="round"/>
<path d="M66.5557 62.0778C66.9831 62.1593 67.4174 62.2345 67.8508 62.1979C68.2842 62.161 68.7229 62 69.0126 61.6755C69.3023 61.3509 69.4077 60.8454 69.1724 60.4857C69.41 60.0578 69.6479 59.6301 69.8855 59.2021" stroke="#E08E7E" stroke-miterlimit="10" stroke-linecap="round" stroke-linejoin="round"/>
<path d="M56.5359 74.374C57.7438 76.0161 59.551 77.2027 61.9379 77.6984C62.6648 77.8493 63.4096 77.8858 64.1503 77.8326C67.4327 77.5967 70.6401 76.3522 73.212 74.2968" stroke="#E08E7E" stroke-miterlimit="10" stroke-linecap="round" stroke-linejoin="round"/>
<path d="M71.011 64.7404C72.6039 66.8416 73.5592 69.4198 73.7202 72.0515" stroke="#E08E7E" stroke-miterlimit="10" stroke-linecap="round" stroke-linejoin="round"/>
<path d="M75.5312 73.7372C78.3378 74.098 81.261 73.4774 83.6791 72.0074" stroke="#E08E7E" stroke-miterlimit="10" stroke-linecap="round" stroke-linejoin="round"/>
<path d="M75.769 75.5346C76.5916 76.3652 76.9092 77.6606 76.5645 78.7775" stroke="#E08E7E" stroke-miterlimit="10" stroke-linecap="round" stroke-linejoin="round"/>
<path d="M77.0212 79.8871C77.9794 80.7785 78.2055 82.357 77.5356 83.4814" stroke="#E08E7E" stroke-miterlimit="10" stroke-linecap="round" stroke-linejoin="round"/>
<path d="M77.9127 84.3483C78.4774 85.3292 78.3504 86.6612 77.6108 87.518" stroke="#E08E7E" stroke-miterlimit="10" stroke-linecap="round" stroke-linejoin="round"/>
<path d="M75.3512 79.5461C74.3363 79.8868 73.1887 79.8134 72.2256 79.346" stroke="#E08E7E" stroke-miterlimit="10" stroke-linecap="round" stroke-linejoin="round"/>
<path d="M77.8613 79.0395C78.888 79.2193 79.985 78.9526 80.8145 78.3216" stroke="#E08E7E" stroke-miterlimit="10" stroke-linecap="round" stroke-linejoin="round"/>
<path d="M71.9199 83.3918C73.2102 83.9396 74.6625 84.098 76.0406 83.8417" stroke="#E08E7E" stroke-miterlimit="10" stroke-linecap="round" stroke-linejoin="round"/>
<path d="M78.7424 83.7772C79.9085 84.1242 81.2544 83.7714 82.1002 82.897" stroke="#E08E7E" stroke-miterlimit="10" stroke-linecap="round" stroke-linejoin="round"/>
<path d="M71.8318 76.2206C71.1363 76.8827 70.9229 77.9996 71.3249 78.8714" stroke="#E08E7E" stroke-miterlimit="10" stroke-linecap="round" stroke-linejoin="round"/>
<path d="M79.9797 74.8794C80.8599 75.4908 81.382 76.5838 81.3042 77.6528" stroke="#E08E7E" stroke-miterlimit="10" stroke-linecap="round" stroke-linejoin="round"/>
<path d="M71.1661 79.8341C70.5025 80.6921 70.4492 81.9723 70.9844 83.134C70.1152 84.0954 69.8658 85.572 70.3712 86.7654" stroke="#E08E7E" stroke-miterlimit="10" stroke-linecap="round" stroke-linejoin="round"/>
<path d="M81.8193 78.8685C82.6491 79.7221 82.9589 81.0449 82.7484 82.7248C83.4509 83.6407 83.6015 84.9485 83.1254 86" stroke="#E08E7E" stroke-miterlimit="10" stroke-linecap="round" stroke-linejoin="round"/>
<path d="M58.2266 49.6238C57.4842 47.0612 58.2373 44.1219 60.1208 42.2323C62.0043 40.3428 64.9414 39.5798 67.5063 40.314C69.9024 41 71.883 42.9662 72.7041 45.4366C72.8087 45.7511 72.851 46.0835 72.832 46.4144C72.7986 46.9987 72.779 47.632 72.8285 48.5015C73.0033 48.8249 73.1779 49.1484 73.3613 49.5147C73.6421 50.0757 73.7153 50.722 73.5534 51.3282C72.9941 53.4234 72.3337 55.5002 71.5374 57.5977C71.1872 58.5202 70.3385 59.1601 69.3558 59.252C68.302 59.3505 67.2396 59.3819 66.1746 59.3565C65.2288 59.3338 64.3417 58.911 63.7306 58.189C62.5884 56.8397 61.6092 55.3522 60.8232 53.7685" fill="#EBBBA0"/>
<mask id="mask5_18_1017" style="mask-type:luminance" maskUnits="userSpaceOnUse" x="57" y="40" width="17" height="20">
<path d="M58.2266 49.6238C57.4842 47.0612 58.2373 44.1219 60.1208 42.2323C62.0043 40.3428 64.9414 39.5798 67.5063 40.314C69.9024 41 71.883 42.9662 72.7041 45.4366C72.8087 45.7511 72.851 46.0835 72.832 46.4144C72.7986 46.9987 72.779 47.632 72.8285 48.5015C73.0033 48.8249 73.1779 49.1484 73.3613 49.5147C73.6421 50.0757 73.7153 50.722 73.5534 51.3282C72.9941 53.4234 72.3337 55.5002 71.5374 57.5977C71.1872 58.5202 70.3385 59.1601 69.3558 59.252C68.302 59.3505 67.2396 59.3819 66.1746 59.3565C65.2288 59.3338 64.3417 58.911 63.7306 58.189C62.5884 56.8397 61.6092 55.3522 60.8232 53.7685" fill="white"/>
</mask>
<g mask="url(#mask5_18_1017)">
<path d="M60.3872 40.8157C61.835 40.4032 63.4299 40.5305 64.7939 41.1676C66.1579 41.8047 67.279 42.9463 67.9455 44.2639C68.7432 44.3745 69.5545 44.3863 70.3552 44.299C69.9284 44.6487 69.5848 45.0991 69.3607 45.6031C69.9917 45.2961 70.6682 45.0827 71.2969 44.9496C71.8534 46.2162 72.1336 47.6032 72.0642 49.0539C71.7742 49.21 71.4844 49.3658 71.1944 49.5219C71.1515 49.5449 71.104 49.5737 71.0939 49.6216C71.0807 49.6846 71.1394 49.7379 71.1915 49.7756C71.5011 49.9997 71.8104 50.2238 72.1249 50.4925C71.911 53.8595 70.8232 57.1674 68.9975 60.0045C70.051 60.167 71.1276 59.667 71.8741 58.9058C72.6206 58.1446 73.0817 57.1507 73.4411 56.1471C74.6527 52.7645 74.8486 49.0479 74.1614 45.521C73.88 44.0776 73.4353 42.6249 72.5276 41.468C71.2393 39.8264 69.1102 38.9647 67.0236 38.9563C64.9367 38.948 62.9003 39.7233 60.3872 40.8157Z" fill="#F2D8C2"/>
<path d="M66.6704 45.1985C66.4933 44.2374 65.7499 43.4031 64.8157 43.1165C63.8814 42.8299 62.7982 43.1041 62.1128 43.8005C63.5819 43.9212 65.0248 44.3552 66.6704 45.1985Z" fill="#F2D8C2"/>
<path d="M69.7571 50.1984C69.4607 49.8479 68.9947 49.6475 68.5362 49.6737C68.3271 50.5596 68.3047 51.4892 68.4706 52.3843C69.0494 52.4045 69.6283 52.4247 70.2072 52.4451C70.2086 51.6744 70.2449 50.7753 69.7571 50.1984Z" fill="#F2D8C2"/>
</g>
<path d="M58.2266 49.6238C57.4842 47.0612 58.2373 44.1219 60.1208 42.2323C62.0043 40.3428 64.9414 39.5798 67.5063 40.314C69.9024 41 71.883 42.9662 72.7041 45.4366C72.8087 45.7511 72.851 46.0835 72.832 46.4144C72.7986 46.9987 72.779 47.632 72.8285 48.5015C73.0033 48.8249 73.1779 49.1484 73.3613 49.5147C73.6421 50.0757 73.7153 50.722 73.5534 51.3282C72.9941 53.4234 72.3337 55.5002 71.5374 57.5977C71.1872 58.5202 70.3385 59.1601 69.3558 59.252C68.302 59.3505 67.2396 59.3819 66.1746 59.3565C65.2288 59.3338 64.3417 58.911 63.7306 58.189C62.5884 56.8397 61.6092 55.3522 60.8232 53.7685" stroke="#232938" stroke-width="1.2" stroke-miterlimit="10" stroke-linecap="round" stroke-linejoin="round"/>
<path d="M59.4736 50.0267C59.0813 49.646 58.6381 49.2422 58.101 49.2264C57.5572 49.2103 57.055 49.6359 56.8764 50.1687C56.6978 50.7015 56.8084 51.3072 57.082 51.7945C57.6534 52.8126 58.9581 53.3134 60.0314 52.9263" fill="#EBBBA0"/>
<path d="M59.4736 50.0267C59.0813 49.646 58.6381 49.2422 58.101 49.2264C57.5572 49.2103 57.055 49.6359 56.8764 50.1687C56.6978 50.7015 56.8084 51.3072 57.082 51.7945C57.6534 52.8126 58.9581 53.3134 60.0314 52.9263" stroke="#232938" stroke-miterlimit="10" stroke-linecap="round" stroke-linejoin="round"/>
<path d="M62.1568 46.3646C62.1269 46.9342 62.2904 47.5117 62.617 47.9892C63.1997 47.4428 64.0516 47.3602 64.8122 47.4906C65.5728 47.6211 66.2836 47.9356 67.0206 48.1582C67.1738 47.8961 67.2366 47.5485 67.2366 47.3317C65.9357 46.1267 63.9133 45.6892 62.1568 46.3646Z" fill="#B04F2C" stroke="#232938" stroke-miterlimit="10" stroke-linecap="round" stroke-linejoin="round"/>
<path d="M72.634 45.0726C71.5278 45.3963 70.5051 46.0601 69.7119 46.9696C69.7217 47.2614 69.7284 47.7098 69.6797 47.9935C70.2332 47.8647 70.7159 47.4477 71.2234 47.1467C71.7305 46.8458 72.308 46.6059 72.9214 46.7772C73.0427 46.2226 72.9908 45.6241 72.634 45.0726Z" fill="#B04F2C" stroke="#232938" stroke-miterlimit="10" stroke-linecap="round" stroke-linejoin="round"/>
<path d="M69.1633 49.354C69.3926 49.5956 69.6221 49.8375 69.8571 50.1402C70.1382 50.8395 70.2813 51.594 70.2226 52.4194C69.5098 52.5997 68.7443 52.5649 68.0508 52.3209" stroke="#232938" stroke-miterlimit="10" stroke-linecap="round" stroke-linejoin="round"/>
<path d="M70.293 53.7745C68.4682 54.1215 66.5038 53.6524 65.033 52.5182" stroke="#232938" stroke-miterlimit="10" stroke-linecap="round" stroke-linejoin="round"/>
<path d="M65.5378 52.1715C65.1393 52.1879 64.7577 52.4321 64.5759 52.7872" stroke="#232938" stroke-miterlimit="10" stroke-linecap="round" stroke-linejoin="round"/>
<path d="M70.5166 54.8398C70.5477 55.2465 70.4526 55.6618 70.2476 56.0143" stroke="#232938" stroke-miterlimit="10" stroke-linecap="round" stroke-linejoin="round"/>
<path d="M63.6743 49.5371C64.4583 49.7831 65.3243 49.7578 66.0924 49.4666" stroke="#232938" stroke-miterlimit="10" stroke-linecap="round" stroke-linejoin="round"/>
<path d="M70.1699 49.127C70.8142 49.5317 71.7369 49.4156 72.2608 48.8641" stroke="#232938" stroke-miterlimit="10" stroke-linecap="round" stroke-linejoin="round"/>
<path d="M52.7576 63.6589C51.5826 63.6805 50.4093 63.8093 49.2238 64.0477C47.6367 64.3671 46.2785 65.4333 45.6512 66.9257C44.7843 68.9878 44.3924 71.286 44.4612 73.6183C43.4673 74.859 42.5823 76.1869 41.8266 77.612C40.7757 79.5931 40.2544 81.8003 40.1418 84.0404C40.0629 85.6115 39.7101 87.27 39.3596 88.8872C39.1922 89.6584 39.5479 90.4501 40.2388 90.8317C40.6095 91.0365 41.0196 91.2208 41.413 91.427C41.5783 91.5417 41.7321 91.6649 41.8801 91.7945C43.1704 92.9226 44.7492 93.674 46.453 93.8566C49.5337 94.1869 52.736 94.0608 56.1762 93.4551C59.4041 93.7627 62.693 93.4157 65.8057 92.2401C66.3515 91.8328 66.5845 91.0538 66.492 90.2681C66.812 90.1103 67.0496 89.7955 67.1138 89.4447C67.1781 89.0939 67.0672 88.7152 66.8065 88.4465C67.1516 88.1366 67.3382 87.6588 67.2944 87.1969C67.2509 86.7352 66.9782 86.3006 66.5298 86.0417C66.8166 85.4225 66.6202 84.6173 66.0062 84.246C65.0613 84.0035 64.061 83.9805 63.1628 84.2293C62.9545 83.6859 62.6225 83.1902 61.9912 82.8887C60.9587 83.3201 59.9265 83.7515 58.6803 84.4065C58.2331 85.0706 58.0145 85.8859 58.0666 86.7637C56.9572 86.7488 55.8519 86.4838 54.8413 86.0386C54.2028 84.9666 53.2475 84.0859 52.395 83.4051C53.8353 82.5229 54.9617 81.1394 55.5339 79.5505C56.1059 77.9613 56.1197 76.1774 55.5725 74.5796" fill="#EBBBA0"/>
<mask id="mask6_18_1017" style="mask-type:luminance" maskUnits="userSpaceOnUse" x="39" y="63" width="29" height="32">
<path d="M52.7576 63.6589C51.5826 63.6805 50.4093 63.8093 49.2238 64.0477C47.6367 64.3671 46.2785 65.4333 45.6512 66.9257C44.7843 68.9878 44.3924 71.286 44.4612 73.6183C43.4673 74.859 42.5823 76.1869 41.8266 77.612C40.7757 79.5931 40.2544 81.8003 40.1418 84.0404C40.0629 85.6115 39.7101 87.27 39.3596 88.8872C39.1922 89.6584 39.5479 90.4501 40.2388 90.8317C40.6095 91.0365 41.0196 91.2208 41.413 91.427C41.5783 91.5417 41.7321 91.6649 41.8801 91.7945C43.1704 92.9226 44.7492 93.674 46.453 93.8566C49.5337 94.1869 52.736 94.0608 56.1762 93.4551C59.4041 93.7627 62.693 93.4157 65.8057 92.2401C66.3515 91.8328 66.5845 91.0538 66.492 90.2681C66.812 90.1103 67.0496 89.7955 67.1138 89.4447C67.1781 89.0939 67.0672 88.7152 66.8065 88.4465C67.1516 88.1366 67.3382 87.6588 67.2944 87.1969C67.2509 86.7352 66.9782 86.3006 66.5298 86.0417C66.8166 85.4225 66.6202 84.6173 66.0062 84.246C65.0613 84.0035 64.061 83.9805 63.1628 84.2293C62.9545 83.6859 62.6225 83.1902 61.9912 82.8887C60.9587 83.3201 59.9265 83.7515 58.6803 84.4065C58.2331 85.0706 58.0145 85.8859 58.0666 86.7637C56.9572 86.7488 55.8519 86.4838 54.8413 86.0386C54.2028 84.9666 53.2475 84.0859 52.395 83.4051C53.8353 82.5229 54.9617 81.1394 55.5339 79.5505C56.1059 77.9613 56.1197 76.1774 55.5725 74.5796" fill="white"/>
</mask>
<g mask="url(#mask6_18_1017)">
<path d="M54.3172 84.6979C53.3023 83.8302 51.9916 83.3152 50.6573 83.2602C49.3233 83.2052 47.9746 83.6101 46.7998 84.566C47.3617 85.5898 48.3328 86.3453 49.3979 86.8242C50.4629 87.3032 51.6238 87.5275 52.7807 87.6871C54.7149 87.9538 56.6727 88.05 58.6968 87.8282C58.7112 87.2317 58.833 86.6379 59.0718 85.9945C59.8836 85.6529 60.6955 85.3114 61.5074 84.9701C61.3429 85.2578 61.1782 85.5455 61.0138 85.8332C61.5149 85.729 62.016 85.6247 62.6689 85.5481C64.2388 85.3232 65.8703 85.5449 67.3233 86.1805C67.6579 85.2895 67.3765 84.2472 66.7781 83.507C66.1796 82.7666 65.3078 82.2931 64.4081 81.9815C62.6594 81.3758 60.722 81.3272 58.9451 81.8444C57.1684 82.3617 55.5599 83.4422 54.3172 84.6979Z" fill="#F2D8C2"/>
</g>
<path d="M52.7576 63.6589C51.5826 63.6805 50.4093 63.8093 49.2238 64.0477C47.6367 64.3671 46.2785 65.4333 45.6512 66.9257C44.7843 68.9878 44.3924 71.286 44.4612 73.6183C43.4673 74.859 42.5823 76.1869 41.8266 77.612C40.7757 79.5931 40.2544 81.8003 40.1418 84.0404C40.0629 85.6115 39.7101 87.27 39.3596 88.8872C39.1922 89.6584 39.5479 90.4501 40.2388 90.8317C40.6095 91.0365 41.0196 91.2208 41.413 91.427C41.5783 91.5417 41.7321 91.6649 41.8801 91.7945C43.1704 92.9226 44.7492 93.674 46.453 93.8566C49.5337 94.1869 52.736 94.0608 56.1762 93.4551C59.4041 93.7627 62.693 93.4157 65.8057 92.2401C66.3515 91.8328 66.5845 91.0538 66.492 90.2681C66.812 90.1103 67.0496 89.7955 67.1138 89.4447C67.1781 89.0939 67.0672 88.7152 66.8065 88.4465C67.1516 88.1366 67.3382 87.6588 67.2944 87.1969C67.2509 86.7352 66.9782 86.3006 66.5298 86.0417C66.8166 85.4225 66.6202 84.6173 66.0062 84.246C65.0613 84.0035 64.061 83.9805 63.1628 84.2293C62.9545 83.6859 62.6225 83.1902 61.9912 82.8887C60.9587 83.3201 59.9265 83.7515 58.6803 84.4065C58.2331 85.0706 58.0145 85.8859 58.0666 86.7637C56.9572 86.7488 55.8519 86.4838 54.8413 86.0386C54.2028 84.9666 53.2475 84.0859 52.395 83.4051C53.8353 82.5229 54.9617 81.1394 55.5339 79.5505C56.1059 77.9613 56.1197 76.1774 55.5725 74.5796" stroke="#232938" stroke-width="1.2" stroke-miterlimit="10" stroke-linecap="round" stroke-linejoin="round"/>
<path d="M45.606 74.0151C48.0715 73.3285 50.5794 72.7932 53.1104 72.413" stroke="#E08E7E" stroke-miterlimit="10" stroke-linecap="round" stroke-linejoin="round"/>
<path d="M51.7026 83.5243C49.5904 82.8772 47.147 83.4673 45.563 85.0069" stroke="#E08E7E" stroke-miterlimit="10" stroke-linecap="round" stroke-linejoin="round"/>
<path d="M48.7244 75.5611C48.0203 76.5308 47.3613 77.5719 47.1119 78.7441C46.8625 79.9162 47.0918 81.2517 47.9584 82.0794" stroke="#E08E7E" stroke-miterlimit="10" stroke-linecap="round" stroke-linejoin="round"/>
<path d="M53.3478 65.7559C52.3329 65.0621 50.9096 65.0681 49.8575 65.7046C48.8055 66.3411 48.1477 67.5498 48.1025 68.7784C48.0762 69.4904 48.2666 70.2498 48.7934 70.7293C49.3348 71.2221 50.1136 71.3298 50.841 71.4151C51.6391 71.5087 52.5172 71.5835 53.1793 71.1282C53.6859 70.7797 53.9595 70.1876 54.1873 69.6165C54.4693 68.9092 54.7207 68.1592 54.6458 67.4015C54.5712 66.6435 53.9661 66.1786 53.3478 65.7559Z" fill="#F2D8C2"/>
<path d="M52.7123 74.6196C51.332 74.7556 50.26 76.0225 49.9732 77.3795C49.6863 78.7366 50.0365 80.1492 50.5365 81.4432C51.8754 80.5317 52.9044 79.1732 53.4188 77.6376C53.604 77.0852 53.7247 76.4977 53.6486 75.9199C53.5723 75.3422 53.276 74.7734 52.7123 74.6196Z" fill="#F2D8C2"/>
<path d="M124.497 32.0357C126.018 26.4015 126.601 21.6297 125.842 21.1648L125.845 21.153L122.616 20.2815L116.958 41.2473L120.188 42.1188L120.191 42.107C121.081 42.0872 122.977 37.6698 124.497 32.0357Z" fill="#4D88A1" stroke="#232938" stroke-width="1.9889" stroke-miterlimit="10" stroke-linecap="round" stroke-linejoin="round"/>
<path d="M118.238 30.3468C119.8 24.5572 121.76 20.0511 122.616 20.2818C123.472 20.5128 122.899 25.3932 121.337 31.1829C119.775 36.9726 117.815 41.4786 116.959 41.2479C116.103 41.017 116.676 36.1362 118.238 30.3468Z" fill="#3B5F80" stroke="#232938" stroke-width="1.9889" stroke-miterlimit="10" stroke-linecap="round" stroke-linejoin="round"/>
<path d="M121.904 30.7529C124.62 20.6882 125.661 12.1643 124.306 11.3337L124.312 11.3127L118.543 9.75601L108.437 47.209L114.205 48.7656L114.211 48.7446C115.8 48.7083 119.188 40.8177 121.904 30.7529Z" fill="#4D88A1" stroke="#232938" stroke-width="1.9889" stroke-miterlimit="10" stroke-linecap="round" stroke-linejoin="round"/>
<path d="M116.256 29.2249C119.047 18.8822 120.07 10.1635 118.541 9.75105C117.012 9.33861 113.511 17.3887 110.72 27.7313C107.93 38.074 106.907 46.7927 108.436 47.2052C109.964 47.6176 113.466 39.5676 116.256 29.2249Z" fill="#3B5F80" stroke="#232938" stroke-width="1.9889" stroke-miterlimit="10" stroke-linecap="round" stroke-linejoin="round"/>
<path d="M35.3621 27.328V25.272C63.8263 17.9974 90.4467 16.8814 113.206 25.4503C113.902 25.7121 114.301 26.445 114.157 27.1739C114.048 27.7229 113.481 28.0454 112.952 27.864C89.1587 19.7073 63.197 20.0589 35.3621 27.328Z" fill="#71C1DE" stroke="#232938" stroke-miterlimit="10" stroke-linecap="round" stroke-linejoin="round"/>
<path d="M38.7515 27.3358C36.294 17.2048 33.1087 9.23012 31.5216 9.15323L31.5164 9.1322L25.7097 10.5408L34.8546 48.24L40.6612 46.8314L40.6561 46.8104C42.0315 46.0146 41.209 37.4668 38.7515 27.3358Z" fill="#4D88A1" stroke="#232938" stroke-width="1.9889" stroke-miterlimit="10" stroke-linecap="round" stroke-linejoin="round"/>
<path d="M34.8524 48.2403C36.391 47.8671 35.5915 39.1255 33.0666 28.7154C30.5417 18.3052 27.2476 10.1686 25.709 10.5418C24.1704 10.915 24.9699 19.6566 27.4948 30.0668C30.0197 40.4769 33.3138 48.6135 34.8524 48.2403Z" fill="#3B5F80" stroke="#232938" stroke-width="1.9889" stroke-miterlimit="10" stroke-linecap="round" stroke-linejoin="round"/>
<path d="M31.6697 29.0537C30.2939 23.3824 28.5109 18.9184 27.6224 18.8752L27.6195 18.8634L24.3691 19.652L29.4883 40.7558L32.739 39.9672L32.7361 39.9554C33.5059 39.5102 33.0454 34.725 31.6697 29.0537Z" fill="#4D88A1" stroke="#232938" stroke-width="1.9889" stroke-miterlimit="10" stroke-linecap="round" stroke-linejoin="round"/>
<path d="M25.3689 30.5821C23.9551 24.7545 23.5076 19.8608 24.3687 19.652C25.2301 19.4429 27.0742 23.9979 28.488 29.8256C29.9015 35.6532 30.3493 40.5469 29.4879 40.7557C28.6268 40.9648 26.7824 36.4098 25.3689 30.5821Z" fill="#3B5F80" stroke="#232938" stroke-width="1.9889" stroke-miterlimit="10" stroke-linecap="round" stroke-linejoin="round"/>
<path d="M75.2637 20.5834C74.4486 19.6903 73.8294 18.6515 73.3848 17.2486C74.0077 16.6444 74.8337 16.2147 75.9644 15.942C76.6824 17.1 77.2077 18.3563 77.5164 19.7882C76.8301 20.1551 76.0816 20.4261 75.2637 20.5834Z" fill="#EBBBA0" stroke="#232938" stroke-width="1.4" stroke-miterlimit="10" stroke-linecap="round" stroke-linejoin="round"/>
<path d="M83.1387 20.664C82.7891 19.5638 82.6457 17.4917 82.8306 16.1225C83.626 15.8829 84.5289 15.8769 85.6348 16.1341C85.7906 17.4154 85.7051 19.7459 85.3886 21.081C84.6346 21.0943 83.9221 20.8835 83.1387 20.664Z" fill="#EBBBA0" stroke="#232938" stroke-width="1.4" stroke-miterlimit="10" stroke-linecap="round" stroke-linejoin="round"/>
<path d="M77.8948 20.088C77.2837 19.0449 76.6458 16.9419 76.5029 15.4774C77.2379 15.0163 78.1353 14.7678 79.2983 14.7364C79.7596 16.0189 80.2314 18.4501 80.2351 19.9152C79.4875 20.1309 78.7277 20.1044 77.8948 20.088Z" fill="#EBBBA0" stroke="#232938" stroke-width="1.4" stroke-miterlimit="10" stroke-linecap="round" stroke-linejoin="round"/>
<path d="M80.3699 19.9063C80.0203 18.8061 79.8769 16.734 80.0618 15.3648C80.8572 15.1252 81.7601 15.1191 82.866 15.3763C83.0218 16.6576 82.9363 18.9881 82.6198 20.3233C81.8661 20.3366 81.1536 20.1257 80.3699 19.9063Z" fill="#EBBBA0" stroke="#232938" stroke-width="1.4" stroke-miterlimit="10" stroke-linecap="round" stroke-linejoin="round"/>
<path d="M79.3782 24.7441C77.8826 24.7191 76.5233 24.3343 75.0614 23.8859C74.5868 23.7401 74.2014 23.3891 74.0151 22.9286C73.884 22.6051 73.7519 22.2705 73.6165 21.9099C73.4048 21.3457 73.5422 20.7017 73.9794 20.287C74.5433 19.7522 75.0648 19.1535 75.5775 18.5066C76.1408 18.4591 76.7154 18.8113 76.9285 19.3352C77.1416 19.8588 76.9766 20.5122 76.6468 20.9713C77.7824 20.8408 78.9684 21.2593 79.7705 22.0735" fill="#EBBBA0"/>
<path d="M79.3782 24.7441C77.8826 24.7191 76.5233 24.3343 75.0614 23.8859C74.5868 23.7401 74.2014 23.3891 74.0151 22.9286C73.884 22.6051 73.7519 22.2705 73.6165 21.9099C73.4048 21.3457 73.5422 20.7017 73.9794 20.287C74.5433 19.7522 75.0648 19.1535 75.5775 18.5066C76.1408 18.4591 76.7154 18.8113 76.9285 19.3352C77.1416 19.8588 76.9766 20.5122 76.6468 20.9713C77.7824 20.8408 78.9684 21.2593 79.7705 22.0735" stroke="#232938" stroke-width="1.4" stroke-miterlimit="10" stroke-linecap="round" stroke-linejoin="round"/>
</g>
<defs>
<clipPath id="clip0_18_1017">
<rect width="144" height="144" fill="white"/>
</clipPath>
</defs>
</svg>
