<svg width="414" height="221" viewBox="0 0 414 221" fill="none" xmlns="http://www.w3.org/2000/svg">
<mask id="mask0_61_3552" style="mask-type:alpha" maskUnits="userSpaceOnUse" x="0" y="-68" width="414" height="289">
<path d="M0 -68H414V210.778C414 216.301 409.523 220.778 404 220.778H10C4.47716 220.778 0 216.301 0 210.778V-68Z" fill="#3E476E"/>
</mask>
<g mask="url(#mask0_61_3552)">
<path fill-rule="evenodd" clip-rule="evenodd" d="M-0.0305176 -105.75H413.962V282.716H-0.0305176V-105.75Z" fill="#444359"/>
<path d="M347.623 60.6165C312.782 50.8174 317.863 80.2146 325.121 80.2146C328.103 80.2146 334.285 80.9405 341.816 80.9405H364.681C393.715 80.9405 402.062 79.0048 402.425 78.4C404.966 59.1648 389.602 60.9794 381.375 63.157C382.706 56.0194 381.303 41.5991 365.043 41.0184C348.784 40.4377 346.655 53.8418 347.623 60.6165Z" fill="#616077"/>
<path d="M-127.906 -169.875L117.564 -69.015C118.59 -72.4805 119.765 -75.8497 121.09 -79.1227L-44.6507 -169.875H-9.62639L123.654 -85.0429C125.214 -88.3639 126.924 -91.5647 128.783 -94.6451L35.2278 -169.875H56.3407L132.351 -100.132C134.467 -103.188 136.711 -106.125 139.104 -108.916L85.7235 -169.875H100.575L143.57 -113.826C146.22 -116.521 149.019 -119.072 151.926 -121.43L122.522 -169.875H134.104L157.332 -125.449C160.473 -127.639 163.743 -129.613 167.119 -131.37L152.033 -169.875H161.884L173.274 -134.282C176.8 -135.774 180.432 -137.049 184.129 -138.084L177.59 -169.875H186.565L190.797 -139.624C194.558 -140.346 198.383 -140.803 202.293 -140.996L201.374 -169.875H210.072L209.153 -141.044C213.063 -140.924 216.91 -140.539 220.671 -139.889L224.859 -169.875H233.834L227.381 -138.445C231.12 -137.482 234.775 -136.255 238.343 -134.811L249.584 -169.875H259.435L244.604 -131.971C248.024 -130.263 251.336 -128.313 254.52 -126.147L277.342 -169.875H288.967L259.99 -122.152C262.961 -119.818 265.781 -117.315 268.495 -114.62L310.849 -169.875H325.701L273.068 -109.734C275.505 -106.943 277.812 -104.007 279.992 -100.926L355.105 -169.875H376.154L283.604 -95.4152C285.505 -92.3107 287.279 -89.0619 288.882 -85.7167L421.072 -169.875H455.84L291.532 -79.7965C292.899 -76.4754 294.117 -73.034 295.186 -69.5445L539.266 -169.875H614.123L296.852 -63.3596C297.686 -59.9181 298.37 -56.4045 298.883 -52.8428L842.411 -169.875H989.838V-147.638L299.652 -46.5376C299.972 -43.048 300.143 -39.5103 300.143 -35.9245L989.838 -58.9314V-6.85301L300.015 -29.6433C299.844 -26.0816 299.502 -22.568 299.032 -19.1025L989.86 82.0943V135.833L297.985 -12.9417C297.301 -9.45212 296.489 -6.03476 295.506 -2.68961L989.838 229.955V289.277L293.583 3.30276C292.408 6.67198 291.061 9.94496 289.587 13.1216L989.817 396.49V465.872L286.766 18.753C285.078 21.9297 283.24 24.9861 281.274 27.9221L989.817 597.368V686.339L953.233 652.719L277.599 33.0963C275.398 35.9601 273.09 38.7036 270.632 41.3027L875.598 732.208L929.962 794.226H840.104L825.551 775.19L266.059 45.8512C263.388 48.3299 260.589 50.6402 257.683 52.7821L707.806 794.226H637.971L252.383 56.4401C249.306 58.3894 246.1 60.1703 242.809 61.7346L530.056 794.25H470.35L236.805 64.3096C233.407 65.6332 229.902 66.7162 226.334 67.5826L375.385 794.25H321.021L219.923 68.8821C216.333 69.4597 212.7 69.8207 208.982 69.941L231.826 794.25H179.428L202.486 69.8689C198.789 69.7004 195.156 69.2913 191.587 68.6415L90.2325 794.25H35.8689L185.198 67.2457C181.65 66.3311 178.189 65.176 174.812 63.8043L-59.0964 794.25H-118.546L168.914 61.157C165.666 59.5446 162.504 57.7397 159.448 55.7422L-172.14 689.829V589.354L154.212 52.0601C151.349 49.8942 148.613 47.5598 146.006 45.057L-172.14 459.639V398.656L141.54 40.5326C139.147 37.9335 136.86 35.19 134.723 32.3261L-172.14 313.559V270.65L131.091 27.1761C129.167 24.2641 127.394 21.2318 125.727 18.0792L-172.14 207.381V173.737L122.97 12.4478C121.539 9.31923 120.256 6.07033 119.102 2.77332L-172.14 122.308V93.7662L117.243 -3.14687C116.303 -6.44388 115.491 -9.81311 114.85 -13.2305L-172.14 48.4984V22.5073L113.846 -19.3191C113.375 -22.7124 113.055 -26.1779 112.884 -29.6674L-172.14 -20.2336V-45.5027L112.734 -35.9005C112.734 -39.4141 112.905 -42.9036 113.226 -46.345L-172.14 -88.2196V-114.042L113.952 -52.5059C114.465 -56.0195 115.128 -59.485 115.918 -62.8782L-172.14 -159.503V-169.875H-127.906Z" fill="#FFC773"/>
<path d="M384.84 158.395C366.393 158.395 350.404 170.232 342.539 187.517C335.192 173.735 321.785 164.519 306.459 164.519C297.536 164.519 289.268 167.645 282.461 172.981C274.558 165.418 264.311 160.844 253.119 160.844C238.029 160.844 224.659 169.153 216.422 181.915C209.12 172.742 198.515 166.969 186.714 166.969C176.557 166.969 167.292 171.243 160.249 178.275C155.765 175.748 150.702 174.318 145.342 174.318C135.756 174.318 127.123 178.874 121.047 186.155C114.743 178.146 105.531 173.093 95.2678 173.093C87.3726 173.093 80.0941 176.091 74.285 181.118C67.2273 170.309 55.8527 163.294 43.0163 163.294C33.8039 163.294 25.3453 166.909 18.6911 172.947C13.8032 166.36 7.34698 161.29 -0.0305176 158.463V196.022C0.0836851 196.022 0.190274 196.013 0.304477 196.013C2.02513 196.013 3.70772 196.202 5.33701 196.536C11.7628 197.863 17.412 201.666 21.4777 207.054C23.2744 204.099 25.6118 201.598 28.3298 199.722C31.7483 197.366 35.7606 196.013 40.0622 196.013C48.4523 196.013 55.7689 201.187 59.6442 208.844C60.0782 208.63 60.5274 208.433 60.9842 208.261C62.7657 207.576 64.6767 207.191 66.6715 207.191C69.9605 207.191 73.044 208.21 75.6783 209.992C77.3837 207.713 79.4241 205.769 81.7158 204.244C85.1952 201.94 89.2455 200.613 93.57 200.613C100.887 200.613 107.419 204.399 111.713 210.317C111.827 210.214 111.934 210.12 112.048 210.017C115.619 207.002 120.05 205.212 124.854 205.212C126.369 205.212 127.846 205.392 129.27 205.726C133.792 206.797 137.789 209.478 140.759 213.212C142.479 209.966 144.71 207.114 147.329 204.767C152.072 200.518 158.079 197.966 164.612 197.966C169.218 197.966 173.558 199.234 177.38 201.469C180.905 203.525 183.988 206.403 186.424 209.889C190.117 207.336 194.457 205.863 199.109 205.863C199.801 205.863 200.479 205.906 201.157 205.966C203.441 203.525 206.09 201.521 209.006 200.056C212.501 198.3 216.376 197.307 220.449 197.307C221.842 197.307 223.205 197.426 224.538 197.641C229.03 198.377 233.164 200.313 236.696 203.148C242.361 197.084 250.02 193.358 258.448 193.358C261.486 193.358 264.425 193.855 267.204 194.754C273.736 196.87 279.401 201.298 283.451 207.199C286.793 205.495 290.501 204.544 294.407 204.544C295.617 204.544 296.813 204.647 297.978 204.818C305.934 206.017 312.771 211.174 316.89 218.48C321.45 212.373 328.279 208.493 335.923 208.493C336.426 208.493 336.921 208.518 337.416 208.544C341.436 208.81 345.197 210.154 348.47 212.321C351.303 214.189 353.777 216.672 355.749 219.602C360.195 208.775 369.933 201.255 381.231 201.255C387.726 201.255 393.702 203.748 398.461 207.91C398.91 208.304 399.344 208.707 399.77 209.126C402.633 207.867 405.747 207.174 409.005 207.174C410.665 207.174 412.295 207.362 413.871 207.705V180.056V169.547C405.869 162.566 395.788 158.395 384.84 158.395Z" fill="#3B3A55"/>
<path d="M399.801 207.739C399.374 207.32 398.94 206.917 398.491 206.523C393.733 202.352 387.756 199.868 381.262 199.868C369.963 199.868 360.226 207.388 355.779 218.215C353.808 215.285 351.333 212.801 348.501 210.934C345.22 208.767 341.458 207.422 337.446 207.157C336.951 207.123 336.456 207.105 335.954 207.105C328.31 207.105 321.481 210.986 316.92 217.093C312.809 209.795 305.972 204.639 298.008 203.431C296.836 203.251 295.648 203.157 294.437 203.157C290.532 203.157 286.824 204.108 283.482 205.812C279.431 199.911 273.767 195.482 267.234 193.367C264.455 192.468 261.517 191.971 258.479 191.971C250.043 191.971 242.391 195.697 236.727 201.761C233.194 198.926 229.053 196.999 224.568 196.253C223.236 196.031 221.865 195.919 220.48 195.919C216.399 195.919 212.531 196.904 209.037 198.669C206.121 200.133 203.471 202.138 201.187 204.579C200.509 204.519 199.832 204.476 199.139 204.476C194.487 204.476 190.147 205.949 186.455 208.502C184.019 205.024 180.935 202.138 177.41 200.082C173.588 197.846 169.248 196.579 164.642 196.579C158.102 196.579 152.103 199.123 147.36 203.38C144.74 205.726 142.51 208.579 140.789 211.825C137.82 208.09 133.823 205.41 129.3 204.339C127.877 204.005 126.4 203.825 124.884 203.825C120.08 203.825 115.642 205.615 112.079 208.63C111.964 208.724 111.858 208.827 111.744 208.93C107.457 203.011 100.925 199.225 93.6005 199.225C89.2761 199.225 85.2257 200.553 81.7463 202.857C79.4546 204.373 77.4142 206.326 75.7088 208.604C73.0745 206.831 69.9986 205.804 66.702 205.804C64.7072 205.804 62.7963 206.18 61.0147 206.866C60.5579 207.037 60.1163 207.234 59.6747 207.448C55.807 199.782 48.4905 194.617 40.0928 194.617C35.7911 194.617 31.7788 195.971 28.3603 198.326C25.6423 200.202 23.305 202.703 21.5082 205.658C17.4426 200.279 11.7933 196.467 5.36753 195.14C3.73062 194.806 2.05565 194.617 0.334995 194.617C0.220792 194.617 0.106589 194.626 0 194.626V232.15C0.114203 232.15 0.220792 232.142 0.334995 232.142C4.97162 232.142 9.17428 234.206 12.2806 237.555C12.5395 236.176 12.8897 234.84 13.3236 233.546C14.4048 230.326 16.0112 227.396 18.0136 224.878C20.1987 222.137 22.8634 219.893 25.8555 218.309C26.2742 218.086 26.7082 217.881 27.1422 217.684C29.9744 216.407 33.0579 215.696 36.2936 215.696C41.2805 215.696 45.9247 217.375 49.8 220.253C53.6067 223.08 56.675 227.071 58.6012 231.773C59.1646 231.499 59.7356 231.259 60.3295 231.054C61.974 230.48 63.7175 230.172 65.5295 230.172C65.5752 230.172 65.6285 230.172 65.6742 230.18C67.4329 230.197 69.1231 230.497 70.7219 231.054C70.9732 231.139 71.2244 231.234 71.468 231.336C73.3257 225.504 76.5082 220.382 80.5966 216.416C80.9697 216.056 81.3504 215.705 81.7311 215.362C87.091 210.626 93.8518 207.799 101.191 207.799C104.625 207.799 107.929 208.425 111.028 209.564C111.363 209.692 111.705 209.812 112.033 209.949C112.223 210.026 112.406 210.112 112.589 210.197C118.002 212.561 122.699 216.544 126.186 221.641C126.925 221.315 127.686 221.032 128.455 220.784C130.754 220.047 133.176 219.645 135.688 219.645C136.404 219.645 137.104 219.688 137.805 219.748C140.515 219.988 143.111 220.69 145.532 221.795C146.575 222.266 147.588 222.814 148.562 223.431C153.526 226.574 157.493 231.473 159.8 237.383C163.333 233.889 167.901 231.705 172.933 231.499C173.192 231.491 173.443 231.473 173.702 231.473C174.098 231.473 174.486 231.491 174.875 231.516C181.027 231.893 186.47 235.251 190.102 240.321C191.213 241.872 192.15 243.576 192.888 245.409C193.627 244.073 194.464 242.822 195.408 241.675C199.527 236.621 205.435 233.452 212.006 233.452C212.242 233.452 212.486 233.461 212.722 233.469C215.287 233.563 217.739 234.129 220.023 235.105C221.058 235.551 222.056 236.073 223.015 236.681C224.043 237.332 225.017 238.069 225.939 238.882C226.441 237.58 227.02 236.313 227.659 235.105C231.93 227.002 239.087 221.058 247.538 219.054C249.563 218.574 251.665 218.317 253.819 218.317C257.953 218.317 261.897 219.251 265.491 220.93C266.838 221.555 268.133 222.292 269.374 223.131C275.647 227.345 280.459 234.026 282.751 241.983C284.547 239.927 286.641 238.206 288.948 236.895C290.159 236.21 291.422 235.645 292.747 235.199C294.864 234.488 297.11 234.103 299.432 234.103C303.741 234.103 307.776 235.422 311.24 237.709C314.194 239.662 316.737 242.317 318.679 245.478C319.768 247.251 320.666 249.178 321.351 251.225H327.754H328.432C328.584 250.959 328.744 250.694 328.911 250.437C330.997 247.114 333.853 244.441 337.187 242.745C339.761 241.435 342.616 240.69 345.631 240.69C345.669 240.69 345.707 240.69 345.745 240.69C349.209 240.707 352.475 241.7 355.33 243.431C356.579 244.184 357.744 245.084 358.817 246.103C358.931 246.214 359.046 246.317 359.152 246.428C363.294 239.028 370.611 234.103 378.963 234.103C380.569 234.103 382.13 234.283 383.645 234.634C383.881 234.685 384.117 234.754 384.353 234.814C388.129 228.835 393.634 224.339 400.052 222.249C402.511 221.452 405.1 220.998 407.772 220.955C407.909 220.955 408.054 220.947 408.191 220.947C410.155 220.947 412.074 221.17 413.931 221.581V206.309C412.355 205.966 410.734 205.778 409.066 205.778C405.777 205.786 402.663 206.48 399.801 207.739Z" fill="#64637D"/>
<path d="M407.742 220.073C405.062 220.116 402.473 220.561 400.022 221.366C393.603 223.456 388.099 227.953 384.322 233.932C384.086 233.872 383.85 233.803 383.614 233.752C382.099 233.409 380.539 233.221 378.932 233.221C370.588 233.221 363.263 238.146 359.122 245.546C359.008 245.435 358.901 245.323 358.787 245.22C357.713 244.201 356.548 243.302 355.3 242.548C352.445 240.818 349.178 239.824 345.714 239.807C345.676 239.807 345.638 239.807 345.6 239.807C342.593 239.807 339.73 240.544 337.157 241.863C333.83 243.559 330.975 246.231 328.881 249.554C328.713 249.811 328.561 250.077 328.401 250.342H354.196H356.221H357.005H359.388H362.784H379.023H388.464H400.844H403.135H413.901V241.272V220.707C412.043 220.296 410.125 220.073 408.16 220.073C408.016 220.064 407.879 220.073 407.742 220.073ZM311.21 236.818C307.746 234.531 303.711 233.212 299.401 233.212C297.079 233.212 294.833 233.597 292.717 234.308C291.4 234.754 290.128 235.319 288.918 236.004C286.603 237.315 284.509 239.036 282.72 241.092C280.428 233.135 275.617 226.454 269.343 222.24C268.102 221.409 266.808 220.673 265.46 220.039C261.867 218.36 257.923 217.426 253.789 217.426C251.634 217.426 249.533 217.683 247.508 218.163C239.057 220.159 231.9 226.111 227.629 234.214C226.989 235.43 226.411 236.69 225.908 237.991C224.987 237.178 224.012 236.441 222.985 235.79C222.025 235.182 221.028 234.66 219.992 234.214C217.716 233.238 215.257 232.664 212.691 232.578C212.455 232.57 212.219 232.561 211.975 232.561C205.405 232.561 199.489 235.73 195.378 240.784C194.441 241.931 193.596 243.182 192.858 244.518C192.119 242.685 191.183 240.972 190.071 239.43C186.44 234.36 180.996 231.011 174.844 230.625C174.456 230.6 174.068 230.583 173.672 230.583C173.413 230.583 173.162 230.591 172.903 230.608C167.878 230.814 163.302 232.998 159.77 236.493C157.47 230.583 153.504 225.683 148.532 222.54C147.557 221.923 146.545 221.375 145.502 220.904C143.081 219.807 140.484 219.105 137.774 218.857C137.074 218.797 136.373 218.754 135.658 218.754C133.153 218.754 130.724 219.157 128.425 219.893C127.656 220.142 126.894 220.424 126.156 220.75C122.661 215.662 117.971 211.671 112.558 209.307C112.375 209.229 112.185 209.135 112.002 209.058C111.667 208.921 111.332 208.801 110.997 208.673C107.899 207.534 104.594 206.908 101.161 206.908C93.8136 206.908 87.0605 209.735 81.7005 214.471C81.3122 214.814 80.9316 215.165 80.5661 215.525C76.4777 219.491 73.2952 224.613 71.4375 230.445C71.1939 230.343 70.9426 230.248 70.6914 230.163C69.0926 229.606 67.3948 229.306 65.6436 229.289C65.598 229.289 65.5447 229.289 65.499 229.289C63.687 229.289 61.9435 229.598 60.299 230.171C59.7127 230.377 59.1341 230.617 58.5707 230.891C56.6445 226.189 53.5762 222.197 49.7695 219.371C45.8942 216.493 41.2576 214.814 36.2631 214.814C33.0274 214.814 29.9363 215.525 27.1117 216.801C26.6777 216.998 26.2513 217.204 25.825 217.426C22.8329 219.011 20.1681 221.255 17.9831 223.996C15.9731 226.514 14.3742 229.443 13.2931 232.664C12.8592 233.957 12.5089 235.293 12.2501 236.664C9.15138 233.315 4.94111 231.251 0.304477 231.251C0.190274 231.251 0.0760716 231.259 -0.0305176 231.259V245.743V250.342H12.7373H16.5136H17.5491H48.0031H59.7965H70.3945H83.0024H88.5527H98.5949H109.429H120.073H129.65H131.965H146.225H152.933H161.932H170.162H182.1H183.029H190.498H194.449H201.964H203.281H216.155H223.426H225.977H233.491H234.991H238.988H273.287H277.505H280.291H281.982H284.182H285.21H315.611H315.694H321.336C320.658 248.295 319.752 246.368 318.664 244.595C316.707 241.426 314.164 238.771 311.21 236.818Z" fill="#7B7B91"/>
<path fill-rule="evenodd" clip-rule="evenodd" d="M257.085 119.823C257.093 115.746 256.697 111.446 257.268 106.89C258.06 100.551 261.532 94.0504 259.187 89.0569C258.57 88.9627 257.946 88.8599 257.329 88.7657C257.999 87.7293 260.549 88.4231 261.052 89.3567C262.696 85.3482 263.755 82.9928 266.572 80.6288C270.234 77.5624 275.472 77.1513 276.157 69.6996C277.231 71.8323 275.761 75.5496 275.152 77.7166C276.66 76.2434 277.954 74.4533 278.198 71.0871C281.509 68.9972 285.073 67.2842 285.75 61.2629C286.466 62.6247 286.603 64.4919 286.336 66.6932C288.08 58.1023 295.648 56.0638 295.29 45.7085C299.325 51.9696 299.759 69.6568 291.879 72.903C293.432 72.6032 294.392 71.4126 295.907 71.0529C292.8 77.4511 289.724 83.8921 282.827 84.6202C284.441 85.0998 287.418 84.0377 289.29 83.5153C286.572 85.3225 284.022 92.2689 280.01 94.4873C282.042 94.6329 283.656 95.1382 283.466 97.1682C282.979 96.5429 282.37 96.0204 281.784 95.4808C273.432 96.5858 261.433 103.446 258.928 113.905C258.631 115.138 258.524 116.44 258.463 117.802C258.38 119.335 257.078 123.129 257.085 119.823Z" fill="white"/>
<path fill-rule="evenodd" clip-rule="evenodd" d="M257.268 121.039C257.58 115.789 257.588 112.055 258.867 108.149C261.44 100.26 268.605 90.6929 274.269 85.4425C277.376 82.5645 280.33 79.7723 283.185 76.783C285.682 74.1621 288.088 71.7467 290.075 68.8688C292.823 64.8774 294.704 60.552 295.488 55.8754C295.899 53.4257 296.006 50.8819 295.785 48.2438L295.519 47.0275L295.953 48.2952C296.31 50.9932 296.28 53.6399 295.899 56.218C295.222 60.8089 293.432 65.1515 290.798 69.0744C288.659 72.2692 286.002 74.8387 283.238 77.6139C283.139 77.7166 283.04 77.8194 282.933 77.9136C280.413 80.4318 277.81 82.7616 275.145 85.3654C269.267 91.1126 261.928 99.9262 259.293 108.414C258.106 112.226 257.756 116.08 257.268 121.039Z" fill="#D1D3D4"/>
<path fill-rule="evenodd" clip-rule="evenodd" d="M257.748 106.924C259.339 101.348 261.258 96.6796 260.535 90.5384C262.088 96.3713 259.712 101.622 257.748 106.924Z" fill="#D1D3D4"/>
<path fill-rule="evenodd" clip-rule="evenodd" d="M262.742 88.6114C264.09 85.5022 264.973 82.8299 267.759 81.1768C269.808 79.9606 272 78.7614 273.957 76.8599C272.191 79.2582 269.906 80.3289 267.798 81.5365C265.019 83.1211 264.455 86.1789 262.742 88.6114Z" fill="#D1D3D4"/>
<path fill-rule="evenodd" clip-rule="evenodd" d="M276.416 77.5195C277.52 75.6951 278.571 74.0506 278.632 71.935C281.456 70.2734 284.22 68.6545 285.4 65.3998C284.707 68.8601 281.769 70.5132 278.974 72.132C278.83 74.3847 278.061 76.0634 276.416 77.5195Z" fill="#D1D3D4"/>
<path fill-rule="evenodd" clip-rule="evenodd" d="M259.682 110.598C262.91 101.999 272.937 95.7805 280.893 95.2409C272.526 94.3587 261.456 103.258 259.682 110.598Z" fill="#D1D3D4"/>
<path fill-rule="evenodd" clip-rule="evenodd" d="M282.88 85.1082C284.433 85.3908 285.636 85.1082 286.991 84.5771L287.852 84.2688C284.966 87.3094 283.786 92.5342 279.66 94.0674C282.873 92.0203 284.776 88.4315 286.794 84.9883C285.789 85.288 284.03 85.9133 282.88 85.1082Z" fill="#D1D3D4"/>
<path fill-rule="evenodd" clip-rule="evenodd" d="M289.39 73.7594C290.958 74.0421 292.176 73.7594 293.539 73.2284L294.407 72.92C291.681 76.1577 290.296 81.2711 286.124 82.8128C289.58 80.8428 291.103 76.9285 293.334 73.6395C292.329 73.9393 290.547 74.5645 289.39 73.7594Z" fill="#D1D3D4"/>
<path fill-rule="evenodd" clip-rule="evenodd" d="M292.58 71.9608C296.752 66.4277 297.742 61.8796 297.818 55.7555C297.338 60.9374 295.108 67.6782 292.58 71.9608Z" fill="#D1D3D4"/>
<path fill-rule="evenodd" clip-rule="evenodd" d="M287.38 65.7766C287.76 62.9329 289.656 60.7488 291.186 58.5818C292.983 56.0379 294.643 53.5369 295.214 50.1622C294.871 53.5969 293.303 56.4833 291.407 59.0615C289.831 61.2113 288.415 63.1899 287.38 65.7766Z" fill="#D1D3D4"/>
<path fill-rule="evenodd" clip-rule="evenodd" d="M258.898 166.246C260.199 162.692 261.212 158.777 263.153 155.034C265.856 149.818 270.942 145.544 270.478 140.242C269.968 139.908 269.457 139.574 268.947 139.24C269.861 138.606 271.863 140.234 272.008 141.244C274.711 138.409 276.386 136.773 279.591 135.848C283.763 134.641 288.461 136.388 291.422 130.161C291.681 132.457 289.222 135.103 288.004 136.756C289.786 136.071 291.483 135.026 292.762 132.191C296.31 131.694 299.965 131.626 302.47 126.649C302.66 128.131 302.188 129.81 301.259 131.617C305.507 124.825 312.748 126.084 315.725 116.902C317.263 123.977 312.032 139.591 304.129 139.266C305.584 139.626 306.794 138.966 308.225 139.266C303.49 143.6 298.762 147.994 292.511 145.861C293.767 146.923 296.706 147.189 298.503 147.489C295.557 147.977 291.133 153.013 286.93 153.339C288.659 154.281 289.907 155.369 289.093 157.064C288.872 156.319 288.506 155.617 288.156 154.915C280.52 152.525 267.874 153.698 262.377 161.818C261.73 162.777 261.22 163.865 260.732 165.039C260.192 166.341 257.847 169.124 258.898 166.246Z" fill="white"/>
<path fill-rule="evenodd" clip-rule="evenodd" d="M258.677 167.377C260.618 162.923 261.806 159.668 264.158 156.773C268.902 150.923 278.19 145.441 284.791 143.137C288.415 141.87 291.879 140.628 295.321 139.154C298.328 137.87 301.198 136.722 303.84 135.009C307.502 132.636 310.517 129.613 312.687 125.844C313.821 123.874 314.727 121.699 315.367 119.309L315.519 118.144L315.496 119.42C314.956 121.921 314.088 124.217 312.938 126.307C310.89 130.033 307.959 133.107 304.411 135.48C301.533 137.407 298.396 138.581 295.107 139.9C294.986 139.951 294.864 139.994 294.75 140.045C291.75 141.227 288.743 142.212 285.591 143.42C278.639 146.075 269.442 150.82 264.455 157.167C262.202 160.028 260.671 163.248 258.677 167.377Z" fill="#D1D3D4"/>
<path fill-rule="evenodd" clip-rule="evenodd" d="M263.572 155.257C266.724 151.035 269.884 147.729 271.201 142.084C270.698 147.788 266.968 151.42 263.572 155.257Z" fill="#D1D3D4"/>
<path fill-rule="evenodd" clip-rule="evenodd" d="M273.729 141.279C275.891 139.103 277.505 137.133 280.467 136.808C282.644 136.568 284.936 136.397 287.243 135.531C284.936 136.919 282.614 136.936 280.383 137.142C277.459 137.407 275.998 139.84 273.729 141.279Z" fill="#D1D3D4"/>
<path fill-rule="evenodd" clip-rule="evenodd" d="M289.184 137.091C290.73 135.943 292.161 134.924 292.884 133.108C295.876 132.791 298.8 132.491 300.863 130.127C299.165 132.868 296.074 133.125 293.12 133.425C292.275 135.326 291.08 136.474 289.184 137.091Z" fill="#D1D3D4"/>
<path fill-rule="evenodd" clip-rule="evenodd" d="M264.09 159.24C269.632 153.03 280.352 151.634 287.463 154.349C280.451 150.221 267.973 153.544 264.09 159.24Z" fill="#D1D3D4"/>
<path fill-rule="evenodd" clip-rule="evenodd" d="M292.412 146.307C293.684 147.18 294.818 147.42 296.166 147.497L297.011 147.574C293.531 149.073 290.844 153.159 286.755 152.833C290.204 152.336 293.006 149.972 295.854 147.78C294.894 147.626 293.166 147.463 292.412 146.307Z" fill="#D1D3D4"/>
<path fill-rule="evenodd" clip-rule="evenodd" d="M301.693 139.018C302.972 139.9 304.122 140.14 305.485 140.217L306.337 140.294C302.934 142.033 300.102 145.93 295.975 145.604C299.615 145.27 302.188 142.469 305.172 140.491C304.198 140.345 302.447 140.182 301.693 139.018Z" fill="#D1D3D4"/>
<path fill-rule="evenodd" clip-rule="evenodd" d="M305.051 138.726C310.441 135.574 312.748 132.003 314.758 126.692C312.695 131.018 308.614 136.003 305.051 138.726Z" fill="#D1D3D4"/>
<path fill-rule="evenodd" clip-rule="evenodd" d="M302.47 131.249C303.703 128.919 306.048 127.771 308.066 126.504C310.441 125.005 312.679 123.489 314.248 120.774C312.862 123.635 310.578 125.519 308.104 127.009C306.056 128.243 304.198 129.407 302.47 131.249Z" fill="#D1D3D4"/>
<path fill-rule="evenodd" clip-rule="evenodd" d="M324.762 152.696C327.686 151.548 330.662 149.981 334.089 149.21C338.862 148.139 344.504 149.458 347.42 145.912C347.313 145.321 347.214 144.73 347.108 144.139C348.044 144.456 348.257 146.966 347.732 147.685C351.067 148.045 353.061 148.336 355.551 150.229C358.787 152.687 360.561 157.33 366.096 155.848C364.87 157.424 361.786 157.141 360.058 157.201C361.543 158.152 363.195 158.82 365.669 158.092C368.106 160.508 370.336 163.257 374.851 162.178C374.075 163.214 372.78 163.865 371.121 164.242C377.775 163.403 381.368 169.689 388.7 166.443C385.35 171.874 372.788 177.261 368.228 171.026C368.882 172.353 370.009 172.884 370.694 174.16C365.228 173.15 359.738 172.173 357.264 166.118C357.378 167.719 358.985 170.118 359.883 171.668C357.812 169.707 352.117 169.355 349.392 166.34C349.864 168.233 349.955 169.835 348.448 170.238C348.76 169.621 348.965 168.919 349.186 168.233C346.034 160.961 337.728 152.011 329.52 152.688C328.554 152.765 327.587 153.03 326.589 153.364C325.478 153.732 322.394 153.621 324.762 152.696Z" fill="white"/>
<path fill-rule="evenodd" clip-rule="evenodd" d="M323.94 153.201C327.792 152.002 330.472 150.957 333.64 151.009C340.02 151.12 348.912 154.914 354.28 158.572C357.226 160.576 360.058 162.478 363.012 164.216C365.593 165.741 368.015 167.24 370.634 168.233C374.273 169.604 377.905 170.092 381.483 169.484C383.356 169.167 385.213 168.55 387.041 167.6L387.84 167.017L387.056 167.771C385.221 168.859 383.31 169.578 381.361 169.955C377.882 170.632 374.258 170.238 370.702 168.953C367.809 167.908 365.213 166.221 362.441 164.507C362.343 164.448 362.236 164.379 362.137 164.319C359.617 162.743 357.211 161.03 354.592 159.351C348.806 155.634 340.416 151.471 333.586 151.471C330.503 151.471 327.632 152.242 323.94 153.201Z" fill="#D1D3D4"/>
<path fill-rule="evenodd" clip-rule="evenodd" d="M334.203 149.656C338.649 149.527 342.54 149.955 346.742 147.557C342.996 150.606 338.558 149.938 334.203 149.656Z" fill="#D1D3D4"/>
<path fill-rule="evenodd" clip-rule="evenodd" d="M348.745 149.013C351.356 149.356 353.518 149.407 355.498 151.471C356.952 152.987 358.429 154.64 360.34 155.882C358.117 154.957 356.708 153.193 355.247 151.608C353.328 149.527 350.975 149.878 348.745 149.013Z" fill="#D1D3D4"/>
<path fill-rule="evenodd" clip-rule="evenodd" d="M360.561 158.298C362.182 158.786 363.659 159.274 365.19 158.735C367.177 160.833 369.118 162.88 371.79 163.035C369.111 163.386 367.101 161.184 365.144 159.103C363.492 159.6 362.076 159.377 360.561 158.298Z" fill="#D1D3D4"/>
<path fill-rule="evenodd" clip-rule="evenodd" d="M332.109 152.439C339.189 152.945 346.483 160.294 349.117 167.36C347.389 159.523 337.88 151.985 332.109 152.439Z" fill="#D1D3D4"/>
<path fill-rule="evenodd" clip-rule="evenodd" d="M356.944 166.306C357.18 167.797 357.721 168.816 358.482 169.886L358.947 170.58C355.947 168.824 351.866 169.218 349.605 165.904C351.98 168.242 355.094 168.961 358.132 169.818C357.637 168.996 356.693 167.574 356.944 166.306Z" fill="#D1D3D4"/>
<path fill-rule="evenodd" clip-rule="evenodd" d="M366.926 169.004C367.162 170.512 367.71 171.54 368.479 172.619L368.951 173.313C365.86 171.754 361.802 171.942 359.51 168.593C361.901 171.171 365.136 171.454 368.121 172.542C367.626 171.728 366.674 170.289 366.926 169.004Z" fill="#D1D3D4"/>
<path fill-rule="evenodd" clip-rule="evenodd" d="M369.118 171.403C374.265 173.621 377.805 173.244 382.221 171.583C378.369 172.61 372.902 172.482 369.118 171.403Z" fill="#D1D3D4"/>
<path fill-rule="evenodd" clip-rule="evenodd" d="M372.08 164.936C374.227 164.482 376.328 165.587 378.316 166.358C380.645 167.266 382.906 168.071 385.495 167.642C382.937 168.302 380.424 167.694 378.034 166.7C376.047 165.861 374.227 165.141 372.08 164.936Z" fill="#D1D3D4"/>
<mask id="path-38-outside-1_61_3552" maskUnits="userSpaceOnUse" x="93" y="168" width="230" height="40" fill="black">
<rect fill="white" x="93" y="168" width="230" height="40"/>
<path d="M94.0766 198V170H97.8766V194.6H110.717V198H94.0766ZM123.266 198.48C121.293 198.48 119.52 198.027 117.946 197.12C116.373 196.187 115.133 194.907 114.226 193.28C113.346 191.627 112.906 189.733 112.906 187.6C112.906 185.36 113.36 183.427 114.266 181.8C115.173 180.173 116.413 178.92 117.986 178.04C119.56 177.16 121.32 176.72 123.266 176.72C125.213 176.72 126.96 177.16 128.506 178.04C130.08 178.92 131.32 180.173 132.226 181.8C133.16 183.4 133.626 185.307 133.626 187.52C133.626 189.733 133.173 191.667 132.266 193.32C131.36 194.947 130.12 196.213 128.546 197.12C127 198.027 125.24 198.48 123.266 198.48ZM123.266 195.28C125.373 195.28 127.013 194.573 128.186 193.16C129.36 191.72 129.946 189.867 129.946 187.6C129.946 186.213 129.653 184.947 129.066 183.8C128.48 182.627 127.68 181.693 126.666 181C125.68 180.28 124.546 179.92 123.266 179.92C121.16 179.92 119.52 180.613 118.346 182C117.173 183.387 116.586 185.227 116.586 187.52C116.586 188.907 116.88 190.2 117.466 191.4C118.053 192.573 118.84 193.52 119.826 194.24C120.84 194.933 121.986 195.28 123.266 195.28ZM144.412 198.48C142.839 198.48 141.412 198.28 140.132 197.88C138.879 197.48 137.839 196.96 137.012 196.32L138.532 193.32C139.226 193.907 140.092 194.4 141.132 194.8C142.199 195.173 143.332 195.36 144.532 195.36C146.026 195.36 147.146 195.12 147.892 194.64C148.666 194.133 149.053 193.493 149.053 192.72C149.053 192.16 148.906 191.667 148.612 191.24C148.346 190.813 147.839 190.4 147.092 190C146.346 189.573 145.266 189.12 143.852 188.64C141.906 187.973 140.439 187.187 139.452 186.28C138.492 185.347 138.012 184.067 138.012 182.44C138.012 180.84 138.706 179.493 140.092 178.4C141.506 177.28 143.452 176.72 145.932 176.72C147.266 176.72 148.453 176.867 149.492 177.16C150.532 177.427 151.466 177.773 152.293 178.2L151.293 181.16C150.572 180.733 149.746 180.387 148.812 180.12C147.906 179.853 146.892 179.72 145.772 179.72C144.386 179.72 143.332 180 142.612 180.56C141.892 181.12 141.532 181.733 141.532 182.4C141.532 183.04 141.812 183.587 142.372 184.04C142.932 184.493 144.026 184.987 145.652 185.52C148.293 186.4 150.133 187.373 151.173 188.44C152.213 189.507 152.733 190.84 152.733 192.44C152.733 194.307 151.973 195.787 150.453 196.88C148.959 197.947 146.946 198.48 144.412 198.48ZM166.243 198.48C163.257 198.48 160.883 197.533 159.123 195.64C157.39 193.72 156.523 191.04 156.523 187.6C156.523 185.52 156.91 183.667 157.683 182.04C158.483 180.387 159.59 179.093 161.003 178.16C162.417 177.2 164.057 176.72 165.923 176.72C167.923 176.72 169.577 177.16 170.883 178.04C172.217 178.893 173.217 180.053 173.883 181.52C174.55 182.987 174.883 184.6 174.883 186.36C174.883 187.293 174.843 188.2 174.763 189.08H160.203C160.443 191.027 161.123 192.547 162.243 193.64C163.363 194.733 164.843 195.28 166.683 195.28C167.883 195.28 168.963 195.16 169.923 194.92C170.883 194.653 171.803 194.32 172.683 193.92L173.523 197C172.563 197.427 171.483 197.773 170.283 198.04C169.083 198.333 167.737 198.48 166.243 198.48ZM160.163 186.16H171.563C171.563 184.133 171.057 182.573 170.043 181.48C169.03 180.387 167.63 179.84 165.843 179.84C164.297 179.84 163.017 180.387 162.003 181.48C160.99 182.547 160.377 184.107 160.163 186.16ZM197.473 198L189.873 170.92L193.633 169.72L199.953 193.96L205.913 172.92H210.673L216.593 193.96L222.873 169.84L226.393 170.92L218.833 198H214.113L208.193 176.96L202.193 198H197.473ZM237.717 198.48C234.73 198.48 232.357 197.533 230.597 195.64C228.864 193.72 227.997 191.04 227.997 187.6C227.997 185.52 228.384 183.667 229.157 182.04C229.957 180.387 231.064 179.093 232.477 178.16C233.89 177.2 235.53 176.72 237.397 176.72C239.397 176.72 241.05 177.16 242.357 178.04C243.69 178.893 244.69 180.053 245.357 181.52C246.024 182.987 246.357 184.6 246.357 186.36C246.357 187.293 246.317 188.2 246.237 189.08H231.677C231.917 191.027 232.597 192.547 233.717 193.64C234.837 194.733 236.317 195.28 238.157 195.28C239.357 195.28 240.437 195.16 241.397 194.92C242.357 194.653 243.277 194.32 244.157 193.92L244.997 197C244.037 197.427 242.957 197.773 241.757 198.04C240.557 198.333 239.21 198.48 237.717 198.48ZM231.637 186.16H243.037C243.037 184.133 242.53 182.573 241.517 181.48C240.504 180.387 239.104 179.84 237.317 179.84C235.77 179.84 234.49 180.387 233.477 181.48C232.464 182.547 231.85 184.107 231.637 186.16ZM251.555 198V177.2H255.155V198H251.555ZM253.355 173.64C252.661 173.64 252.061 173.387 251.555 172.88C251.075 172.373 250.835 171.787 250.835 171.12C250.835 170.347 251.061 169.733 251.515 169.28C251.968 168.827 252.581 168.6 253.355 168.6C254.048 168.6 254.635 168.853 255.115 169.36C255.621 169.84 255.875 170.427 255.875 171.12C255.875 171.867 255.648 172.48 255.195 172.96C254.741 173.413 254.128 173.64 253.355 173.64ZM269.595 207.28C268.368 207.28 267.168 207.133 265.995 206.84C264.848 206.547 263.821 206.107 262.915 205.52L264.235 202.4C264.875 202.907 265.621 203.32 266.475 203.64C267.328 203.987 268.368 204.16 269.595 204.16C271.488 204.16 272.968 203.653 274.035 202.64C275.128 201.653 275.675 200.067 275.675 197.88V195.32C275.141 195.96 274.368 196.573 273.355 197.16C272.368 197.72 271.181 198 269.795 198C268.221 198 266.728 197.6 265.315 196.8C263.901 195.973 262.755 194.773 261.875 193.2C260.995 191.627 260.555 189.733 260.555 187.52C260.555 185.44 260.981 183.587 261.835 181.96C262.715 180.333 263.888 179.053 265.355 178.12C266.821 177.187 268.435 176.72 270.195 176.72C271.368 176.72 272.435 176.92 273.395 177.32C274.355 177.72 275.181 178.213 275.875 178.8V177.2H279.155V197.52C279.155 199.813 278.755 201.68 277.955 203.12C277.155 204.56 276.035 205.613 274.595 206.28C273.181 206.947 271.515 207.28 269.595 207.28ZM270.595 194.8C271.661 194.8 272.621 194.56 273.475 194.08C274.328 193.6 275.021 193.04 275.555 192.4V181.52C274.968 181.093 274.261 180.707 273.435 180.36C272.608 180.013 271.648 179.84 270.555 179.84C269.461 179.84 268.435 180.133 267.475 180.72C266.515 181.307 265.728 182.16 265.115 183.28C264.528 184.373 264.235 185.72 264.235 187.32C264.235 188.84 264.528 190.16 265.115 191.28C265.728 192.4 266.515 193.267 267.475 193.88C268.435 194.493 269.475 194.8 270.595 194.8ZM285.753 198V168.4H289.353V180.52C290.1 179.427 291.046 178.52 292.193 177.8C293.34 177.08 294.686 176.72 296.233 176.72C298.58 176.72 300.326 177.427 301.473 178.84C302.646 180.253 303.233 182.12 303.233 184.44V198H299.633V184.84C299.633 183.347 299.286 182.147 298.593 181.24C297.9 180.333 296.926 179.88 295.673 179.88C294.446 179.88 293.273 180.32 292.153 181.2C291.06 182.053 290.126 183.067 289.353 184.24V198H285.753ZM317.105 198.48C315.105 198.48 313.518 197.827 312.345 196.52C311.198 195.187 310.625 193.293 310.625 190.84V181.08H307.025V177.96H310.705L311.465 171.4H314.225V177.96H319.985V181.08H314.225V191.12C314.225 192.667 314.545 193.747 315.185 194.36C315.852 194.973 316.638 195.28 317.545 195.28C318.212 195.28 318.838 195.173 319.425 194.96C320.038 194.747 320.598 194.493 321.105 194.2L322.105 197.08C321.572 197.4 320.852 197.707 319.945 198C319.038 198.32 318.092 198.48 317.105 198.48Z"/>
</mask>
<path d="M94.0766 198V170H97.8766V194.6H110.717V198H94.0766ZM123.266 198.48C121.293 198.48 119.52 198.027 117.946 197.12C116.373 196.187 115.133 194.907 114.226 193.28C113.346 191.627 112.906 189.733 112.906 187.6C112.906 185.36 113.36 183.427 114.266 181.8C115.173 180.173 116.413 178.92 117.986 178.04C119.56 177.16 121.32 176.72 123.266 176.72C125.213 176.72 126.96 177.16 128.506 178.04C130.08 178.92 131.32 180.173 132.226 181.8C133.16 183.4 133.626 185.307 133.626 187.52C133.626 189.733 133.173 191.667 132.266 193.32C131.36 194.947 130.12 196.213 128.546 197.12C127 198.027 125.24 198.48 123.266 198.48ZM123.266 195.28C125.373 195.28 127.013 194.573 128.186 193.16C129.36 191.72 129.946 189.867 129.946 187.6C129.946 186.213 129.653 184.947 129.066 183.8C128.48 182.627 127.68 181.693 126.666 181C125.68 180.28 124.546 179.92 123.266 179.92C121.16 179.92 119.52 180.613 118.346 182C117.173 183.387 116.586 185.227 116.586 187.52C116.586 188.907 116.88 190.2 117.466 191.4C118.053 192.573 118.84 193.52 119.826 194.24C120.84 194.933 121.986 195.28 123.266 195.28ZM144.412 198.48C142.839 198.48 141.412 198.28 140.132 197.88C138.879 197.48 137.839 196.96 137.012 196.32L138.532 193.32C139.226 193.907 140.092 194.4 141.132 194.8C142.199 195.173 143.332 195.36 144.532 195.36C146.026 195.36 147.146 195.12 147.892 194.64C148.666 194.133 149.053 193.493 149.053 192.72C149.053 192.16 148.906 191.667 148.612 191.24C148.346 190.813 147.839 190.4 147.092 190C146.346 189.573 145.266 189.12 143.852 188.64C141.906 187.973 140.439 187.187 139.452 186.28C138.492 185.347 138.012 184.067 138.012 182.44C138.012 180.84 138.706 179.493 140.092 178.4C141.506 177.28 143.452 176.72 145.932 176.72C147.266 176.72 148.453 176.867 149.492 177.16C150.532 177.427 151.466 177.773 152.293 178.2L151.293 181.16C150.572 180.733 149.746 180.387 148.812 180.12C147.906 179.853 146.892 179.72 145.772 179.72C144.386 179.72 143.332 180 142.612 180.56C141.892 181.12 141.532 181.733 141.532 182.4C141.532 183.04 141.812 183.587 142.372 184.04C142.932 184.493 144.026 184.987 145.652 185.52C148.293 186.4 150.133 187.373 151.173 188.44C152.213 189.507 152.733 190.84 152.733 192.44C152.733 194.307 151.973 195.787 150.453 196.88C148.959 197.947 146.946 198.48 144.412 198.48ZM166.243 198.48C163.257 198.48 160.883 197.533 159.123 195.64C157.39 193.72 156.523 191.04 156.523 187.6C156.523 185.52 156.91 183.667 157.683 182.04C158.483 180.387 159.59 179.093 161.003 178.16C162.417 177.2 164.057 176.72 165.923 176.72C167.923 176.72 169.577 177.16 170.883 178.04C172.217 178.893 173.217 180.053 173.883 181.52C174.55 182.987 174.883 184.6 174.883 186.36C174.883 187.293 174.843 188.2 174.763 189.08H160.203C160.443 191.027 161.123 192.547 162.243 193.64C163.363 194.733 164.843 195.28 166.683 195.28C167.883 195.28 168.963 195.16 169.923 194.92C170.883 194.653 171.803 194.32 172.683 193.92L173.523 197C172.563 197.427 171.483 197.773 170.283 198.04C169.083 198.333 167.737 198.48 166.243 198.48ZM160.163 186.16H171.563C171.563 184.133 171.057 182.573 170.043 181.48C169.03 180.387 167.63 179.84 165.843 179.84C164.297 179.84 163.017 180.387 162.003 181.48C160.99 182.547 160.377 184.107 160.163 186.16ZM197.473 198L189.873 170.92L193.633 169.72L199.953 193.96L205.913 172.92H210.673L216.593 193.96L222.873 169.84L226.393 170.92L218.833 198H214.113L208.193 176.96L202.193 198H197.473ZM237.717 198.48C234.73 198.48 232.357 197.533 230.597 195.64C228.864 193.72 227.997 191.04 227.997 187.6C227.997 185.52 228.384 183.667 229.157 182.04C229.957 180.387 231.064 179.093 232.477 178.16C233.89 177.2 235.53 176.72 237.397 176.72C239.397 176.72 241.05 177.16 242.357 178.04C243.69 178.893 244.69 180.053 245.357 181.52C246.024 182.987 246.357 184.6 246.357 186.36C246.357 187.293 246.317 188.2 246.237 189.08H231.677C231.917 191.027 232.597 192.547 233.717 193.64C234.837 194.733 236.317 195.28 238.157 195.28C239.357 195.28 240.437 195.16 241.397 194.92C242.357 194.653 243.277 194.32 244.157 193.92L244.997 197C244.037 197.427 242.957 197.773 241.757 198.04C240.557 198.333 239.21 198.48 237.717 198.48ZM231.637 186.16H243.037C243.037 184.133 242.53 182.573 241.517 181.48C240.504 180.387 239.104 179.84 237.317 179.84C235.77 179.84 234.49 180.387 233.477 181.48C232.464 182.547 231.85 184.107 231.637 186.16ZM251.555 198V177.2H255.155V198H251.555ZM253.355 173.64C252.661 173.64 252.061 173.387 251.555 172.88C251.075 172.373 250.835 171.787 250.835 171.12C250.835 170.347 251.061 169.733 251.515 169.28C251.968 168.827 252.581 168.6 253.355 168.6C254.048 168.6 254.635 168.853 255.115 169.36C255.621 169.84 255.875 170.427 255.875 171.12C255.875 171.867 255.648 172.48 255.195 172.96C254.741 173.413 254.128 173.64 253.355 173.64ZM269.595 207.28C268.368 207.28 267.168 207.133 265.995 206.84C264.848 206.547 263.821 206.107 262.915 205.52L264.235 202.4C264.875 202.907 265.621 203.32 266.475 203.64C267.328 203.987 268.368 204.16 269.595 204.16C271.488 204.16 272.968 203.653 274.035 202.64C275.128 201.653 275.675 200.067 275.675 197.88V195.32C275.141 195.96 274.368 196.573 273.355 197.16C272.368 197.72 271.181 198 269.795 198C268.221 198 266.728 197.6 265.315 196.8C263.901 195.973 262.755 194.773 261.875 193.2C260.995 191.627 260.555 189.733 260.555 187.52C260.555 185.44 260.981 183.587 261.835 181.96C262.715 180.333 263.888 179.053 265.355 178.12C266.821 177.187 268.435 176.72 270.195 176.72C271.368 176.72 272.435 176.92 273.395 177.32C274.355 177.72 275.181 178.213 275.875 178.8V177.2H279.155V197.52C279.155 199.813 278.755 201.68 277.955 203.12C277.155 204.56 276.035 205.613 274.595 206.28C273.181 206.947 271.515 207.28 269.595 207.28ZM270.595 194.8C271.661 194.8 272.621 194.56 273.475 194.08C274.328 193.6 275.021 193.04 275.555 192.4V181.52C274.968 181.093 274.261 180.707 273.435 180.36C272.608 180.013 271.648 179.84 270.555 179.84C269.461 179.84 268.435 180.133 267.475 180.72C266.515 181.307 265.728 182.16 265.115 183.28C264.528 184.373 264.235 185.72 264.235 187.32C264.235 188.84 264.528 190.16 265.115 191.28C265.728 192.4 266.515 193.267 267.475 193.88C268.435 194.493 269.475 194.8 270.595 194.8ZM285.753 198V168.4H289.353V180.52C290.1 179.427 291.046 178.52 292.193 177.8C293.34 177.08 294.686 176.72 296.233 176.72C298.58 176.72 300.326 177.427 301.473 178.84C302.646 180.253 303.233 182.12 303.233 184.44V198H299.633V184.84C299.633 183.347 299.286 182.147 298.593 181.24C297.9 180.333 296.926 179.88 295.673 179.88C294.446 179.88 293.273 180.32 292.153 181.2C291.06 182.053 290.126 183.067 289.353 184.24V198H285.753ZM317.105 198.48C315.105 198.48 313.518 197.827 312.345 196.52C311.198 195.187 310.625 193.293 310.625 190.84V181.08H307.025V177.96H310.705L311.465 171.4H314.225V177.96H319.985V181.08H314.225V191.12C314.225 192.667 314.545 193.747 315.185 194.36C315.852 194.973 316.638 195.28 317.545 195.28C318.212 195.28 318.838 195.173 319.425 194.96C320.038 194.747 320.598 194.493 321.105 194.2L322.105 197.08C321.572 197.4 320.852 197.707 319.945 198C319.038 198.32 318.092 198.48 317.105 198.48Z" fill="#FFECCC"/>
<path d="M94.0766 198H93.7766V198.3H94.0766V198ZM94.0766 170V169.7H93.7766V170H94.0766ZM97.8766 170H98.1766V169.7H97.8766V170ZM97.8766 194.6H97.5766V194.9H97.8766V194.6ZM110.717 194.6H111.017V194.3H110.717V194.6ZM110.717 198V198.3H111.017V198H110.717ZM94.3766 198V170H93.7766V198H94.3766ZM94.0766 170.3H97.8766V169.7H94.0766V170.3ZM97.5766 170V194.6H98.1766V170H97.5766ZM97.8766 194.9H110.717V194.3H97.8766V194.9ZM110.417 194.6V198H111.017V194.6H110.417ZM110.717 197.7H94.0766V198.3H110.717V197.7ZM117.946 197.12L117.793 197.378L117.796 197.38L117.946 197.12ZM114.226 193.28L113.961 193.421L113.964 193.426L114.226 193.28ZM114.266 181.8L114.004 181.654L114.266 181.8ZM117.986 178.04L118.133 178.302L117.986 178.04ZM128.506 178.04L128.358 178.301L128.36 178.302L128.506 178.04ZM132.226 181.8L131.964 181.946L131.967 181.951L132.226 181.8ZM132.266 193.32L132.528 193.466L132.529 193.464L132.266 193.32ZM128.546 197.12L128.396 196.86L128.395 196.861L128.546 197.12ZM128.186 193.16L128.417 193.352L128.419 193.35L128.186 193.16ZM129.066 183.8L128.798 183.934L128.799 183.937L129.066 183.8ZM126.666 181L126.489 181.242L126.497 181.248L126.666 181ZM118.346 182L118.575 182.194L118.346 182ZM117.466 191.4L117.197 191.532L117.198 191.534L117.466 191.4ZM119.826 194.24L119.649 194.482L119.657 194.488L119.826 194.24ZM123.266 198.18C121.341 198.18 119.62 197.738 118.096 196.86L117.796 197.38C119.419 198.315 121.245 198.78 123.266 198.78V198.18ZM118.099 196.862C116.572 195.956 115.37 194.715 114.488 193.134L113.964 193.426C114.896 195.098 116.173 196.417 117.793 197.378L118.099 196.862ZM114.491 193.139C113.637 191.535 113.206 189.691 113.206 187.6H112.606C112.606 189.776 113.055 191.719 113.961 193.421L114.491 193.139ZM113.206 187.6C113.206 185.401 113.651 183.52 114.528 181.946L114.004 181.654C113.068 183.334 112.606 185.319 112.606 187.6H113.206ZM114.528 181.946C115.409 180.366 116.61 179.154 118.133 178.302L117.84 177.778C116.216 178.686 114.937 179.98 114.004 181.654L114.528 181.946ZM118.133 178.302C119.658 177.449 121.367 177.02 123.266 177.02V176.42C121.273 176.42 119.461 176.871 117.84 177.778L118.133 178.302ZM123.266 177.02C125.166 177.02 126.861 177.449 128.358 178.301L128.655 177.779C127.059 176.871 125.26 176.42 123.266 176.42V177.02ZM128.36 178.302C129.883 179.154 131.084 180.366 131.964 181.946L132.488 181.654C131.556 179.98 130.276 178.686 128.653 177.778L128.36 178.302ZM131.967 181.951C132.869 183.497 133.326 185.349 133.326 187.52H133.926C133.926 185.264 133.45 183.303 132.485 181.649L131.967 181.951ZM133.326 187.52C133.326 189.692 132.882 191.574 132.003 193.176L132.529 193.464C133.464 191.76 133.926 189.775 133.926 187.52H133.326ZM132.004 193.174C131.123 194.754 129.922 195.981 128.396 196.86L128.696 197.38C130.318 196.445 131.596 195.139 132.528 193.466L132.004 193.174ZM128.395 196.861C126.898 197.738 125.192 198.18 123.266 198.18V198.78C125.287 198.78 127.101 198.315 128.698 197.379L128.395 196.861ZM123.266 195.58C125.447 195.58 127.178 194.844 128.417 193.352L127.955 192.968C126.848 194.303 125.298 194.98 123.266 194.98V195.58ZM128.419 193.35C129.645 191.845 130.246 189.92 130.246 187.6H129.646C129.646 189.813 129.074 191.595 127.954 192.97L128.419 193.35ZM130.246 187.6C130.246 186.17 129.943 184.856 129.333 183.663L128.799 183.937C129.363 185.038 129.646 186.257 129.646 187.6H130.246ZM129.335 183.666C128.727 182.45 127.894 181.476 126.836 180.752L126.497 181.248C127.465 181.91 128.232 182.803 128.798 183.934L129.335 183.666ZM126.843 180.758C125.803 179.998 124.607 179.62 123.266 179.62V180.22C124.486 180.22 125.557 180.562 126.489 181.242L126.843 180.758ZM123.266 179.62C121.087 179.62 119.357 180.341 118.117 181.806L118.575 182.194C119.682 180.886 121.232 180.22 123.266 180.22V179.62ZM118.117 181.806C116.887 183.26 116.286 185.175 116.286 187.52H116.886C116.886 185.278 117.459 183.513 118.575 182.194L118.117 181.806ZM116.286 187.52C116.286 188.951 116.589 190.289 117.197 191.532L117.736 191.268C117.17 190.111 116.886 188.863 116.886 187.52H116.286ZM117.198 191.534C117.804 192.747 118.621 193.732 119.649 194.482L120.003 193.998C119.058 193.308 118.301 192.4 117.735 191.266L117.198 191.534ZM119.657 194.488C120.722 195.217 121.929 195.58 123.266 195.58V194.98C122.044 194.98 120.957 194.65 119.996 193.992L119.657 194.488ZM140.132 197.88L140.041 198.166L140.043 198.166L140.132 197.88ZM137.013 196.32L136.745 196.184L136.633 196.405L136.829 196.557L137.013 196.32ZM138.533 193.32L138.726 193.091L138.436 192.846L138.265 193.184L138.533 193.32ZM141.132 194.8L141.025 195.08L141.033 195.083L141.132 194.8ZM147.892 194.64L148.055 194.892L148.057 194.891L147.892 194.64ZM148.612 191.24L148.358 191.399L148.365 191.41L148.612 191.24ZM147.092 190L146.944 190.261L146.951 190.264L147.092 190ZM143.853 188.64L143.755 188.924L143.756 188.924L143.853 188.64ZM139.452 186.28L139.243 186.495L139.25 186.501L139.452 186.28ZM140.092 178.4L140.278 178.636L140.279 178.635L140.092 178.4ZM149.493 177.16L149.411 177.449L149.418 177.451L149.493 177.16ZM152.292 178.2L152.577 178.296L152.659 178.052L152.43 177.933L152.292 178.2ZM151.292 181.16L151.14 181.418L151.458 181.607L151.577 181.256L151.292 181.16ZM148.812 180.12L148.728 180.408L148.73 180.408L148.812 180.12ZM142.612 180.56L142.797 180.797L142.612 180.56ZM142.373 184.04L142.184 184.273L142.373 184.04ZM145.653 185.52L145.747 185.235L145.746 185.235L145.653 185.52ZM151.173 188.44L150.958 188.649L151.173 188.44ZM150.452 196.88L150.627 197.124L150.628 197.124L150.452 196.88ZM144.412 198.18C142.864 198.18 141.469 197.983 140.222 197.594L140.043 198.166C141.356 198.577 142.814 198.78 144.412 198.78V198.18ZM140.224 197.594C138.996 197.202 137.989 196.697 137.196 196.083L136.829 196.557C137.689 197.223 138.763 197.758 140.041 198.166L140.224 197.594ZM137.28 196.456L138.8 193.456L138.265 193.184L136.745 196.184L137.28 196.456ZM138.339 193.549C139.063 194.162 139.96 194.671 141.025 195.08L141.24 194.52C140.225 194.129 139.389 193.652 138.726 193.091L138.339 193.549ZM141.033 195.083C142.134 195.468 143.301 195.66 144.533 195.66V195.06C143.364 195.06 142.264 194.878 141.232 194.517L141.033 195.083ZM144.533 195.66C146.048 195.66 147.237 195.418 148.055 194.892L147.73 194.388C147.055 194.822 146.003 195.06 144.533 195.06V195.66ZM148.057 194.891C148.896 194.341 149.353 193.615 149.353 192.72H148.752C148.752 193.371 148.436 193.925 147.728 194.389L148.057 194.891ZM149.353 192.72C149.353 192.105 149.19 191.551 148.86 191.07L148.365 191.41C148.621 191.782 148.752 192.215 148.752 192.72H149.353ZM148.867 191.081C148.56 190.589 147.999 190.145 147.234 189.736L146.951 190.264C147.679 190.655 148.132 191.037 148.358 191.399L148.867 191.081ZM147.241 189.74C146.47 189.299 145.369 188.838 143.949 188.356L143.756 188.924C145.162 189.402 146.221 189.848 146.944 190.26L147.241 189.74ZM143.95 188.356C142.023 187.696 140.6 186.927 139.655 186.059L139.25 186.501C140.279 187.447 141.788 188.25 143.755 188.924L143.95 188.356ZM139.662 186.065C138.772 185.2 138.312 184.004 138.312 182.44H137.712C137.712 184.129 138.213 185.493 139.243 186.495L139.662 186.065ZM138.312 182.44C138.312 180.942 138.955 179.679 140.278 178.636L139.907 178.164C138.456 179.308 137.712 180.738 137.712 182.44H138.312ZM140.279 178.635C141.622 177.57 143.495 177.02 145.932 177.02V176.42C143.41 176.42 141.389 176.99 139.906 178.165L140.279 178.635ZM145.932 177.02C147.244 177.02 148.403 177.164 149.411 177.449L149.574 176.871C148.502 176.569 147.287 176.42 145.932 176.42V177.02ZM149.418 177.451C150.439 177.712 151.351 178.052 152.155 178.467L152.43 177.933C151.581 177.495 150.626 177.141 149.567 176.869L149.418 177.451ZM152.008 178.104L151.008 181.064L151.577 181.256L152.577 178.296L152.008 178.104ZM151.445 180.902C150.7 180.46 149.849 180.104 148.895 179.832L148.73 180.408C149.643 180.669 150.445 181.006 151.14 181.418L151.445 180.902ZM148.897 179.832C147.958 179.556 146.916 179.42 145.772 179.42V180.02C146.869 180.02 147.853 180.151 148.728 180.408L148.897 179.832ZM145.772 179.42C144.352 179.42 143.222 179.706 142.428 180.323L142.797 180.797C143.443 180.294 144.42 180.02 145.772 180.02V179.42ZM142.428 180.323C141.664 180.918 141.232 181.61 141.232 182.4H141.833C141.833 181.857 142.121 181.322 142.797 180.797L142.428 180.323ZM141.232 182.4C141.232 183.143 141.563 183.771 142.184 184.273L142.561 183.807C142.062 183.402 141.833 182.937 141.833 182.4H141.232ZM142.184 184.273C142.791 184.765 143.932 185.272 145.559 185.805L145.746 185.235C144.119 184.702 143.074 184.222 142.561 183.807L142.184 184.273ZM145.558 185.805C148.185 186.68 149.969 187.635 150.958 188.649L151.387 188.231C150.296 187.111 148.4 186.12 145.747 185.235L145.558 185.805ZM150.958 188.649C151.939 189.656 152.432 190.912 152.432 192.44H153.033C153.033 190.768 152.486 189.358 151.387 188.231L150.958 188.649ZM152.432 192.44C152.432 194.21 151.719 195.599 150.277 196.636L150.628 197.124C152.226 195.974 153.033 194.404 153.033 192.44H152.432ZM150.278 196.636C148.852 197.655 146.907 198.18 144.412 198.18V198.78C146.985 198.78 149.067 198.239 150.627 197.124L150.278 196.636ZM159.123 195.64L158.901 195.841L158.904 195.844L159.123 195.64ZM157.683 182.04L157.413 181.909L157.412 181.911L157.683 182.04ZM161.003 178.16L161.169 178.41L161.172 178.408L161.003 178.16ZM170.883 178.04L170.716 178.289L170.722 178.293L170.883 178.04ZM173.883 181.52L174.157 181.396L173.883 181.52ZM174.763 189.08V189.38H175.037L175.062 189.107L174.763 189.08ZM160.203 189.08V188.78H159.864L159.906 189.117L160.203 189.08ZM169.923 194.92L169.996 195.211L170.004 195.209L169.923 194.92ZM172.683 193.92L172.973 193.841L172.88 193.501L172.559 193.647L172.683 193.92ZM173.523 197L173.645 197.274L173.881 197.17L173.813 196.921L173.523 197ZM170.283 198.04L170.218 197.747L170.212 197.749L170.283 198.04ZM160.163 186.16L159.865 186.129L159.831 186.46H160.163V186.16ZM171.563 186.16V186.46H171.863V186.16H171.563ZM170.043 181.48L169.823 181.684L170.043 181.48ZM162.003 181.48L162.221 181.687L162.223 181.684L162.003 181.48ZM166.243 198.18C163.326 198.18 161.037 197.258 159.343 195.436L158.904 195.844C160.729 197.808 163.188 198.78 166.243 198.78V198.18ZM159.346 195.439C157.677 193.59 156.823 190.991 156.823 187.6H156.223C156.223 191.089 157.103 193.85 158.901 195.841L159.346 195.439ZM156.823 187.6C156.823 185.558 157.203 183.749 157.954 182.169L157.412 181.911C156.617 183.584 156.223 185.482 156.223 187.6H156.823ZM157.953 182.171C158.732 180.562 159.804 179.311 161.169 178.41L160.838 177.91C159.376 178.875 158.235 180.212 157.413 181.909L157.953 182.171ZM161.172 178.408C162.531 177.485 164.111 177.02 165.923 177.02V176.42C164.002 176.42 162.303 176.915 160.835 177.912L161.172 178.408ZM165.923 177.02C167.88 177.02 169.471 177.45 170.716 178.289L171.051 177.791C169.683 176.87 167.967 176.42 165.923 176.42V177.02ZM170.722 178.293C172.005 179.114 172.967 180.229 173.61 181.644L174.157 181.396C173.466 179.877 172.428 178.672 171.045 177.787L170.722 178.293ZM173.61 181.644C174.258 183.068 174.583 184.639 174.583 186.36H175.183C175.183 184.561 174.843 182.905 174.157 181.396L173.61 181.644ZM174.583 186.36C174.583 187.285 174.544 188.182 174.465 189.053L175.062 189.107C175.143 188.218 175.183 187.302 175.183 186.36H174.583ZM174.763 188.78H160.203V189.38H174.763V188.78ZM159.906 189.117C160.152 191.113 160.854 192.703 162.034 193.855L162.453 193.425C161.393 192.391 160.735 190.94 160.501 189.043L159.906 189.117ZM162.034 193.855C163.22 195.012 164.78 195.58 166.683 195.58V194.98C164.907 194.98 163.507 194.454 162.453 193.425L162.034 193.855ZM166.683 195.58C167.903 195.58 169.008 195.458 169.996 195.211L169.851 194.629C168.919 194.862 167.864 194.98 166.683 194.98V195.58ZM170.004 195.209C170.978 194.938 171.913 194.6 172.808 194.193L172.559 193.647C171.694 194.04 170.789 194.368 169.843 194.631L170.004 195.209ZM172.394 193.999L173.234 197.079L173.813 196.921L172.973 193.841L172.394 193.999ZM173.402 196.726C172.463 197.143 171.402 197.484 170.218 197.747L170.349 198.333C171.565 198.063 172.664 197.71 173.645 197.274L173.402 196.726ZM170.212 197.749C169.04 198.035 167.718 198.18 166.243 198.18V198.78C167.756 198.78 169.127 198.631 170.355 198.331L170.212 197.749ZM160.163 186.46H171.563V185.86H160.163V186.46ZM171.863 186.16C171.863 184.085 171.344 182.442 170.263 181.276L169.823 181.684C170.769 182.704 171.263 184.181 171.263 186.16H171.863ZM170.263 181.276C169.182 180.109 167.696 179.54 165.843 179.54V180.14C167.565 180.14 168.878 180.664 169.823 181.684L170.263 181.276ZM165.843 179.54C164.217 179.54 162.856 180.119 161.783 181.276L162.223 181.684C163.178 180.654 164.377 180.14 165.843 180.14V179.54ZM161.786 181.273C160.712 182.404 160.083 184.036 159.865 186.129L160.462 186.191C160.671 184.178 161.268 182.689 162.221 181.687L161.786 181.273ZM197.473 198L197.185 198.081L197.246 198.3H197.473V198ZM189.873 170.92L189.782 170.634L189.506 170.722L189.585 171.001L189.873 170.92ZM193.633 169.72L193.924 169.644L193.844 169.338L193.542 169.434L193.633 169.72ZM199.953 193.96L199.663 194.036L199.941 195.103L200.242 194.042L199.953 193.96ZM205.913 172.92V172.62H205.687L205.625 172.838L205.913 172.92ZM210.673 172.92L210.962 172.839L210.901 172.62H210.673V172.92ZM216.593 193.96L216.305 194.041L216.605 195.108L216.884 194.036L216.593 193.96ZM222.873 169.84L222.961 169.553L222.662 169.461L222.583 169.764L222.873 169.84ZM226.393 170.92L226.682 171.001L226.761 170.719L226.481 170.633L226.393 170.92ZM218.833 198V198.3H219.061L219.122 198.081L218.833 198ZM214.113 198L213.825 198.081L213.886 198.3H214.113V198ZM208.193 176.96L208.482 176.879L208.195 175.859L207.905 176.878L208.193 176.96ZM202.193 198V198.3H202.42L202.482 198.082L202.193 198ZM197.762 197.919L190.162 170.839L189.585 171.001L197.185 198.081L197.762 197.919ZM189.965 171.206L193.725 170.006L193.542 169.434L189.782 170.634L189.965 171.206ZM193.343 169.796L199.663 194.036L200.244 193.884L193.924 169.644L193.343 169.796ZM200.242 194.042L206.202 173.002L205.625 172.838L199.665 193.878L200.242 194.042ZM205.913 173.22H210.673V172.62H205.913V173.22ZM210.385 173.001L216.305 194.041L216.882 193.879L210.962 172.839L210.385 173.001ZM216.884 194.036L223.164 169.916L222.583 169.764L216.303 193.884L216.884 194.036ZM222.785 170.127L226.305 171.207L226.481 170.633L222.961 169.553L222.785 170.127ZM226.104 170.839L218.544 197.919L219.122 198.081L226.682 171.001L226.104 170.839ZM218.833 197.7H214.113V198.3H218.833V197.7ZM214.402 197.919L208.482 176.879L207.905 177.041L213.825 198.081L214.402 197.919ZM207.905 176.878L201.905 197.918L202.482 198.082L208.482 177.042L207.905 176.878ZM202.193 197.7H197.473V198.3H202.193V197.7ZM230.597 195.64L230.374 195.841L230.377 195.844L230.597 195.64ZM229.157 182.04L228.887 181.909L228.886 181.911L229.157 182.04ZM232.477 178.16L232.642 178.41L232.645 178.408L232.477 178.16ZM242.357 178.04L242.189 178.289L242.195 178.293L242.357 178.04ZM245.357 181.52L245.63 181.396L245.357 181.52ZM246.237 189.08V189.38H246.511L246.536 189.107L246.237 189.08ZM231.677 189.08V188.78H231.338L231.379 189.117L231.677 189.08ZM241.397 194.92L241.47 195.211L241.477 195.209L241.397 194.92ZM244.157 193.92L244.446 193.841L244.354 193.501L244.033 193.647L244.157 193.92ZM244.997 197L245.119 197.274L245.354 197.17L245.286 196.921L244.997 197ZM241.757 198.04L241.692 197.747L241.686 197.749L241.757 198.04ZM231.637 186.16L231.338 186.129L231.304 186.46H231.637V186.16ZM243.037 186.16V186.46H243.337V186.16H243.037ZM241.517 181.48L241.297 181.684L241.517 181.48ZM233.477 181.48L233.694 181.687L233.697 181.684L233.477 181.48ZM237.717 198.18C234.799 198.18 232.511 197.258 230.817 195.436L230.377 195.844C232.203 197.808 234.661 198.78 237.717 198.78V198.18ZM230.82 195.439C229.15 193.59 228.297 190.991 228.297 187.6H227.697C227.697 191.089 228.577 193.85 230.374 195.841L230.82 195.439ZM228.297 187.6C228.297 185.558 228.676 183.749 229.428 182.169L228.886 181.911C228.091 183.584 227.697 185.482 227.697 187.6H228.297ZM229.427 182.171C230.205 180.562 231.278 179.311 232.642 178.41L232.312 177.91C230.849 178.875 229.708 180.212 228.887 181.909L229.427 182.171ZM232.645 178.408C234.004 177.485 235.585 177.02 237.397 177.02V176.42C235.476 176.42 233.776 176.915 232.308 177.912L232.645 178.408ZM237.397 177.02C239.353 177.02 240.944 177.45 242.189 178.289L242.524 177.791C241.156 176.87 239.441 176.42 237.397 176.42V177.02ZM242.195 178.293C243.479 179.114 244.441 180.229 245.084 181.644L245.63 181.396C244.94 179.877 243.902 178.672 242.519 177.787L242.195 178.293ZM245.084 181.644C245.731 183.068 246.057 184.639 246.057 186.36H246.657C246.657 184.561 246.316 182.905 245.63 181.396L245.084 181.644ZM246.057 186.36C246.057 187.285 246.017 188.182 245.938 189.053L246.536 189.107C246.617 188.218 246.657 187.302 246.657 186.36H246.057ZM246.237 188.78H231.677V189.38H246.237V188.78ZM231.379 189.117C231.625 191.113 232.327 192.703 233.507 193.855L233.926 193.425C232.866 192.391 232.208 190.94 231.975 189.043L231.379 189.117ZM233.507 193.855C234.693 195.012 236.253 195.58 238.157 195.58V194.98C236.38 194.98 234.981 194.454 233.926 193.425L233.507 193.855ZM238.157 195.58C239.376 195.58 240.481 195.458 241.47 195.211L241.324 194.629C240.392 194.862 239.337 194.98 238.157 194.98V195.58ZM241.477 195.209C242.452 194.938 243.386 194.6 244.281 194.193L244.033 193.647C243.167 194.04 242.262 194.368 241.317 194.631L241.477 195.209ZM243.867 193.999L244.707 197.079L245.286 196.921L244.446 193.841L243.867 193.999ZM244.875 196.726C243.936 197.143 242.875 197.484 241.692 197.747L241.822 198.333C243.038 198.063 244.138 197.71 245.119 197.274L244.875 196.726ZM241.686 197.749C240.513 198.035 239.191 198.18 237.717 198.18V198.78C239.229 198.78 240.601 198.631 241.828 198.331L241.686 197.749ZM231.637 186.46H243.037V185.86H231.637V186.46ZM243.337 186.16C243.337 184.085 242.818 182.442 241.737 181.276L241.297 181.684C242.243 182.704 242.737 184.181 242.737 186.16H243.337ZM241.737 181.276C240.656 180.109 239.169 179.54 237.317 179.54V180.14C239.038 180.14 240.351 180.664 241.297 181.684L241.737 181.276ZM237.317 179.54C235.69 179.54 234.329 180.119 233.257 181.276L233.697 181.684C234.651 180.654 235.85 180.14 237.317 180.14V179.54ZM233.259 181.273C232.185 182.404 231.556 184.036 231.338 186.129L231.935 186.191C232.144 184.178 232.742 182.689 233.694 181.687L233.259 181.273ZM251.555 198H251.255V198.3H251.555V198ZM251.555 177.2V176.9H251.255V177.2H251.555ZM255.155 177.2H255.455V176.9H255.155V177.2ZM255.155 198V198.3H255.455V198H255.155ZM251.555 172.88L251.337 173.086L251.343 173.092L251.555 172.88ZM251.515 169.28L251.303 169.068V169.068L251.515 169.28ZM255.115 169.36L254.897 169.566L254.902 169.572L254.908 169.578L255.115 169.36ZM255.195 172.96L255.407 173.172L255.413 173.166L255.195 172.96ZM251.855 198V177.2H251.255V198H251.855ZM251.555 177.5H255.155V176.9H251.555V177.5ZM254.855 177.2V198H255.455V177.2H254.855ZM255.155 197.7H251.555V198.3H255.155V197.7ZM253.355 173.34C252.744 173.34 252.219 173.12 251.767 172.668L251.343 173.092C251.903 173.653 252.579 173.94 253.355 173.94V173.34ZM251.772 172.674C251.343 172.22 251.135 171.706 251.135 171.12H250.535C250.535 171.867 250.807 172.527 251.337 173.086L251.772 172.674ZM251.135 171.12C251.135 170.409 251.341 169.878 251.727 169.492L251.303 169.068C250.782 169.589 250.535 170.285 250.535 171.12H251.135ZM251.727 169.492C252.113 169.106 252.643 168.9 253.355 168.9V168.3C252.519 168.3 251.823 168.547 251.303 169.068L251.727 169.492ZM253.355 168.9C253.965 168.9 254.473 169.119 254.897 169.566L255.332 169.154C254.796 168.588 254.131 168.3 253.355 168.3V168.9ZM254.908 169.578C255.356 170.002 255.575 170.51 255.575 171.12H256.175C256.175 170.344 255.887 169.678 255.321 169.142L254.908 169.578ZM255.575 171.12C255.575 171.801 255.37 172.337 254.977 172.754L255.413 173.166C255.926 172.623 256.175 171.932 256.175 171.12H255.575ZM254.983 172.748C254.597 173.134 254.066 173.34 253.355 173.34V173.94C254.19 173.94 254.886 173.693 255.407 173.172L254.983 172.748ZM265.995 206.84L265.92 207.131L265.922 207.131L265.995 206.84ZM262.915 205.52L262.638 205.403L262.54 205.635L262.752 205.772L262.915 205.52ZM264.235 202.4L264.421 202.165L264.112 201.92L263.958 202.283L264.235 202.4ZM266.475 203.64L266.588 203.362L266.58 203.359L266.475 203.64ZM274.035 202.64L273.834 202.417L273.828 202.423L274.035 202.64ZM275.675 195.32H275.975V194.491L275.444 195.128L275.675 195.32ZM273.355 197.16L273.503 197.421L273.505 197.42L273.355 197.16ZM265.315 196.8L265.163 197.059L265.167 197.061L265.315 196.8ZM261.875 193.2L261.613 193.346L261.875 193.2ZM261.835 181.96L261.571 181.817L261.569 181.821L261.835 181.96ZM265.355 178.12L265.194 177.867L265.355 178.12ZM273.395 177.32L273.51 177.043L273.395 177.32ZM275.875 178.8L275.681 179.029L276.175 179.447V178.8H275.875ZM275.875 177.2V176.9H275.575V177.2H275.875ZM279.155 177.2H279.455V176.9H279.155V177.2ZM277.955 203.12L277.692 202.974L277.955 203.12ZM274.595 206.28L274.469 206.008L274.467 206.009L274.595 206.28ZM273.475 194.08L273.622 194.341L273.475 194.08ZM275.555 192.4L275.785 192.592L275.855 192.509V192.4H275.555ZM275.555 181.52H275.855V181.367L275.731 181.277L275.555 181.52ZM273.435 180.36L273.319 180.637L273.435 180.36ZM267.475 180.72L267.631 180.976L267.475 180.72ZM265.115 183.28L264.852 183.136L264.85 183.138L265.115 183.28ZM265.115 191.28L264.849 191.419L264.852 191.424L265.115 191.28ZM267.475 193.88L267.636 193.627L267.475 193.88ZM269.595 206.98C268.392 206.98 267.217 206.836 266.067 206.549L265.922 207.131C267.119 207.43 268.344 207.58 269.595 207.58V206.98ZM266.069 206.549C264.951 206.263 263.955 205.836 263.078 205.268L262.752 205.772C263.688 206.378 264.745 206.83 265.92 207.131L266.069 206.549ZM263.191 205.637L264.511 202.517L263.958 202.283L262.638 205.403L263.191 205.637ZM264.048 202.635C264.716 203.163 265.49 203.591 266.369 203.921L266.58 203.359C265.753 203.049 265.034 202.65 264.421 202.165L264.048 202.635ZM266.362 203.918C267.261 204.283 268.341 204.46 269.595 204.46V203.86C268.395 203.86 267.395 203.69 266.588 203.362L266.362 203.918ZM269.595 204.46C271.542 204.46 273.104 203.938 274.241 202.857L273.828 202.423C272.832 203.369 271.434 203.86 269.595 203.86V204.46ZM274.236 202.863C275.417 201.796 275.975 200.11 275.975 197.88H275.375C275.375 200.023 274.839 201.51 273.834 202.417L274.236 202.863ZM275.975 197.88V195.32H275.375V197.88H275.975ZM275.444 195.128C274.941 195.732 274.199 196.325 273.204 196.9L273.505 197.42C274.537 196.822 275.342 196.188 275.905 195.512L275.444 195.128ZM273.207 196.899C272.274 197.428 271.141 197.7 269.795 197.7V198.3C271.222 198.3 272.462 198.012 273.503 197.421L273.207 196.899ZM269.795 197.7C268.275 197.7 266.832 197.314 265.462 196.539L265.167 197.061C266.624 197.886 268.168 198.3 269.795 198.3V197.7ZM265.466 196.541C264.104 195.744 262.993 194.585 262.137 193.054L261.613 193.346C262.516 194.962 263.699 196.203 265.163 197.059L265.466 196.541ZM262.137 193.054C261.287 191.534 260.855 189.694 260.855 187.52H260.255C260.255 189.773 260.703 191.719 261.613 193.346L262.137 193.054ZM260.855 187.52C260.855 185.482 261.272 183.678 262.1 182.099L261.569 181.821C260.69 183.496 260.255 185.398 260.255 187.52H260.855ZM262.099 182.103C262.956 180.518 264.095 179.277 265.516 178.373L265.194 177.867C263.681 178.829 262.474 180.149 261.571 181.817L262.099 182.103ZM265.516 178.373C266.934 177.471 268.491 177.02 270.195 177.02V176.42C268.378 176.42 266.709 176.903 265.194 177.867L265.516 178.373ZM270.195 177.02C271.333 177.02 272.36 177.214 273.279 177.597L273.51 177.043C272.509 176.626 271.403 176.42 270.195 176.42V177.02ZM273.279 177.597C274.215 177.987 275.014 178.465 275.681 179.029L276.068 178.571C275.348 177.962 274.494 177.453 273.51 177.043L273.279 177.597ZM276.175 178.8V177.2H275.575V178.8H276.175ZM275.875 177.5H279.155V176.9H275.875V177.5ZM278.855 177.2V197.52H279.455V177.2H278.855ZM278.855 197.52C278.855 199.781 278.46 201.593 277.692 202.974L278.217 203.266C279.05 201.767 279.455 199.845 279.455 197.52H278.855ZM277.692 202.974C276.922 204.361 275.849 205.369 274.469 206.008L274.721 206.552C276.221 205.858 277.387 204.759 278.217 203.266L277.692 202.974ZM274.467 206.009C273.101 206.653 271.48 206.98 269.595 206.98V207.58C271.549 207.58 273.261 207.241 274.723 206.551L274.467 206.009ZM270.595 195.1C271.708 195.1 272.72 194.849 273.622 194.341L273.328 193.819C272.523 194.271 271.615 194.5 270.595 194.5V195.1ZM273.622 194.341C274.501 193.847 275.225 193.265 275.785 192.592L275.324 192.208C274.818 192.815 274.155 193.353 273.328 193.819L273.622 194.341ZM275.855 192.4V181.52H275.255V192.4H275.855ZM275.731 181.277C275.122 180.834 274.394 180.437 273.551 180.083L273.319 180.637C274.129 180.976 274.814 181.352 275.378 181.763L275.731 181.277ZM273.551 180.083C272.68 179.718 271.679 179.54 270.555 179.54V180.14C271.617 180.14 272.536 180.308 273.319 180.637L273.551 180.083ZM270.555 179.54C269.404 179.54 268.324 179.849 267.318 180.464L267.631 180.976C268.545 180.417 269.518 180.14 270.555 180.14V179.54ZM267.318 180.464C266.308 181.082 265.487 181.976 264.852 183.136L265.378 183.424C265.969 182.344 266.722 181.532 267.631 180.976L267.318 180.464ZM264.85 183.138C264.234 184.286 263.935 185.684 263.935 187.32H264.535C264.535 185.756 264.822 184.461 265.379 183.422L264.85 183.138ZM263.935 187.32C263.935 188.879 264.236 190.248 264.849 191.419L265.38 191.141C264.82 190.072 264.535 188.801 264.535 187.32H263.935ZM264.852 191.424C265.486 192.583 266.306 193.489 267.313 194.133L267.636 193.627C266.724 193.044 265.97 192.217 265.378 191.136L264.852 191.424ZM267.313 194.133C268.321 194.776 269.416 195.1 270.595 195.1V194.5C269.533 194.5 268.549 194.21 267.636 193.627L267.313 194.133ZM285.753 198H285.453V198.3H285.753V198ZM285.753 168.4V168.1H285.453V168.4H285.753ZM289.353 168.4H289.653V168.1H289.353V168.4ZM289.353 180.52H289.053V181.491L289.601 180.689L289.353 180.52ZM292.193 177.8L292.353 178.054L292.193 177.8ZM301.473 178.84L301.24 179.029L301.242 179.032L301.473 178.84ZM303.233 198V198.3H303.533V198H303.233ZM299.633 198H299.333V198.3H299.633V198ZM298.593 181.24L298.831 181.058L298.593 181.24ZM292.153 181.2L292.338 181.436L292.338 181.436L292.153 181.2ZM289.353 184.24L289.103 184.075L289.053 184.15V184.24H289.353ZM289.353 198V198.3H289.653V198H289.353ZM286.053 198V168.4H285.453V198H286.053ZM285.753 168.7H289.353V168.1H285.753V168.7ZM289.053 168.4V180.52H289.653V168.4H289.053ZM289.601 180.689C290.324 179.631 291.24 178.753 292.353 178.054L292.034 177.546C290.853 178.287 289.876 179.223 289.105 180.351L289.601 180.689ZM292.353 178.054C293.445 177.368 294.735 177.02 296.233 177.02V176.42C294.638 176.42 293.235 176.792 292.034 177.546L292.353 178.054ZM296.233 177.02C298.518 177.02 300.166 177.705 301.24 179.029L301.706 178.651C300.487 177.148 298.642 176.42 296.233 176.42V177.02ZM301.242 179.032C302.36 180.378 302.933 182.171 302.933 184.44H303.533C303.533 182.069 302.933 180.128 301.704 178.648L301.242 179.032ZM302.933 184.44V198H303.533V184.44H302.933ZM303.233 197.7H299.633V198.3H303.233V197.7ZM299.933 198V184.84H299.333V198H299.933ZM299.933 184.84C299.933 183.301 299.576 182.031 298.831 181.058L298.355 181.422C298.997 182.262 299.333 183.392 299.333 184.84H299.933ZM298.831 181.058C298.075 180.069 297.009 179.58 295.673 179.58V180.18C296.844 180.18 297.724 180.598 298.355 181.422L298.831 181.058ZM295.673 179.58C294.369 179.58 293.132 180.05 291.968 180.964L292.338 181.436C293.415 180.59 294.524 180.18 295.673 180.18V179.58ZM291.969 180.964C290.849 181.837 289.894 182.875 289.103 184.075L289.604 184.405C290.359 183.259 291.27 182.269 292.338 181.436L291.969 180.964ZM289.053 184.24V198H289.653V184.24H289.053ZM289.353 197.7H285.753V198.3H289.353V197.7ZM312.345 196.52L312.117 196.716L312.122 196.72L312.345 196.52ZM310.625 181.08H310.925V180.78H310.625V181.08ZM307.025 181.08H306.725V181.38H307.025V181.08ZM307.025 177.96V177.66H306.725V177.96H307.025ZM310.705 177.96V178.26H310.972L311.003 177.995L310.705 177.96ZM311.465 171.4V171.1H311.198L311.167 171.365L311.465 171.4ZM314.225 171.4H314.525V171.1H314.225V171.4ZM314.225 177.96H313.925V178.26H314.225V177.96ZM319.985 177.96H320.285V177.66H319.985V177.96ZM319.985 181.08V181.38H320.285V181.08H319.985ZM314.225 181.08V180.78H313.925V181.08H314.225ZM315.185 194.36L314.977 194.577L314.982 194.581L315.185 194.36ZM319.425 194.96L319.326 194.677L319.322 194.678L319.425 194.96ZM321.105 194.2L321.388 194.102L321.269 193.758L320.955 193.94L321.105 194.2ZM322.105 197.08L322.259 197.337L322.468 197.212L322.388 196.982L322.105 197.08ZM319.945 198L319.853 197.714L319.845 197.717L319.945 198ZM317.105 198.18C315.177 198.18 313.676 197.554 312.568 196.32L312.122 196.72C313.36 198.1 315.033 198.78 317.105 198.78V198.18ZM312.572 196.324C311.488 195.064 310.925 193.25 310.925 190.84H310.325C310.325 193.337 310.908 195.31 312.118 196.716L312.572 196.324ZM310.925 190.84V181.08H310.325V190.84H310.925ZM310.625 180.78H307.025V181.38H310.625V180.78ZM307.325 181.08V177.96H306.725V181.08H307.325ZM307.025 178.26H310.705V177.66H307.025V178.26ZM311.003 177.995L311.763 171.435L311.167 171.365L310.407 177.925L311.003 177.995ZM311.465 171.7H314.225V171.1H311.465V171.7ZM313.925 171.4V177.96H314.525V171.4H313.925ZM314.225 178.26H319.985V177.66H314.225V178.26ZM319.685 177.96V181.08H320.285V177.96H319.685ZM319.985 180.78H314.225V181.38H319.985V180.78ZM313.925 181.08V191.12H314.525V181.08H313.925ZM313.925 191.12C313.925 192.692 314.247 193.877 314.977 194.577L315.393 194.143C314.843 193.617 314.525 192.642 314.525 191.12H313.925ZM314.982 194.581C315.704 195.245 316.563 195.58 317.545 195.58V194.98C316.714 194.98 315.999 194.702 315.388 194.139L314.982 194.581ZM317.545 195.58C318.244 195.58 318.906 195.468 319.528 195.242L319.322 194.678C318.771 194.879 318.179 194.98 317.545 194.98V195.58ZM319.524 195.243C320.153 195.024 320.731 194.763 321.255 194.46L320.955 193.94C320.466 194.223 319.924 194.469 319.326 194.677L319.524 195.243ZM320.822 194.298L321.822 197.178L322.388 196.982L321.388 194.102L320.822 194.298ZM321.951 196.823C321.444 197.127 320.748 197.425 319.853 197.715L320.037 198.285C320.956 197.988 321.699 197.673 322.259 197.337L321.951 196.823ZM319.845 197.717C318.971 198.025 318.059 198.18 317.105 198.18V198.78C318.125 198.78 319.105 198.615 320.045 198.283L319.845 197.717Z" fill="#FFECCC" mask="url(#path-38-outside-1_61_3552)"/>
</g>
</svg>
