<svg width="138" height="138" viewBox="0 0 138 138" fill="none" xmlns="http://www.w3.org/2000/svg">
<path d="M92.1144 10.0376C90.0905 11.3974 88.0875 12.7893 85.7562 13.4359C78.4248 15.469 70.9248 10.3754 64.3527 7.80279C44.8806 0.181325 22.2858 10.2274 11.3231 27.3105C2.90457 40.429 17.1139 53.4383 10.7228 67.0542C5.20944 78.7999 3.77121 96.2986 17.914 107.325C32.0568 118.352 41.4055 119.55 57.4659 112.119C73.5263 104.688 85.7515 113.557 101.093 116.194C116.434 118.831 129.138 109.003 131.535 96.778C134.036 84.0274 124.28 72.6981 124.424 60.041C124.499 53.488 128.047 47.4303 129.576 41.1397C131.24 34.2869 131.727 26.6878 127.944 20.416C121.355 9.48998 106.902 1.4846 94.7289 8.38294C93.8358 8.8894 92.973 9.46045 92.1144 10.0376Z" fill="#92E3A9"/>
<path opacity="0.7" d="M92.1144 10.0376C90.0905 11.3974 88.0875 12.7893 85.7562 13.4359C78.4248 15.469 70.9248 10.3754 64.3527 7.80279C44.8806 0.181325 22.2858 10.2274 11.3231 27.3105C2.90457 40.429 17.1139 53.4383 10.7228 67.0542C5.20944 78.7999 3.77121 96.2986 17.914 107.325C32.0568 118.352 41.4055 119.55 57.4659 112.119C73.5263 104.688 85.7515 113.557 101.093 116.194C116.434 118.831 129.138 109.003 131.535 96.778C134.036 84.0274 124.28 72.6981 124.424 60.041C124.499 53.488 128.047 47.4303 129.576 41.1397C131.24 34.2869 131.727 26.6878 127.944 20.416C121.355 9.48998 106.902 1.4846 94.7289 8.38294C93.8358 8.8894 92.973 9.46045 92.1144 10.0376Z" fill="white"/>
<path d="M70.794 133.308C95.1067 133.308 114.816 131.516 114.816 129.306C114.816 127.096 95.1067 125.304 70.794 125.304C46.4813 125.304 26.772 127.096 26.772 129.306C26.772 131.516 46.4813 133.308 70.794 133.308Z" fill="#92E3A9"/>
<path d="M110.343 43.2478C110.343 43.2478 110.979 44.5511 110.722 45.1185C110.465 45.6863 109.956 49.2547 112.482 51.0487C115.007 52.8427 117.448 51.389 118.641 50.6319C119.834 49.8749 120.18 49.8906 120.341 50.1873C120.501 50.4843 110.105 58.6812 109.577 58.8313C109.049 58.9812 107.832 58.9842 105.788 58.0809C103.743 57.1775 101.565 55.399 101.541 54.645C101.517 53.8909 101.062 52.4221 101.314 51.97C101.567 51.5179 109.295 42.0997 109.295 42.0997C109.295 42.0997 109.862 42.3572 110.343 43.2478Z" stroke="#263238" stroke-width="0.4" stroke-miterlimit="10" stroke-linecap="round" stroke-linejoin="round"/>
<path d="M101.541 54.6452L106.608 48.9875" stroke="#263238" stroke-width="0.5" stroke-miterlimit="10" stroke-linecap="round" stroke-linejoin="round"/>
<path d="M107.152 48.4907L109.106 46.262" stroke="#263238" stroke-width="0.5" stroke-miterlimit="10" stroke-linecap="round" stroke-linejoin="round"/>
<path d="M109.295 42.0999L112.376 36.7362C112.376 36.7362 113.306 36.6622 113.471 36.8435C113.637 37.0248 113.6 37.8341 113.6 37.8341L110.343 43.2478" stroke="#263238" stroke-width="0.4" stroke-miterlimit="10" stroke-linecap="round" stroke-linejoin="round"/>
<path d="M109.833 42.4124L112.846 37.6436L113.6 37.8341" stroke="#263238" stroke-width="0.4" stroke-miterlimit="10" stroke-linecap="round" stroke-linejoin="round"/>
<path d="M111.477 41.3967C111.477 41.3967 114.135 38.0651 114.476 37.7535C114.817 37.4419 115.409 38.0138 115.409 38.0138C115.409 38.0138 115.556 38.7832 115.328 38.9911C115.101 39.1989 111.231 43.6381 110.835 44.3469C110.835 44.3469 115.858 39.3419 116.091 38.9891C116.325 38.6364 116.694 38.5078 117.009 38.7763C117.324 39.0449 117.478 39.6695 117.209 39.9844C116.941 40.2993 112.714 44.577 111.953 45.3421C111.192 46.1069 110.559 47.241 110.559 47.241" stroke="#263238" stroke-width="0.4" stroke-miterlimit="10" stroke-linecap="round" stroke-linejoin="round"/>
<path d="M113.657 37.3894C113.657 37.3894 114.492 35.7922 114.754 35.6225C115.016 35.4528 115.631 35.5168 115.577 35.9139C115.522 36.3111 114.476 37.7535 114.476 37.7535" stroke="#263238" stroke-width="0.4" stroke-miterlimit="10" stroke-linecap="round" stroke-linejoin="round"/>
<path d="M114.957 42.3897L111.286 49.6356" stroke="#263238" stroke-width="0.4" stroke-miterlimit="10" stroke-linecap="round" stroke-linejoin="round"/>
<path d="M116.641 40.5038L112.146 50.7282" stroke="#263238" stroke-width="0.4" stroke-miterlimit="10" stroke-linecap="round" stroke-linejoin="round"/>
<path d="M110.835 48.38L113.005 46.1891" stroke="#263238" stroke-width="0.4" stroke-miterlimit="10" stroke-linecap="round" stroke-linejoin="round"/>
<path d="M117.412 39.5213C117.412 39.5213 118.689 37.7988 118.931 38.064C119.173 38.3292 120.179 38.5928 119.8 38.9389C119.421 39.285 117.2 41.8008 116.06 44.5105C114.92 47.2203 114.075 49.0353 114.075 49.0353" stroke="#263238" stroke-width="0.4" stroke-miterlimit="10" stroke-linecap="round" stroke-linejoin="round"/>
<path d="M112.551 49.802C112.551 49.802 115.555 48.4482 116.196 47.9321C116.837 47.416 122.163 43.7328 122.387 43.5975C122.611 43.4623 123.148 44.4313 123.173 44.6869C123.198 44.9425 122.724 45.7928 122.361 45.7765C121.998 45.7602 116.345 49.4647 115.783 49.839C115.221 50.2132 113.678 50.5795 113.306 50.7807C112.933 50.9819 112.481 51.049 112.481 51.049" stroke="#263238" stroke-width="0.4" stroke-miterlimit="10" stroke-linecap="round" stroke-linejoin="round"/>
<path d="M118.251 48.2793C118.251 48.2793 117.006 50.1122 116.535 50.8903C116.063 51.6683 115.943 51.9173 115.943 51.9173" stroke="#263238" stroke-width="0.4" stroke-miterlimit="10" stroke-linecap="round" stroke-linejoin="round"/>
<path d="M115.183 50.2477L114.24 51.8038" stroke="#263238" stroke-width="0.4" stroke-miterlimit="10" stroke-linecap="round" stroke-linejoin="round"/>
<path d="M120.587 44.8241C120.587 44.8241 121.861 43.1738 122.594 42.2261C123.327 41.2783 122.291 40.9043 121.793 40.6639C121.295 40.4235 121.094 41.6498 119.862 43.1926C118.629 44.7355 116.833 47.4883 116.833 47.4883" stroke="#263238" stroke-width="0.4" stroke-miterlimit="10" stroke-linecap="round" stroke-linejoin="round"/>
<path d="M115.376 45.9692L119.862 43.1926" stroke="#263238" stroke-width="0.4" stroke-miterlimit="10" stroke-linecap="round" stroke-linejoin="round"/>
<path d="M122.087 43.802C122.087 43.802 123.741 42.5689 124.12 42.2225C124.499 41.8764 123.766 41.2256 123.662 41.1119C123.558 40.9981 122.765 41.6525 122.765 41.6525" stroke="#263238" stroke-width="0.4" stroke-miterlimit="10" stroke-linecap="round" stroke-linejoin="round"/>
<path d="M116.5 45.2207C116.719 44.3949 119.332 39.6444 119.48 39.5784C119.629 39.5124 120.208 39.5387 120.52 39.8798C120.832 40.2209 120.191 40.7368 119.83 41.4836C119.469 42.2302 118.441 44.0731 118.441 44.0731" stroke="#263238" stroke-width="0.4" stroke-miterlimit="10" stroke-linecap="round" stroke-linejoin="round"/>
<path d="M120.158 47.0939L122.912 46.4555C122.912 46.4555 123.421 47.2415 123.15 47.6288C122.878 48.0163 117.395 49.5486 117.395 49.5486" stroke="#263238" stroke-width="0.4" stroke-miterlimit="10" stroke-linecap="round" stroke-linejoin="round"/>
<path d="M117.758 51.1635L119.896 48.8622" stroke="#263238" stroke-width="0.4" stroke-miterlimit="10" stroke-linecap="round" stroke-linejoin="round"/>
<path d="M115.328 38.9911L114.6 39.0308C114.6 39.0308 110.797 42.7828 110.499 43.7504" stroke="#263238" stroke-width="0.4" stroke-miterlimit="10" stroke-linecap="round" stroke-linejoin="round"/>
<path d="M116.388 38.8575C116.388 38.8575 116.41 39.1854 116.428 39.5858C116.446 39.9863 111.5 44.922 111.231 45.2369C110.963 45.5519 110.498 46.1847 110.498 46.1847" stroke="#263238" stroke-width="0.4" stroke-miterlimit="10" stroke-linecap="round" stroke-linejoin="round"/>
<path d="M119.094 38.4711C119.094 38.4711 116.074 41.7861 115.871 42.2492" stroke="#263238" stroke-width="0.4" stroke-miterlimit="10" stroke-linecap="round" stroke-linejoin="round"/>
<path d="M114.938 47.6208L117.965 45.7594" stroke="#263238" stroke-width="0.4" stroke-miterlimit="10" stroke-linecap="round" stroke-linejoin="round"/>
<path d="M122.997 44.5699C122.997 44.5699 121.832 45.4255 119.995 46.6868C118.157 47.9481 115.105 49.5541 114.553 49.7109C114.001 49.8677 112.417 50.341 112.417 50.341" stroke="#263238" stroke-width="0.4" stroke-miterlimit="10" stroke-linecap="round" stroke-linejoin="round"/>
<path d="M123.068 47.0072C123.068 47.0072 121.109 47.7544 119.746 48.165C118.383 48.5757 117.787 48.9122 117.787 48.9122" stroke="#263238" stroke-width="0.4" stroke-miterlimit="10" stroke-linecap="round" stroke-linejoin="round"/>
<path d="M121.793 40.6639C121.793 40.6639 122.388 41.1632 122.116 41.5504C121.844 41.9377 118.482 46.4 118.482 46.4" stroke="#263238" stroke-width="0.4" stroke-miterlimit="10" stroke-linecap="round" stroke-linejoin="round"/>
<path d="M119.988 39.6013C119.988 39.6013 117.299 44.4211 117.245 44.8183" stroke="#263238" stroke-width="0.4" stroke-miterlimit="10" stroke-linecap="round" stroke-linejoin="round"/>
<path d="M114.848 77.0512C114.035 76.271 113.091 75.746 112.107 75.7888C111.077 75.8335 110.211 76.6071 110.211 76.6071C110.211 76.6071 109.016 75.9229 107.757 76.3662C106.498 76.8092 105.94 77.6002 105.94 77.6002C105.94 77.6002 104.414 77.3087 103.457 77.8715C102.5 78.4345 102.243 79.345 102.243 79.345C102.243 79.345 100.285 79.4403 99.3048 80.4132C98.3247 81.3861 98.0852 81.9894 98.0852 81.9894C98.0852 81.9894 97.8166 83.105 98.5844 84.0735C99.3523 85.042 99.9846 84.7693 100.963 85.6467C101.942 86.5244 104.918 88.4395 108.668 91.221C112.417 94.0023 116.037 95.44 117.766 97.5936C119.496 99.7472 120.497 100.215 121.686 101.001C122.876 101.788 123.111 99.4367 122.457 98.2693C121.804 97.1015 123.063 94.8082 121.177 89.973C119.291 85.1377 117.596 82.3695 117.346 81.3253C117.041 80.0555 116.099 78.2515 114.848 77.0512Z" stroke="#263238" stroke-width="0.4" stroke-miterlimit="10" stroke-linecap="round" stroke-linejoin="round"/>
<path d="M98.0854 81.9891C98.0854 81.9891 98.4967 80.1617 100.904 81.2227C103.312 82.2836 102.809 83.9001 103.572 84.971C104.334 86.0419 108.062 87.383 109.205 88.9893C110.348 90.5956 112.85 92.2701 113.84 92.9427C114.83 93.6153 117.734 96.3577 118.73 96.9279C119.726 97.4981 120.795 98.5864 121.17 99.2242C121.546 99.862 121.704 100.694 122.029 100.404C122.354 100.113 122.458 98.2687 122.458 98.2687" stroke="#263238" stroke-width="0.4" stroke-miterlimit="10" stroke-linecap="round" stroke-linejoin="round"/>
<path d="M103.277 82.8985C103.277 82.8985 103.209 82.2778 105.288 81.8809C107.366 81.484 107.549 80.0552 108.603 79.6003C109.657 79.1458 111.797 79.472 112.412 79.5065C113.027 79.541 113.761 79.2741 114.075 79.1888C114.388 79.1035 115.62 78.1817 115.62 78.1817" stroke="#263238" stroke-width="0.4" stroke-miterlimit="10" stroke-linecap="round" stroke-linejoin="round"/>
<path d="M108.404 82.7059C107.744 82.9477 107.252 83.394 107.16 84.1013C106.985 85.4557 109.155 87.0109 110.374 86.4852C111.006 86.2125 113.291 83.9766 112.608 83.3208C111.832 82.5767 109.762 82.2091 108.404 82.7059Z" stroke="#263238" stroke-width="0.4" stroke-miterlimit="10" stroke-linecap="round" stroke-linejoin="round"/>
<path d="M116.138 86.3527C115.637 86.3162 115.127 86.3668 114.764 86.4291C114.234 86.5205 113.501 86.5989 113.429 87.2094C113.347 87.9085 114.524 88.5695 115.086 88.6013C115.804 88.6415 117.888 88.1423 117.82 87.5215C117.73 86.696 116.947 86.4112 116.138 86.3527Z" stroke="#263238" stroke-width="0.4" stroke-miterlimit="10" stroke-linecap="round" stroke-linejoin="round"/>
<path d="M115.82 82.898C115.178 82.9455 114.67 83.2322 115.056 83.665C115.83 84.5308 117.39 84.2076 117.413 83.7972C117.451 83.0984 116.55 82.8442 115.82 82.898Z" stroke="#263238" stroke-width="0.4" stroke-miterlimit="10" stroke-linecap="round" stroke-linejoin="round"/>
<path d="M116.856 91.6066C116.249 91.5056 115.664 91.7799 115.789 92.5472C115.942 93.4804 117.658 93.9882 117.895 93.4895C118.394 92.4346 117.609 91.7319 116.856 91.6066Z" stroke="#263238" stroke-width="0.4" stroke-miterlimit="10" stroke-linecap="round" stroke-linejoin="round"/>
<path d="M102.244 79.345C102.244 79.345 104.653 78.5554 105.477 80.3497" stroke="#263238" stroke-width="0.5" stroke-miterlimit="10" stroke-linecap="round" stroke-linejoin="round"/>
<path d="M107.038 78.1759C107.038 78.1759 108.251 78.5526 108.427 79.0765" stroke="#263238" stroke-width="0.4" stroke-miterlimit="10" stroke-linecap="round" stroke-linejoin="round"/>
<path d="M110.097 76.8061C110.097 76.8061 111.309 77.1828 111.485 77.7067" stroke="#263238" stroke-width="0.4" stroke-miterlimit="10" stroke-linecap="round" stroke-linejoin="round"/>
<path d="M102.143 84.7878C102.143 84.7878 100.477 81.5069 99.7194 82.184C98.9615 82.861 99.1376 83.3848 100.134 83.9551C101.129 84.5253 102.814 85.648 103.315 85.8821C103.816 86.1156 102.143 84.7878 102.143 84.7878Z" stroke="#263238" stroke-width="0.5" stroke-miterlimit="10" stroke-linecap="round" stroke-linejoin="round"/>
<path d="M117.191 17.7926C117.191 23.9413 112.62 23.1291 106.982 23.1291C101.344 23.1291 96.7731 24.2891 96.7731 17.7926C96.7731 14.0125 101.344 10.9478 106.982 10.9478C112.62 10.9481 117.191 14.0125 117.191 17.7926Z" stroke="#263238" stroke-width="0.6" stroke-miterlimit="10" stroke-linecap="round" stroke-linejoin="round"/>
<path d="M117.147 29.2974C117.176 29.529 117.191 29.7771 117.191 30.0429C117.191 32.7684 112.62 33.9342 106.982 33.9342C101.344 33.9342 96.7731 32.7687 96.7731 30.0429C96.7731 29.5704 96.7441 29.4028 96.8437 29.0374" stroke="#263238" stroke-width="0.6" stroke-miterlimit="10" stroke-linecap="round" stroke-linejoin="round"/>
<path d="M117.17 19.2262C117.17 19.2262 117.579 20.0442 118.151 20.9437C118.723 21.8435 117.66 21.9252 117.006 22.9066C116.351 23.8881 116.842 24.5425 115.125 24.3788C113.407 24.2151 113.489 23.3157 112.507 23.8881C111.526 24.4605 110.626 25.2786 109.563 24.6242C108.5 23.9698 107.927 23.8881 107.191 24.3788C106.455 24.8695 105.555 25.6056 104.328 24.7878C103.102 23.9701 102.692 24.2154 101.629 25.1149C100.566 26.0147 99.3391 25.5239 99.012 24.3788C98.685 23.2337 98.3576 23.7244 97.3762 22.9066C96.3947 22.0888 97.2945 21.1071 97.2945 21.1071" stroke="#263238" stroke-width="0.6" stroke-miterlimit="10" stroke-linecap="round" stroke-linejoin="round"/>
<path d="M106.441 14.2245C106.441 14.2245 106.096 14.62 105.671 14.62C105.245 14.62 104.901 14.2245 104.901 14.2245C104.901 14.2245 105.245 13.829 105.671 13.829C106.096 13.829 106.441 14.2245 106.441 14.2245Z" stroke="#263238" stroke-width="0.4" stroke-miterlimit="10" stroke-linecap="round" stroke-linejoin="round"/>
<path d="M109.771 13.267C109.771 13.267 109.426 13.6626 109.001 13.6626C108.575 13.6626 108.231 13.267 108.231 13.267C108.231 13.267 108.575 12.8715 109.001 12.8715C109.426 12.8715 109.771 13.267 109.771 13.267Z" stroke="#263238" stroke-width="0.4" stroke-miterlimit="10" stroke-linecap="round" stroke-linejoin="round"/>
<path d="M112.018 12.8092C112.018 12.8092 111.674 13.2047 111.248 13.2047C110.823 13.2047 110.478 12.8092 110.478 12.8092C110.478 12.8092 110.823 12.4137 111.248 12.4137C111.674 12.4137 112.018 12.8092 112.018 12.8092Z" stroke="#263238" stroke-width="0.4" stroke-miterlimit="10" stroke-linecap="round" stroke-linejoin="round"/>
<path d="M103.423 13.267C103.423 13.267 103.078 13.6626 102.653 13.6626C102.228 13.6626 101.883 13.267 101.883 13.267C101.883 13.267 102.228 12.8715 102.653 12.8715C103.078 12.8715 103.423 13.267 103.423 13.267Z" stroke="#263238" stroke-width="0.4" stroke-miterlimit="10" stroke-linecap="round" stroke-linejoin="round"/>
<path d="M101.821 14.9321C101.821 14.9321 101.476 15.3277 101.051 15.3277C100.625 15.3277 100.281 14.9321 100.281 14.9321C100.281 14.9321 100.625 14.5366 101.051 14.5366C101.476 14.5366 101.821 14.9321 101.821 14.9321Z" stroke="#263238" stroke-width="0.4" stroke-miterlimit="10" stroke-linecap="round" stroke-linejoin="round"/>
<path d="M105.046 15.7022C105.046 15.7022 104.702 16.0977 104.276 16.0977C103.851 16.0977 103.506 15.7022 103.506 15.7022C103.506 15.7022 103.851 15.3067 104.276 15.3067C104.702 15.3067 105.046 15.7022 105.046 15.7022Z" stroke="#263238" stroke-width="0.4" stroke-miterlimit="10" stroke-linecap="round" stroke-linejoin="round"/>
<path d="M99.8433 16.1184C99.8433 16.1184 99.4986 16.5139 99.0733 16.5139C98.6479 16.5139 98.3032 16.1184 98.3032 16.1184C98.3032 16.1184 98.6479 15.7229 99.0733 15.7229C99.4986 15.7229 99.8433 16.1184 99.8433 16.1184Z" stroke="#263238" stroke-width="0.4" stroke-miterlimit="10" stroke-linecap="round" stroke-linejoin="round"/>
<path d="M106.628 12.4553C106.628 12.4553 106.283 12.8508 105.858 12.8508C105.433 12.8508 105.088 12.4553 105.088 12.4553C105.088 12.4553 105.433 12.0598 105.858 12.0598C106.283 12.0598 106.628 12.4553 106.628 12.4553Z" stroke="#263238" stroke-width="0.4" stroke-miterlimit="10" stroke-linecap="round" stroke-linejoin="round"/>
<path d="M111.956 14.3285C111.956 14.3285 111.611 14.724 111.186 14.724C110.761 14.724 110.416 14.3285 110.416 14.3285C110.416 14.3285 110.761 13.933 111.186 13.933C111.611 13.933 111.956 14.3285 111.956 14.3285Z" stroke="#263238" stroke-width="0.4" stroke-miterlimit="10" stroke-linecap="round" stroke-linejoin="round"/>
<path d="M113.663 15.3691C113.663 15.3691 113.318 15.7646 112.893 15.7646C112.468 15.7646 112.123 15.3691 112.123 15.3691C112.123 15.3691 112.468 14.9736 112.893 14.9736C113.318 14.9736 113.663 15.3691 113.663 15.3691Z" stroke="#263238" stroke-width="0.4" stroke-miterlimit="10" stroke-linecap="round" stroke-linejoin="round"/>
<path d="M109.042 15.3898C109.042 15.3898 108.698 15.7853 108.272 15.7853C107.847 15.7853 107.502 15.3898 107.502 15.3898C107.502 15.3898 107.847 14.9942 108.272 14.9942C108.698 14.9945 109.042 15.3898 109.042 15.3898Z" stroke="#263238" stroke-width="0.4" stroke-miterlimit="10" stroke-linecap="round" stroke-linejoin="round"/>
<path d="M101.629 25.1152C101.629 25.1152 102.107 27.3574 104.782 27.6836C107.457 28.0099 109.521 25.9826 109.195 24.4166" stroke="#263238" stroke-width="0.4" stroke-miterlimit="10" stroke-linecap="round" stroke-linejoin="round"/>
<path d="M102.172 24.8778C102.172 24.8778 103.151 25.9216 103.543 25.9871C103.934 26.0522 104.507 24.9082 104.507 24.9082" stroke="#263238" stroke-miterlimit="10" stroke-linecap="round" stroke-linejoin="round"/>
<path d="M104.913 25.0821C104.913 25.0821 104.717 26.1827 104.978 26.4436C105.239 26.7047 106.283 26.9655 106.805 26.5741C107.327 26.1827 106.348 24.9429 106.348 24.9429" stroke="#263238" stroke-miterlimit="10" stroke-linecap="round" stroke-linejoin="round"/>
<path d="M106.892 24.6162C106.892 24.6162 107.327 25.6608 107.783 25.6608C108.24 25.6608 108.851 24.556 108.525 24.0992" stroke="#263238" stroke-width="0.4" stroke-miterlimit="10" stroke-linecap="round" stroke-linejoin="round"/>
<path d="M112.507 23.8884C112.507 23.8884 113.264 25.4651 115.482 25.7262C117.701 25.9873 116.787 23.4426 116.787 23.4426" stroke="#263238" stroke-width="0.4" stroke-miterlimit="10" stroke-linecap="round" stroke-linejoin="round"/>
<path d="M113.786 24.0948C113.786 24.0948 114.634 24.8124 115.482 24.943C116.33 25.0735 116.2 24.2254 116.2 24.2254" stroke="#263238" stroke-width="0.4" stroke-miterlimit="10" stroke-linecap="round" stroke-linejoin="round"/>
<path d="M97.3759 22.9066C97.3759 22.9066 96.1698 23.3772 96.8874 24.5516C97.605 25.726 98.6491 25.6608 99.3015 25.6608C99.954 25.6608 100.998 26.1176 101.389 26.1176C101.781 26.1176 102.226 26.2567 102.226 26.2567" stroke="#263238" stroke-miterlimit="10" stroke-linecap="round" stroke-linejoin="round"/>
<path d="M116.032 25.7177C116.032 25.7177 115.222 26.2479 114.373 26.313C113.525 26.3781 111.894 26.4436 110.589 26.4436C109.284 26.4436 108.253 26.7375 108.253 26.7375" stroke="#263238" stroke-width="0.4" stroke-miterlimit="10" stroke-linecap="round" stroke-linejoin="round"/>
<path d="M116.794 25.3371C116.794 25.3371 118.353 25.0084 118.484 23.8991C118.614 22.7899 117.309 22.3985 117.309 22.3985" stroke="#263238" stroke-width="0.4" stroke-miterlimit="10" stroke-linecap="round" stroke-linejoin="round"/>
<path d="M97.2042 25.0042C97.1098 25.182 97.0066 25.3702 96.8965 25.562C96.3657 26.4872 97.4319 26.52 98.1305 27.4703C98.8293 28.4205 98.3689 29.0967 100.077 28.8544C101.786 28.6121 101.663 27.717 102.669 28.2439C103.676 28.7708 104.612 29.5464 105.645 28.8439C106.677 28.1415 107.245 28.0333 108.003 28.4898C108.761 28.9461 109.693 29.6402 110.881 28.7667C112.069 27.8931 112.489 28.1194 113.592 28.9695C114.696 29.8193 115.899 29.2728 116.173 28.1139C116.447 26.955 116.796 27.4303 117.739 26.568C118.682 25.7058 117.738 24.7669 117.738 24.7669" stroke="#263238" stroke-width="0.4" stroke-miterlimit="10" stroke-linecap="round" stroke-linejoin="round"/>
<path d="M113.593 28.9695C113.593 28.9695 113.218 31.231 110.561 31.6801C107.904 32.1289 105.749 30.1988 106.003 28.6195" stroke="#263238" stroke-width="0.4" stroke-miterlimit="10" stroke-linecap="round" stroke-linejoin="round"/>
<path d="M113.039 28.7575C113.039 28.7575 112.109 29.8453 111.721 29.9286C111.333 30.0117 110.708 28.8953 110.708 28.8953" stroke="#263238" stroke-width="0.4" stroke-miterlimit="10" stroke-linecap="round" stroke-linejoin="round"/>
<path d="M110.311 29.0876C110.311 29.0876 110.557 30.1781 110.308 30.4508C110.06 30.7235 109.029 31.0321 108.49 30.665C107.95 30.2979 108.871 29.0145 108.871 29.0145" stroke="#263238" stroke-width="0.4" stroke-miterlimit="10" stroke-linecap="round" stroke-linejoin="round"/>
<path d="M108.312 28.7134C108.312 28.7134 107.926 29.7768 107.47 29.7978C107.014 29.8188 106.352 28.7432 106.657 28.2718" stroke="#263238" stroke-miterlimit="10" stroke-linecap="round" stroke-linejoin="round"/>
<path d="M102.669 28.2442C102.669 28.2442 101.986 29.8541 99.7818 30.2168C97.5779 30.5794 98.3733 27.9955 98.3733 27.9955" stroke="#263238" stroke-miterlimit="10" stroke-linecap="round" stroke-linejoin="round"/>
<path d="M101.402 28.5094C101.402 28.5094 100.587 29.2654 99.7458 29.4346C98.9046 29.604 98.996 28.7506 98.996 28.7506" stroke="#263238" stroke-miterlimit="10" stroke-linecap="round" stroke-linejoin="round"/>
<path d="M117.739 26.568C117.739 26.568 118.966 26.9826 118.303 28.1887C117.64 29.3948 116.594 29.3777 115.942 29.4075C115.291 29.4376 114.269 29.9419 113.878 29.9598C113.487 29.9777 113.048 30.1373 113.048 30.1373" stroke="#263238" stroke-width="0.6" stroke-miterlimit="10" stroke-linecap="round" stroke-linejoin="round"/>
<path d="M99.2323 30.2339C99.2323 30.2339 100.067 30.7263 100.917 30.7525C101.767 30.7787 103.4 30.7688 104.703 30.7089C106.007 30.649 107.051 30.8952 107.051 30.8952" stroke="#263238" stroke-miterlimit="10" stroke-linecap="round" stroke-linejoin="round"/>
<path d="M98.4542 29.8886C98.4542 29.8886 96.8812 29.6319 96.6999 28.5298C96.5186 27.4278 97.8042 26.9768 97.8042 26.9768" stroke="#263238" stroke-miterlimit="10" stroke-linecap="round" stroke-linejoin="round"/>
<path d="M97.0179 20.1803C97.0179 20.1803 97.279 20.376 98.3229 20.8328C99.3667 21.2895 99.4321 21.0939 100.541 21.0939C101.65 21.0939 101.65 21.6812 103.086 21.6812C104.521 21.6812 104.912 20.833 105.956 21.0939C107 21.3549 106.804 21.7463 108.566 21.5506C110.328 21.3549 110.98 21.0287 111.698 21.0939C112.415 21.159 112.481 21.8115 113.851 21.0939C115.221 20.3763 116.395 19.8541 116.983 19.9195" stroke="#263238" stroke-width="0.4" stroke-miterlimit="10" stroke-linecap="round" stroke-linejoin="round"/>
<path d="M104.138 72.6965C104.138 72.6965 104.422 71.4749 104.724 70.9436C105.027 70.4123 105.923 69.7342 107.719 69.1802C109.512 68.6271 127.469 64.3698 127.528 64.3557C129.101 63.9829 128.17 65.9099 127.805 66.5579C125.86 70.0102 120.997 71.3548 117.413 72.2513C114.114 73.0762 110.716 73.5272 107.322 73.7099C103.742 73.9023 104.863 73.2551 104.863 73.2551" stroke="#263238" stroke-width="0.4" stroke-miterlimit="10" stroke-linecap="round" stroke-linejoin="round"/>
<path d="M104.724 70.9436C104.724 70.9436 102.754 71.9317 101.532 71.6482C100.311 71.3645 98.7291 69.5412 99.7652 67.8505C100.802 66.16 106.224 65.0761 107.201 64.6384C108.179 64.2004 119.584 61.4224 120.754 61.1263C123.085 60.5359 125.748 60.2839 126.886 60.7136C128.493 61.3208 128.665 63.5959 127.528 64.3557" stroke="#263238" stroke-width="0.4" stroke-miterlimit="10" stroke-linecap="round" stroke-linejoin="round"/>
<path d="M99.7652 67.8505C99.7652 67.8505 99.1922 65.3642 101.19 63.3483C103.189 61.3324 105.583 61.6107 108.151 61.2781C110.719 60.9455 119.879 58.2255 121.627 57.9928C125.149 57.5239 125.676 59.5147 125.327 60.3836" stroke="#263238" stroke-width="0.4" stroke-miterlimit="10" stroke-linecap="round" stroke-linejoin="round"/>
<path d="M102.872 66.1028C102.872 66.1028 103.412 64.6875 105.929 63.8896C108.447 63.0917 110.262 63.2283 114.432 62.0856C118.601 60.943 120.793 59.1832 122.705 59.4479C124.617 59.7123 124.539 60.2748 124.539 60.2748" stroke="#263238" stroke-width="0.4" stroke-miterlimit="10" stroke-linecap="round" stroke-linejoin="round"/>
<path d="M101.532 71.6482C101.532 71.6482 102.183 73.5722 106.631 73.729" stroke="#263238" stroke-miterlimit="10" stroke-linecap="round" stroke-linejoin="round"/>
<path d="M104.498 69.1402C103.685 69.1402 102.861 69.0466 102.367 68.9785C102.053 68.9351 101.834 68.6453 101.877 68.3312C101.92 68.0171 102.211 67.7966 102.524 67.8411C103.934 68.0354 105.398 68.0337 105.822 67.8482C105.792 67.6633 105.731 67.4472 105.672 67.2372C105.497 66.6209 105.3 65.922 105.737 65.4208C106.137 64.9616 106.801 64.9938 107.265 65.0582C108.054 65.1672 108.7 65.4343 109.218 65.6488C110.098 66.0128 110.424 66.1199 110.865 65.7482C111.213 65.4553 111.314 65.1197 111.432 64.7314C111.623 64.0999 111.885 63.2352 113.381 63.1634C114.528 63.1088 115.329 63.4074 116.035 63.6713C116.559 63.8669 117.054 64.0516 117.673 64.0927C117.695 64.0941 117.714 64.0946 117.73 64.0946C117.73 63.9624 117.693 63.7416 117.669 63.5973C117.59 63.1121 117.49 62.5082 117.84 62.058C118.04 61.7997 118.339 61.6509 118.729 61.6159C119.762 61.5248 120.568 61.8168 121.348 62.1C121.821 62.2722 122.269 62.4345 122.748 62.501C122.977 62.5328 122.986 62.5341 123.128 62.0495C123.258 61.6043 123.476 60.8588 124.35 60.7879C125.471 60.6965 125.995 60.8798 126.088 60.9173C126.382 61.0357 126.525 61.37 126.406 61.6642C126.288 61.9584 125.954 62.1011 125.66 61.9824C125.658 61.9824 125.284 61.864 124.443 61.9322C124.411 61.9347 124.4 61.9402 124.4 61.9402C124.344 61.9797 124.27 62.2344 124.23 62.3713C124.094 62.8372 123.809 63.8065 122.591 63.6381C121.991 63.5551 121.464 63.3638 120.956 63.1791C120.263 62.9274 119.609 62.6898 118.831 62.7596C118.79 62.7632 118.763 62.769 118.747 62.7737C118.718 62.8982 118.772 63.2283 118.802 63.4115C118.885 63.9161 118.979 64.4882 118.603 64.9022C118.374 65.1545 118.036 65.2674 117.597 65.2384C116.81 65.1862 116.212 64.9629 115.633 64.7468C114.972 64.4998 114.347 64.2677 113.435 64.3102C112.748 64.343 112.702 64.4957 112.53 65.0639C112.396 65.5069 112.212 66.1136 111.605 66.6258C110.607 67.4665 109.677 67.0815 108.778 66.7097C108.273 66.5005 107.75 66.2844 107.107 66.1956C106.826 66.1566 106.682 66.1715 106.618 66.1851C106.612 66.3449 106.713 66.702 106.776 66.9247C106.864 67.2372 106.956 67.5604 106.982 67.8797C107.005 68.167 106.9 68.4369 106.685 68.6398C106.276 69.0262 105.394 69.1402 104.498 69.1402Z" stroke="#263238" stroke-width="0.4" stroke-miterlimit="10" stroke-linecap="round" stroke-linejoin="round"/>
<path d="M100.959 68.6972C100.959 68.6972 100.233 69.0069 100.284 69.6295C100.284 69.6295 99.8585 69.8708 99.7075 69.3447" stroke="#263238" stroke-width="0.5" stroke-miterlimit="10" stroke-linecap="round" stroke-linejoin="round"/>
<path d="M100.313 69.9069C100.313 69.9069 100.258 70.3096 100.871 70.3259" stroke="#263238" stroke-width="0.5" stroke-miterlimit="10" stroke-linecap="round" stroke-linejoin="round"/>
<path d="M17.526 61.8969C21.1082 61.8969 24.012 58.993 24.012 55.4109C24.012 51.8287 21.1082 48.9249 17.526 48.9249C13.9439 48.9249 11.04 51.8287 11.04 55.4109C11.04 58.993 13.9439 61.8969 17.526 61.8969Z" stroke="#263238" stroke-width="0.4" stroke-miterlimit="10" stroke-linecap="round" stroke-linejoin="round"/>
<path d="M11.7341 57.4985C12.5892 59.8702 14.8596 61.5659 17.526 61.5659C19.6556 61.5659 21.5327 60.4843 22.6378 58.8407" stroke="#263238" stroke-width="0.4" stroke-miterlimit="10" stroke-linecap="round" stroke-linejoin="round"/>
<path d="M11.4629 56.4768C11.4979 56.6772 11.5427 56.8739 11.5965 57.0671" stroke="#263238" stroke-miterlimit="10" stroke-linecap="round" stroke-linejoin="round"/>
<path d="M16.3315 49.3714C13.5039 49.9276 11.371 52.4201 11.371 55.4106C11.371 55.6692 11.387 55.9239 11.4179 56.174" stroke="#263238" stroke-width="0.4" stroke-miterlimit="10" stroke-linecap="round" stroke-linejoin="round"/>
<path d="M22.873 58.4615C23.3872 57.5623 23.6811 56.5209 23.6811 55.4109C23.6811 52.0114 20.9252 49.2558 17.526 49.2558C17.2688 49.2558 17.0154 49.2715 16.7665 49.3022" stroke="#263238" stroke-width="0.4" stroke-miterlimit="10" stroke-linecap="round" stroke-linejoin="round"/>
<path d="M17.9878 50.1569C18.4228 50.1291 18.8177 50.1624 19.2469 50.2817C19.8425 50.4473 20.2397 50.9435 20.2397 51.1089C20.2397 51.2742 20.1734 51.4398 20.0743 51.7045C19.975 51.9691 17.9235 54.9143 17.9235 54.9143C17.9235 54.9143 17.6257 54.9475 17.5925 54.7487L16.7982 50.5792C16.7982 50.5792 16.7982 50.3145 17.4601 50.2152" stroke="#263238" stroke-width="0.4" stroke-miterlimit="10" stroke-linecap="round" stroke-linejoin="round"/>
<path d="M15.8546 54.0458L13.595 52.5093C13.595 52.5093 13.4079 52.3221 13.8056 51.7839C14.2033 51.2457 14.5778 50.8712 15.116 50.5671C15.6542 50.2629 16.286 50.333 16.403 50.45C16.5201 50.5671 16.5902 50.7307 16.7072 50.9882C16.8242 51.2457 17.456 54.7788 17.456 54.7788C17.456 54.7788 17.2688 55.0129 17.1049 54.8958L16.1731 54.2622" stroke="#263238" stroke-width="0.4" stroke-miterlimit="10" stroke-linecap="round" stroke-linejoin="round"/>
<path d="M12.4589 53.5092C12.6626 53.0155 13.0758 52.6972 13.224 52.6972C13.3893 52.6972 13.5549 52.7635 13.8196 52.8628C14.0843 52.9622 17.0295 55.0137 17.0295 55.0137C17.0295 55.0137 17.0626 55.3115 16.8641 55.3446L12.6946 56.139C12.6946 56.139 12.4299 56.139 12.3306 55.4771C12.256 54.9806 12.2375 54.5589 12.3027 54.1275" stroke="#263238" stroke-width="0.4" stroke-miterlimit="10" stroke-linecap="round" stroke-linejoin="round"/>
<path d="M15.9291 57.4235L14.6247 59.3419C14.6247 59.3419 14.4376 59.5291 13.8994 59.1313C13.3612 58.7336 12.987 58.3591 12.6825 57.8209C12.3784 57.2827 12.4485 56.6509 12.5655 56.5339C12.6825 56.4169 12.8462 56.3468 13.1037 56.2298C13.3609 56.1127 16.8943 55.481 16.8943 55.481C16.8943 55.481 17.1283 55.6681 17.0113 55.832L16.1974 57.0291" stroke="#263238" stroke-width="0.4" stroke-miterlimit="10" stroke-linecap="round" stroke-linejoin="round"/>
<path d="M16.8307 60.6736C16.4849 60.6775 16.1565 60.6375 15.8054 60.5401C15.2098 60.3747 14.8126 59.8782 14.8126 59.7129C14.8126 59.5476 14.8789 59.382 14.9779 59.1173C15.0773 58.8526 17.1288 55.9074 17.1288 55.9074C17.1288 55.9074 17.4266 55.8743 17.4597 56.073L18.2541 60.2425C18.2541 60.2425 18.2541 60.5072 17.5922 60.6066C17.4658 60.6256 17.3444 60.6408 17.2262 60.6521" stroke="#263238" stroke-width="0.4" stroke-miterlimit="10" stroke-linecap="round" stroke-linejoin="round"/>
<path d="M17.9473 55.9256L21.4572 58.3125C21.4572 58.3125 21.6443 58.4996 21.2466 59.0378C20.8489 59.576 20.4743 59.9502 19.9361 60.2547C19.3979 60.5588 18.7662 60.4887 18.6491 60.3717C18.5321 60.2547 18.462 60.091 18.345 59.8335C18.228 59.576 17.5962 56.0429 17.5962 56.0429C17.5962 56.0429 17.7836 55.8086 17.9473 55.9256Z" stroke="#263238" stroke-width="0.4" stroke-miterlimit="10" stroke-linecap="round" stroke-linejoin="round"/>
<path d="M18.1879 55.4768L22.3574 54.6825C22.3574 54.6825 22.6221 54.6825 22.7215 55.3443C22.8208 56.0062 22.8208 56.5356 22.6552 57.1314C22.4899 57.7271 21.9934 58.1242 21.8281 58.1242C21.6627 58.1242 21.4971 58.058 21.2325 57.9586C20.9678 57.8593 18.0226 55.8077 18.0226 55.8077C18.0226 55.8077 17.9895 55.5099 18.1879 55.4768Z" stroke="#263238" stroke-width="0.4" stroke-miterlimit="10" stroke-linecap="round" stroke-linejoin="round"/>
<path d="M22.0748 52.5557C22.1811 52.6925 22.2788 52.8391 22.3699 53.0006C22.674 53.5388 22.6039 54.1705 22.4869 54.2876C22.3699 54.4046 22.2062 54.4747 21.9487 54.5917C21.6914 54.7087 18.1581 55.3405 18.1581 55.3405C18.1581 55.3405 17.924 55.1534 18.0411 54.9894L20.4279 51.4795C20.4279 51.4795 20.615 51.2924 21.1532 51.6901C21.3688 51.8494 21.5579 52.005 21.727 52.1687" stroke="#263238" stroke-width="0.4" stroke-miterlimit="10" stroke-linecap="round" stroke-linejoin="round"/>
<path d="M37.2371 30.0647C42.2292 30.0647 46.2761 26.0178 46.2761 21.0257C46.2761 16.0336 42.2292 11.9867 37.2371 11.9867C32.245 11.9867 28.1981 16.0336 28.1981 21.0257C28.1981 26.0178 32.245 30.0647 37.2371 30.0647Z" stroke="#263238" stroke-width="0.6" stroke-miterlimit="10" stroke-linecap="round" stroke-linejoin="round"/>
<path d="M29.1653 23.9353C30.3571 27.2406 33.5211 29.6035 37.2372 29.6035C40.205 29.6035 42.8209 28.0962 44.361 25.8054" stroke="#263238" stroke-width="0.4" stroke-miterlimit="10" stroke-linecap="round" stroke-linejoin="round"/>
<path d="M28.7874 22.5114C28.8362 22.7904 28.8983 23.065 28.9734 23.3341" stroke="#263238" stroke-width="0.4" stroke-miterlimit="10" stroke-linecap="round" stroke-linejoin="round"/>
<path d="M35.5723 12.6093C31.6315 13.3843 28.6593 16.8578 28.6593 21.0257C28.6593 21.3859 28.6814 21.7411 28.7247 22.0897" stroke="#263238" stroke-width="0.4" stroke-miterlimit="10" stroke-linecap="round" stroke-linejoin="round"/>
<path d="M44.6889 25.2772C45.4054 24.0241 45.815 22.5727 45.815 21.0257C45.815 16.2884 41.9744 12.4479 37.2372 12.4479C36.8786 12.4479 36.5256 12.47 36.1787 12.5125" stroke="#263238" stroke-width="0.4" stroke-miterlimit="10" stroke-linecap="round" stroke-linejoin="round"/>
<path d="M37.8804 13.7037C38.4865 13.6648 39.0369 13.7111 39.6352 13.8776C40.4654 14.108 41.0188 14.8 41.0188 15.0304C41.0188 15.2609 40.9266 15.4916 40.7884 15.8606C40.6501 16.2296 37.7907 20.334 37.7907 20.334C37.7907 20.334 37.3756 20.3801 37.3295 20.1036L36.2228 14.2927C36.2228 14.2927 36.2228 13.9237 37.1452 13.7854" stroke="#263238" stroke-width="0.4" stroke-miterlimit="10" stroke-linecap="round" stroke-linejoin="round"/>
<path d="M34.9076 19.1235L31.7585 16.982C31.7585 16.982 31.4976 16.7212 32.0518 15.971C32.6063 15.2211 33.128 14.6992 33.8781 14.2753C34.628 13.8513 35.5087 13.9493 35.6716 14.1122C35.8347 14.2753 35.9324 14.5035 36.0955 14.8621C36.2586 15.2209 37.1391 20.145 37.1391 20.145C37.1391 20.145 36.8783 20.4712 36.65 20.3081L35.3517 19.4252" stroke="#263238" stroke-width="0.4" stroke-miterlimit="10" stroke-linecap="round" stroke-linejoin="round"/>
<path d="M30.1756 18.3758C30.4596 17.6875 31.0354 17.2442 31.2418 17.2442C31.4725 17.2442 31.703 17.3364 32.072 17.4749C32.441 17.6132 36.5454 20.4726 36.5454 20.4726C36.5454 20.4726 36.5915 20.8877 36.315 20.9338L30.5041 22.0405C30.5041 22.0405 30.135 22.0405 29.9968 21.1181C29.893 20.4265 29.8671 19.8383 29.9579 19.2375" stroke="#263238" stroke-width="0.4" stroke-miterlimit="10" stroke-linecap="round" stroke-linejoin="round"/>
<path d="M35.0115 23.8307L33.1935 26.5043C33.1935 26.5043 32.9326 26.7651 32.1825 26.2109C31.4326 25.6564 30.9107 25.1348 30.4867 24.3846C30.0628 23.6347 30.1605 22.754 30.3236 22.5911C30.4867 22.428 30.715 22.3303 31.0735 22.1672C31.4323 22.0041 36.3564 21.1237 36.3564 21.1237C36.3564 21.1237 36.6826 21.3845 36.5195 21.6127L35.3852 23.2809" stroke="#263238" stroke-width="0.4" stroke-miterlimit="10" stroke-linecap="round" stroke-linejoin="round"/>
<path d="M36.268 28.3601C35.7859 28.3656 35.3285 28.3099 34.8389 28.1738C34.0087 27.9433 33.4553 27.2514 33.4553 27.021C33.4553 26.7905 33.5475 26.5598 33.6861 26.1907C33.8243 25.8217 36.6837 21.7173 36.6837 21.7173C36.6837 21.7173 37.0988 21.6712 37.1449 21.9481L38.2517 27.7587C38.2517 27.7587 38.2517 28.1277 37.3293 28.266C37.1532 28.2925 36.9837 28.3137 36.8192 28.3295" stroke="#263238" stroke-width="0.4" stroke-miterlimit="10" stroke-linecap="round" stroke-linejoin="round"/>
<path d="M37.8239 21.7433L42.7154 25.0694C42.7154 25.0694 42.9762 25.3302 42.422 26.0803C41.8676 26.8302 41.3459 27.3521 40.596 27.7761C39.8459 28.2 38.9654 28.1023 38.8026 27.9392C38.6395 27.7761 38.5418 27.5478 38.3786 27.1893C38.2155 26.8305 37.3351 21.9064 37.3351 21.9064C37.3351 21.9064 37.5956 21.5802 37.8239 21.7433Z" stroke="#263238" stroke-width="0.4" stroke-miterlimit="10" stroke-linecap="round" stroke-linejoin="round"/>
<path d="M38.1592 21.1179L43.9701 20.0111C43.9701 20.0111 44.3392 20.0111 44.4774 20.9335C44.6157 21.8559 44.6157 22.5936 44.3853 23.4238C44.1545 24.2541 43.4629 24.8074 43.2324 24.8074C43.0019 24.8074 42.7712 24.7153 42.4022 24.577C42.0332 24.4387 37.9288 21.5793 37.9288 21.5793C37.9288 21.5793 37.8827 21.1642 38.1592 21.1179Z" stroke="#263238" stroke-width="0.4" stroke-miterlimit="10" stroke-linecap="round" stroke-linejoin="round"/>
<path d="M43.5761 17.0469C43.7243 17.2379 43.8601 17.4421 43.9873 17.667C44.4112 18.4172 44.3135 19.2976 44.1504 19.4605C43.9873 19.6236 43.759 19.7213 43.4005 19.8844C43.0417 20.0475 38.1176 20.928 38.1176 20.928C38.1176 20.928 37.7914 20.6672 37.9545 20.4389L41.2806 15.5474C41.2806 15.5474 41.5414 15.2865 42.2915 15.8407C42.5918 16.0626 42.8557 16.2796 43.0911 16.5078" stroke="#263238" stroke-width="0.4" stroke-miterlimit="10" stroke-linecap="round" stroke-linejoin="round"/>
<path d="M28.0568 99.7941C28.0568 99.7941 27.7758 100.45 27.7148 100.609C27.6538 100.769 27.7283 101.133 27.7283 101.133L27.9491 101.034L27.9751 101.685L28.3024 101.627L28.5329 102.143L28.8061 101.667L28.9949 101.892C28.9949 101.892 29.3172 101.527 29.3048 101.4C29.2921 101.273 29.8577 101.55 29.8577 101.55C29.8577 101.55 30.2694 100.792 30.2443 100.538C30.2192 100.285 30.3741 100.039 30.3741 100.039L30.6412 100.537L31.1032 100.287L31.3113 100.061L31.5824 100.47L31.7935 99.7574L31.8498 99.2907L32.1209 99.6995L32.5594 99.989L32.7987 99.0429L32.6875 98.6951L32.5887 98.4743L32.8995 98.3794C32.8995 98.3794 32.8045 98.0686 32.7551 97.9582C32.7057 97.8478 32.6069 97.627 32.6069 97.627L32.5856 97.2834L32.7532 97.1644L33.0639 97.0695L32.9527 96.7217L33.3129 96.7372L33.6538 97.2031L34.259 96.9765L34.4845 97.1846L34.4525 97.508L34.5715 97.6756L34.4619 98.1219C34.4619 98.1219 34.3109 98.2778 34.3603 98.3882C34.4097 98.4986 34.3901 98.9488 34.3901 98.9488L34.3457 99.1453L34.9714 98.8654L35.196 98.6766L35.352 98.8276C35.352 98.8276 35.6385 98.8759 35.806 98.7569C35.9735 98.638 36.3939 98.0967 36.3939 98.0967L36.6321 98.4318L36.7579 98.0222L36.7648 97.4451L36.493 96.6395L36.7999 96.6348L37.3701 97.2188L37.9519 97.5326L37.9017 97.0253L38.4382 97.1387L38.8922 97.0681L38.4402 96.2547L38.8246 96.1269L38.4509 95.5876L38.1923 95.3058L37.7662 95.143L37.3149 94.7265C37.3149 94.7265 36.9953 94.6045 37.5098 93.9772C38.0239 93.3498 38.9267 92.5044 38.9267 92.5044C38.9267 92.5044 42.0585 91.0157 44.3565 90.0323C46.6545 89.0489 47.9947 88.0962 48.9828 86.948C49.9706 85.7996 50.545 84.6155 50.5839 83.7149C50.6228 82.8143 49.89 80.9784 49.7178 80.7904C49.5456 80.6025 49.4835 80.3654 47.334 80.0019C45.1845 79.6384 42.0061 80.5299 40.7917 81.0728C39.5773 81.6157 35.7878 83.7078 35.3995 83.9255C35.0111 84.1433 34.0302 84.7146 34.0302 84.7146L34.3471 83.6457C34.3471 83.6457 34.1506 83.6012 34.1254 83.3473C34.1003 83.0937 33.9792 83.8102 33.9792 83.8102L33.8138 83.0451L33.776 82.6645L33.4526 82.6325L33.3413 82.2847L33.0858 81.5158L32.7584 81.5737L32.6762 81.3896L32.1126 81.9066L32.0138 81.6858L31.5713 81.4862L31.454 82.1128L31.8567 82.8157L31.0939 82.097L30.5283 81.8199L30.1847 81.8412L30.3329 82.1724L29.9029 82.0998L29.9689 82.2469L29.5932 82.5916L29.5118 82.8047L29.2689 82.1627L28.869 82.6507L28.8111 82.3233C28.8111 82.3233 28.63 81.9185 28.5806 81.8081C28.5312 81.6977 28.1247 81.0847 28.1247 81.0847L28.0189 81.441L27.8669 81.1997L27.3877 81.0168L27.1951 80.8821L26.9384 81.3943L26.6809 81.5094C26.6809 81.5094 26.6323 81.7962 26.645 81.9229C26.6577 82.0498 26.6914 82.5204 26.6914 82.5204C26.6914 82.5204 26.8192 82.9049 26.8316 83.0318C26.8443 83.1588 27.0088 83.5267 27.0088 83.5267L26.5178 83.6139L26.2476 83.6023L25.9001 83.7136L26.1548 84.0853L25.7257 84.4096L26.2379 84.6663L26.4673 84.7844L26.2959 84.9936L26.7753 85.1766L27.2053 85.2492L26.9969 85.4747L26.5263 85.5084L25.9407 85.2845C25.9407 85.2845 25.1207 84.6357 25.0713 84.5253C25.0219 84.4149 24.7674 84.0431 24.7674 84.0431L24.469 84.2647L24.1494 84.1427L23.9819 84.2617L23.3507 83.8375L23.2334 84.464L22.7551 84.6779L22.8006 84.8783L22.2158 85.0516L21.2832 85.3362L20.9848 85.5578L21.5136 85.8512L21.7761 86.043L21.4982 86.2113L21.871 86.3538L22.0637 86.4885L21.966 86.6645L22.2779 86.9668C22.2779 86.9668 21.7502 87.0703 21.6069 87.046C21.4637 87.0217 21.1568 87.0267 21.1568 87.0267L20.8623 87.1583L21.0715 87.3297L20.5562 87.5602L20.2211 87.7983L19.5916 88.1682L19.3341 88.2833L19.5063 88.4712L18.8361 88.9476L18.6076 89.2264L18.9272 89.3484L19.2468 89.4704L19.7097 89.6166L20.1725 89.7629L20.3246 90.0041L20.6365 90.3064L21.141 90.7433L21.2233 90.9274L20.8145 91.1984L20.5026 90.8962L20.0274 90.6229L19.8143 90.5415L19.4704 90.5628L18.8323 90.7157C18.8323 90.7157 18.8284 90.8057 18.9639 91.0102C19.0995 91.2144 18.6984 91.3055 18.6984 91.3055L18.3915 91.3102L18.9772 91.534L19.2725 91.7992C19.2725 91.7992 18.7611 91.9397 18.5773 92.022C18.3932 92.1042 18.1685 92.293 18.1685 92.293L18.2673 92.5138L17.8218 92.8014L17.2174 93.4249L17.5903 93.5673C17.5903 93.5673 17.4393 93.7232 17.3085 93.8259C17.1777 93.9286 17.8983 93.9595 17.8983 93.9595C17.8983 93.9595 18.2508 94.1552 18.3979 94.0892C18.545 94.0235 19.31 93.8579 19.31 93.8579L19.0368 94.3332L19.5888 94.0865L19.6915 94.2173L20.1863 94.0401L20.3704 93.9578L20.3268 94.5515L20.5272 94.506L20.8584 94.3578L21.0792 94.259L21.1703 94.66L20.7499 95.2012L20.8079 95.5286C20.8079 95.5286 20.6771 95.6312 20.5628 95.7706C20.4485 95.91 20.4204 96.1435 20.4204 96.1435C20.4204 96.1435 20.7273 96.1388 20.9075 96.1465C21.0878 96.1543 21.5012 96.1901 21.6116 96.1407C21.722 96.0913 21.8089 96.5823 21.8089 96.5823L22.0463 96.5205L22.8199 96.5718L23.6537 96.0665L23.9521 95.8449L24.1729 95.7461L23.7854 96.361C23.7854 96.361 23.4832 96.6726 23.3728 96.722C23.2624 96.7714 23.1442 97.0007 23.1442 97.0007L23.4967 97.1964L22.4741 97.4771L22.6096 97.6814L22.2746 97.9196C22.2746 97.9196 22.8729 98.2701 23.0162 98.2944C23.1594 98.3186 23.6098 98.338 23.6098 98.338L23.418 98.6004L23.9253 98.5502L24.3263 98.4591L24.2905 98.8726L24.8096 98.5521L25.2551 98.2646L25.2945 99.4392L25.867 99.1392L25.5416 99.9912L25.2043 101.113L25.7235 100.793L26.2387 100.563L26.7869 100.406L27.0281 100.254L28.0568 99.7941Z" stroke="#263238" stroke-width="0.4" stroke-miterlimit="10" stroke-linecap="round" stroke-linejoin="round"/>
<path d="M32.6166 92.8094C32.6166 92.8094 33.8097 92.5345 35.485 92.0355C37.0577 91.5671 39.0554 90.9017 40.8902 90.0809C44.6805 88.386 46.8151 85.7535 47.3787 85.2363C47.9423 84.719 48.942 83.3007 48.942 83.3007L48.8628 82.6297C48.8628 82.6297 48.3552 82.6799 48.4532 82.5039C48.5509 82.3278 48.6489 82.1514 48.6489 82.1514" stroke="#263238" stroke-width="0.4" stroke-miterlimit="10" stroke-linecap="round" stroke-linejoin="round"/>
<path d="M47.3787 81.4832C47.3787 81.4832 44.4978 81.7559 42.1543 82.5389C39.8107 83.3219 36.7894 84.7613 35.4074 85.4234C34.0255 86.0855 31.5523 87.3681 31.2945 87.4834C31.037 87.5985 28.2692 89.013 28.2692 89.013C28.2692 89.013 28.1558 89.5496 27.8218 90.1847C27.4876 90.8197 27.3742 91.3563 27.2028 91.5655C27.0314 91.7747 26.8434 91.9469 26.8434 91.9469L26.7156 91.5624C26.7156 91.5624 26.4347 92.2179 26.3038 92.3206C26.173 92.4233 26.0055 92.5422 26.0055 92.5422L25.2327 92.8878L25.0196 92.8064L25.1493 92.3068C25.1493 92.3068 24.5896 92.7338 24.4792 92.7832C24.3688 92.8326 24.2178 92.9885 24.0705 93.0542C23.9233 93.1199 23.6084 93.3048 23.3509 93.4202C23.0934 93.5353 22.8395 93.5604 22.6595 93.5527C22.4793 93.545 22.1357 93.5662 21.972 93.5952C21.8084 93.6242 21.4645 93.6454 21.4645 93.6454C21.4645 93.6454 21.3174 93.7111 21.5169 93.2687C21.7165 92.8262 22.2502 91.7485 22.2502 91.7485C22.2502 91.7485 22.5853 91.5103 22.6957 91.4609C22.8061 91.4115 23.4762 90.9351 23.4762 90.9351L23.8279 90.7336C23.8279 90.7336 23.4881 90.6649 23.6024 90.5255C23.7166 90.3861 24.257 90.4093 24.4003 90.4336C24.5435 90.4579 24.289 90.0858 24.289 90.0858L24.6407 89.8844C24.5052 89.6801 24.1847 89.161 24.1847 89.161L24.2333 88.8742C24.2333 88.8742 24.1345 88.6534 24.0117 88.5758C23.8888 88.4983 23.8888 88.4983 23.8888 88.4983C23.8888 88.4983 24.5104 88.3087 24.7605 88.3735C25.0102 88.4384 25.297 88.487 25.5468 88.5518C25.7966 88.6167 26.0629 88.7185 26.2594 88.763C26.4559 88.8074 26.759 88.8927 26.8859 88.8803C27.0129 88.8676 27.2055 89.0023 27.4263 88.9037C27.6471 88.8049 28.081 88.7875 28.4365 88.4961C28.792 88.2046 30.0345 87.4282 30.2222 87.256C30.4102 87.0838 31.0599 86.6607 31.2807 86.5619C31.5015 86.4631 32.0979 86.0198 32.0979 86.0198C32.0979 86.0198 31.1452 86.3576 30.6213 86.3712C30.0975 86.3847 28.5132 86.2983 28.5132 86.2983C28.5132 86.2983 27.7192 86.3002 27.5061 86.2188C27.293 86.1374 26.5028 86.0491 26.5028 86.0491C26.5028 86.0491 25.9713 86.2425 25.8239 86.3085C25.6768 86.3745 25.5954 86.5873 25.4772 86.8169C25.3591 87.0465 25.4452 87.1404 25.2371 87.3659C25.029 87.5914 24.4362 87.9449 24.4362 87.9449C24.4362 87.9449 24.289 88.0106 24.105 88.0931C23.9209 88.1754 23.6344 88.1268 23.6344 88.1268L23.8011 87.6107L23.3015 87.481L23.4235 87.1613C23.4235 87.1613 23.4312 86.9811 23.169 86.7896C22.9066 86.5978 22.3363 86.0137 22.3363 86.0137L22.0043 85.7648" stroke="#263238" stroke-width="0.4" stroke-miterlimit="10" stroke-linecap="round" stroke-linejoin="round"/>
<path d="M27.292 85.7408C27.292 85.7408 27.4499 85.7557 27.6651 85.7769C28.0082 85.8109 28.4976 85.8608 28.7288 85.8931C29.1056 85.9456 29.6294 85.9321 29.8259 85.9765C30.0225 86.0209 30.3294 86.0162 30.493 85.9873C30.6567 85.9583 30.9636 85.9536 30.9636 85.9536L29.5179 85.5843L28.4702 85.6113L28.478 85.4311L27.7496 85.5801L27.292 85.7408Z" stroke="#263238" stroke-width="0.4" stroke-miterlimit="10" stroke-linecap="round" stroke-linejoin="round"/>
<path d="M30.8394 83.4036L31.1474 83.7958L30.636 83.9363L30.9313 84.2018L30.756 84.501L30.9042 84.8322L31.3304 84.995L31.7284 85.3911L32.4402 85.2053C32.4402 85.2053 31.5492 85.7803 31.3933 85.6293C31.2374 85.4783 29.8982 85.1499 29.8982 85.1499C29.8982 85.1499 29.6183 84.5242 29.7569 84.2415C29.8954 83.9589 30.0873 83.6964 30.2915 83.5609C30.4955 83.4249 30.8394 83.4036 30.8394 83.4036ZM30.8394 83.4036L30.1016 82.9388L30.6409 82.5651L30.1538 82.5621" stroke="#263238" stroke-width="0.4" stroke-miterlimit="10" stroke-linecap="round" stroke-linejoin="round"/>
<path d="M33.8343 84.6699C33.8343 84.6699 33.2939 84.6464 33.1089 84.3318C32.924 84.0172 32.624 83.4447 32.624 83.4447L32.7565 84.1361L30.9807 82.6339L32.6014 84.382L31.5255 84.6423C31.5255 84.6423 32.6304 84.5457 32.7573 84.533C32.8843 84.5203 33.2163 84.7693 33.2163 84.7693L33.4622 84.9241L32.7794 85.2735" stroke="#263238" stroke-width="0.4" stroke-miterlimit="10" stroke-linecap="round" stroke-linejoin="round"/>
<path d="M29.8979 85.1496C29.8979 85.1496 29.2676 85.1223 29.1687 84.9015C29.0699 84.6807 29.2068 83.604 29.2068 83.604C29.2068 83.604 28.8563 84.2024 28.8483 84.3826C28.8406 84.5628 28.8861 84.7632 28.8861 84.7632C28.8861 84.7632 27.8812 83.7997 27.7496 83.5052C27.6179 83.2107 27.3209 82.1514 27.3209 82.1514C27.3209 82.1514 27.6557 83.5913 27.7708 83.8491C27.8859 84.1066 28.038 84.3478 28.2143 84.4455C28.3904 84.5432 28.6162 84.7516 28.7556 84.8659C28.895 84.9801 29.1042 85.1515 29.2474 85.1758C29.3906 85.2001 29.7597 85.4325 29.7597 85.4325" stroke="#263238" stroke-width="0.4" stroke-miterlimit="10" stroke-linecap="round" stroke-linejoin="round"/>
<path d="M26.2277 85.7308C26.2277 85.7308 24.8149 85.4352 24.6184 85.3908C24.4219 85.3464 23.6974 85.4052 23.5745 85.3276C23.4517 85.25 22.8133 85.4029 22.6866 85.4156" stroke="#263238" stroke-width="0.4" stroke-miterlimit="10" stroke-linecap="round" stroke-linejoin="round"/>
<path d="M25.7405 85.7278C25.7405 85.7278 25.2051 86.0115 24.8206 86.1393C24.4361 86.2671 24.1339 86.5787 24.1339 86.5787" stroke="#263238" stroke-width="0.4" stroke-miterlimit="10" stroke-linecap="round" stroke-linejoin="round"/>
<path d="M23.5356 86.2282C23.5356 86.2282 24.1282 85.8749 24.2223 85.7888C24.3162 85.7027 24.6474 85.5545 24.6474 85.5545L24.8643 85.5456L25.028 85.5167" stroke="#263238" stroke-width="0.4" stroke-miterlimit="10" stroke-linecap="round" stroke-linejoin="round"/>
<path d="M23.0669 92.4873C23.0669 92.4873 24.2473 91.4736 24.9834 91.1446C25.7195 90.8156 26.2299 90.2782 26.5282 90.0563C26.8266 89.8347 27.7581 89.153 27.8685 89.1036" stroke="#263238" stroke-width="0.4" stroke-miterlimit="10" stroke-linecap="round" stroke-linejoin="round"/>
<path d="M26.6958 89.9373C26.6958 89.9373 26.6842 90.2076 26.5912 90.6908C26.4982 91.1741 26.4418 91.6408 26.3314 91.6902C26.221 91.7396 25.8173 92.3176 25.8173 92.3176" stroke="#263238" stroke-width="0.4" stroke-miterlimit="10" stroke-linecap="round" stroke-linejoin="round"/>
<path d="M24.9835 91.1446C24.9835 91.1446 24.755 91.4233 24.5999 91.6693C24.4447 91.9152 24.2413 92.4478 24.2413 92.4478" stroke="#263238" stroke-width="0.4" stroke-miterlimit="10" stroke-linecap="round" stroke-linejoin="round"/>
<path d="M27.0919 89.5394C27.0919 89.5394 26.5352 89.4792 26.2117 89.4472C25.8883 89.4152 25.5814 89.4199 25.4053 89.3222" stroke="#263238" stroke-width="0.4" stroke-miterlimit="10" stroke-linecap="round" stroke-linejoin="round"/>
<path d="M23.8751 96.7626L24.6363 96.6872L25.7105 95.6329C25.7105 95.6329 26.2297 95.3125 26.307 95.1894C26.3845 95.0665 26.8697 94.2752 26.8697 94.2752L27.3105 93.6807L26.9669 93.702L27.3505 93.1773L27.6439 92.6488L27.9014 92.5337L27.1811 92.5025L27.3273 92.0396L27.5724 91.7976C27.5724 91.7976 27.5238 92.0844 26.9641 92.511C26.4044 92.938 25.7185 93.7746 25.5841 93.9672C25.4494 94.1599 25.2132 94.6189 25.1152 94.7952C25.0175 94.9713 24.9979 95.4217 24.9041 95.5079C24.8102 95.594 24.6184 95.8564 24.6184 95.8564" stroke="#263238" stroke-width="0.4" stroke-miterlimit="10" stroke-linecap="round" stroke-linejoin="round"/>
<path d="M21.7477 95.4618L22.3121 95.3417C22.3121 95.3417 24.0418 94.5684 24.5568 94.3379C25.0721 94.1074 26.085 93.2129 26.085 93.2129C26.085 93.2129 25.1775 93.7511 24.7437 93.7685C24.3098 93.7859 23.2215 93.9195 23.2215 93.9195L22.8575 93.994" stroke="#263238" stroke-width="0.4" stroke-miterlimit="10" stroke-linecap="round" stroke-linejoin="round"/>
<path d="M26.0853 93.2132C26.0853 93.2132 26.772 92.7738 27.3268 92.0399C27.8818 91.306 28.208 90.8509 29.1398 90.1695C30.0713 89.488 30.7707 89.1753 31.3961 88.8954C32.0218 88.6156 32.8885 88.1839 32.9823 88.0978C33.0761 88.0117 33.4772 87.9206 33.7347 87.8055C33.9922 87.6904 34.4338 87.4928 34.5646 87.3901C34.6954 87.2875 35.5292 86.7821 35.5292 86.7821C35.5292 86.7821 33.9789 87.1663 33.7659 87.0849C33.5528 87.0035 32.7587 87.0054 32.7587 87.0054L32.321 87.1128L31.9404 87.1506" stroke="#263238" stroke-width="0.4" stroke-miterlimit="10" stroke-linecap="round" stroke-linejoin="round"/>
<path d="M30.222 87.2566C30.222 87.2566 28.8955 87.0551 28.5149 87.0926C28.1343 87.1304 26.7728 87.7393 26.5725 87.7846C26.3721 87.8298 25.6931 88.0895 25.6931 88.0895L26.0707 88.5389" stroke="#263238" stroke-width="0.4" stroke-miterlimit="10" stroke-linecap="round" stroke-linejoin="round"/>
<path d="M25.2368 87.3661L25.4954 87.6479C25.4954 87.6479 26.8939 87.0225 27.4012 86.9723C27.9085 86.922 28.694 86.7032 29.087 86.7923C29.48 86.8815 30.278 86.7896 30.278 86.7896L30.8551 86.7965" stroke="#263238" stroke-width="0.4" stroke-miterlimit="10" stroke-linecap="round" stroke-linejoin="round"/>
<path d="M23.7462 90.5498L23.8218 89.6329L23.4373 89.7607L23.4153 89.0199L22.9941 89.164L22.8826 88.8163L22.2986 89.3867L22.1584 88.8753L21.709 89.2529L21.372 88.697L21.1639 88.9228L20.7417 88.6697L20.7466 88.9769L20.2885 89.1375L19.6581 89.1102L20.1055 89.6166" stroke="#263238" stroke-width="0.4" stroke-miterlimit="10" stroke-linecap="round" stroke-linejoin="round"/>
<path d="M22.6963 91.4609C22.6963 91.4609 21.3988 91.4228 20.6956 91.8257C19.9926 92.2284 19.3186 92.7948 19.3186 92.7948" stroke="#263238" stroke-width="0.4" stroke-miterlimit="10" stroke-linecap="round" stroke-linejoin="round"/>
<path d="M22.8106 91.3215C22.8106 91.3215 21.9216 91.0124 21.5065 90.1824" stroke="#263238" stroke-width="0.4" stroke-miterlimit="10" stroke-linecap="round" stroke-linejoin="round"/>
<path d="M37.9502 92.9855C37.9502 92.9855 37.6645 93.3341 37.0242 94.371C36.3839 95.408 36.3809 95.8951 36.1446 96.3541C35.9083 96.8131 35.852 97.2798 35.5868 97.5751C35.3216 97.8704 35.207 98.0098 35.207 98.0098" stroke="#263238" stroke-width="0.4" stroke-miterlimit="10" stroke-linecap="round" stroke-linejoin="round"/>
<path d="M36.9265 94.5474C36.9265 94.5474 36.9613 95.4151 37.425 95.9583" stroke="#263238" stroke-miterlimit="10" stroke-linecap="round" stroke-linejoin="round"/>
<path d="M37.8031 93.0512C37.8031 93.0512 36.1618 93.0346 35.0735 93.1679C33.9849 93.3015 32.8558 93.5414 32.8558 93.5414L33.1404 94.474L32.9003 95.0229L32.7783 95.3425L32.4393 95.6707L32.1529 95.6221L31.7538 96.5073L31.3665 95.4438L31.1813 96.8073C31.1813 96.8073 31.1419 95.6326 31.1535 95.3624C31.165 95.0922 31.1971 94.7687 31.3152 94.5394C31.4333 94.31 31.6243 93.6504 31.6243 93.6504L30.9191 94.9371L30.5115 95.6053L30.1648 96.1137L29.8336 96.2619L29.6595 95.2799L29.0639 96.1203L28.2698 96.1223C28.2698 96.1223 28.3901 95.0086 28.5083 94.7792C28.6264 94.5499 27.7482 95.2517 27.7482 95.2517C27.7482 95.2517 28.2538 94.4075 28.3314 94.2844C28.4089 94.1615 28.5066 93.9852 28.7351 93.7064C28.9637 93.4277 29.2126 93.0954 29.2126 93.0954L29.3802 92.9764L28.9501 92.9038L29.0926 92.5309L28.3672 92.1928L27.855 91.9362L28.1495 91.8045L28.1282 91.4609L28.7296 91.3245L29.3183 91.0612C29.3183 91.0612 29.2728 90.8609 29.2234 90.7505C29.174 90.6401 29.4646 90.5984 29.6407 90.6964C29.8168 90.7941 29.7839 90.7206 30.3495 90.9975C30.915 91.2746 31.4513 91.388 31.6111 91.449C31.7709 91.51 32.258 91.513 32.258 91.513C32.258 91.513 32.5611 91.5983 33.4191 90.9497C34.2772 90.3011 35.9236 88.9465 35.9236 88.9465C35.9236 88.9465 38.6322 86.8078 41.3748 85.1399C44.1175 83.4721 45.8507 82.6085 46.427 82.2182C47.0033 81.8279 47.6859 81.4785 47.6859 81.4785" stroke="#263238" stroke-width="0.4" stroke-miterlimit="10" stroke-linecap="round" stroke-linejoin="round"/>
<path d="M32.6795 93.4437C32.6795 93.4437 32.2448 93.0639 32.7794 92.3833C33.314 91.7026 36.3431 90.0831 38.0836 88.6424C39.824 87.2016 46.1011 84.748 46.8331 84.509C47.565 84.27 48.0232 84.1093 48.0232 84.1093" stroke="#263238" stroke-width="0.4" stroke-miterlimit="10" stroke-linecap="round" stroke-linejoin="round"/>
<path d="M33.0079 86.6731C33.0079 86.6731 35.7329 86.2494 37.5931 85.3734C39.4534 84.4974 41.4726 83.2855 42.5719 82.4848" stroke="#263238" stroke-width="0.4" stroke-miterlimit="10" stroke-linecap="round" stroke-linejoin="round"/>
<path d="M43.5316 88.6794C43.5316 88.6794 39.5177 89.2819 38.5117 89.5995C37.5054 89.9169 37.0969 90.188 37.0969 90.188L36.785 91.5638" stroke="#263238" stroke-miterlimit="10" stroke-linecap="round" stroke-linejoin="round"/>
<path d="M34.1749 92.245L33.6094 91.9679C33.6094 91.9679 34.8682 91.2282 34.9786 91.1788C35.089 91.1294 35.4445 90.8379 35.4445 90.8379L35.0898 91.5263L35.548 91.3657L35.6148 91.9099" stroke="#263238" stroke-width="0.4" stroke-miterlimit="10" stroke-linecap="round" stroke-linejoin="round"/>
<path d="M31.6108 91.4487L33.266 90.3111L30.689 91.0662" stroke="#263238" stroke-width="0.4" stroke-miterlimit="10" stroke-linecap="round" stroke-linejoin="round"/>
<path d="M40.5278 87.1961C40.5278 87.1961 42.7861 86.7162 44.4051 85.9922C46.0244 85.2683 46.3749 84.6699 46.3749 84.6699" stroke="#263238" stroke-miterlimit="10" stroke-linecap="round" stroke-linejoin="round"/>
<path d="M30.05 96.2533C30.05 96.2533 30.4692 96.9933 30.4295 97.4967C30.3897 98.0001 30.5426 98.6382 30.3265 99.044C30.1104 99.4497 29.7028 100.118 29.7028 100.118L29.7174 99.3605L29.4684 99.6926L29.4571 98.2847L29.0202 98.7892L28.9117 99.6327L28.4227 100.514L28.3269 99.806L28.0324 99.9376L27.8881 99.5165" stroke="#263238" stroke-width="0.4" stroke-miterlimit="10" stroke-linecap="round" stroke-linejoin="round"/>
<path d="M26.4088 98.6766L25.9954 98.6405L26.591 97.8003L25.9973 97.7564L27.109 97.0827L27.1946 96.7797L26.8631 96.9279L27.366 96.5705L27.0627 96.4852L27.6351 96.1852L27.8559 96.0864L28.0932 96.0245" stroke="#263238" stroke-width="0.4" stroke-miterlimit="10" stroke-linecap="round" stroke-linejoin="round"/>
<path d="M32.0802 92.0579C32.0802 92.0579 31.3911 92.7092 31.0836 93.3368C30.7761 93.9645 30.2515 94.9835 30.2515 94.9835" stroke="#263238" stroke-width="0.4" stroke-miterlimit="10" stroke-linecap="round" stroke-linejoin="round"/>
<path d="M31.3914 92.7089C31.3914 92.7089 31.2142 92.6413 30.4315 92.2069C29.649 91.7725 29.3901 91.7413 29.3901 91.7413" stroke="#263238" stroke-width="0.4" stroke-miterlimit="10" stroke-linecap="round" stroke-linejoin="round"/>
<path d="M31.931 92.2718C31.931 92.2718 31.9095 92.7716 32.0878 93.28C32.2661 93.7884 32.3185 94.8924 32.2327 95.0287" stroke="#263238" stroke-width="0.4" stroke-miterlimit="10" stroke-linecap="round" stroke-linejoin="round"/>
<path d="M31.0836 93.3366C31.0836 93.3366 30.2173 93.92 29.641 94.2758" stroke="#263238" stroke-width="0.4" stroke-miterlimit="10" stroke-linecap="round" stroke-linejoin="round"/>
<path d="M29.3603 96.6072C29.3603 96.6072 28.7592 98.0035 28.2196 98.4406C27.68 98.8781 26.8404 99.3026 26.8404 99.3026L26.478 99.8077" stroke="#263238" stroke-width="0.4" stroke-miterlimit="10" stroke-linecap="round" stroke-linejoin="round"/>
<path d="M29.2066 96.921C29.2066 96.921 28.426 97.3681 27.9359 97.5873C27.4457 97.8064 27.2415 97.8978 27.2415 97.8978" stroke="#263238" stroke-width="0.4" stroke-miterlimit="10" stroke-linecap="round" stroke-linejoin="round"/>
<path d="M30.3586 47.4938C30.3586 47.4938 30.2967 47.5247 29.8344 47.4629C29.3719 47.4011 29.6186 46.7845 29.4337 46.6611C29.2488 46.5377 28.1078 46.7845 28.1078 46.7845C28.1078 46.7845 29.0329 46.7536 29.1254 46.7845C29.2179 46.8154 29.2179 47.432 29.2179 47.5863C29.2179 47.7406 29.8963 47.9255 30.1736 47.9255C30.451 47.9255 30.6669 47.9564 30.6669 47.9564C30.6669 47.9564 30.4819 48.0179 30.451 48.3571C30.4201 48.6963 30.2661 48.8813 30.0503 48.9122C29.8344 48.9431 29.2485 49.128 29.2485 49.3747C29.2485 49.3747 29.5259 49.1898 29.8035 49.1898C30.0809 49.1898 30.5126 49.3441 30.6359 49.1283C30.7593 48.9124 30.9752 48.3574 30.9752 48.3574C30.9752 48.3574 31.2525 48.5732 31.4993 48.5732C31.746 48.5732 32.2392 48.3883 32.3317 48.3265C32.4242 48.2649 32.9792 47.8024 33.0101 47.6481C33.041 47.4938 33.1026 47.0315 33.1026 47.0315C33.1026 47.0315 33.2875 46.5689 33.4724 46.4149C33.6573 46.2606 33.8732 45.9217 33.8732 45.7059C33.8732 45.49 33.7807 45.0893 33.6573 44.9659C33.5339 44.8426 33.2257 44.7192 33.1332 44.7192C33.0407 44.7192 32.7015 44.7192 32.7015 44.7192C32.7015 44.7192 33.195 44.9041 33.3181 45.0275C33.4415 45.1508 33.4415 45.4591 33.4415 45.4591C33.4415 45.4591 33.3181 45.8908 33.2257 45.9526C33.1332 46.0142 32.9483 46.1375 32.9483 46.1375C32.9483 46.1375 32.794 46.2918 32.7015 46.3843C32.6091 46.4767 32.3317 46.6926 32.3317 46.6926C32.3317 46.6926 32.1468 46.3225 32.1468 46.0451C32.1468 45.7677 32.1468 45.2127 32.1468 45.1202C32.1468 45.0277 32.1777 44.6885 32.1777 44.6885V44.3493L32.1161 44.226C32.1161 44.226 31.746 44.9659 31.7154 45.1202C31.6845 45.2745 31.5611 45.4594 31.4686 45.6443C31.3762 45.8293 31.2528 46.1685 31.2528 46.1685L31.1603 46.5077C30.9445 46.7544 30.7902 46.816 30.7902 46.816C30.7902 46.816 30.6669 46.5386 30.6669 46.3534C30.6669 46.1682 30.6359 45.8599 30.6669 45.7368C30.6978 45.6134 30.6978 45.1818 30.6978 45.1818C30.6978 45.1818 30.5129 45.5519 30.4819 45.7368C30.451 45.9217 30.451 45.9835 30.3895 46.1994C30.3277 46.4152 30.2661 46.6001 30.2661 46.6001C30.2661 46.6001 30.2661 46.631 30.1118 46.631C29.9575 46.631 29.8651 46.6001 29.8651 46.6001L29.7726 46.1994C29.7726 46.1994 29.5259 46.0144 29.3719 45.8911C29.2176 45.7677 28.9402 45.5828 28.9402 45.367C28.9402 45.1511 29.1251 44.5652 29.1251 44.5652C29.1251 44.5652 28.7859 45.1511 28.755 45.4285C28.7241 45.7059 29.0327 46.1685 29.1867 46.2303C29.341 46.2918 29.4025 46.4152 29.5568 46.5695C29.7111 46.7238 29.9575 46.9702 30.0194 47.063C30.0809 47.1546 30.3586 47.4938 30.3586 47.4938Z" stroke="#263238" stroke-width="0.4" stroke-miterlimit="10" stroke-linecap="round" stroke-linejoin="round"/>
<path d="M32.9792 47.7715C32.9792 47.7715 32.9792 47.4941 32.9482 47.2782C32.9173 47.0624 32.8864 46.4149 32.8864 46.4149C32.8864 46.4149 32.4548 47.6174 32.3314 47.9257C32.208 48.234 32.054 48.3574 31.8382 48.2959C31.7719 48.2768 31.6999 48.2492 31.632 48.22C31.4609 48.1465 31.353 47.9754 31.3623 47.7891C31.3692 47.6544 31.3756 47.4966 31.3756 47.3707C31.3756 47.0933 31.1907 46.6307 31.1907 46.6307C31.1907 46.6307 31.345 46.4149 31.5299 46.5383C31.7148 46.6617 31.9615 47.4634 31.9925 47.7099C32.0234 47.9567 31.9925 48.234 31.9925 48.234" stroke="#263238" stroke-width="0.4" stroke-miterlimit="10" stroke-linecap="round" stroke-linejoin="round"/>
<path d="M31.7766 44.9654C31.7766 44.9654 30.3892 44.9038 29.1866 45.7362" stroke="#263238" stroke-width="0.2" stroke-miterlimit="10" stroke-linecap="round" stroke-linejoin="round"/>
<path d="M28.7859 45.952C28.7859 45.952 28.1693 46.3837 28.046 46.5686C27.9226 46.7535 27.7992 46.9693 27.7992 46.9693C27.7992 46.9693 27.0902 47.3395 26.7201 47.7093C26.3499 48.0794 25.9183 49.0968 25.8258 50.2068C25.7334 51.3169 25.9183 52.2418 26.0726 52.5194C26.2268 52.7971 26.4733 53.2594 26.4733 53.2594C26.4733 53.2594 26.8434 54.8627 27.9532 55.7878C29.0633 56.7127 30.5741 57.2986 33.2256 56.8979C35.8775 56.4971 36.7408 56.0961 37.943 54.9245C39.1456 53.7529 39.6081 52.3345 39.6081 50.8852C39.6081 49.436 39.1149 47.8018 38.8373 47.3086C38.5596 46.8153 38.2822 46.4143 38.1898 46.3528C38.0973 46.2912 37.3574 45.1811 35.7847 44.6261C34.2123 44.0711 33.2256 44.2254 32.8246 44.3794C32.4239 44.5336 32.1771 44.6877 32.1771 44.6877" stroke="#263238" stroke-width="0.4" stroke-miterlimit="10" stroke-linecap="round" stroke-linejoin="round"/>
<path d="M30.5363 51.5022C30.536 51.6302 30.5382 51.7638 30.5435 51.9032" stroke="#263238" stroke-width="0.4" stroke-miterlimit="10" stroke-linecap="round" stroke-linejoin="round"/>
<path d="M31.2834 48.7272C31.2834 48.7272 30.6268 49.2621 30.5446 51.1309" stroke="#263238" stroke-width="0.4" stroke-miterlimit="10" stroke-linecap="round" stroke-linejoin="round"/>
<path d="M35.1696 48.5986C35.3111 48.7306 35.4461 48.8851 35.5695 49.0665" stroke="#263238" stroke-width="0.4" stroke-miterlimit="10" stroke-linecap="round" stroke-linejoin="round"/>
<path d="M32.8558 47.8639C32.8558 47.8639 33.8679 47.7193 34.7854 48.3019" stroke="#263238" stroke-width="0.4" stroke-miterlimit="10" stroke-linecap="round" stroke-linejoin="round"/>
<path d="M30.4816 48.2029C30.4816 48.2029 28.8784 48.0179 27.5834 49.2511" stroke="#263238" stroke-width="0.4" stroke-miterlimit="10" stroke-linecap="round" stroke-linejoin="round"/>
<path d="M34.7949 45.7669C35.0519 45.6717 35.3406 45.5955 35.6618 45.5513" stroke="#263238" stroke-width="0.2" stroke-miterlimit="10" stroke-linecap="round" stroke-linejoin="round"/>
<path d="M33.1025 47.0312C33.1025 47.0312 33.5475 46.3194 34.5452 45.8693" stroke="#263238" stroke-width="0.4" stroke-miterlimit="10" stroke-linecap="round" stroke-linejoin="round"/>
<path d="M31.1909 46.6305C31.1909 46.6305 31.3758 46.8772 31.5917 46.8154C31.8075 46.7539 31.5301 46.538 31.5301 46.538" stroke="#263238" stroke-width="0.4" stroke-miterlimit="10" stroke-linecap="round" stroke-linejoin="round"/>
<path d="M30.2659 46.5996C30.2659 46.5996 30.2968 46.538 30.4202 46.7538C30.5435 46.9697 30.5126 47.1546 30.6051 47.2471C30.6975 47.3395 31.0983 47.6478 31.0983 47.6478" stroke="#263238" stroke-width="0.4" stroke-miterlimit="10" stroke-linecap="round" stroke-linejoin="round"/>
<path d="M32.3317 46.692C32.3317 46.692 32.3932 46.7229 32.3932 46.8463C32.3932 46.9697 32.1158 47.3089 32.1158 47.3089" stroke="#263238" stroke-width="0.4" stroke-miterlimit="10" stroke-linecap="round" stroke-linejoin="round"/>
<path d="M31.5321 66.5687C31.5321 66.5687 31.6072 65.1382 29.9976 64.3124C28.3879 63.4866 26.146 63.2953 24.92 63.9166C23.694 64.5379 22.7244 65.7462 22.8671 67.2797C23.0101 68.8131 23.9038 70.1675 25.1576 70.7589C26.4112 71.3504 29.325 70.2591 30.4872 69.2078C31.6494 68.1565 31.5321 66.5687 31.5321 66.5687Z" stroke="#263238" stroke-width="0.4" stroke-miterlimit="10" stroke-linecap="round" stroke-linejoin="round"/>
<path d="M35.3898 60.7917C35.3898 60.7917 30.0643 61.3451 26.5862 62.5032C23.108 63.6613 20.865 64.6025 19.8181 65.9742C18.7713 67.3462 17.826 69.6323 18.2355 71.025C18.6448 72.4174 19.3751 73.6948 21.6295 74.425C23.8839 75.1553 27.0535 74.6514 29.0558 73.7966C31.0582 72.9418 34.7533 69.4874 35.6779 68.6575C36.6025 67.8275 38.1409 65.5547 38.6038 64.5735C39.0666 63.5923 39.1252 62.6205 38.1892 61.7793C37.2533 60.9378 35.3898 60.7917 35.3898 60.7917Z" stroke="#263238" stroke-width="0.4" stroke-miterlimit="10" stroke-linecap="round" stroke-linejoin="round"/>
<path d="M18.6672 72.2284C18.6672 72.2284 19.3131 74.5321 22.0703 76.0325C24.8276 77.5331 29.5532 76.6968 31.6944 74.8415C33.8356 72.9863 36.9177 69.8421 38.229 67.0622C39.5403 64.2823 39.1279 62.7549 38.7402 62.3056" stroke="#263238" stroke-width="0.4" stroke-miterlimit="10" stroke-linecap="round" stroke-linejoin="round"/>
<path d="M32.6253 61.755C31.4832 61.9366 30.2798 62.1745 29.1717 62.3901C26.9709 62.8179 24.8275 63.4063 23.2551 64.197C21.6824 64.9881 20.2511 66.0451 20.1738 66.2088" stroke="#263238" stroke-width="0.4" stroke-miterlimit="10" stroke-linecap="round" stroke-linejoin="round"/>
<path d="M36.4926 66.694C37.0921 66.0849 38.0975 64.9017 38.2066 63.7198C38.336 62.315 37.4001 61.4737 35.6745 61.4594C35.058 61.4542 34.3329 61.5171 33.5554 61.6192" stroke="#263238" stroke-width="0.4" stroke-miterlimit="10" stroke-linecap="round" stroke-linejoin="round"/>
<path d="M35.2247 68.0147C35.5013 67.7199 35.7359 67.4646 35.9131 67.2753" stroke="#263238" stroke-width="0.4" stroke-miterlimit="10" stroke-linecap="round" stroke-linejoin="round"/>
<path d="M29.5452 72.5317C30.0464 72.2631 30.5203 71.9968 30.95 71.7583C32.208 71.0598 33.6959 69.6141 34.7795 68.4844" stroke="#263238" stroke-width="0.4" stroke-miterlimit="10" stroke-linecap="round" stroke-linejoin="round"/>
<path d="M20.0001 66.8599C20.0001 66.8599 18.3885 68.2987 18.7073 70.4482C19.0261 72.5977 21.3215 73.947 23.5411 74.3273C25.129 74.5995 27.1744 73.7574 28.9701 72.8336" stroke="#263238" stroke-width="0.4" stroke-miterlimit="10" stroke-linecap="round" stroke-linejoin="round"/>
<path d="M15.217 28.5911C15.217 28.5911 13.0021 28.9913 12.4796 28.9703C11.9569 28.9494 11.4217 28.8058 11.3687 29.2577C11.3157 29.7092 11.3157 29.7092 11.3157 29.7092C11.3157 29.7092 10.9031 29.553 10.708 30.0688C10.5128 30.5844 11.451 32.0005 12.7515 33.0822C14.052 34.1638 16.1372 36.1317 17.4322 36.9164C18.7271 37.7011 22.2842 39.5185 22.2842 39.5185C22.2842 39.5185 23.0816 40.5276 23.3769 40.9932C23.6725 41.4588 24.5786 42.8037 24.5728 42.5068C24.5673 42.2098 24.6159 40.9901 24.6159 40.9901L23.9929 39.988C23.9929 39.988 27.9527 40.8966 28.6623 41.047C29.3716 41.1974 30.3266 41.323 30.3266 41.323L31.8584 42.7278C31.8584 42.7278 33.2997 42.0351 34.062 41.734C34.8243 41.4328 36.9931 41.31 36.9931 41.31L37.1101 41.0006L39.1409 41.7099C39.1409 41.7099 40.3816 43.4173 41.2625 44.5171C42.1435 45.6167 43.3797 46.5562 43.3797 46.5562C43.3797 46.5562 42.8137 43.6891 42.6158 42.9658C42.4179 42.2424 42.2073 41.3964 42.2073 41.3964C42.2073 41.3964 44.9739 39.8492 45.3504 39.1661C45.7268 38.483 46.5559 37.382 46.5559 37.382C46.5559 37.382 42.8484 38.4554 42.093 38.5823C41.3376 38.7093 40.6128 39.3783 39.8003 39.1887C38.9878 38.9991 36.4941 37.6431 35.7735 36.8987C35.0528 36.1543 30.8154 33.0184 30.2231 32.5586C29.6308 32.0985 29.3087 31.859 29.3087 31.859L30.3095 31.7069C30.3095 31.7069 29.4285 30.607 28.9085 29.6441C28.3885 28.6808 28.1139 27.6927 28.1139 27.6927L28.0764 27.3248L24.6435 29.3865C24.6435 29.3865 21.0389 28.3176 18.8257 28.2467C16.6124 28.1757 15.217 28.5911 15.217 28.5911Z" stroke="#263238" stroke-width="0.4" stroke-miterlimit="10" stroke-linecap="round" stroke-linejoin="round"/>
<path d="M13.5096 29.8317C13.5742 29.6609 13.4881 29.4699 13.3173 29.4053C13.1464 29.3407 12.9554 29.4269 12.8908 29.5977C12.8263 29.7685 12.9124 29.9595 13.0832 30.0241C13.2541 30.0887 13.4451 30.0026 13.5096 29.8317Z" fill="#263238"/>
<path d="M17.7189 29.8232C17.7892 29.9438 17.8262 30.1088 17.7997 30.3346C17.6937 31.2377 17.3079 33.0372 16.7126 33.5196C16.1175 34.0021 15.072 33.9601 15.072 33.9601" stroke="#263238" stroke-width="0.4" stroke-miterlimit="10" stroke-linecap="round" stroke-linejoin="round"/>
<path d="M16.9955 29.5C16.9955 29.5 17.2834 29.4785 17.5166 29.6203" stroke="#263238" stroke-width="0.4" stroke-miterlimit="10" stroke-linecap="round" stroke-linejoin="round"/>
<path d="M16.4717 34.3129C16.4717 34.3129 17.7874 34.5748 19.219 34.9985C20.6506 35.4221 20.1723 35.5949 19.6302 35.6258C19.0882 35.6564 18.2154 36.0928 17.7192 35.8461C17.223 35.5993 16.5415 34.752 16.5415 34.752" stroke="#263238" stroke-width="0.4" stroke-miterlimit="10" stroke-linecap="round" stroke-linejoin="round"/>
<path d="M15.029 30.8609C15.0367 30.5905 15.005 30.3975 15.005 30.3975" stroke="#263238" stroke-width="0.4" stroke-miterlimit="10" stroke-linecap="round" stroke-linejoin="round"/>
<path d="M11.3157 29.7092C11.3157 29.7092 11.1009 30.2764 11.7311 31.1044C12.3612 31.9324 12.98 32.1664 12.98 32.1664C12.98 32.1664 13.7911 32.8272 14.4966 32.2095C14.6961 32.0348 14.8234 31.814 14.9034 31.5871" stroke="#263238" stroke-width="0.4" stroke-miterlimit="10" stroke-linecap="round" stroke-linejoin="round"/>
<path d="M12.9662 32.515C12.9662 32.515 14.0409 33.5702 14.7963 33.4432C15.5518 33.3162 15.963 31.7621 15.8487 31.1295" stroke="#263238" stroke-width="0.4" stroke-miterlimit="10" stroke-linecap="round" stroke-linejoin="round"/>
<path d="M26.3467 29.1379L25.4988 29.6684" stroke="#263238" stroke-width="0.4" stroke-miterlimit="10" stroke-linecap="round" stroke-linejoin="round"/>
<path d="M28.2315 27.9585L26.6677 28.9369" stroke="#263238" stroke-width="0.4" stroke-miterlimit="10" stroke-linecap="round" stroke-linejoin="round"/>
<path d="M30.8816 41.2581C30.8816 41.2581 35.8521 40.8985 36.3166 40.917" stroke="#263238" stroke-width="0.4" stroke-miterlimit="10" stroke-linecap="round" stroke-linejoin="round"/>
<path d="M26.8542 29.5847L26.1832 30.0236" stroke="#263238" stroke-width="0.4" stroke-miterlimit="10" stroke-linecap="round" stroke-linejoin="round"/>
<path d="M28.4233 28.5591L27.292 29.2985" stroke="#263238" stroke-width="0.4" stroke-miterlimit="10" stroke-linecap="round" stroke-linejoin="round"/>
<path d="M27.2108 30.2137L26.8357 30.4629" stroke="#263238" stroke-width="0.4" stroke-miterlimit="10" stroke-linecap="round" stroke-linejoin="round"/>
<path d="M28.6372 29.2662L27.6604 29.9151" stroke="#263238" stroke-width="0.4" stroke-miterlimit="10" stroke-linecap="round" stroke-linejoin="round"/>
<path d="M29.0098 29.9369L27.6466 30.8662" stroke="#263238" stroke-width="0.4" stroke-miterlimit="10" stroke-linecap="round" stroke-linejoin="round"/>
<path d="M28.6259 31.1182L28.3413 31.3216" stroke="#263238" stroke-width="0.4" stroke-miterlimit="10" stroke-linecap="round" stroke-linejoin="round"/>
<path d="M29.3982 30.5654L28.8188 30.9799" stroke="#263238" stroke-width="0.4" stroke-miterlimit="10" stroke-linecap="round" stroke-linejoin="round"/>
<path d="M29.734 31.0779L28.9312 31.5449" stroke="#263238" stroke-width="0.4" stroke-miterlimit="10" stroke-linecap="round" stroke-linejoin="round"/>
<path d="M31.3991 41.7403L31.1429 41.4853" stroke="#263238" stroke-width="0.2" stroke-miterlimit="10" stroke-linecap="round" stroke-linejoin="round"/>
<path d="M32.1576 42.4954L31.6423 41.9824" stroke="#263238" stroke-width="0.2" stroke-miterlimit="10" stroke-linecap="round" stroke-linejoin="round"/>
<path d="M32.7226 42.2755L31.9448 41.4033" stroke="#263238" stroke-width="0.4" stroke-miterlimit="10" stroke-linecap="round" stroke-linejoin="round"/>
<path d="M33.2133 42.1239L32.7146 41.4055" stroke="#263238" stroke-width="0.4" stroke-miterlimit="10" stroke-linecap="round" stroke-linejoin="round"/>
<path d="M33.7939 41.862L33.3054 41.2438" stroke="#263238" stroke-width="0.4" stroke-miterlimit="10" stroke-linecap="round" stroke-linejoin="round"/>
<path d="M34.3168 41.6263L34.0071 41.172" stroke="#263238" stroke-width="0.4" stroke-miterlimit="10" stroke-linecap="round" stroke-linejoin="round"/>
<path d="M35.1345 41.5021L34.9192 41.18" stroke="#263238" stroke-width="0.4" stroke-miterlimit="10" stroke-linecap="round" stroke-linejoin="round"/>
<path d="M46.2717 37.5275L41.8372 39.3179" stroke="#263238" stroke-miterlimit="10" stroke-linecap="round" stroke-linejoin="round"/>
<path d="M43.5923 39.1098L42.137 39.672" stroke="#263238" stroke-miterlimit="10" stroke-linecap="round" stroke-linejoin="round"/>
<path d="M45.9165 38.2119L44.0143 38.9466" stroke="#263238" stroke-miterlimit="10" stroke-linecap="round" stroke-linejoin="round"/>
<path d="M45.2592 39.3121L42.3726 40.1947" stroke="#263238" stroke-miterlimit="10" stroke-linecap="round" stroke-linejoin="round"/>
<path d="M42.414 40.6609L42.0812 40.7106" stroke="#263238" stroke-miterlimit="10" stroke-linecap="round" stroke-linejoin="round"/>
<path d="M43.8166 40.4519L42.955 40.5803" stroke="#263238" stroke-miterlimit="10" stroke-linecap="round" stroke-linejoin="round"/>
<path d="M42.3511 42.1612L41.6095 41.4472" stroke="#263238" stroke-miterlimit="10" stroke-linecap="round" stroke-linejoin="round"/>
<path d="M41.9305 42.5501L41.3079 41.8631" stroke="#263238" stroke-miterlimit="10" stroke-linecap="round" stroke-linejoin="round"/>
<path d="M42.7689 43.4755L42.1195 42.7588" stroke="#263238" stroke-miterlimit="10" stroke-linecap="round" stroke-linejoin="round"/>
<path d="M41.8582 43.4962L40.8798 42.2308" stroke="#263238" stroke-miterlimit="10" stroke-linecap="round" stroke-linejoin="round"/>
<path d="M43.1437 45.1586L42.165 43.8931" stroke="#263238" stroke-miterlimit="10" stroke-linecap="round" stroke-linejoin="round"/>
<path d="M40.6562 42.8678L40.2623 42.3345" stroke="#263238" stroke-miterlimit="10" stroke-linecap="round" stroke-linejoin="round"/>
<path d="M43.38 46.5568L40.9973 43.3295" stroke="#263238" stroke-miterlimit="10" stroke-linecap="round" stroke-linejoin="round"/>
<path d="M17.5354 35.376L17.2097 35.1541" stroke="#263238" stroke-width="0.2" stroke-miterlimit="10" stroke-linecap="round" stroke-linejoin="round"/>
<path d="M18.3201 35.9112L17.8062 35.5607" stroke="#263238" stroke-width="0.2" stroke-miterlimit="10" stroke-linecap="round" stroke-linejoin="round"/>
<path d="M18.7689 35.7439L17.7849 35.0343" stroke="#263238" stroke-width="0.2" stroke-miterlimit="10" stroke-linecap="round" stroke-linejoin="round"/>
<path d="M19.4179 35.556L18.5808 35.0948" stroke="#263238" stroke-width="0.2" stroke-miterlimit="10" stroke-linecap="round" stroke-linejoin="round"/>
<path d="M24.5504 41.9774L22.98 39.89" stroke="#263238" stroke-width="0.2" stroke-miterlimit="10" stroke-linecap="round" stroke-linejoin="round"/>
<path d="M24.5049 41.334L23.4492 39.9231" stroke="#263238" stroke-width="0.2" stroke-miterlimit="10" stroke-linecap="round" stroke-linejoin="round"/>
<path d="M101.522 89.0682H41.2951C38.3408 89.0682 35.9457 86.6734 35.9457 83.7188V29.3614C35.9457 26.4071 38.3408 24.012 41.2951 24.012H101.522C104.477 24.012 106.872 26.4068 106.872 29.3614V83.7191C106.872 86.6734 104.477 89.0682 101.522 89.0682Z" fill="white" stroke="#263238" stroke-miterlimit="10" stroke-linecap="round" stroke-linejoin="round"/>
<path d="M87.8737 41.7676C85.7601 42.5821 80.9002 42.3779 80.9002 42.3779H61.9189C61.9189 42.3779 57.0591 42.5821 54.9455 41.7676C52.8319 40.9507 50.5066 36.4698 57.9031 31.7822C64.2221 27.7789 69.1506 27.6409 70.4523 27.6878L70.4498 27.6337C70.4498 27.6337 77.5168 27.0949 84.9133 31.7822C92.3101 36.4698 89.9873 40.9507 87.8737 41.7676Z" stroke="#263238" stroke-miterlimit="10" stroke-linecap="round" stroke-linejoin="round"/>
<path d="M85.0467 42.2942C83.0043 42.4654 80.9011 42.377 80.9011 42.377H61.9179C61.9179 42.377 60.0742 42.4543 58.1615 42.3246C60.6869 37.5581 65.6715 34.2902 71.4261 34.224C71.4868 34.2212 71.5503 34.2212 71.611 34.2212C77.4346 34.2212 82.4881 37.4918 85.0467 42.2942Z" stroke="#263238" stroke-miterlimit="10" stroke-linecap="round" stroke-linejoin="round"/>
<path d="M71.4261 34.224V42.377H61.9179C61.9179 42.377 60.0742 42.4543 58.1615 42.3246C60.6869 37.5581 65.6715 34.2902 71.4261 34.224Z" fill="#92E3A9" stroke="#263238" stroke-miterlimit="10" stroke-linecap="round" stroke-linejoin="round"/>
<path d="M71.4095 28.9651V32.5928" stroke="#263238" stroke-miterlimit="10" stroke-linecap="round" stroke-linejoin="round"/>
<path d="M61.1835 31.8888L63.0252 35.0305" stroke="#263238" stroke-miterlimit="10" stroke-linecap="round" stroke-linejoin="round"/>
<path d="M53.812 39.1373L57.002 40.9512" stroke="#263238" stroke-miterlimit="10" stroke-linecap="round" stroke-linejoin="round"/>
<path d="M69.1877 28.8696L69.4138 30.676" stroke="#263238" stroke-miterlimit="10" stroke-linecap="round" stroke-linejoin="round"/>
<path d="M67.0616 29.253L67.4781 31.0263" stroke="#263238" stroke-miterlimit="10" stroke-linecap="round" stroke-linejoin="round"/>
<path d="M64.988 29.8533L65.5905 31.5738" stroke="#263238" stroke-miterlimit="10" stroke-linecap="round" stroke-linejoin="round"/>
<path d="M62.9896 30.6636L63.7713 32.313" stroke="#263238" stroke-miterlimit="10" stroke-linecap="round" stroke-linejoin="round"/>
<path d="M59.3041 32.8771L60.4169 34.3303" stroke="#263238" stroke-miterlimit="10" stroke-linecap="round" stroke-linejoin="round"/>
<path d="M57.6575 34.256L58.9185 35.5866" stroke="#263238" stroke-miterlimit="10" stroke-linecap="round" stroke-linejoin="round"/>
<path d="M56.1666 35.7969L57.5618 36.9903" stroke="#263238" stroke-miterlimit="10" stroke-linecap="round" stroke-linejoin="round"/>
<path d="M54.847 37.4827L56.3615 38.5263" stroke="#263238" stroke-miterlimit="10" stroke-linecap="round" stroke-linejoin="round"/>
<path d="M81.5603 31.8888L79.7185 35.0305" stroke="#263238" stroke-miterlimit="10" stroke-linecap="round" stroke-linejoin="round"/>
<path d="M88.9317 39.1373L85.7417 40.9512" stroke="#263238" stroke-miterlimit="10" stroke-linecap="round" stroke-linejoin="round"/>
<path d="M73.556 28.8696L73.3302 30.676" stroke="#263238" stroke-miterlimit="10" stroke-linecap="round" stroke-linejoin="round"/>
<path d="M75.682 29.253L75.2655 31.0263" stroke="#263238" stroke-miterlimit="10" stroke-linecap="round" stroke-linejoin="round"/>
<path d="M77.7556 29.8533L77.1531 31.5738" stroke="#263238" stroke-miterlimit="10" stroke-linecap="round" stroke-linejoin="round"/>
<path d="M79.754 30.6636L78.9724 32.313" stroke="#263238" stroke-miterlimit="10" stroke-linecap="round" stroke-linejoin="round"/>
<path d="M83.4395 32.8771L82.3267 34.3303" stroke="#263238" stroke-miterlimit="10" stroke-linecap="round" stroke-linejoin="round"/>
<path d="M85.0861 34.256L83.8251 35.5866" stroke="#263238" stroke-miterlimit="10" stroke-linecap="round" stroke-linejoin="round"/>
<path d="M86.5771 35.7969L85.1819 36.9903" stroke="#263238" stroke-miterlimit="10" stroke-linecap="round" stroke-linejoin="round"/>
<path d="M87.8966 37.4827L86.3822 38.5263" stroke="#263238" stroke-miterlimit="10" stroke-linecap="round" stroke-linejoin="round"/>
<path d="M100.652 25.3426H100.144L95.3696 37.7932C93.9054 41.6117 90.2388 44.1327 86.1493 44.1327H57.4776C53.4772 44.1327 49.8724 41.7193 48.3478 38.0212L43.1217 25.3429H42.1656C39.5318 25.3429 37.3964 27.478 37.3964 30.1121V82.9692C37.3964 85.6031 39.5315 87.7385 42.1656 87.7385H100.652C103.286 87.7385 105.422 85.6033 105.422 82.9692V30.1116C105.421 27.4777 103.286 25.3426 100.652 25.3426Z" fill="white" stroke="#263238" stroke-miterlimit="10" stroke-linecap="round" stroke-linejoin="round"/>
<path d="M72.1262 42.3779H69.7567L65.7655 33.6941L72.1262 42.3779Z" fill="#263238" stroke="#263238" stroke-miterlimit="10" stroke-linecap="round" stroke-linejoin="round"/>
<path d="M71.1398 57.5587C71.1398 57.5587 70.5704 60.659 69.6845 61.9879C68.7988 63.3166 67.976 63.9495 66.7738 64.1394C65.5715 64.3292 62.7243 64.2026 61.8383 65.2149C60.9524 66.2273 57.9249 75.6096 57.9249 75.6096C57.9249 75.6096 57.1563 77.6164 57.7257 78.9454C58.2951 80.274 59.4973 81.0965 60.5097 80.1476C61.522 79.1985 63.9898 71.2894 63.9898 71.2894L66.2044 77.6799C66.2044 77.6799 63.4204 81.9193 63.2305 83.6274C63.2305 83.6274 61.5852 90.0179 62.0914 94.0674C62.5976 98.1169 66.0145 101.091 65.8878 104.697C65.7611 108.304 63.7999 109.443 63.61 112.29C63.4201 115.137 64.1794 122.54 64.1794 123.3C64.1794 124.059 64.2426 124.755 65.0653 125.008C65.8881 125.261 66.5839 124.945 66.5839 124.945C66.5839 124.945 67.3432 120.389 68.7985 116.909C70.2539 113.429 71.0131 110.202 71.6457 106.785C72.2783 103.369 72.6581 96.6618 72.6581 95.6494C72.6581 94.6371 72.5949 92.9918 72.5949 92.9918L73.4808 92.5489C73.4808 92.5489 73.6073 101.66 73.987 104.76C74.3668 107.861 74.9994 110.961 74.9994 111.72C74.9994 112.48 74.873 114.631 75.3157 116.719C75.7587 118.807 75.8851 123.552 75.8851 123.552C75.8851 123.552 75.6952 124.438 76.0115 124.691C76.3278 124.944 77.9098 124.818 78.2261 124.754C78.5424 124.691 78.7955 123.552 78.7955 123.299C78.7955 123.046 79.3017 119.123 80.061 116.149C80.8202 113.175 81.1365 111.784 81.1365 108.936C81.1365 106.089 80.061 105.393 80.7568 102.482C81.4528 99.5714 83.7307 96.5978 83.7307 92.2317C83.7307 87.866 81.959 84.0061 81.0731 82.8041C81.0731 82.8041 81.7691 80.7162 78.732 76.4768L79.5545 69.7065C79.5545 69.7065 86.7043 72.6804 88.0332 72.9967C89.3619 73.313 90.5641 71.9212 90.4377 70.7821C90.3113 69.6431 87.3374 68.0613 85.3759 66.9857C83.4144 65.9102 81.9841 64.0833 79.5796 63.3873C77.1754 62.6912 75.6317 63.4425 75.3786 63.4425C75.1255 63.4425 74.5561 59.7093 74.5561 59.7093L71.1398 57.5587Z" fill="white" stroke="#263238" stroke-width="0.4" stroke-miterlimit="10" stroke-linecap="round" stroke-linejoin="round"/>
<path d="M74.5564 59.7101L71.1395 57.5587C71.1395 57.5587 71.1031 57.7566 71.0347 58.0731C71.5616 58.7698 73.5943 61.386 74.9914 62.1842C74.7687 61.1003 74.5564 59.7101 74.5564 59.7101Z" fill="#263238" stroke="#263238" stroke-miterlimit="10" stroke-linecap="round" stroke-linejoin="round"/>
<path d="M73.2126 79.9693C73.2126 80.1093 73.1155 80.2227 72.9954 80.2227C72.8754 80.2227 72.7782 80.1093 72.7782 79.9693C72.7782 79.8294 72.8754 79.716 72.9954 79.716C73.1155 79.716 73.2126 79.8294 73.2126 79.9693Z" stroke="#263238" stroke-width="0.2" stroke-miterlimit="10" stroke-linecap="round" stroke-linejoin="round"/>
<path d="M83.7312 92.2323C83.7312 87.9432 82.022 84.1447 81.1219 82.8726C79.9238 83.7166 77.0661 85.3022 72.5952 85.2092C67.7373 85.1079 64.4198 83.8339 63.2849 83.3274C63.2603 83.4337 63.241 83.5347 63.2308 83.6272C63.2308 83.6272 61.5855 90.0177 62.0917 94.0671C62.5979 98.1166 66.0148 101.091 65.8881 104.697C65.7614 108.303 63.8002 109.443 63.6103 112.29C63.5479 113.224 63.5882 114.65 63.6699 116.17C65.4741 117.091 67.7472 116.877 68.8915 116.681C70.2853 113.288 71.0272 110.127 71.646 106.785C72.2786 103.368 72.6584 96.6613 72.6584 95.6489C72.6584 94.6365 72.5952 92.9913 72.5952 92.9913L73.4811 92.5483C73.4811 92.5483 73.6076 101.66 73.9873 104.76C74.3671 107.86 74.9997 110.961 74.9997 111.72C74.9997 112.479 74.8733 114.631 75.316 116.718C75.3295 116.783 75.343 116.85 75.356 116.919C75.8092 116.923 76.3375 116.921 76.9612 116.908C78.1676 116.883 79.1803 116.718 79.9677 116.528C79.9986 116.401 80.0298 116.274 80.0615 116.149C80.8208 113.175 81.1371 111.783 81.1371 108.936C81.1371 106.089 80.0615 105.393 80.7573 102.482C81.4531 99.572 83.7312 96.5983 83.7312 92.2323Z" fill="#263238" stroke="#263238" stroke-width="0.4" stroke-miterlimit="10" stroke-linecap="round" stroke-linejoin="round"/>
<path d="M78.4795 48.1943C78.4795 48.1943 73.5441 45.4735 71.2031 45.6634C68.862 45.8533 65.3188 50.7252 64.8758 53.0662C64.4328 55.4073 66.7106 56.6727 66.8373 56.8626C66.964 57.0525 64.939 56.9258 65.1289 58.4444C65.3188 59.9629 67.723 60.216 69.1151 59.9629C70.5073 59.7098 71.4562 57.9382 71.4562 57.6851C71.4562 57.432 70.8233 55.7236 70.8233 55.7236C70.8233 55.7236 72.152 55.85 72.3419 54.7112C72.5317 53.5724 73.6073 51.0412 75.0627 50.978C76.518 50.9148 77.6568 51.1047 77.7835 51.421C77.9099 51.7373 78.0366 52.9396 78.0366 52.9396C78.0366 52.9396 79.6818 53.3191 81.0105 52.1803C82.3391 51.0412 82.8453 47.9409 81.0737 47.3083C79.302 46.6757 78.4795 48.1943 78.4795 48.1943Z" fill="#263238" stroke="#263238" stroke-miterlimit="10" stroke-linecap="round" stroke-linejoin="round"/>
<path d="M70.226 54.6737L67.6821 56.1174C67.6821 56.1174 68.6448 57.2863 69.0572 57.4237C69.4698 57.5612 70.1573 57.355 70.1573 57.355C70.1573 57.355 71.3262 58.73 72.2198 59.3488C73.1135 59.9676 75.2451 61.1365 76.4139 60.7239C77.5828 60.3112 79.3017 57.2173 79.164 56.1861C79.0266 55.1547 78.4078 53.5048 78.4765 52.6796C78.5452 51.8546 78.6827 50.5483 78.6827 50.5483C78.6827 50.5483 75.8636 49.1733 73.5949 50.4796C71.3262 51.7861 71.4636 54.1926 70.226 54.6737Z" fill="white" stroke="#263238" stroke-miterlimit="10" stroke-linecap="round" stroke-linejoin="round"/>
<path d="M76.414 53.4361L76.4827 54.261C76.4827 54.261 78.2703 54.4672 77.5828 55.086C76.8953 55.7048 75.9326 55.8422 75.9326 55.8422" stroke="#263238" stroke-width="0.3" stroke-miterlimit="10" stroke-linecap="round" stroke-linejoin="round"/>
<path d="M77.4454 57.0114C77.4454 57.0114 76.2078 57.424 75.5203 57.424C74.8328 57.424 74.214 57.2866 74.214 57.2866C74.214 57.2866 74.8328 57.9053 75.3829 58.3867C75.9329 58.868 76.6204 58.9368 76.6204 58.9368L76.5517 57.7679L77.4454 57.0114Z" fill="#263238" stroke="#263238" stroke-width="0.5" stroke-miterlimit="10" stroke-linecap="round" stroke-linejoin="round"/>
<path d="M73.1138 52.886C73.1138 52.886 73.8013 52.1985 74.6263 52.2672" stroke="#263238" stroke-width="0.4" stroke-miterlimit="10" stroke-linecap="round" stroke-linejoin="round"/>
<path d="M76.6891 52.061C76.6891 52.061 77.3766 51.7862 78.0641 52.3359" stroke="#263238" stroke-width="0.4" stroke-miterlimit="10" stroke-linecap="round" stroke-linejoin="round"/>
<path d="M74.3742 54.5497C74.5389 54.5497 74.6723 54.3158 74.6723 54.0273C74.6723 53.7387 74.5389 53.5048 74.3742 53.5048C74.2096 53.5048 74.0762 53.7387 74.0762 54.0273C74.0762 54.3158 74.2096 54.5497 74.3742 54.5497Z" fill="#263238"/>
<path d="M77.4544 54.2332C77.6191 54.2332 77.7525 53.9992 77.7525 53.7107C77.7525 53.4221 77.6191 53.1882 77.4544 53.1882C77.2898 53.1882 77.1564 53.4221 77.1564 53.7107C77.1564 53.9992 77.2898 54.2332 77.4544 54.2332Z" fill="#263238"/>
<path d="M76.4421 63.1819C76.0667 63.2628 75.7728 63.3481 75.586 63.3986C75.9263 64.2696 76.5856 65.9924 76.7711 66.7335C77.0242 67.7459 77.0242 68.1888 77.0242 68.1888C77.0242 68.1888 76.7079 68.9481 73.734 69.7074C70.7601 70.4667 68.0396 69.7074 67.4067 69.2644C66.7738 68.8214 66.4575 68.5051 66.4575 68.5051L67.821 63.8145C67.556 63.9456 67.2739 64.0406 66.9676 64.1035C66.4802 65.5111 65.7521 67.6962 65.3185 69.3908C64.8686 71.1489 64.921 73.0906 65.0143 74.2457L66.2044 77.6796C66.2044 77.6796 65.9834 78.0164 65.6615 78.538C67.3772 78.8187 70.4874 79.2614 73.0379 79.2614C75.8195 79.2614 78.2839 78.0324 79.36 77.4056C79.1704 77.108 78.9634 76.7998 78.7324 76.4774L79.5548 69.7071L76.4421 63.1819Z" fill="#92E3A9" stroke="#263238" stroke-width="0.6" stroke-miterlimit="10" stroke-linecap="round" stroke-linejoin="round"/>
<path d="M71.7821 75.7993L75.1893 74.0729" stroke="#263238" stroke-width="0.2" stroke-miterlimit="10" stroke-linecap="round" stroke-linejoin="round"/>
<path d="M70.4438 76.4774L71.0555 76.1674" stroke="#263238" stroke-width="0.2" stroke-miterlimit="10" stroke-linecap="round" stroke-linejoin="round"/>
<path d="M74.1769 75.2119L71.3929 76.7305" stroke="#263238" stroke-width="0.2" stroke-miterlimit="10" stroke-linecap="round" stroke-linejoin="round"/>
<path d="M66.2044 124.565C66.2044 124.565 65.8881 123.679 65.2552 123.616C64.6223 123.553 63.6734 123.363 63.3569 123.932C63.0406 124.502 62.7875 125.641 62.7875 125.641C62.7875 125.641 61.0158 126.906 60.1934 127.855C59.3709 128.804 59.624 129.437 60.3198 129.943C61.0158 130.449 62.7243 130.513 63.4833 130.26C64.2426 130.006 65.0018 128.931 65.0018 128.931C65.0018 128.931 66.7103 128.931 66.9634 128.425C67.2165 127.919 67.0266 125.957 67.0266 125.957C67.0266 125.957 67.3429 125.324 67.2797 124.881C67.2165 124.438 66.9002 124.185 66.9002 124.185C66.9002 124.185 66.5207 124.565 66.2044 124.565Z" fill="white" stroke="#263238" stroke-width="0.4" stroke-miterlimit="10" stroke-linecap="round" stroke-linejoin="round"/>
<path d="M62.5979 129.627C61.582 129.861 60.4225 129.396 59.6833 129.006C59.7104 129.372 59.9522 129.676 60.3201 129.943C61.0162 130.449 62.7246 130.513 63.4836 130.26C64.2429 130.006 65.0021 128.931 65.0021 128.931C65.0021 128.931 66.7106 128.931 66.9637 128.425C67.0732 128.205 67.0997 127.713 67.0945 127.225C66.6711 127.543 65.7959 128.159 65.192 128.298C64.3696 128.488 64.2429 129.247 62.5979 129.627Z" fill="white" stroke="#263238" stroke-width="0.4" stroke-miterlimit="10" stroke-linecap="round" stroke-linejoin="round"/>
<path d="M75.8854 123.553C75.8854 123.553 74.9994 124.312 74.9994 125.008C74.9994 125.704 75.0626 126.59 75.0626 126.59C75.0626 126.59 74.5564 128.298 74.9362 128.678C75.3157 129.058 76.1385 129.247 76.7078 129.247C77.2772 129.247 78.2896 129.374 78.2896 129.374C78.2896 129.374 79.8081 130.196 81.1368 130.449C82.4655 130.702 83.8576 130.386 83.984 129.563C84.1104 128.741 83.1615 127.918 82.5919 127.602C82.0225 127.285 81.1365 126.653 80.8834 126.21C80.6304 125.767 79.5548 124.818 79.5548 124.818C79.5548 124.818 79.8079 123.489 79.0486 123.426C78.2893 123.363 77.7199 124.438 77.7199 124.438C77.7199 124.438 76.9607 124.375 76.5177 124.375C76.0747 124.375 75.8216 124.375 75.8216 124.375L75.8854 123.553Z" fill="white" stroke="#263238" stroke-width="0.4" stroke-miterlimit="10" stroke-linecap="round" stroke-linejoin="round"/>
<path d="M83.9844 129.564C84.0081 129.409 83.9937 129.254 83.951 129.102C83.625 129.368 83.1933 129.672 82.7189 129.88C81.7065 130.323 80.3779 129.627 79.4919 129.31C78.6059 128.994 78.2264 128.551 76.8343 128.488C75.8468 128.443 75.1479 127.985 74.8239 127.723C74.7742 128.125 74.7767 128.519 74.936 128.678C75.3155 129.058 76.1382 129.247 76.7076 129.247C77.277 129.247 78.2894 129.374 78.2894 129.374C78.2894 129.374 79.8079 130.196 81.1366 130.449C82.4655 130.703 83.8577 130.386 83.9844 129.564Z" fill="white" stroke="#263238" stroke-width="0.4" stroke-miterlimit="10" stroke-linecap="round" stroke-linejoin="round"/>
<path d="M53.9019 68.2885C54.8656 67.3248 54.8656 65.7623 53.9019 64.7986C52.9382 63.8349 51.3757 63.8349 50.412 64.7986C49.4483 65.7623 49.4483 67.3248 50.412 68.2885C51.3757 69.2522 52.9382 69.2522 53.9019 68.2885Z" fill="#263238" stroke="#263238" stroke-width="0.4" stroke-miterlimit="10" stroke-linecap="round" stroke-linejoin="round"/>
<path d="M54.3722 66.1006L55.0051 65.1514C55.0051 65.1514 55.6379 65.4045 56.1441 65.5312C56.6503 65.6576 57.1565 65.5944 56.9666 65.911C56.7767 66.2273 55.9542 66.4804 55.6379 66.4804C55.3214 66.4801 54.3722 66.1006 54.3722 66.1006Z" fill="white" stroke="#263238" stroke-width="0.2" stroke-miterlimit="10" stroke-linecap="round" stroke-linejoin="round"/>
<path d="M61.4588 78.4389C61.4588 78.4389 61.522 78.8819 61.3324 79.7044C61.1425 80.5269 60.1936 81.6659 59.7507 81.7923C59.3077 81.9187 58.1057 81.6659 57.4096 80.2738C56.7135 78.8816 55.1318 74.1996 55.1318 74.1996C55.1318 74.1996 53.1071 68.9478 53.1071 68.5683C53.1071 68.1888 54.0562 65.7843 54.0562 65.7843C54.0562 65.7843 53.993 65.468 54.3725 65.5312C54.7523 65.5944 55.3849 66.0374 55.3849 66.0374L57.0933 66.7335C57.0933 66.7335 57.5995 67.1133 57.5363 67.6194C57.4731 68.1256 57.22 68.7582 57.22 68.7582C57.22 68.7582 57.1568 69.6442 57.0301 70.1504C56.9037 70.6565 56.2708 72.0487 56.2708 72.0487C56.2708 72.0487 57.2832 74.1998 58.1692 75.4021C59.0549 76.6043 60.89 77.8066 60.89 77.8066" fill="white"/>
<path d="M61.4588 78.4389C61.4588 78.4389 61.522 78.8819 61.3324 79.7044C61.1425 80.5269 60.1936 81.6659 59.7507 81.7923C59.3077 81.9187 58.1057 81.6659 57.4096 80.2738C56.7135 78.8816 55.1318 74.1996 55.1318 74.1996C55.1318 74.1996 53.1071 68.9478 53.1071 68.5683C53.1071 68.1888 54.0562 65.7843 54.0562 65.7843C54.0562 65.7843 53.993 65.468 54.3725 65.5312C54.7523 65.5944 55.3849 66.0374 55.3849 66.0374L57.0933 66.7335C57.0933 66.7335 57.5995 67.1133 57.5363 67.6194C57.4731 68.1256 57.22 68.7582 57.22 68.7582C57.22 68.7582 57.1568 69.6442 57.0301 70.1504C56.9037 70.6565 56.2708 72.0487 56.2708 72.0487C56.2708 72.0487 57.2832 74.1998 58.1692 75.4021C59.0549 76.6043 60.89 77.8066 60.89 77.8066" stroke="#263238" stroke-width="0.3" stroke-miterlimit="10" stroke-linecap="round" stroke-linejoin="round"/>
<path d="M55.1315 65.9739C55.1315 65.9739 54.1191 67.3658 54.1191 68.3782" stroke="#263238" stroke-width="0.2" stroke-miterlimit="10" stroke-linecap="round" stroke-linejoin="round"/>
<path d="M56.1439 66.5436C56.1439 66.5436 55.2579 67.7458 55.1947 68.5051" stroke="#263238" stroke-width="0.2" stroke-miterlimit="10" stroke-linecap="round" stroke-linejoin="round"/>
<path d="M57.2195 66.9863C57.2195 66.9863 56.4602 67.9354 56.0807 68.6947" stroke="#263238" stroke-width="0.2" stroke-miterlimit="10" stroke-linecap="round" stroke-linejoin="round"/>
<path d="M59.8275 70.4351C61.1727 70.2162 62.0857 68.9483 61.8668 67.6031C61.648 66.258 60.38 65.3449 59.0349 65.5638C57.6897 65.7827 56.7767 67.0506 56.9956 68.3957C57.2144 69.7409 58.4823 70.6539 59.8275 70.4351Z" fill="#263238" stroke="#263238" stroke-width="0.4" stroke-miterlimit="10" stroke-linecap="round" stroke-linejoin="round"/>
<path d="M82.2758 59.8575C83.5921 59.8575 84.6591 58.8377 84.6591 57.5797C84.6591 56.3216 83.5921 55.3018 82.2758 55.3018C80.9596 55.3018 79.8926 56.3216 79.8926 57.5797C79.8926 58.8377 80.9596 59.8575 82.2758 59.8575Z" fill="#92E3A9" stroke="#263238" stroke-width="0.4" stroke-miterlimit="10" stroke-linecap="round" stroke-linejoin="round"/>
<path d="M82.5922 55.3863L82.8875 54.0364H83.3514L83.0139 55.3863H82.5922Z" fill="#8C8C8C" stroke="#263238" stroke-width="0.4" stroke-miterlimit="10" stroke-linecap="round" stroke-linejoin="round"/>
<path d="M82.6766 55.0487C82.6766 55.0487 82.508 54.627 81.9595 54.3317C81.4111 54.0364 80.6941 53.91 80.6941 53.91C80.6941 53.91 81.2847 54.6692 81.6642 54.8801C82.0437 55.091 82.6766 55.0487 82.6766 55.0487Z" fill="#92E3A9" stroke="#263238" stroke-width="0.4" stroke-miterlimit="10" stroke-linecap="round" stroke-linejoin="round"/>
<path d="M83.0351 58.6343C83.0351 58.6343 81.0735 61.3551 81.2634 61.9877C81.4533 62.6203 85.8191 70.656 86.3885 71.6684C86.9579 72.6807 87.9702 73.3133 88.9826 73.3133C89.995 73.3133 91.1972 71.9215 91.0705 70.7824C90.9441 69.6434 87.907 66.6062 86.8947 65.5307C85.8823 64.4551 83.2247 61.7975 83.2247 61.7975C83.2247 61.7975 85.7556 58.9503 86.0087 58.3806C86.2618 57.8112 86.4517 57.4315 86.2618 56.9885C86.0719 56.5455 84.8064 54.9005 84.8064 54.9005C84.8064 54.9005 84.4269 54.7106 84.1104 55.0272C83.7941 55.3435 83.6674 55.7233 83.6674 55.7233C83.6674 55.7233 83.098 56.1663 83.098 56.6093C83.0983 57.0525 83.0351 58.6343 83.0351 58.6343Z" fill="white" stroke="#263238" stroke-width="0.3" stroke-miterlimit="10" stroke-linecap="round" stroke-linejoin="round"/>
<path d="M83.6677 55.7238C83.6677 55.7238 83.9468 58.3166 83.9468 58.6859C83.9468 59.0552 83.7356 59.3982 83.7356 59.3982" stroke="#263238" stroke-width="0.2" stroke-miterlimit="10" stroke-linecap="round" stroke-linejoin="round"/>
<path d="M84.1316 54.9132C84.1316 54.9132 84.8175 57.8154 84.8439 58.3428C84.8704 58.8705 84.8704 59.0552 84.8704 59.0552" stroke="#263238" stroke-width="0.2" stroke-miterlimit="10" stroke-linecap="round" stroke-linejoin="round"/>
<path d="M84.8967 54.9659C84.8967 54.9659 85.741 57.5777 85.7937 57.8943C85.8464 58.2109 85.3979 58.6332 85.3452 58.7386" stroke="#263238" stroke-width="0.2" stroke-miterlimit="10" stroke-linecap="round" stroke-linejoin="round"/>
</svg>
