<svg width="133" height="86" viewBox="0 0 133 86" fill="none" xmlns="http://www.w3.org/2000/svg">
<path d="M9.08069 85.9999L50.3782 85.7794L61.3863 85.7761L65.0332 85.7747L76.0622 85.7714L126.45 85.7572C126.45 85.7572 137.975 70.5619 125.664 56.1297C112.9 41.1662 106.42 53.941 96.9939 28.7275C76.3058 -26.6122 -4.74829 10.1293 20.8625 55.2458C30.0841 71.4908 2.71055 62.8563 9.08069 85.9999Z" fill="#EBF3FA"/>
<path d="M60.4273 34.7377C60.4273 34.7377 59.0095 39.4114 58.1806 39.0862C57.3518 38.761 60.1255 33.9955 60.1255 33.9955C60.1255 33.9955 57.2695 29.9969 55.6863 29.3231C55.6863 29.3231 55.923 34.7737 55.1974 34.2486C54.4719 33.7235 53.9696 28.0634 53.9696 28.0634C53.9696 28.0634 50.4226 25.1613 48.5516 27.2149C46.6806 29.2686 47.0808 31.0262 47.5862 31.4951C48.0916 31.9639 51.8576 33.9601 51.5022 34.4067C51.1468 34.8534 48.2079 34.2713 47.0316 33.0508C47.0316 33.0508 46.5459 37.8498 48.6892 38.766C50.8325 39.6821 52.1354 38.728 53.45 39.319C54.7645 39.9099 55.5066 40.7647 54.6944 40.7691C53.8822 40.7735 51.8665 39.3691 50.3854 39.7034C48.9043 40.0377 47.7945 40.1357 49.4823 41.5719C51.1701 43.0082 54.6993 44.6184 56.154 43.491C56.2174 43.4418 56.2779 43.3949 56.3359 43.35C56.2308 43.4514 56.154 43.491 56.154 43.491C56.3951 43.892 56.4023 45.179 56.3694 46.1455C56.3537 46.3043 56.3424 46.5301 56.3374 46.8421C56.3295 46.98 56.3221 47.0925 56.3166 47.1707C56.0961 49.2553 54.2085 52.0306 54.2085 52.0306L54.5553 52.3639C56.9981 49.8624 56.6951 46.5437 56.6951 46.5437C56.6821 44.0364 57.6088 42.3635 57.6088 42.3635C57.6088 42.3635 62.3363 42.2572 62.1082 38.4782C62.1083 38.4782 61.6522 35.9848 60.4273 34.7377Z" fill="#DFEBFD"/>
<path d="M46.4991 52.1658C46.4991 52.1658 53.4541 55.5578 52.7608 56.8505C52.0675 58.1432 45.2756 52.4959 45.2756 52.4959C45.2756 52.4959 38.4067 56.3007 37.0004 58.7582C37.0004 58.7582 45.5383 59.5984 44.5571 60.6757C43.576 61.753 34.652 61.3034 34.652 61.3034C34.652 61.3034 29.3338 66.4948 32.1082 70.0423C34.8828 73.5898 37.709 73.3268 38.5529 72.5995C39.3967 71.8723 43.3541 66.1157 43.9692 66.8022C44.5843 67.4888 43.0148 72.2016 40.8495 73.8648C40.8495 73.8648 48.21 75.7488 50.1199 72.4228C52.0297 69.0968 50.8387 66.7339 52.0553 64.7005C53.2719 62.6672 54.77 61.637 54.5935 62.9767C54.4171 64.3165 51.7759 67.3219 51.962 69.8385C52.148 72.3551 52.0502 74.2065 54.6668 71.7488C57.2834 69.2912 60.5865 63.8375 59.1599 61.1852C59.0977 61.0696 59.0383 60.9593 58.9815 60.8536C59.1156 61.0497 59.1599 61.1852 59.1599 61.1852C59.8385 60.8783 61.8435 61.157 63.3405 61.4293C63.5844 61.491 63.933 61.5607 64.4177 61.6393C64.4177 61.6393 64.4177 61.6393 64.4178 61.6393C64.6306 61.6835 64.804 61.7211 64.9245 61.7477C68.1197 62.5818 72.0138 66.3196 72.0138 66.3196L72.6109 65.823C69.2683 61.2321 64.034 60.9825 64.034 60.9825C60.1281 60.4378 57.7333 58.5329 57.7333 58.5329C57.7333 58.5329 58.635 50.7166 52.701 50.2395C52.701 50.2394 48.7167 50.4286 46.4991 52.1658Z" fill="#CDE0FB"/>
<path d="M99.5798 42.6541C99.7091 38.4911 93.0473 37.7107 93.0473 37.7107C93.0473 37.7107 86.7687 43.0935 85.4756 42.8622C84.1826 42.6309 89.9704 37.1815 89.9704 37.1815C87.6286 36.1827 80.5755 37.2936 80.5755 37.2936C80.5755 37.2936 78.6345 45.2658 77.4366 44.7141C76.2387 44.1624 79.5053 37.7454 79.5053 37.7454C76.956 37.7322 73.9443 39.8507 73.9443 39.8507C69.8644 43.5601 74.7039 48.7594 74.7039 48.7594C74.7039 48.7594 73.9733 51.5072 71.4113 54.1174L71.4112 54.1174C71.4112 54.1174 70.8712 54.5782 70.2051 55.4408L70.8417 55.6409C70.9459 55.4816 71.0536 55.3298 71.1655 55.1867C71.1658 55.1854 71.1665 55.1847 71.1675 55.1841C71.1691 55.182 71.1708 55.1801 71.1724 55.178C71.2461 55.0904 71.3516 54.9661 71.4818 54.8152C71.4819 54.815 71.4821 54.8148 71.4823 54.8146C71.4824 54.8142 71.4828 54.8143 71.4829 54.8139C71.7937 54.4832 72.0111 54.235 72.1562 54.0522C72.1567 54.0517 72.1571 54.0511 72.1574 54.0505C73.1053 53.0037 74.4206 51.6651 75.0804 51.505C75.0804 51.505 75.0402 51.3809 75.0333 51.1616C75.0483 51.2712 75.064 51.3853 75.0804 51.505C75.4568 54.2505 80.7869 56.3638 84.0129 56.6773C87.239 56.9907 86.1772 55.6936 84.9671 53.7498C83.7569 51.8059 80.2199 51.1063 79.3744 50.2275C78.5289 49.3487 80.1744 49.2529 82.1507 50.0492C84.127 50.8455 84.5207 53.2463 87.695 54.5943C90.8692 55.9424 95.2386 50.3973 95.2386 50.3973C92.7672 50.4087 89.0999 47.8547 89.182 47.0048C89.2641 46.1549 95.2341 48.119 96.2396 48.1723C97.245 48.2256 99.4504 46.817 99.5798 42.6541Z" fill="#CDE0FB"/>
<path d="M77.9329 25.8436C78.4726 27.3072 83.0991 31.1509 83.0991 31.1509C83.0991 31.1509 84.6069 29.8903 86.0034 28.5325C87.0486 27.5276 88.0253 26.4695 88.2566 25.8436C88.8049 24.3891 88.2224 22.3084 86.2005 21.9559C84.1872 21.6031 83.0991 23.772 83.0991 23.772C83.0991 23.772 82.011 21.6031 79.9892 21.9559C79.638 22.0176 79.3295 22.1321 79.0639 22.291C77.8044 23.0137 77.4874 24.6448 77.9329 25.8436Z" fill="#F99746"/>
<path d="M61.8596 12.6513C61.7638 12.3519 60.6202 9.15913 55.7462 10.4247C55.7462 10.4247 58.2013 10.0097 58.913 10.9613C58.913 10.9613 56.9243 10.1156 55.7282 10.9338C54.5321 11.7519 54.4258 14.3544 54.6373 15.137C54.8489 15.9197 56.2867 18.2177 57.182 18.1831C57.5212 18.17 57.8794 18.0399 58.194 17.8834C58.0721 18.3065 57.9649 18.7653 57.8803 19.267C57.0975 23.9079 60.2005 27.2925 61.7074 26.3683C62.6739 25.7755 63.4856 27.5234 63.4856 27.5234L71.2662 16.0385C71.2662 16.0385 65.3029 9.20403 61.8596 12.6513Z" fill="#2C3A64"/>
<path d="M72.7635 57.2533C72.7242 58.4885 74.854 62.5196 76.0759 66.003C76.0759 66.003 76.0759 66.003 76.0766 66.0037C76.8646 68.2518 77.6435 70.3363 78.0623 71.4421C78.3234 72.1318 78.5289 72.8423 78.6723 73.567C79.0362 75.407 79.6292 79.2621 79.8249 85.5276C79.8269 85.6111 79.8295 85.6953 79.8321 85.7795L68.824 85.7761L68.7801 85.5276L68.5386 84.1672L68.5373 84.1598L68.771 78.2437L68.0766 77.1439L66.0862 77.9164L65.2052 85.5276L65.1771 85.7748L54.1481 85.7714C54.1481 85.6899 54.1481 85.6084 54.1474 85.5276C54.1442 83.5442 54.1421 81.8523 54.1415 80.4104C54.1383 75.4898 54.997 70.609 56.6797 66.0029C57.9592 62.5021 59.8531 58.8394 59.4552 57.1186C59.3629 56.7205 58.0273 53.232 57.3957 49.9191C57.3296 49.5736 57.2642 49.2261 57.1993 48.8799C57.183 48.9473 57.1673 49.0153 57.1516 49.0833C56.1312 53.4678 54.8013 59.1562 54.5506 60.0977C54.133 61.6622 50.2872 73.7023 50.2872 73.7023H48.4153C48.4153 73.7023 49.5855 61.9033 50.6386 58.8935C51.6911 55.8836 52.2094 44.6369 53.2122 39.75C53.7338 37.2109 54.5552 36.1023 55.9055 35.3736C55.9055 35.3736 55.9055 35.3736 55.9061 35.3729V35.3722C56.5979 34.9991 57.4285 34.7257 58.4286 34.4104C59.0601 34.211 59.7592 33.9955 60.5341 33.7282C61.652 33.3423 62.6913 32.7516 63.0029 31.5804C63.2804 30.5371 63.4807 29.1632 63.4912 27.5159V27.5152C63.4937 27.1818 63.4879 26.8369 63.4735 26.482C63.4735 26.482 63.4735 26.482 63.4735 26.4813V26.48L63.8046 26.5325L64.122 26.5844L69.364 27.4444C69.364 27.4444 69.364 27.4444 69.364 27.4451C69.364 27.4451 69.362 27.5111 69.3587 27.6303C69.358 27.6485 69.3574 27.6687 69.3567 27.6902V27.6997C69.3561 27.7185 69.3554 27.7387 69.3554 27.7603C69.3541 27.798 69.3535 27.8398 69.3522 27.8842C69.3515 27.9145 69.3509 27.9461 69.3503 27.9792C69.3483 28.0862 69.3457 28.2068 69.3437 28.3395C69.343 28.3738 69.3424 28.4088 69.3424 28.4445C69.3424 28.462 69.3417 28.4795 69.3417 28.4977C69.3411 28.5516 69.3404 28.6062 69.3398 28.6627V28.6708C69.3385 28.7739 69.3378 28.881 69.3371 28.9914C69.3358 29.2238 69.3358 29.4723 69.3378 29.7295C69.3385 29.8407 69.3398 29.9531 69.3411 30.067C69.3417 30.0926 69.3424 30.1181 69.3424 30.1444C69.3443 30.2542 69.3463 30.3653 69.3489 30.4764C69.3522 30.6246 69.3561 30.7734 69.3613 30.9209C69.3941 31.8854 69.2579 32.5987 69.5125 33.0903C69.7914 33.6297 71.264 34.013 72.88 34.7121C73.7053 35.0697 74.5686 35.5088 75.3291 36.0941C76.2853 36.8289 77.0793 37.794 77.4321 39.1133C78.7194 43.9295 79.5677 55.8834 80.6202 58.8933C81.6732 61.9032 82.8435 73.7022 82.8435 73.7022H80.9716C80.9716 73.7022 77.1257 61.6621 76.7081 60.0975C76.5792 59.6139 76.1656 57.8756 75.6551 55.705C75.1891 53.7229 74.6419 51.3805 74.1583 49.3034C74.1124 49.1061 74.0672 48.9108 74.0221 48.7181C73.9972 49.263 73.973 49.8072 73.9494 50.3419C73.8041 53.6025 72.791 56.3832 72.7635 57.2533Z" fill="#FFB27D"/>
<path d="M69.3643 27.4453C69.3643 27.4453 69.3039 29.2372 69.3616 30.9208C66.2703 30.9506 64.5323 28.1149 63.8049 26.5341L69.3643 27.4453Z" fill="#ED985F"/>
<path d="M70.4538 28.9995C70.4538 28.9995 63.1522 29.4058 62.9763 24.7229C62.8004 20.04 61.7395 16.9385 66.3939 16.4811C71.0484 16.0237 72.0218 17.7746 72.45 19.3229C72.8782 20.8714 72.3485 28.7732 70.4538 28.9995Z" fill="#FFB27D"/>
<path d="M72.1376 16.7275C70.9569 15.3625 70.1147 15.7047 69.652 16.1466C65.5761 14.0417 63.1247 17.4813 63.1247 17.4813C62.7587 20.8604 60.4741 22.8763 60.4741 22.8763C60.4741 22.8763 61.8366 23.6713 64.877 22.7404C65.8057 22.456 66.6179 21.7378 67.2993 20.8785C66.135 23.0695 64.5003 24.6788 64.5003 24.6788C68.1037 22.7928 69.3848 17.4876 69.5112 16.927C69.9723 17.3219 70.8841 18.1833 71.1841 19.0504C71.5919 20.2289 71.8453 22.6776 72.5376 22.5672C72.5376 22.5672 73.9084 18.7746 72.1376 16.7275Z" fill="#2C3A64"/>
<path d="M48.4547 73.314C48.4547 73.314 46.8532 75.9905 46.7913 76.7769C46.7294 77.5633 46.9539 80.2517 46.9539 80.2517C46.9539 80.2517 47.5503 80.0821 47.6742 78.8194C47.7981 77.5566 49.6805 76.7984 50.0593 75.9702C50.4381 75.1422 50.2899 73.4228 50.2899 73.4228L48.4547 73.314Z" fill="#FFB27D"/>
<path d="M50.3184 73.6042C50.3184 73.6042 50.8359 75.7528 50.6124 76.4753C50.3889 77.1978 50.147 78.3424 49.7959 78.2274C49.4448 78.1124 49.1428 75.9419 49.1428 75.9419L50.3184 73.6042Z" fill="#FFB27D"/>
<path d="M47.1859 76.8375C47.1673 76.9495 46.1501 79.9418 46.1501 79.9418C46.1501 79.9418 46.9899 79.9478 47.0447 79.5324C47.0995 79.117 47.1859 76.8375 47.1859 76.8375Z" fill="#FFB27D"/>
<path d="M82.7981 73.6043C82.7981 73.6043 84.3996 76.2808 84.4616 77.0672C84.5235 77.8536 84.299 80.542 84.299 80.542C84.299 80.542 83.7026 80.3724 83.5786 79.1096C83.4548 77.8469 81.5723 77.0887 81.1936 76.2606C80.8148 75.4325 80.9404 73.6042 80.9404 73.6042L82.7981 73.6043Z" fill="#FFB27D"/>
<path d="M80.9342 73.8945C80.9342 73.8945 80.4168 76.043 80.6402 76.7655C80.8637 77.4881 81.1057 78.6326 81.4568 78.5176C81.8079 78.4027 82.1099 76.2321 82.1099 76.2321L80.9342 73.8945Z" fill="#FFB27D"/>
<path d="M84.0669 77.1278C84.0855 77.2397 85.1027 80.2321 85.1027 80.2321C85.1027 80.2321 84.2629 80.2381 84.208 79.8227C84.1532 79.4072 84.0669 77.1278 84.0669 77.1278Z" fill="#FFB27D"/>
<path d="M56.6798 66.0029C56.6798 66.0029 64.2318 68.3939 76.0758 66.0029C76.0758 66.0029 79.4419 71.0757 80.834 85.5274H68.7569L67.6364 78.5582L66.2619 78.5807L65.4547 85.5274H53.0693C53.0693 85.5274 53.4183 72.5357 56.6798 66.0029Z" fill="#F99746"/>
<path d="M74.2844 42.4601C74.4212 43.962 74.8864 45.3865 74.1581 49.3036C74.0972 49.6315 74.0278 49.9777 73.9493 50.342C73.9493 50.342 66.7085 52.77 57.5298 50.342C57.5298 50.342 57.4774 50.1857 57.3956 49.9191C57.3295 49.7042 57.2444 49.418 57.1514 49.0833C56.7764 47.7383 56.2744 45.6181 56.4007 44.2772C56.5971 42.1893 57.9617 38.054 55.9053 35.3735C55.9053 35.3735 55.9053 35.3735 55.9059 35.3729V35.3722C56.5978 34.999 57.4283 34.7257 58.4284 34.4104C58.4284 34.4104 60.2557 40.1756 62.7488 40.4786C65.2424 40.7817 67.4376 40.6052 67.4376 40.6052C67.4376 40.6052 70.3855 40.7076 71.4981 38.6197C72.3228 37.0721 72.8347 34.906 72.8799 34.7121C73.7052 35.0697 74.5684 35.5088 75.329 36.0941C75.0135 36.8761 74.054 39.9412 74.2844 42.4601Z" fill="white"/>
<path d="M80.5165 35.9273C80.5146 35.9208 80.5125 35.9135 80.5105 35.9071C80.5159 35.9027 80.5186 35.9092 80.5165 35.9273Z" fill="white"/>
<path d="M50.7369 18.662C50.6397 18.6821 49.6534 16.3805 47.1903 17.3277C47.1903 17.3277 46.8014 14.7929 43.9307 14.9404C41.6001 15.0601 41.3644 17.6859 41.3644 17.6859C41.3644 17.6859 39.3123 17.2414 38.4858 18.6621L50.7369 18.662Z" fill="white"/>
<path d="M42.3272 20.5655C42.3272 17.6238 40.1289 15.2108 37.3306 14.9702C37.9159 14.7634 38.5438 14.651 39.1973 14.651C42.3716 14.651 44.945 17.299 44.945 20.5655C44.945 23.832 42.3717 26.48 39.1973 26.48C38.5438 26.48 37.9158 26.3675 37.3306 26.1608C40.1289 25.9202 42.3272 23.5072 42.3272 20.5655Z" fill="#AFCDFB"/>
<path d="M45.2204 24.6784C45.0427 24.7152 43.2399 20.5085 38.7382 22.2397C38.7382 22.2397 38.0273 17.6068 32.7804 17.8763C28.5205 18.0952 28.0897 22.8945 28.0897 22.8945C28.0897 22.8945 24.3389 22.082 22.8284 24.6787L45.2204 24.6784Z" fill="white"/>
<path d="M61.4653 55.1043C59.5977 57.2556 59.5301 60.3672 61.2605 62.1897C61.3703 62.3053 61.5607 62.2917 61.6775 62.1571C61.7933 62.0238 61.8004 61.8301 61.6923 61.715C60.183 60.1084 60.2475 57.3796 61.8866 55.4916C63.5944 53.5244 66.3754 53.203 68.0859 54.7754L68.5065 54.2909C66.564 52.5051 63.4049 52.8701 61.4653 55.1043Z" fill="white"/>
<path d="M67.5476 55.1554L68.8872 55.2454C68.9946 55.2526 69.0864 55.1418 69.0617 55.0346L68.7647 53.7448C68.7409 53.6413 68.6135 53.6182 68.5391 53.7039L67.4759 54.9285C67.3992 55.017 67.4407 55.1482 67.5476 55.1554Z" fill="white"/>
<path d="M70.51 62.9979C72.3776 60.8467 72.4452 57.735 70.7148 55.9126C70.605 55.797 70.4146 55.8105 70.2978 55.9452C70.1821 56.0785 70.1749 56.2721 70.283 56.3872C71.7923 57.9938 71.7278 60.7226 70.0887 62.6106C68.3809 64.5779 65.5999 64.8992 63.8895 63.3268L63.4688 63.8114C65.4113 65.5972 68.5703 65.2322 70.51 62.9979Z" fill="white"/>
<path d="M64.4276 62.9467L63.088 62.8568C62.9806 62.8495 62.8888 62.9604 62.9135 63.0676L63.2104 64.3574C63.2343 64.4609 63.3617 64.484 63.4361 64.3983L64.4993 63.1736C64.576 63.0852 64.5345 62.9539 64.4276 62.9467Z" fill="white"/>
<path d="M27.6507 80.5926C27.6507 78.7735 26.6725 77.1901 25.2283 76.3672V75.7651H22.9594C20.3684 75.7651 18.2681 77.9265 18.2681 80.5926C18.2681 83.2587 20.3684 85.42 22.9594 85.42H25.2283V84.8181C26.6725 83.9951 27.6507 82.4117 27.6507 80.5926Z" fill="#F99746"/>
<path d="M25.2284 85.42C27.8194 85.42 29.9197 83.2587 29.9197 80.5926C29.9197 77.9265 27.8194 75.7651 25.2284 75.7651C22.6375 75.7651 20.5371 77.9265 20.5371 80.5926C20.5371 83.2587 22.6375 85.42 25.2284 85.42Z" fill="#EF7E29"/>
<path d="M39.7817 82.5596H25.1765C24.1207 82.5596 23.2649 81.679 23.2649 80.5926C23.2649 79.5062 24.1207 78.6255 25.1765 78.6255H39.7817C40.8374 78.6255 41.6932 79.5062 41.6932 80.5926C41.6932 81.679 40.8374 82.5596 39.7817 82.5596Z" fill="#EA6C2D"/>
<path d="M39.8475 80.5926C39.8475 78.7735 38.8693 77.1901 37.4251 76.3672V75.7651H35.1562C32.5652 75.7651 30.4648 77.9265 30.4648 80.5926C30.4648 83.2587 32.5652 85.42 35.1562 85.42H37.4251V84.8181C38.8693 83.9951 39.8475 82.4117 39.8475 80.5926Z" fill="#F99746"/>
<path d="M37.425 85.42C40.0159 85.42 42.1163 83.2587 42.1163 80.5926C42.1163 77.9265 40.0159 75.7651 37.425 75.7651C34.834 75.7651 32.7336 77.9265 32.7336 80.5926C32.7336 83.2587 34.834 85.42 37.425 85.42Z" fill="#EF7E29"/>
<path d="M37.8375 82.665C38.9502 82.5516 39.7629 81.5315 39.6528 80.3865C39.5427 79.2415 38.5513 78.4052 37.4386 78.5185C36.3259 78.6318 35.5131 79.6519 35.6233 80.797C35.7334 81.942 36.7247 82.7783 37.8375 82.665Z" fill="#F99746"/>
<path d="M79.7913 27.629L79.3143 25.0511L79.1061 26.1523H76.2942V25.9781H78.9666L79.316 24.1298L79.8149 26.8256L80.0394 25.9155H80.5249L80.8561 24.3285L81.2801 26.7483L81.503 25.8217H82.5058L82.8749 24.5765L83.1978 26.7569L83.4574 25.8217H84.2873L84.5309 24.4544L85.0546 26.6056L85.2444 25.8217H86.3175L86.3736 26.4748L86.9646 24.0971L87.353 25.828H89.0983V26.0021H87.2184L86.9563 24.8337L86.2923 27.5049L86.1626 25.9959H85.3766L85.0551 27.3241L84.5565 25.2762L84.4283 25.9959H83.5851L83.1475 27.5726L82.8197 25.3596L82.6311 25.9959H81.6354L81.2541 27.5813L80.8416 25.2272L80.6616 26.0896H80.1711L79.7913 27.629Z" fill="white"/>
<path d="M38.2695 46.3544H34.2682L32.2676 42.7886L34.2682 39.2228H38.2695L40.2701 42.7886L38.2695 46.3544ZM34.4193 46.0849H38.1183L39.9678 42.7886L38.1183 39.4922H34.4193L32.5699 42.7886L34.4193 46.0849Z" fill="#78ACEA"/>
<path d="M26.8866 53.1492L26.6599 53.0145L28.5471 49.6507L26.6976 46.3544H22.9231V46.0849H26.8488L28.8494 49.6507L26.8866 53.1492Z" fill="#78ACEA"/>
<path d="M26.8489 46.3544H22.8476L20.8848 42.856L21.1115 42.7213L22.9988 46.0849H26.6978L28.5472 42.7886L26.6978 39.4922H22.9232V39.2228H26.8489L28.8495 42.7886L26.8489 46.3544Z" fill="#78ACEA"/>
<path d="M39.9673 49.718L38.0044 46.2197L40.005 42.6539H44.0063L45.9691 46.1523L45.7425 46.287L43.8552 42.9233H40.1562L38.3067 46.2197L40.1939 49.5834L39.9673 49.718Z" fill="#78ACEA"/>
<path d="M32.5601 49.7854H28.6343V49.516H32.4089L34.2583 46.2197L32.4089 42.9233H28.7099L26.8226 46.287L26.5959 46.1523L28.5588 42.6539H32.5601L34.5606 46.2197L32.5601 49.7854Z" fill="#78ACEA"/>
<path d="M43.9308 42.9233H40.005L38.0044 39.3575L40.005 35.7917H43.9308V36.0611H40.1562L38.3067 39.3575L40.1562 42.6539H43.9308V42.9233Z" fill="#78ACEA"/>
<path d="M32.1262 42.7116C32.1262 42.5194 32.2776 42.3636 32.4644 42.3636C32.6512 42.3636 32.8025 42.5194 32.8025 42.7116C32.8025 42.9038 32.6512 43.0596 32.4644 43.0596C32.2776 43.0596 32.1262 42.9038 32.1262 42.7116Z" fill="#78ACEA"/>
<path d="M28.3083 42.7116C28.3083 42.5194 28.4597 42.3636 28.6465 42.3636C28.8333 42.3636 28.9847 42.5194 28.9847 42.7116C28.9847 42.9038 28.8333 43.0596 28.6465 43.0596C28.4597 43.0596 28.3083 42.9038 28.3083 42.7116Z" fill="#78ACEA"/>
<path d="M28.3083 49.617C28.3083 49.4249 28.4597 49.2691 28.6465 49.2691C28.8333 49.2691 28.9847 49.4249 28.9847 49.617C28.9847 49.8092 28.8333 49.965 28.6465 49.965C28.4597 49.965 28.3083 49.8092 28.3083 49.617Z" fill="#78ACEA"/>
<path d="M26.3884 53.0161C26.3884 52.8239 26.5399 52.6681 26.7266 52.6681C26.9134 52.6681 27.0648 52.8239 27.0648 53.0161C27.0648 53.2082 26.9134 53.3641 26.7266 53.3641C26.5399 53.3641 26.3884 53.2083 26.3884 53.0161Z" fill="#78ACEA"/>
<path d="M32.4644 49.965C32.6511 49.965 32.8025 49.8092 32.8025 49.617C32.8025 49.4249 32.6511 49.2691 32.4644 49.2691C32.2776 49.2691 32.1262 49.4249 32.1262 49.617C32.1262 49.8092 32.2776 49.965 32.4644 49.965Z" fill="#78ACEA"/>
<path d="M34.0244 46.1644C34.0244 45.9722 34.1758 45.8164 34.3626 45.8164C34.5493 45.8164 34.7007 45.9722 34.7007 46.1644C34.7007 46.3565 34.5493 46.5123 34.3626 46.5123C34.1758 46.5123 34.0244 46.3565 34.0244 46.1644Z" fill="#78ACEA"/>
<path d="M37.8096 46.1644C37.8096 45.9722 37.961 45.8164 38.1477 45.8164C38.3345 45.8164 38.4859 45.9722 38.4859 46.1644C38.4859 46.3565 38.3345 46.5123 38.1477 46.5123C37.961 46.5123 37.8096 46.3565 37.8096 46.1644Z" fill="#78ACEA"/>
<path d="M26.8321 46.5123C27.0188 46.5123 27.1702 46.3566 27.1702 46.1644C27.1702 45.9722 27.0188 45.8164 26.8321 45.8164C26.6453 45.8164 26.4939 45.9722 26.4939 46.1644C26.4939 46.3566 26.6453 46.5123 26.8321 46.5123Z" fill="#78ACEA"/>
<path d="M22.585 46.1644C22.585 45.9722 22.7364 45.8164 22.9231 45.8164C23.1099 45.8164 23.2613 45.9722 23.2613 46.1644C23.2613 46.3565 23.1099 46.5123 22.9231 46.5123C22.7363 46.5123 22.585 46.3565 22.585 46.1644Z" fill="#78ACEA"/>
<path d="M20.7161 42.8912C20.7161 42.699 20.8675 42.5432 21.0542 42.5432C21.241 42.5432 21.3924 42.699 21.3924 42.8912C21.3924 43.0833 21.241 43.2391 21.0542 43.2391C20.8675 43.2391 20.7161 43.0834 20.7161 42.8912Z" fill="#78ACEA"/>
<path d="M22.7014 39.3576C22.7014 39.1654 22.8528 39.0096 23.0396 39.0096C23.2264 39.0096 23.3778 39.1654 23.3778 39.3576C23.3778 39.5498 23.2264 39.7055 23.0396 39.7055C22.8528 39.7055 22.7014 39.5498 22.7014 39.3576Z" fill="#78ACEA"/>
<path d="M37.8096 39.3576C37.8096 39.1654 37.961 39.0096 38.1477 39.0096C38.3345 39.0096 38.4859 39.1654 38.4859 39.3576C38.4859 39.5498 38.3345 39.7055 38.1477 39.7055C37.961 39.7055 37.8096 39.5498 37.8096 39.3576Z" fill="#78ACEA"/>
<path d="M34.0244 39.3576C34.0244 39.1654 34.1758 39.0096 34.3626 39.0096C34.5493 39.0096 34.7007 39.1654 34.7007 39.3576C34.7007 39.5498 34.5493 39.7055 34.3626 39.7055C34.1758 39.7055 34.0244 39.5498 34.0244 39.3576Z" fill="#78ACEA"/>
<path d="M39.7185 42.7886C39.7185 42.5964 39.8699 42.4406 40.0567 42.4406C40.2434 42.4406 40.3948 42.5964 40.3948 42.7886C40.3948 42.9808 40.2434 43.1365 40.0567 43.1365C39.8699 43.1365 39.7185 42.9808 39.7185 42.7886Z" fill="#78ACEA"/>
<path d="M43.5925 42.7886C43.5925 42.5964 43.744 42.4406 43.9307 42.4406C44.1175 42.4406 44.2688 42.5964 44.2688 42.7886C44.2688 42.9808 44.1175 43.1365 43.9307 43.1365C43.7439 43.1366 43.5925 42.9808 43.5925 42.7886Z" fill="#78ACEA"/>
<path d="M45.5264 46.186C45.5264 45.9939 45.6778 45.8381 45.8646 45.8381C46.0513 45.8381 46.2027 45.9939 46.2027 46.186C46.2027 46.3782 46.0513 46.534 45.8646 46.534C45.6778 46.534 45.5264 46.3782 45.5264 46.186Z" fill="#78ACEA"/>
<path d="M43.5925 35.9205C43.5925 35.7284 43.744 35.5725 43.9307 35.5725C44.1175 35.5725 44.2688 35.7284 44.2688 35.9205C44.2688 36.1127 44.1175 36.2685 43.9307 36.2685C43.7439 36.2685 43.5925 36.1127 43.5925 35.9205Z" fill="#78ACEA"/>
<path d="M40.0567 49.965C40.2434 49.965 40.3948 49.8092 40.3948 49.617C40.3948 49.4249 40.2434 49.2691 40.0567 49.2691C39.8699 49.2691 39.7185 49.4249 39.7185 49.617C39.7185 49.8092 39.8699 49.965 40.0567 49.965Z" fill="#78ACEA"/>
<path d="M105.42 53.7644C105.374 53.7392 104.297 53.1321 103.22 51.964C101.788 50.4103 101.06 48.6036 101.115 46.7393C101.192 44.1119 102.288 42.5522 103.194 41.7064C104.322 40.6527 105.791 40.1045 107.223 40.2029C109.969 40.3912 109.88 43.4046 109.879 43.435L109.552 43.4212C109.556 43.3077 109.626 40.7052 107.202 40.5389C105.858 40.447 104.477 40.9631 103.414 41.9557C102.555 42.7577 101.516 44.2403 101.442 46.7495C101.316 51.0435 105.533 53.4446 105.575 53.4683L105.42 53.7644ZM109.716 43.4281L109.552 43.4214C109.552 43.4213 109.552 43.4212 109.552 43.4212L109.716 43.4281Z" fill="#EF7E29"/>
<path d="M117.975 54.9344V83.1494C117.975 84.4632 116.94 85.5275 115.664 85.5275H104.186C102.679 85.5275 101.456 84.2694 101.456 82.7189V55.0234C101.456 52.515 103.037 50.3863 105.228 49.6348C106.304 49.2663 107.031 48.2321 107.093 47.0677L107.142 46.0939H112.289L112.363 47.0454C112.457 48.2385 113.226 49.26 114.325 49.6523C116.45 50.4116 117.975 52.4896 117.975 54.9344Z" fill="white"/>
<path opacity="0.5" d="M117.975 54.9344V83.1494C117.975 84.4632 116.941 85.5275 115.664 85.5275H107.474C105.967 85.5275 104.745 84.2694 104.745 82.7189V55.0234C104.745 52.515 106.325 50.3863 108.518 49.6348C109.592 49.2663 110.321 48.2321 110.381 47.0677L110.432 46.0939H112.289L112.363 47.0454C112.457 48.2385 113.226 49.26 114.325 49.6523C116.45 50.4116 117.975 52.4896 117.975 54.9344Z" fill="#AFCDFB"/>
<path d="M117.589 58.2942V82.5806C117.589 83.8325 116.602 84.8475 115.386 84.8475H113.729C112.34 84.8475 111.594 84.5251 110.822 83.8896C110.051 83.2542 108.352 83.359 107.786 84.1009C107.219 84.8428 105.598 84.8475 105.598 84.8475H104.444C103.008 84.8475 101.842 83.6481 101.842 82.1692V58.1162C103.289 57.8128 105.445 57.646 108.249 58.2068C111.554 58.8677 115.188 58.612 117.589 58.2942Z" fill="#AFCDFB"/>
<path d="M112.649 46.5766H106.782V44.5732C106.782 43.8331 107.365 43.2332 108.085 43.2332H111.293C112.042 43.2332 112.649 43.858 112.649 44.6288V46.5766Z" fill="#F99746"/>
<path d="M117.975 54.4486H101.456V79.7705H117.975V54.4486Z" fill="#F99746"/>
<path d="M116.619 54.4486H104.745V79.7705H116.619V54.4486Z" fill="#EF7E29"/>
<path d="M112.732 46.9712H106.667C106.295 46.9712 105.991 46.658 105.991 46.2752C105.991 45.8925 106.295 45.5793 106.667 45.5793H112.732C113.104 45.5793 113.408 45.8925 113.408 46.2752C113.408 46.658 113.104 46.9712 112.732 46.9712Z" fill="#EF7E29"/>
<path d="M103 84.0182C103 84.0182 102.195 84.9717 100.174 85.2891C100.173 85.2891 100.173 85.2891 100.173 85.2891C99.3236 85.422 98.26 85.4433 96.9511 85.2337C92.5254 85.9419 90.9013 84.0182 90.9013 84.0182C86.364 80.2989 86.3125 72.4908 90.9013 70.7237C92.2432 70.207 93.4183 70.2901 94.3757 70.6082C96.0522 71.1661 97.8501 71.1661 99.5258 70.6082C100.483 70.2901 101.658 70.207 103 70.7237C103.624 70.9635 104.161 71.3157 104.614 71.7541L104.667 71.8055C107.485 74.6147 106.897 80.8243 103 84.0182Z" fill="#95C38B"/>
<path d="M103 84.0182C103 84.0182 102.195 84.9717 100.174 85.2891C100.173 85.2891 100.173 85.2891 100.172 85.2891C97.8354 85.4908 98.8597 84.5325 96.3227 84.5325C93.785 84.5325 92.2788 83.6735 90.7023 79.6772C89.1259 75.681 90.4013 71.9107 92.9006 71.4754C95.3999 71.0402 96.6611 73.0713 99.8217 70.9611C102.006 69.5028 104.614 71.754 104.614 71.754L104.667 71.8054C107.485 74.6147 106.897 80.8243 103 84.0182Z" fill="#A8D29F"/>
<path d="M97.2534 67.8333C96.3261 67.2649 95.3877 68.0633 94.2986 68.5016C93.2088 68.9405 91.1125 68.9315 91.1125 68.9315C91.1125 68.9315 91.9748 67.6544 93.388 66.3856C94.8012 65.1168 97.2534 67.8333 97.2534 67.8333Z" fill="#A8D29F"/>
<path d="M97.2534 67.833C96.382 67.0969 94.77 66.6748 93.9835 67.0059C93.1971 67.3372 91.1125 68.9312 91.1125 68.9312C91.1125 68.9312 91.9748 67.6541 93.388 66.3852C94.8012 65.1164 97.2534 67.833 97.2534 67.833Z" fill="#82B378"/>
<path d="M96.8815 71.7442C96.2875 70.3936 96.6085 68.7182 96.9825 67.5507C97.2802 66.6215 97.8509 65.367 98.1313 64.7707C98.1905 64.6448 98.3683 64.6575 98.4109 64.7904L98.524 65.1423C98.6371 65.4949 98.5957 65.8807 98.4089 66.1984C97.8349 67.1751 96.6817 69.458 97.2011 71.3373C97.2595 71.5488 96.9869 71.986 96.8815 71.7442Z" fill="#558949"/>
<path d="M102.308 71.816C102.308 71.816 104.133 72.381 104.18 73.8007C104.227 75.2203 102.905 75.0885 102.231 74.3636C101.557 73.6387 101.231 71.7668 102.308 71.816Z" fill="#D1F2C9"/>
<path d="M132.844 85.917H0.156128C0.0702582 85.917 0 85.8447 0 85.7564V85.6879C0 85.5996 0.0702582 85.5273 0.156128 85.5273H132.844C132.93 85.5273 133 85.5995 133 85.6879V85.7564C133 85.8447 132.93 85.917 132.844 85.917Z" fill="#2E3552"/>
<path d="M56.8145 65.6391C56.8145 65.6391 55.7249 67.8945 55.8559 67.9394C55.9868 67.9843 69.4259 70.9028 76.5382 67.1761L75.8012 65.2498C75.8012 65.2498 68.4596 68.5518 56.8145 65.6391Z" fill="#EF7E29"/>
<path d="M68.8972 45.2669C62.3076 43.7433 55.8236 47.4267 54.0739 53.5404C53.9629 53.9282 54.2111 54.3371 54.6235 54.4324C55.0318 54.5269 55.4387 54.3043 55.5505 53.9209C57.1119 48.5671 62.8042 45.3486 68.5874 46.6858C74.6135 48.0791 78.4926 53.8995 77.2346 59.6605L78.7189 60.0036C80.1475 53.4608 75.7411 46.8493 68.8972 45.2669Z" fill="#95C38B"/>
<path d="M75.8296 58.9258L77.1942 62.031C77.3036 62.28 77.638 62.3485 77.8301 62.1613L80.1418 59.908C80.3274 59.7271 80.2274 59.4139 79.9648 59.3531L76.2135 58.4858C75.9428 58.4233 75.7206 58.6779 75.8296 58.9258Z" fill="#95C38B"/>
<path d="M63.4939 73.4435C70.0835 74.967 76.5675 71.2837 78.3173 65.1699C78.4283 64.7821 78.1801 64.3732 77.7676 64.2779C77.3593 64.1835 76.9524 64.4061 76.8406 64.7894C75.2793 70.1432 69.5869 73.3616 63.8037 72.0245C57.7777 70.6312 53.8985 64.8109 55.1565 59.0499L53.6722 58.7067C52.2436 65.2495 56.65 71.8611 63.4939 73.4435Z" fill="#A8D29F"/>
<path d="M56.5615 59.7847L55.1968 56.6794C55.0874 56.4305 54.7529 56.362 54.5609 56.5492L52.2493 58.8025C52.0637 58.9834 52.1636 59.2965 52.4263 59.3573L56.1775 60.2247C56.4482 60.2872 56.6704 60.0326 56.5615 59.7847Z" fill="#A8D29F"/>
<path d="M66.9517 61.4009C66.9517 61.6705 66.832 61.8892 66.6843 61.8892C66.5367 61.8892 66.417 61.6706 66.417 61.4009C66.417 61.1312 66.5367 60.9126 66.6843 60.9126C66.832 60.9126 66.9517 61.1312 66.9517 61.4009Z" fill="#ED985F"/>
</svg>
