<svg width="139" height="30" viewBox="0 0 139 30" fill="none" xmlns="http://www.w3.org/2000/svg">
<g clip-path="url(#clip0_18_1415)">
<path d="M78.5058 29.9997C78.5058 29.9997 78.502 29.9997 78.4935 29.9997C77.9924 29.9997 62.144 29.919 63.5941 20.9424C63.6036 20.8799 63.614 20.8174 63.6254 20.754C63.6472 20.6349 63.6728 20.5138 63.7013 20.3908C63.7554 20.1583 63.8105 19.9267 63.8664 19.6942C63.9025 19.5462 63.9386 19.3982 63.9756 19.2512C64.0097 19.1147 64.0439 18.9783 64.079 18.8409C64.1122 18.7112 64.1454 18.5815 64.1796 18.4527C64.1806 18.4479 64.1825 18.444 64.1834 18.4392C64.247 18.1971 64.3125 17.955 64.3808 17.7138C64.3893 17.6811 64.3979 17.6484 64.4074 17.6158C64.9018 15.8487 65.4873 14.1075 66.2048 12.4221C66.9877 10.5859 67.9737 8.93506 69.1192 7.30827C70.7838 4.94544 72.751 2.35968 75.2536 0.855885C76.2197 0.274546 77.368 -0.0905927 78.5001 0.0189489C79.6323 -0.0905927 80.7796 0.274546 81.7457 0.855885C84.2483 2.35968 86.2156 4.94544 87.8801 7.30827C89.0256 8.93506 90.0116 10.5859 90.7936 12.4221C91.6818 14.5044 92.3661 16.6722 92.9269 18.8697C92.9858 19.0975 93.0427 19.3261 93.0987 19.5548C93.1006 19.5596 93.1015 19.5644 93.1025 19.5692C93.1348 19.7019 93.167 19.8345 93.1983 19.9671C93.2126 20.0276 93.2278 20.0872 93.241 20.1477C93.261 20.2284 93.279 20.3101 93.298 20.3908C95.4978 29.9161 79.0173 29.9997 78.5058 29.9997Z" fill="url(#paint0_radial_18_1415)"/>
<circle cx="82.5001" cy="8.00006" r="2" fill="#D7D9FF"/>
<path d="M78.5055 29.9998C78.5055 29.9998 78.5018 29.9998 78.4932 29.9998C77.9921 29.9998 62.1437 29.919 63.5938 20.9424C63.6033 20.8799 63.6137 20.8175 63.6251 20.7541C63.6469 20.6349 63.6726 20.5138 63.701 20.3908C63.7551 20.1583 63.8102 19.9267 63.8662 19.6942C63.9022 19.5462 63.9383 19.3982 63.9753 19.2512C64.0095 19.1148 64.0436 18.9783 64.0787 18.8409C64.112 18.7112 64.1452 18.5815 64.1793 18.4527C64.1803 18.4479 64.1822 18.4441 64.1831 18.4393C64.2467 18.1971 64.3122 17.955 64.3805 17.7138C64.4156 17.6869 64.4517 17.66 64.4868 17.6331C66.1571 16.3686 68.1073 14.6486 68.6235 13.1842C70.2017 8.71025 73.3382 11.2614 74.6127 12.5644C75.0179 12.9785 75.65 13.0612 76.1406 12.7566C76.8021 12.3453 77.7217 11.5516 78.6299 10.0363C79.3075 8.90627 80.7148 8.45946 81.8907 9.03311C83.7915 9.96133 86.9954 12.3367 92.2538 18.0847C92.4968 18.3509 92.7217 18.6122 92.9267 18.8698C92.9855 19.0975 93.0424 19.3262 93.0984 19.5549C93.1003 19.5597 93.1013 19.5645 93.1022 19.5693C93.1345 19.7019 93.1668 19.8345 93.1981 19.9671C93.2123 20.0276 93.2275 20.0872 93.2408 20.1477C93.2607 20.2285 93.2787 20.3101 93.2977 20.3908C95.4975 29.9162 79.0171 29.9998 78.5055 29.9998Z" fill="#8589EB"/>
<path opacity="0.15" d="M78.5055 30C78.5055 30 78.5018 30 78.4932 30C77.9921 30 62.1437 29.9193 63.5938 20.9426C63.6033 20.8802 63.6137 20.8177 63.6251 20.7543C63.6469 20.6351 63.6726 20.5141 63.701 20.3911C63.7551 20.1585 63.8102 19.9269 63.8662 19.6944C63.9022 19.5464 63.9383 19.3985 63.9753 19.2514C64.7374 19.0929 65.5715 19.1986 66.2007 20.0182C66.2634 20.0989 66.326 20.1787 66.3905 20.2565C66.7217 20.6563 67.0842 21.0108 67.4885 21.2837C67.777 21.4788 68.0864 21.6325 68.4214 21.7315C69.0193 21.9093 69.6988 21.9131 70.4807 21.671C71.4592 21.3692 72.5989 20.6822 73.9446 19.4667C77.9798 15.822 83.6511 18.4722 85.5045 20.9023C86.6661 22.4243 89.0898 22.0976 90.6775 21.6335C90.9613 21.5509 91.2412 21.4576 91.5136 21.3491C91.7736 21.2453 92.0279 21.129 92.2728 20.9945C92.3259 20.9657 92.3791 20.9359 92.4313 20.9051C92.5755 20.8206 92.716 20.7303 92.8536 20.6322C92.9798 20.5419 93.107 20.442 93.1791 20.3036C93.2057 20.2546 93.2237 20.2018 93.2408 20.148C93.2607 20.2287 93.2787 20.3103 93.2977 20.3911C95.4975 29.9164 79.0171 30 78.5055 30Z" fill="white"/>
<path opacity="0.15" d="M78.5055 30.0001C78.5055 30.0001 78.5018 30.0001 78.4932 30.0001C77.9921 30.0001 62.1437 29.9194 63.5938 20.9427C63.6033 20.8803 63.6137 20.8178 63.6251 20.7544C63.6469 20.6352 63.6726 20.5142 63.701 20.3912C63.7551 20.1586 63.8102 19.9271 63.8662 19.6945C63.9022 19.5465 63.9383 19.3986 63.9753 19.2516C64.0095 19.1151 64.0436 18.9787 64.0787 18.8412C64.112 18.7115 64.1452 18.5818 64.1793 18.453C64.1803 18.4482 64.1822 18.4444 64.1831 18.4396C64.2467 18.1975 64.3122 17.9553 64.3805 17.7141C64.3891 17.6815 64.3976 17.6488 64.4071 17.6161C64.4337 17.6219 64.4602 17.6276 64.4868 17.6334C64.8683 17.7228 65.2479 17.8967 65.6142 18.184C66.2007 18.6443 66.753 19.3947 67.22 20.5507C67.2987 20.7448 67.3756 20.9514 67.4487 21.1695C67.462 21.2079 67.4743 21.2454 67.4885 21.2838C67.9051 22.4744 68.5989 23.7226 69.7775 24.2367C69.8933 24.2876 70.0148 24.3308 70.1401 24.3664C71.6708 24.7997 73.4103 23.9542 74.5985 23.025C74.9809 22.7261 75.3349 22.3889 75.7363 22.1179C78.4173 20.3066 81.7388 23.0413 83.3502 25.039C83.4252 25.1322 83.4992 25.2264 83.5723 25.3205C83.8475 25.677 84.1303 25.9586 84.4188 26.1709C86.9593 28.0533 89.9031 24.6671 91.8391 21.6826C91.9909 21.4501 92.1352 21.2195 92.2728 20.9946C92.4863 20.6477 92.6828 20.3133 92.8612 20.0001C92.9371 19.8665 93.0092 19.7368 93.0785 19.6128C93.0861 19.5984 93.0946 19.584 93.1022 19.5696C93.1345 19.7022 93.1668 19.8348 93.1981 19.9674C93.2123 20.028 93.2275 20.0875 93.2408 20.1481C93.2607 20.2288 93.2787 20.3105 93.2977 20.3912C95.4975 29.9165 79.0171 30.0001 78.5055 30.0001Z" fill="white"/>
<path opacity="0.15" d="M78.5055 30C78.5055 30 78.5018 30 78.4932 30C77.9921 30 62.1437 29.9192 63.5938 20.9426C64.297 20.5256 65.3447 20.0749 66.3905 20.2565C66.6695 20.3055 66.9485 20.3987 67.22 20.5506C67.6451 20.7869 68.0541 21.1646 68.4214 21.7315C68.6302 22.0534 68.8257 22.4368 69.0031 22.8894C69.1948 23.3813 69.452 23.8464 69.7775 24.2365C70.2947 24.8573 70.9847 25.2878 71.8606 25.3368C73.2566 25.4146 74.5311 24.6718 75.6386 23.9079C78.1573 22.1716 80.303 25.3175 82.8586 25.9642C83.4015 26.1016 83.9215 26.166 84.4188 26.1708C87.2677 26.2006 89.3593 24.2634 90.5693 22.7231C90.9945 22.1822 91.3114 21.6902 91.5136 21.3491C91.6891 21.0531 91.7793 20.8715 91.7793 20.8715C91.7793 20.8715 92.1959 20.1633 92.8612 20C92.883 19.9932 92.9058 19.9884 92.9286 19.9846C93.0149 19.9683 93.1051 19.9625 93.1981 19.9673C93.2123 20.0278 93.2275 20.0874 93.2408 20.148C93.2607 20.2287 93.2787 20.3103 93.2977 20.3911C95.4975 29.9164 79.0171 30 78.5055 30Z" fill="white"/>
<path opacity="0.15" d="M78.5055 30.0001C78.5055 30.0001 78.5018 30.0001 78.4932 30.0001C77.9921 30.0001 62.1437 29.9193 63.5938 20.9427C63.6033 20.8802 63.6137 20.8178 63.6251 20.7544C63.6469 20.6352 63.6726 20.5141 63.701 20.3911C63.7551 20.1586 63.8102 19.927 63.8662 19.6945C63.9022 19.5465 63.9383 19.3985 63.9753 19.2515C64.0095 19.1151 64.0436 18.9786 64.0787 18.8412C64.112 18.7115 64.1452 18.5818 64.1793 18.453C64.1803 18.4482 64.1822 18.4444 64.1831 18.4396C64.65 18.306 65.1359 18.2099 65.6142 18.184C66.9239 18.1119 68.1737 18.5645 68.8133 20.199C69.136 21.0244 69.7206 21.451 70.4807 21.671C70.8936 21.7912 71.3576 21.8498 71.8606 21.8776C73.2566 21.9555 74.3888 20.9379 75.6386 20.4488C81.4351 18.1811 82.9592 21.844 85.421 22.7934C87.7204 23.6803 89.3878 23.4016 90.5693 22.7232C91.0799 22.4302 91.4993 22.0631 91.8391 21.6826C92.0725 21.4231 92.268 21.157 92.4313 20.9052C92.6571 20.5545 92.8204 20.2307 92.9286 19.9847C93.0016 19.8204 93.051 19.6916 93.0785 19.6128C93.087 19.5888 93.0937 19.5696 93.0984 19.5552C93.1003 19.56 93.1013 19.5648 93.1022 19.5696C93.1345 19.7022 93.1668 19.8348 93.1981 19.9674C93.2123 20.0279 93.2275 20.0875 93.2408 20.148C93.2607 20.2288 93.2787 20.3104 93.2977 20.3911C95.4975 29.9165 79.0171 30.0001 78.5055 30.0001Z" fill="white"/>
</g>
<path d="M107.384 20.128C106.776 20.128 106.243 20.112 105.784 20.08C105.336 20.048 104.888 20.0107 104.44 19.968V8.832C104.941 8.77867 105.432 8.74133 105.912 8.72C106.392 8.688 106.941 8.672 107.56 8.672C108.52 8.672 109.347 8.82133 110.04 9.12C110.744 9.41867 111.32 9.82933 111.768 10.352C112.227 10.8747 112.563 11.4827 112.776 12.176C113 12.8587 113.112 13.5947 113.112 14.384C113.112 15.1627 113 15.8987 112.776 16.592C112.552 17.2853 112.205 17.8987 111.736 18.432C111.277 18.9547 110.685 19.3707 109.96 19.68C109.245 19.9787 108.387 20.128 107.384 20.128ZM107.432 18.8C108.392 18.8 109.176 18.6133 109.784 18.24C110.392 17.8667 110.84 17.3493 111.128 16.688C111.416 16.016 111.56 15.248 111.56 14.384C111.56 13.616 111.416 12.896 111.128 12.224C110.84 11.552 110.397 11.0133 109.8 10.608C109.203 10.192 108.44 9.984 107.512 9.984C107.203 9.984 106.92 9.99467 106.664 10.016C106.408 10.0267 106.173 10.0427 105.96 10.064V18.72C106.184 18.752 106.419 18.7733 106.664 18.784C106.909 18.7947 107.165 18.8 107.432 18.8ZM122.53 20.192C121.741 20.192 121.032 20.0107 120.402 19.648C119.773 19.2747 119.277 18.7627 118.914 18.112C118.562 17.4507 118.386 16.6933 118.386 15.84C118.386 14.944 118.568 14.1707 118.93 13.52C119.293 12.8693 119.789 12.368 120.418 12.016C121.048 11.664 121.752 11.488 122.53 11.488C123.309 11.488 124.008 11.664 124.626 12.016C125.256 12.368 125.752 12.8693 126.114 13.52C126.488 14.16 126.674 14.9227 126.674 15.808C126.674 16.6933 126.493 17.4667 126.13 18.128C125.768 18.7787 125.272 19.2853 124.642 19.648C124.024 20.0107 123.32 20.192 122.53 20.192ZM122.53 18.912C123.373 18.912 124.029 18.6293 124.498 18.064C124.968 17.488 125.202 16.7467 125.202 15.84C125.202 15.2853 125.085 14.7787 124.85 14.32C124.616 13.8507 124.296 13.4773 123.89 13.2C123.496 12.912 123.042 12.768 122.53 12.768C121.688 12.768 121.032 13.0453 120.562 13.6C120.093 14.1547 119.858 14.8907 119.858 15.808C119.858 16.3627 119.976 16.88 120.21 17.36C120.445 17.8293 120.76 18.208 121.154 18.496C121.56 18.7733 122.018 18.912 122.53 18.912ZM135.789 20.192C134.999 20.192 134.306 20.0107 133.709 19.648C133.122 19.2747 132.669 18.7627 132.349 18.112C132.029 17.4507 131.869 16.6933 131.869 15.84C131.869 15.04 132.029 14.3093 132.349 13.648C132.679 12.9867 133.149 12.464 133.757 12.08C134.365 11.6853 135.079 11.488 135.901 11.488C136.37 11.488 136.781 11.5307 137.133 11.616C137.495 11.7013 137.842 11.824 138.173 11.984L137.741 13.2C137.442 13.0507 137.154 12.944 136.877 12.88C136.61 12.8053 136.311 12.768 135.981 12.768C135.234 12.768 134.605 13.04 134.093 13.584C133.591 14.1173 133.341 14.8587 133.341 15.808C133.341 16.384 133.447 16.9067 133.661 17.376C133.874 17.8453 134.167 18.2187 134.541 18.496C134.925 18.7733 135.373 18.912 135.885 18.912C136.29 18.912 136.637 18.8693 136.925 18.784C137.213 18.688 137.522 18.5547 137.853 18.384L138.301 19.6C137.97 19.7813 137.597 19.9253 137.181 20.032C136.775 20.1387 136.311 20.192 135.789 20.192Z" fill="#3F414E"/>
<path d="M1.44 20V8.8H3.456L8.4 18.112V8.8H9.84V20H7.856L2.88 10.752V20H1.44ZM19.1213 20.192C18.6413 20.192 18.1879 20.0907 17.7613 19.888C17.3346 19.6853 16.9879 19.36 16.7213 18.912C16.4546 18.4533 16.3213 17.8453 16.3213 17.088V11.68H17.7613V16.896C17.7613 17.5467 17.8999 18.048 18.1773 18.4C18.4546 18.7413 18.8599 18.912 19.3933 18.912C19.8306 18.912 20.2519 18.8267 20.6573 18.656C21.0733 18.4747 21.4413 18.2347 21.7613 17.936V11.68H23.2013V17.84C23.2013 18.2987 23.2973 18.6027 23.4893 18.752C23.6919 18.8907 23.9106 18.96 24.1453 18.96L23.8413 20.08C22.8493 20.08 22.2359 19.6853 22.0013 18.896C21.6279 19.28 21.1959 19.5947 20.7053 19.84C20.2146 20.0747 19.6866 20.192 19.1213 20.192ZM32.8095 20.192C32.0095 20.192 31.3748 19.9307 30.9055 19.408C30.4468 18.8747 30.2175 18.1173 30.2175 17.136V13.232H28.7775V11.984H30.2495L30.5535 9.36H31.6575V11.984H33.9615V13.232H31.6575V17.248C31.6575 17.8667 31.7855 18.2987 32.0415 18.544C32.3082 18.7893 32.6228 18.912 32.9855 18.912C33.2522 18.912 33.5028 18.8693 33.7375 18.784C33.9828 18.6987 34.2068 18.5973 34.4095 18.48L34.8095 19.632C34.5962 19.76 34.3082 19.8827 33.9455 20C33.5828 20.128 33.2042 20.192 32.8095 20.192ZM40.0969 20V11.68H41.4889V13.488C41.6275 13.136 41.8142 12.8107 42.0489 12.512C42.2835 12.2027 42.5769 11.9573 42.9289 11.776C43.2809 11.584 43.6915 11.488 44.1609 11.488C44.3209 11.488 44.4809 11.4987 44.6409 11.52C44.8009 11.5307 44.9342 11.552 45.0409 11.584L44.6089 13.072C44.4062 12.9867 44.1662 12.944 43.8889 12.944C43.4942 12.944 43.1155 13.056 42.7529 13.28C42.4009 13.504 42.1075 13.8507 41.8729 14.32C41.6489 14.7893 41.5369 15.3867 41.5369 16.112V20H40.0969ZM50.3275 20V11.68H51.7675V20H50.3275ZM51.0475 10.256C50.7702 10.256 50.5302 10.1547 50.3275 9.952C50.1355 9.74933 50.0395 9.51467 50.0395 9.248C50.0395 8.93867 50.1302 8.69333 50.3115 8.512C50.4928 8.33067 50.7382 8.24 51.0475 8.24C51.3248 8.24 51.5595 8.34133 51.7515 8.544C51.9542 8.736 52.0555 8.97067 52.0555 9.248C52.0555 9.54667 51.9648 9.792 51.7835 9.984C51.6022 10.1653 51.3568 10.256 51.0475 10.256Z" fill="#3F414E"/>
<defs>
<radialGradient id="paint0_radial_18_1415" cx="0" cy="0" r="1" gradientUnits="userSpaceOnUse" gradientTransform="translate(78.5 14.9998) scale(14.9075 15.0942)">
<stop offset="2.23767e-07" stop-color="#8485E0"/>
<stop offset="1" stop-color="#7680FC"/>
</radialGradient>
<clipPath id="clip0_18_1415">
<rect width="30" height="30" fill="white" transform="translate(63.5)"/>
</clipPath>
</defs>
</svg>
